M48
;Layer_Color=9474304
;FILE_FORMAT=2:4
INCH,TZ
;TYPE=PLATED
T1F00S00C0.0280
T2F00S00C0.0402
T3F00S00C0.0650
T4F00S00C0.1260
T5F00S00C0.1575
%
T01
X800Y5906
X10300Y14919
X16142Y21654
X15748Y24016
X1697Y23841
X2244Y25341
X2821Y26341
X-484Y25720
X-177Y24341
X-1335Y23136
X-2362Y24600
X-2416Y26378
X362Y21422
X-8858Y14919
X-19233Y17717
X-15757Y22152
X-14317Y25694
X-12598Y25341
X-13242Y27165
X-13740Y29351
X-14567Y29242
X-11919Y29214
X-10594Y30014
X-9752Y28441
X-7028Y30709
X-10811Y34803
X-12165Y34252
X-13732Y34807
X-14567Y32506
X-18463Y41841
X-2416Y37008
X-1404Y29506
X-3567Y29528
X-3150Y28632
X1575Y28112
X2818Y29116
X5606Y30014
X6059Y32677
X4425Y32667
X9331Y36220
X18701Y41339
T02
X-19286Y8573
X19272Y9768
X19252Y12195
Y14567
Y16929
X19272Y19291
Y21654
Y24016
X-19291Y24513
Y22451
Y26915
Y12939
Y29134
Y31506
Y33858
Y39360
X19291Y38573
Y36604
Y34636
Y32667
Y30699
Y28730
T03
X-9752Y40929
X-8661
X-7571
X-6480
X-7028Y41929
X-8118
X-9209
X-5937
X-4846
X-3756
X-2665
X-1575
X-484
X606
X1697
X2787
X3878
X4969
X6059
X7150
X8240
X9331
X8787Y40929
X7697
X6606
X5516
X4425
X3335
X2244
X1154
X63
X-1028
X-2118
X-3209
X-4299
X-5390
X9878
T04
X-12445Y42610
X12559
T05
X-14370Y3425
X14370
X6890Y21654
X-6890
Y37992
X6890
M30
