G04*
G04 #@! TF.GenerationSoftware,Altium Limited,Altium Designer,19.0.9 (268)*
G04*
G04 Layer_Color=65535*
%FSLAX42Y42*%
%MOMM*%
G71*
G01*
G75*
%ADD10C,0.20*%
%ADD11C,0.25*%
%ADD12R,2.10X0.50*%
D10*
X4220Y2998D02*
X4565D01*
X4220D02*
Y3198D01*
X4565D01*
Y2998D02*
Y3198D01*
X2268Y7069D02*
Y7414D01*
X2068Y7069D02*
X2268D01*
X2068D02*
Y7414D01*
X2268D01*
X2284Y7988D02*
X2629D01*
Y7788D02*
Y7988D01*
X2284Y7788D02*
X2629D01*
X2284D02*
Y7988D01*
X4220Y3803D02*
X4565D01*
Y3603D02*
Y3803D01*
X4220Y3603D02*
X4565D01*
X4220D02*
Y3803D01*
X4225Y5600D02*
X4570D01*
Y5400D02*
Y5600D01*
X4225Y5400D02*
X4570D01*
X4225D02*
Y5600D01*
Y6203D02*
X4570D01*
Y6003D02*
Y6203D01*
X4225Y6003D02*
X4570D01*
X4225D02*
Y6203D01*
X4220Y4400D02*
X4565D01*
Y4200D02*
Y4400D01*
X4220Y4200D02*
X4565D01*
X4220D02*
Y4400D01*
Y5000D02*
X4565D01*
Y4800D02*
Y5000D01*
X4220Y4800D02*
X4565D01*
X4220D02*
Y5000D01*
X2268Y8630D02*
Y8975D01*
X2068Y8630D02*
X2268D01*
X2068D02*
Y8975D01*
X2268D01*
X1639Y8430D02*
Y8775D01*
X1439Y8430D02*
X1639D01*
X1439D02*
Y8775D01*
X1639D01*
X1224Y8430D02*
Y8775D01*
X1024Y8430D02*
X1224D01*
X1024D02*
Y8775D01*
X1224D01*
X825Y8425D02*
Y8770D01*
X625Y8425D02*
X825D01*
X625D02*
Y8770D01*
X825D01*
X409Y8430D02*
Y8775D01*
X209Y8430D02*
X409D01*
X209D02*
Y8775D01*
X409D01*
X55Y7725D02*
Y8070D01*
X-145Y7725D02*
X55D01*
X-145D02*
Y8070D01*
X55D01*
X-6Y8425D02*
Y8770D01*
X-206Y8425D02*
X-6D01*
X-206D02*
Y8770D01*
X-6D01*
X-421Y8425D02*
Y8770D01*
X-621Y8425D02*
X-421D01*
X-621D02*
Y8770D01*
X-421D01*
X-806Y8425D02*
Y8770D01*
X-1006Y8425D02*
X-806D01*
X-1006D02*
Y8770D01*
X-806D01*
X-2651Y8357D02*
X-2306D01*
X-2651D02*
Y8557D01*
X-2306D01*
Y8357D02*
Y8557D01*
X-2190Y9055D02*
Y9400D01*
X-2390Y9055D02*
X-2190D01*
X-2390D02*
Y9400D01*
X-2190D01*
X-2590Y9053D02*
Y9398D01*
X-2790Y9053D02*
X-2590D01*
X-2790D02*
Y9398D01*
X-2590D01*
X-2990Y9053D02*
Y9398D01*
X-3190Y9053D02*
X-2990D01*
X-3190D02*
Y9398D01*
X-2990D01*
X-3390Y9050D02*
Y9395D01*
X-3590Y9050D02*
X-3390D01*
X-3590D02*
Y9395D01*
X-3390D01*
X-3790Y9055D02*
Y9400D01*
X-3990Y9055D02*
X-3790D01*
X-3990D02*
Y9400D01*
X-3790D01*
X-3812Y7153D02*
Y7305D01*
X-3795Y7340D02*
X-2805D01*
Y7660D01*
X-3795D02*
X-2805D01*
X-3795Y7340D02*
Y7660D01*
X2781Y8451D02*
X2934D01*
X2969Y7444D02*
Y8434D01*
Y7444D02*
X3289D01*
Y8434D01*
X2969D02*
X3289D01*
X-415Y7012D02*
X-263D01*
X-228Y6005D02*
Y6995D01*
Y6005D02*
X92D01*
Y6995D01*
X-228D02*
X92D01*
X-4205Y2160D02*
Y2680D01*
X-3995D01*
Y2160D02*
Y2680D01*
X-4205Y2160D02*
X-3995D01*
X940Y9600D02*
Y9800D01*
X1260D01*
Y9600D02*
Y9800D01*
X940Y9600D02*
X1260D01*
X396D02*
Y9800D01*
X716D01*
Y9600D02*
Y9800D01*
X396Y9600D02*
X716D01*
X-149D02*
Y9800D01*
X172D01*
Y9600D02*
Y9800D01*
X-149Y9600D02*
X172D01*
X-693D02*
Y9800D01*
X-373D01*
Y9600D02*
Y9800D01*
X-693Y9600D02*
X-373D01*
X-3300Y2560D02*
X-3100D01*
Y2240D02*
Y2560D01*
X-3300Y2240D02*
X-3100D01*
X-3300D02*
Y2560D01*
X-1102Y6832D02*
X-902D01*
X-1102D02*
Y7152D01*
X-902D01*
Y6832D02*
Y7152D01*
X-2676Y7141D02*
X-2476D01*
Y6821D02*
Y7141D01*
X-2676Y6821D02*
X-2476D01*
X-2676D02*
Y7141D01*
X-1156Y9600D02*
Y9800D01*
X-836D01*
Y9600D02*
Y9800D01*
X-1156Y9600D02*
X-836D01*
X2978Y7039D02*
Y7239D01*
X3298D01*
Y7039D02*
Y7239D01*
X2978Y7039D02*
X3298D01*
D11*
X-1275Y1072D02*
X-1173D01*
X-1224D01*
Y920D01*
X-1122D02*
Y1072D01*
X-1071Y1022D01*
X-1021Y1072D01*
Y920D01*
X-970Y1072D02*
Y920D01*
X-894D01*
X-868Y945D01*
Y1047D01*
X-894Y1072D01*
X-970D01*
X-665D02*
X-564D01*
X-614D01*
Y920D01*
X-437D02*
X-487D01*
X-513Y945D01*
Y996D01*
X-487Y1022D01*
X-437D01*
X-411Y996D01*
Y971D01*
X-513D01*
X-259Y1022D02*
X-335D01*
X-360Y996D01*
Y945D01*
X-335Y920D01*
X-259D01*
X-208Y1072D02*
Y920D01*
Y996D01*
X-183Y1022D01*
X-132D01*
X-107Y996D01*
Y920D01*
X-56D02*
Y1022D01*
X20D01*
X46Y996D01*
Y920D01*
X122D02*
X173D01*
X198Y945D01*
Y996D01*
X173Y1022D01*
X122D01*
X97Y996D01*
Y945D01*
X122Y920D01*
X249D02*
X300D01*
X274D01*
Y1072D01*
X249D01*
X401Y920D02*
X452D01*
X477Y945D01*
Y996D01*
X452Y1022D01*
X401D01*
X376Y996D01*
Y945D01*
X401Y920D01*
X579Y869D02*
X604D01*
X630Y895D01*
Y1022D01*
X554D01*
X528Y996D01*
Y945D01*
X554Y920D01*
X630D01*
X681D02*
X731D01*
X706D01*
Y1022D01*
X681D01*
X884Y920D02*
X833D01*
X808Y945D01*
Y996D01*
X833Y1022D01*
X884D01*
X909Y996D01*
Y971D01*
X808D01*
X960Y920D02*
X1036D01*
X1061Y945D01*
X1036Y971D01*
X985D01*
X960Y996D01*
X985Y1022D01*
X1061D01*
X-107Y625D02*
X-208D01*
X-107Y727D01*
Y752D01*
X-132Y778D01*
X-183D01*
X-208Y752D01*
X-56D02*
X-30Y778D01*
X20D01*
X46Y752D01*
Y651D01*
X20Y625D01*
X-30D01*
X-56Y651D01*
Y752D01*
X198Y625D02*
X97D01*
X198Y727D01*
Y752D01*
X173Y778D01*
X122D01*
X97Y752D01*
X249Y625D02*
X300D01*
X274D01*
Y778D01*
X249Y752D01*
X-1242Y2196D02*
X-1267Y2222D01*
X-1318D01*
X-1344Y2196D01*
Y2095D01*
X-1318Y2069D01*
X-1267D01*
X-1242Y2095D01*
X-1166Y2069D02*
X-1115D01*
X-1090Y2095D01*
Y2145D01*
X-1115Y2171D01*
X-1166D01*
X-1191Y2145D01*
Y2095D01*
X-1166Y2069D01*
X-1039D02*
Y2171D01*
X-963D01*
X-937Y2145D01*
Y2069D01*
X-861Y2196D02*
Y2171D01*
X-887D01*
X-836D01*
X-861D01*
Y2095D01*
X-836Y2069D01*
X-760Y2171D02*
Y2069D01*
Y2120D01*
X-734Y2145D01*
X-709Y2171D01*
X-683D01*
X-582Y2069D02*
X-531D01*
X-506Y2095D01*
Y2145D01*
X-531Y2171D01*
X-582D01*
X-607Y2145D01*
Y2095D01*
X-582Y2069D01*
X-455D02*
X-404D01*
X-429D01*
Y2222D01*
X-455D01*
X-176D02*
Y2069D01*
X-99D01*
X-74Y2095D01*
Y2120D01*
X-99Y2145D01*
X-176D01*
X-99D01*
X-74Y2171D01*
Y2196D01*
X-99Y2222D01*
X-176D01*
X2Y2069D02*
X53D01*
X78Y2095D01*
Y2145D01*
X53Y2171D01*
X2D01*
X-23Y2145D01*
Y2095D01*
X2Y2069D01*
X129Y2171D02*
X231Y2069D01*
X180Y2120D01*
X231Y2171D01*
X129Y2069D01*
X434D02*
Y2222D01*
X510D01*
X535Y2196D01*
Y2145D01*
X510Y2120D01*
X434D01*
X485D02*
X535Y2069D01*
X688Y2196D02*
X662Y2222D01*
X612D01*
X586Y2196D01*
Y2171D01*
X612Y2145D01*
X662D01*
X688Y2120D01*
Y2095D01*
X662Y2069D01*
X612D01*
X586Y2095D01*
X815Y2069D02*
Y2222D01*
X739Y2145D01*
X840D01*
X992Y2069D02*
X891D01*
X992Y2171D01*
Y2196D01*
X967Y2222D01*
X916D01*
X891Y2196D01*
X1145Y2069D02*
X1043D01*
X1145Y2171D01*
Y2196D01*
X1119Y2222D01*
X1069D01*
X1043Y2196D01*
X-734Y1825D02*
Y1978D01*
X-658D01*
X-633Y1952D01*
Y1902D01*
X-658Y1876D01*
X-734D01*
X-582Y1978D02*
X-480D01*
X-531D01*
Y1825D01*
X-429D02*
Y1978D01*
X-379Y1927D01*
X-328Y1978D01*
Y1825D01*
X-23Y1978D02*
X-74Y1952D01*
X-125Y1902D01*
Y1851D01*
X-99Y1825D01*
X-49D01*
X-23Y1851D01*
Y1876D01*
X-49Y1902D01*
X-125D01*
X28Y1952D02*
X53Y1978D01*
X104D01*
X129Y1952D01*
Y1927D01*
X104Y1902D01*
X78D01*
X104D01*
X129Y1876D01*
Y1851D01*
X104Y1825D01*
X53D01*
X28Y1851D01*
X180Y1952D02*
X205Y1978D01*
X256D01*
X281Y1952D01*
Y1927D01*
X256Y1902D01*
X281Y1876D01*
Y1851D01*
X256Y1825D01*
X205D01*
X180Y1851D01*
Y1876D01*
X205Y1902D01*
X180Y1927D01*
Y1952D01*
X205Y1902D02*
X256D01*
X332Y1825D02*
X383D01*
X358D01*
Y1978D01*
X332Y1952D01*
X-5200Y1476D02*
X-5098D01*
X-5200Y3276D02*
X-5098D01*
X-5149Y3327D02*
Y3225D01*
X-5352Y1902D02*
Y1800D01*
X-5276D01*
X-5302Y1851D01*
Y1876D01*
X-5276Y1902D01*
X-5225D01*
X-5200Y1876D01*
Y1825D01*
X-5225Y1800D01*
X-5352Y1952D02*
X-5251D01*
X-5200Y2003D01*
X-5251Y2054D01*
X-5352D01*
X-5200Y2257D02*
Y2333D01*
X-5225Y2359D01*
X-5251Y2333D01*
Y2282D01*
X-5276Y2257D01*
X-5302Y2282D01*
Y2359D01*
Y2409D02*
X-5225D01*
X-5200Y2435D01*
Y2511D01*
X-5302D01*
X-5149Y2562D02*
X-5302D01*
Y2638D01*
X-5276Y2663D01*
X-5225D01*
X-5200Y2638D01*
Y2562D01*
X-5149Y2714D02*
X-5302D01*
Y2790D01*
X-5276Y2816D01*
X-5225D01*
X-5200Y2790D01*
Y2714D01*
Y2866D02*
Y2917D01*
Y2892D01*
X-5352D01*
Y2866D01*
X-5302Y2993D02*
X-5225D01*
X-5200Y3019D01*
Y3095D01*
X-5175D01*
X-5149Y3070D01*
Y3044D01*
X-5200Y3095D02*
X-5302D01*
X4810Y2666D02*
Y2819D01*
X4886D01*
X4911Y2793D01*
Y2742D01*
X4886Y2717D01*
X4810D01*
X5064Y2666D02*
X4962D01*
X5064Y2768D01*
Y2793D01*
X5038Y2819D01*
X4988D01*
X4962Y2793D01*
X5216Y2666D02*
X5115D01*
X5216Y2768D01*
Y2793D01*
X5191Y2819D01*
X5140D01*
X5115Y2793D01*
X-4985Y8787D02*
Y8939D01*
X-4909D01*
X-4884Y8914D01*
Y8863D01*
X-4909Y8837D01*
X-4985D01*
X-4833Y8787D02*
X-4782D01*
X-4807D01*
Y8939D01*
X-4833Y8914D01*
X-4630Y8787D02*
Y8939D01*
X-4706Y8863D01*
X-4604D01*
X-4985Y7587D02*
Y7739D01*
X-4909D01*
X-4884Y7714D01*
Y7663D01*
X-4909Y7637D01*
X-4985D01*
X-4833Y7587D02*
X-4782D01*
X-4807D01*
Y7739D01*
X-4833Y7714D01*
X-4604Y7587D02*
X-4706D01*
X-4604Y7688D01*
Y7714D01*
X-4630Y7739D01*
X-4680D01*
X-4706Y7714D01*
X-4985Y6413D02*
Y6565D01*
X-4909D01*
X-4884Y6540D01*
Y6489D01*
X-4909Y6464D01*
X-4985D01*
X-4833Y6413D02*
X-4782D01*
X-4807D01*
Y6565D01*
X-4833Y6540D01*
X-4706D02*
X-4680Y6565D01*
X-4630D01*
X-4604Y6540D01*
Y6438D01*
X-4630Y6413D01*
X-4680D01*
X-4706Y6438D01*
Y6540D01*
X3158Y6963D02*
X3133Y6989D01*
X3082D01*
X3057Y6963D01*
Y6862D01*
X3082Y6836D01*
X3133D01*
X3158Y6862D01*
X3209Y6836D02*
X3260D01*
X3235D01*
Y6989D01*
X3209Y6963D01*
X1678Y7477D02*
Y7629D01*
X1754D01*
X1780Y7604D01*
Y7553D01*
X1754Y7528D01*
X1678D01*
X1729D02*
X1780Y7477D01*
X1932D02*
X1830D01*
X1932Y7579D01*
Y7604D01*
X1907Y7629D01*
X1856D01*
X1830Y7604D01*
X1983D02*
X2008Y7629D01*
X2059D01*
X2084Y7604D01*
Y7579D01*
X2059Y7553D01*
X2033D01*
X2059D01*
X2084Y7528D01*
Y7502D01*
X2059Y7477D01*
X2008D01*
X1983Y7502D01*
X4262Y3326D02*
Y3478D01*
X4338D01*
X4363Y3453D01*
Y3402D01*
X4338Y3377D01*
X4262D01*
X4312D02*
X4363Y3326D01*
X4516D02*
X4414D01*
X4516Y3427D01*
Y3453D01*
X4490Y3478D01*
X4439D01*
X4414Y3453D01*
X4642Y3326D02*
Y3478D01*
X4566Y3402D01*
X4668D01*
X4805Y3283D02*
Y3436D01*
X4881D01*
X4906Y3410D01*
Y3360D01*
X4881Y3334D01*
X4805D01*
X5059Y3283D02*
X4957D01*
X5059Y3385D01*
Y3410D01*
X5033Y3436D01*
X4983D01*
X4957Y3410D01*
X5109D02*
X5135Y3436D01*
X5186D01*
X5211Y3410D01*
Y3309D01*
X5186Y3283D01*
X5135D01*
X5109Y3309D01*
Y3410D01*
X-4985Y1683D02*
Y1836D01*
X-4909D01*
X-4883Y1810D01*
Y1759D01*
X-4909Y1734D01*
X-4985D01*
X-4731Y1683D02*
X-4833D01*
X-4731Y1785D01*
Y1810D01*
X-4757Y1836D01*
X-4807D01*
X-4833Y1810D01*
X-4985Y3474D02*
Y3626D01*
X-4909D01*
X-4883Y3601D01*
Y3550D01*
X-4909Y3525D01*
X-4985D01*
X-4833Y3474D02*
X-4782D01*
X-4807D01*
Y3626D01*
X-4833Y3601D01*
X-4500Y2452D02*
Y2300D01*
X-4424D01*
X-4398Y2325D01*
Y2427D01*
X-4424Y2452D01*
X-4500D01*
X-4348Y2300D02*
X-4297D01*
X-4322D01*
Y2452D01*
X-4348Y2427D01*
X-3578Y2467D02*
X-3604Y2492D01*
X-3655D01*
X-3680Y2467D01*
Y2365D01*
X-3655Y2340D01*
X-3604D01*
X-3578Y2365D01*
X-3426Y2492D02*
X-3528D01*
Y2416D01*
X-3477Y2442D01*
X-3451D01*
X-3426Y2416D01*
Y2365D01*
X-3451Y2340D01*
X-3502D01*
X-3528Y2365D01*
X2168Y8053D02*
Y8205D01*
X2244D01*
X2269Y8179D01*
Y8129D01*
X2244Y8103D01*
X2168D01*
X2219D02*
X2269Y8053D01*
X2422D02*
X2320D01*
X2422Y8154D01*
Y8179D01*
X2396Y8205D01*
X2346D01*
X2320Y8179D01*
X2574Y8053D02*
X2473D01*
X2574Y8154D01*
Y8179D01*
X2549Y8205D01*
X2498D01*
X2473Y8179D01*
X4207Y3861D02*
Y4014D01*
X4284D01*
X4309Y3988D01*
Y3937D01*
X4284Y3912D01*
X4207D01*
X4258D02*
X4309Y3861D01*
X4461D02*
X4360D01*
X4461Y3963D01*
Y3988D01*
X4436Y4014D01*
X4385D01*
X4360Y3988D01*
X4512Y3861D02*
X4563D01*
X4537D01*
Y4014D01*
X4512Y3988D01*
X4212Y5659D02*
Y5811D01*
X4289D01*
X4314Y5786D01*
Y5735D01*
X4289Y5710D01*
X4212D01*
X4263D02*
X4314Y5659D01*
X4466D02*
X4365D01*
X4466Y5760D01*
Y5786D01*
X4441Y5811D01*
X4390D01*
X4365Y5786D01*
X4517D02*
X4542Y5811D01*
X4593D01*
X4619Y5786D01*
Y5684D01*
X4593Y5659D01*
X4542D01*
X4517Y5684D01*
Y5786D01*
X4212Y6261D02*
Y6414D01*
X4289D01*
X4314Y6388D01*
Y6337D01*
X4289Y6312D01*
X4212D01*
X4263D02*
X4314Y6261D01*
X4365D02*
X4416D01*
X4390D01*
Y6414D01*
X4365Y6388D01*
X4492Y6287D02*
X4517Y6261D01*
X4568D01*
X4593Y6287D01*
Y6388D01*
X4568Y6414D01*
X4517D01*
X4492Y6388D01*
Y6363D01*
X4517Y6337D01*
X4593D01*
X4207Y4459D02*
Y4611D01*
X4284D01*
X4309Y4586D01*
Y4535D01*
X4284Y4510D01*
X4207D01*
X4258D02*
X4309Y4459D01*
X4360D02*
X4411D01*
X4385D01*
Y4611D01*
X4360Y4586D01*
X4487D02*
X4512Y4611D01*
X4563D01*
X4588Y4586D01*
Y4560D01*
X4563Y4535D01*
X4588Y4510D01*
Y4484D01*
X4563Y4459D01*
X4512D01*
X4487Y4484D01*
Y4510D01*
X4512Y4535D01*
X4487Y4560D01*
Y4586D01*
X4512Y4535D02*
X4563D01*
X4207Y5059D02*
Y5211D01*
X4284D01*
X4309Y5186D01*
Y5135D01*
X4284Y5110D01*
X4207D01*
X4258D02*
X4309Y5059D01*
X4360D02*
X4411D01*
X4385D01*
Y5211D01*
X4360Y5186D01*
X4487Y5211D02*
X4588D01*
Y5186D01*
X4487Y5084D01*
Y5059D01*
X2377Y8800D02*
Y8952D01*
X2454D01*
X2479Y8927D01*
Y8876D01*
X2454Y8851D01*
X2377D01*
X2428D02*
X2479Y8800D01*
X2530D02*
X2581D01*
X2555D01*
Y8952D01*
X2530Y8927D01*
X2758Y8952D02*
X2657D01*
Y8876D01*
X2708Y8902D01*
X2733D01*
X2758Y8876D01*
Y8825D01*
X2733Y8800D01*
X2682D01*
X2657Y8825D01*
X1500Y8866D02*
Y9018D01*
X1576D01*
X1602Y8993D01*
Y8942D01*
X1576Y8917D01*
X1500D01*
X1551D02*
X1602Y8866D01*
X1652D02*
X1703D01*
X1678D01*
Y9018D01*
X1652Y8993D01*
X1855Y8866D02*
Y9018D01*
X1779Y8942D01*
X1881D01*
X985Y8866D02*
Y9018D01*
X1061D01*
X1087Y8993D01*
Y8942D01*
X1061Y8917D01*
X985D01*
X1036D02*
X1087Y8866D01*
X1137D02*
X1188D01*
X1163D01*
Y9018D01*
X1137Y8993D01*
X1264D02*
X1290Y9018D01*
X1340D01*
X1366Y8993D01*
Y8967D01*
X1340Y8942D01*
X1315D01*
X1340D01*
X1366Y8917D01*
Y8891D01*
X1340Y8866D01*
X1290D01*
X1264Y8891D01*
X500Y8866D02*
Y9018D01*
X576D01*
X602Y8993D01*
Y8942D01*
X576Y8917D01*
X500D01*
X551D02*
X602Y8866D01*
X652D02*
X703D01*
X678D01*
Y9018D01*
X652Y8993D01*
X881Y8866D02*
X779D01*
X881Y8967D01*
Y8993D01*
X855Y9018D01*
X805D01*
X779Y8993D01*
X100Y8866D02*
Y9018D01*
X176D01*
X202Y8993D01*
Y8942D01*
X176Y8917D01*
X100D01*
X151D02*
X202Y8866D01*
X252D02*
X303D01*
X278D01*
Y9018D01*
X252Y8993D01*
X379Y8866D02*
X430D01*
X405D01*
Y9018D01*
X379Y8993D01*
X-200Y7749D02*
X-352D01*
Y7825D01*
X-327Y7850D01*
X-276D01*
X-251Y7825D01*
Y7749D01*
Y7799D02*
X-200Y7850D01*
Y7901D02*
Y7952D01*
Y7926D01*
X-352D01*
X-327Y7901D01*
Y8028D02*
X-352Y8053D01*
Y8104D01*
X-327Y8129D01*
X-225D01*
X-200Y8104D01*
Y8053D01*
X-225Y8028D01*
X-327D01*
X-300Y8866D02*
Y9018D01*
X-224D01*
X-198Y8993D01*
Y8942D01*
X-224Y8917D01*
X-300D01*
X-249D02*
X-198Y8866D01*
X-148Y8891D02*
X-122Y8866D01*
X-71D01*
X-46Y8891D01*
Y8993D01*
X-71Y9018D01*
X-122D01*
X-148Y8993D01*
Y8967D01*
X-122Y8942D01*
X-46D01*
X-708Y8866D02*
Y9018D01*
X-632D01*
X-607Y8993D01*
Y8942D01*
X-632Y8917D01*
X-708D01*
X-658D02*
X-607Y8866D01*
X-556Y8993D02*
X-531Y9018D01*
X-480D01*
X-455Y8993D01*
Y8967D01*
X-480Y8942D01*
X-455Y8917D01*
Y8891D01*
X-480Y8866D01*
X-531D01*
X-556Y8891D01*
Y8917D01*
X-531Y8942D01*
X-556Y8967D01*
Y8993D01*
X-531Y8942D02*
X-480D01*
X-1122Y8866D02*
Y9018D01*
X-1046D01*
X-1020Y8993D01*
Y8942D01*
X-1046Y8917D01*
X-1122D01*
X-1071D02*
X-1020Y8866D01*
X-970Y9018D02*
X-868D01*
Y8993D01*
X-970Y8891D01*
Y8866D01*
X-2608Y8686D02*
Y8838D01*
X-2532D01*
X-2507Y8813D01*
Y8762D01*
X-2532Y8736D01*
X-2608D01*
X-2557D02*
X-2507Y8686D01*
X-2354Y8838D02*
X-2405Y8813D01*
X-2456Y8762D01*
Y8711D01*
X-2431Y8686D01*
X-2380D01*
X-2354Y8711D01*
Y8736D01*
X-2380Y8762D01*
X-2456D01*
X-2418Y9513D02*
Y9666D01*
X-2342D01*
X-2317Y9640D01*
Y9590D01*
X-2342Y9564D01*
X-2418D01*
X-2367D02*
X-2317Y9513D01*
X-2164Y9666D02*
X-2266D01*
Y9590D01*
X-2215Y9615D01*
X-2190D01*
X-2164Y9590D01*
Y9539D01*
X-2190Y9513D01*
X-2240D01*
X-2266Y9539D01*
X-2818Y9511D02*
Y9663D01*
X-2742D01*
X-2716Y9638D01*
Y9587D01*
X-2742Y9562D01*
X-2818D01*
X-2767D02*
X-2716Y9511D01*
X-2589D02*
Y9663D01*
X-2666Y9587D01*
X-2564D01*
X-3217Y9512D02*
Y9664D01*
X-3141D01*
X-3115Y9639D01*
Y9588D01*
X-3141Y9562D01*
X-3217D01*
X-3166D02*
X-3115Y9512D01*
X-3065Y9639D02*
X-3039Y9664D01*
X-2988D01*
X-2963Y9639D01*
Y9613D01*
X-2988Y9588D01*
X-3014D01*
X-2988D01*
X-2963Y9562D01*
Y9537D01*
X-2988Y9512D01*
X-3039D01*
X-3065Y9537D01*
X-3618Y9508D02*
Y9661D01*
X-3541D01*
X-3516Y9635D01*
Y9584D01*
X-3541Y9559D01*
X-3618D01*
X-3567D02*
X-3516Y9508D01*
X-3364D02*
X-3465D01*
X-3364Y9610D01*
Y9635D01*
X-3389Y9661D01*
X-3440D01*
X-3465Y9635D01*
X-4017Y9515D02*
Y9667D01*
X-3941D01*
X-3916Y9642D01*
Y9591D01*
X-3941Y9566D01*
X-4017D01*
X-3967D02*
X-3916Y9515D01*
X-3865D02*
X-3814D01*
X-3840D01*
Y9667D01*
X-3865Y9642D01*
X-4986Y10183D02*
Y10336D01*
X-4910D01*
X-4884Y10310D01*
Y10259D01*
X-4910Y10234D01*
X-4986D01*
X-4732Y10183D02*
X-4834D01*
X-4732Y10285D01*
Y10310D01*
X-4757Y10336D01*
X-4808D01*
X-4834Y10310D01*
X-4681Y10183D02*
X-4630D01*
X-4656D01*
Y10336D01*
X-4681Y10310D01*
X4804Y3887D02*
Y4039D01*
X4880D01*
X4906Y4014D01*
Y3963D01*
X4880Y3938D01*
X4804D01*
X4956Y3887D02*
X5007D01*
X4982D01*
Y4039D01*
X4956Y4014D01*
X5083Y3912D02*
X5109Y3887D01*
X5159D01*
X5185Y3912D01*
Y4014D01*
X5159Y4039D01*
X5109D01*
X5083Y4014D01*
Y3989D01*
X5109Y3963D01*
X5185D01*
X4814Y7485D02*
Y7637D01*
X4890D01*
X4916Y7612D01*
Y7561D01*
X4890Y7535D01*
X4814D01*
X4966Y7612D02*
X4992Y7637D01*
X5043D01*
X5068Y7612D01*
Y7586D01*
X5043Y7561D01*
X5068Y7535D01*
Y7510D01*
X5043Y7485D01*
X4992D01*
X4966Y7510D01*
Y7535D01*
X4992Y7561D01*
X4966Y7586D01*
Y7612D01*
X4992Y7561D02*
X5043D01*
X4814Y7985D02*
Y8137D01*
X4890D01*
X4916Y8112D01*
Y8061D01*
X4890Y8036D01*
X4814D01*
X4966Y8137D02*
X5068D01*
Y8112D01*
X4966Y8010D01*
Y7985D01*
X4814Y8483D02*
Y8635D01*
X4890D01*
X4916Y8610D01*
Y8559D01*
X4890Y8534D01*
X4814D01*
X5068Y8635D02*
X5017Y8610D01*
X4966Y8559D01*
Y8508D01*
X4992Y8483D01*
X5043D01*
X5068Y8508D01*
Y8534D01*
X5043Y8559D01*
X4966D01*
X4814Y8983D02*
Y9136D01*
X4890D01*
X4916Y9110D01*
Y9059D01*
X4890Y9034D01*
X4814D01*
X5068Y9136D02*
X4966D01*
Y9059D01*
X5017Y9085D01*
X5043D01*
X5068Y9059D01*
Y9009D01*
X5043Y8983D01*
X4992D01*
X4966Y9009D01*
X4800Y9500D02*
Y9652D01*
X4876D01*
X4902Y9627D01*
Y9576D01*
X4876Y9551D01*
X4800D01*
X5029Y9500D02*
Y9652D01*
X4952Y9576D01*
X5054D01*
X4814Y9984D02*
Y10136D01*
X4890D01*
X4916Y10111D01*
Y10060D01*
X4890Y10035D01*
X4814D01*
X4966Y10111D02*
X4992Y10136D01*
X5043D01*
X5068Y10111D01*
Y10086D01*
X5043Y10060D01*
X5017D01*
X5043D01*
X5068Y10035D01*
Y10009D01*
X5043Y9984D01*
X4992D01*
X4966Y10009D01*
X4804Y4487D02*
Y4639D01*
X4880D01*
X4906Y4613D01*
Y4563D01*
X4880Y4537D01*
X4804D01*
X4956Y4487D02*
X5007D01*
X4982D01*
Y4639D01*
X4956Y4613D01*
X5083D02*
X5109Y4639D01*
X5159D01*
X5185Y4613D01*
Y4588D01*
X5159Y4563D01*
X5185Y4537D01*
Y4512D01*
X5159Y4487D01*
X5109D01*
X5083Y4512D01*
Y4537D01*
X5109Y4563D01*
X5083Y4588D01*
Y4613D01*
X5109Y4563D02*
X5159D01*
X4809Y5088D02*
Y5240D01*
X4885D01*
X4911Y5215D01*
Y5164D01*
X4885Y5138D01*
X4809D01*
X4961Y5088D02*
X5012D01*
X4987D01*
Y5240D01*
X4961Y5215D01*
X5088Y5240D02*
X5190D01*
Y5215D01*
X5088Y5113D01*
Y5088D01*
X4809Y5686D02*
Y5838D01*
X4885D01*
X4911Y5813D01*
Y5762D01*
X4885Y5736D01*
X4809D01*
X4961Y5686D02*
X5012D01*
X4987D01*
Y5838D01*
X4961Y5813D01*
X5190Y5838D02*
X5139Y5813D01*
X5088Y5762D01*
Y5711D01*
X5114Y5686D01*
X5164D01*
X5190Y5711D01*
Y5736D01*
X5164Y5762D01*
X5088D01*
X4809Y6285D02*
Y6437D01*
X4885D01*
X4911Y6412D01*
Y6361D01*
X4885Y6336D01*
X4809D01*
X4961Y6285D02*
X5012D01*
X4987D01*
Y6437D01*
X4961Y6412D01*
X5190Y6437D02*
X5088D01*
Y6361D01*
X5139Y6387D01*
X5164D01*
X5190Y6361D01*
Y6310D01*
X5164Y6285D01*
X5114D01*
X5088Y6310D01*
X-4986Y8189D02*
Y8342D01*
X-4910D01*
X-4884Y8316D01*
Y8266D01*
X-4910Y8240D01*
X-4986D01*
X-4834Y8189D02*
X-4783D01*
X-4808D01*
Y8342D01*
X-4834Y8316D01*
X-4707D02*
X-4681Y8342D01*
X-4630D01*
X-4605Y8316D01*
Y8291D01*
X-4630Y8266D01*
X-4656D01*
X-4630D01*
X-4605Y8240D01*
Y8215D01*
X-4630Y8189D01*
X-4681D01*
X-4707Y8215D01*
X-4986Y7023D02*
Y7175D01*
X-4910D01*
X-4884Y7150D01*
Y7099D01*
X-4910Y7074D01*
X-4986D01*
X-4834Y7023D02*
X-4783D01*
X-4808D01*
Y7175D01*
X-4834Y7150D01*
X-4707Y7023D02*
X-4656D01*
X-4681D01*
Y7175D01*
X-4707Y7150D01*
X-4986Y5889D02*
Y6041D01*
X-4910D01*
X-4884Y6016D01*
Y5965D01*
X-4910Y5940D01*
X-4986D01*
X-4834Y5914D02*
X-4808Y5889D01*
X-4757D01*
X-4732Y5914D01*
Y6016D01*
X-4757Y6041D01*
X-4808D01*
X-4834Y6016D01*
Y5990D01*
X-4808Y5965D01*
X-4732D01*
X-3802Y8105D02*
X-3751D01*
X-3777D01*
Y7952D01*
X-3802D01*
X-3751D01*
X-3574Y8079D02*
X-3599Y8105D01*
X-3650D01*
X-3675Y8079D01*
Y7978D01*
X-3650Y7952D01*
X-3599D01*
X-3574Y7978D01*
X-3523Y8079D02*
X-3497Y8105D01*
X-3447D01*
X-3421Y8079D01*
Y8054D01*
X-3447Y8028D01*
X-3472D01*
X-3447D01*
X-3421Y8003D01*
Y7978D01*
X-3447Y7952D01*
X-3497D01*
X-3523Y7978D01*
X2780Y8696D02*
X2831D01*
X2805D01*
Y8543D01*
X2780D01*
X2831D01*
X3008Y8670D02*
X2983Y8696D01*
X2932D01*
X2907Y8670D01*
Y8569D01*
X2932Y8543D01*
X2983D01*
X3008Y8569D01*
X3161Y8543D02*
X3059D01*
X3161Y8645D01*
Y8670D01*
X3135Y8696D01*
X3085D01*
X3059Y8670D01*
X-417Y7256D02*
X-366D01*
X-392D01*
Y7103D01*
X-417D01*
X-366D01*
X-189Y7230D02*
X-214Y7256D01*
X-265D01*
X-290Y7230D01*
Y7129D01*
X-265Y7103D01*
X-214D01*
X-189Y7129D01*
X-138Y7103D02*
X-87D01*
X-113D01*
Y7256D01*
X-138Y7230D01*
X1077Y9994D02*
X1051Y10020D01*
X1001D01*
X975Y9994D01*
Y9893D01*
X1001Y9867D01*
X1051D01*
X1077Y9893D01*
X1128D02*
X1153Y9867D01*
X1204D01*
X1229Y9893D01*
Y9994D01*
X1204Y10020D01*
X1153D01*
X1128Y9994D01*
Y9969D01*
X1153Y9944D01*
X1229D01*
X534Y9994D02*
X509Y10020D01*
X458D01*
X433Y9994D01*
Y9893D01*
X458Y9867D01*
X509D01*
X534Y9893D01*
X585Y9994D02*
X610Y10020D01*
X661D01*
X687Y9994D01*
Y9969D01*
X661Y9944D01*
X687Y9918D01*
Y9893D01*
X661Y9867D01*
X610D01*
X585Y9893D01*
Y9918D01*
X610Y9944D01*
X585Y9969D01*
Y9994D01*
X610Y9944D02*
X661D01*
X-11Y9993D02*
X-37Y10019D01*
X-88D01*
X-113Y9993D01*
Y9892D01*
X-88Y9866D01*
X-37D01*
X-11Y9892D01*
X39Y10019D02*
X141D01*
Y9993D01*
X39Y9892D01*
Y9866D01*
X-555Y9994D02*
X-581Y10020D01*
X-632D01*
X-657Y9994D01*
Y9893D01*
X-632Y9867D01*
X-581D01*
X-555Y9893D01*
X-403Y10020D02*
X-454Y9994D01*
X-505Y9944D01*
Y9893D01*
X-479Y9867D01*
X-429D01*
X-403Y9893D01*
Y9918D01*
X-429Y9944D01*
X-505D01*
X-968Y7346D02*
X-993Y7371D01*
X-1044D01*
X-1069Y7346D01*
Y7244D01*
X-1044Y7219D01*
X-993D01*
X-968Y7244D01*
X-841Y7219D02*
Y7371D01*
X-917Y7295D01*
X-815D01*
X-2542Y7335D02*
X-2567Y7360D01*
X-2618D01*
X-2643Y7335D01*
Y7233D01*
X-2618Y7208D01*
X-2567D01*
X-2542Y7233D01*
X-2491Y7335D02*
X-2465Y7360D01*
X-2415D01*
X-2389Y7335D01*
Y7309D01*
X-2415Y7284D01*
X-2440D01*
X-2415D01*
X-2389Y7259D01*
Y7233D01*
X-2415Y7208D01*
X-2465D01*
X-2491Y7233D01*
X-1018Y9993D02*
X-1044Y10019D01*
X-1095D01*
X-1120Y9993D01*
Y9892D01*
X-1095Y9866D01*
X-1044D01*
X-1018Y9892D01*
X-866Y9866D02*
X-968D01*
X-866Y9968D01*
Y9993D01*
X-891Y10019D01*
X-942D01*
X-968Y9993D01*
X-3898Y10548D02*
X-3949D01*
X-3924D01*
Y10421D01*
X-3949Y10396D01*
X-3975D01*
X-4000Y10421D01*
X-3848Y10396D02*
X-3797D01*
X-3822D01*
Y10548D01*
X-3848Y10523D01*
D12*
X-4100Y2655D02*
D03*
M02*
