M48
;Layer_Color=9474304
;FILE_FORMAT=2:5
INCH,LZ
;TYPE=PLATED
T1F00S00C0.02800
T2F00S00C0.04213
T3F00S00C0.06496
T4F00S00C0.12598
T5F00S00C0.15748
%
T01
X-019685Y0019685
X-0059055Y0098425
X003937
X019685Y0019685
X0161417Y0216535
X015748Y0240158
X0016969Y0238405
X0022441Y0253405
X-0001772Y0243406
X-0023622Y0246004
X-0024163Y0263779
X-0039449Y0263669
X-0059055Y0177165
X003937
X-019685
X-0125984Y0253405
X-0132421Y0271654
X-0141732
X-0145669Y0295651
X-0125984
X-0114173
X-0111949Y0271654
X-009752Y0284411
X-0129921Y0315059
Y0331949
X-0145669Y0325059
X-0137795Y0350394
X-0122047
X-0106299
X-019685Y0413386
X-0024163Y0370079
X-0014043Y0295059
X-0035669Y0295276
X-0031496Y0286321
X-0059055Y0295276
X0015748Y028112
X003937Y0295276
X0044252Y0326673
X0060591Y0326772
X0093307Y0362205
X0106299Y028126
X019685Y0413386
T02
X-0192913Y0058957
X0192717Y0097677
X019252Y0121949
Y0145669
Y0169291
X0192717Y0192913
Y0216535
Y0240158
X-0192913Y024513
Y0224508
Y0269153
Y012939
Y0291339
Y0315059
Y0338583
Y0393602
X0192913Y0385728
Y0366043
Y0346358
Y0326673
Y0306988
Y0287303
T03
X-009752Y0409291
X-0086614
X-0075709
X-0064803
X-0070276Y0419291
X-0081181
X-0092087
X-005937
X-0048465
X-0037559
X-0026654
X-0015748
X-0004843
X0006063
X0016969
X0027874
X003878
X0049685
X0060591
X0071496
X0082402
X0093307
X0087874Y0409291
X0076968
X0066063
X0055158
X0044252
X0033347
X0022441
X0011535
X000063
X-0010276
X-0021181
X-0032087
X-0042992
X-0053898
X0098779
T04
X-0124449Y0426102
X0125591
T05
X-0143701Y0034252
X0143701
X0068898Y0216535
X-0068898
Y0379921
X0068898
M30
