G04*
G04 #@! TF.GenerationSoftware,Altium Limited,Altium Designer,19.0.9 (268)*
G04*
G04 Layer_Color=16711935*
%FSLAX42Y42*%
%MOMM*%
G71*
G01*
G75*
%ADD39C,0.10*%
D39*
X-3795Y7432D02*
X-3668Y7305D01*
X-3795D02*
X-2805D01*
Y7695D01*
X-3795D02*
X-2805D01*
X-3795Y7305D02*
Y7695D01*
X2934Y8307D02*
X3061Y8434D01*
X2934Y7444D02*
Y8434D01*
Y7444D02*
X3324D01*
Y8434D01*
X2934D02*
X3324D01*
X-263Y6868D02*
X-136Y6995D01*
X-263Y6005D02*
Y6995D01*
Y6005D02*
X127D01*
Y6995D01*
X-263D02*
X127D01*
X999Y9638D02*
X1201D01*
X999D02*
Y9762D01*
X1201D01*
Y9638D02*
Y9762D01*
X455Y9638D02*
X656D01*
X455D02*
Y9762D01*
X656D01*
Y9638D02*
Y9762D01*
X-89Y9638D02*
X112D01*
X-89D02*
Y9762D01*
X112D01*
Y9638D02*
Y9762D01*
X-633Y9638D02*
X-432D01*
X-633D02*
Y9762D01*
X-432D01*
Y9638D02*
Y9762D01*
X-3262Y2300D02*
Y2500D01*
X-3138D01*
Y2300D02*
Y2500D01*
X-3262Y2300D02*
X-3138D01*
X-939Y6892D02*
Y7093D01*
X-1064Y6892D02*
X-939D01*
X-1064D02*
Y7093D01*
X-939D01*
X-2638Y6881D02*
Y7082D01*
X-2513D01*
Y6881D02*
Y7082D01*
X-2638Y6881D02*
X-2513D01*
X-1096Y9638D02*
X-895D01*
X-1096D02*
Y9762D01*
X-895D01*
Y9638D02*
Y9762D01*
X3037Y7076D02*
X3238D01*
X3037D02*
Y7201D01*
X3238D01*
Y7076D02*
Y7201D01*
M02*
