G04*
G04 #@! TF.GenerationSoftware,Altium Limited,Altium Designer,19.0.9 (268)*
G04*
G04 Layer_Color=65535*
%FSLAX25Y25*%
%MOIN*%
G70*
G01*
G75*
%ADD10C,0.00787*%
%ADD11C,0.01000*%
G04:AMPARAMS|DCode=12|XSize=23.95mil|YSize=93.68mil|CornerRadius=0mil|HoleSize=0mil|Usage=FLASHONLY|Rotation=89.941|XOffset=0mil|YOffset=0mil|HoleType=Round|Shape=Rectangle|*
%AMROTATEDRECTD12*
4,1,4,0.04683,-0.01202,-0.04685,-0.01193,-0.04683,0.01202,0.04685,0.01193,0.04683,-0.01202,0.0*
%
%ADD12ROTATEDRECTD12*%

D10*
X-172185Y232343D02*
X-164311D01*
Y245926D01*
X-172185D02*
X-164311D01*
X-172185Y232343D02*
Y245926D01*
X21001Y276737D02*
X33599D01*
X21001Y268863D02*
Y276737D01*
Y268863D02*
X33599D01*
Y276737D01*
X-171937Y298101D02*
Y310699D01*
Y298101D02*
X-164063D01*
Y310699D01*
X-171937D02*
X-164063D01*
X-161410Y265952D02*
Y273826D01*
X-174992D02*
X-161410D01*
X-174992Y265952D02*
Y273826D01*
Y265952D02*
X-161410D01*
X-137859Y218081D02*
Y225955D01*
X-151441D02*
X-137859D01*
X-151441Y218081D02*
Y225955D01*
Y218081D02*
X-137859D01*
X-170760Y322065D02*
X-162886D01*
Y335647D01*
X-170760D02*
X-162886D01*
X-170760Y322065D02*
Y335647D01*
X-157480Y260046D02*
X-149606D01*
Y247447D02*
Y260046D01*
X-157480Y247447D02*
X-149606D01*
X-157480D02*
Y260046D01*
X112205Y361024D02*
Y368898D01*
X98622D02*
X112205D01*
X98622Y361024D02*
Y368898D01*
Y361024D02*
X112205D01*
X179724Y118012D02*
Y125886D01*
X166142D02*
X179724D01*
X166142Y118012D02*
Y125886D01*
Y118012D02*
X179724D01*
X81410Y291890D02*
X89284D01*
X81410Y278307D02*
Y291890D01*
Y278307D02*
X89284D01*
Y291890D01*
X89933Y306614D02*
Y314488D01*
Y306614D02*
X103516D01*
Y314488D01*
X89933D02*
X103516D01*
X166142Y141831D02*
Y149705D01*
Y141831D02*
X179724D01*
Y149705D01*
X166142D02*
X179724D01*
X166339Y212598D02*
Y220472D01*
Y212598D02*
X179921D01*
Y220472D01*
X166339D02*
X179921D01*
X166339Y236319D02*
Y244193D01*
Y236319D02*
X179921D01*
Y244193D01*
X166339D02*
X179921D01*
X166142Y165354D02*
Y173228D01*
Y165354D02*
X179724D01*
Y173228D01*
X166142D02*
X179724D01*
X166142Y188976D02*
Y196850D01*
Y188976D02*
X179724D01*
Y196850D01*
X166142D02*
X179724D01*
X81410Y353346D02*
X89284D01*
X81410Y339764D02*
Y353346D01*
Y339764D02*
X89284D01*
Y353346D01*
X56654Y345472D02*
X64528D01*
X56654Y331890D02*
Y345472D01*
Y331890D02*
X64528D01*
Y345472D01*
X40315D02*
X48189D01*
X40315Y331890D02*
Y345472D01*
Y331890D02*
X48189D01*
Y345472D01*
X24606Y345276D02*
X32480D01*
X24606Y331693D02*
Y345276D01*
Y331693D02*
X32480D01*
Y345276D01*
X8228Y345472D02*
X16102D01*
X8228Y331890D02*
Y345472D01*
Y331890D02*
X16102D01*
Y345472D01*
X-5709Y317717D02*
X2165D01*
X-5709Y304134D02*
Y317717D01*
Y304134D02*
X2165D01*
Y317717D01*
X-8110Y345276D02*
X-236D01*
X-8110Y331693D02*
Y345276D01*
Y331693D02*
X-236D01*
Y345276D01*
X-24449D02*
X-16575D01*
X-24449Y331693D02*
Y345276D01*
Y331693D02*
X-16575D01*
Y345276D01*
X-39606D02*
X-31732D01*
X-39606Y331693D02*
Y345276D01*
Y331693D02*
X-31732D01*
Y345276D01*
X-90787Y328996D02*
Y336870D01*
X-104370D02*
X-90787D01*
X-104370Y328996D02*
Y336870D01*
Y328996D02*
X-90787D01*
X-94095Y370079D02*
X-86221D01*
X-94095Y356497D02*
Y370079D01*
Y356497D02*
X-86221D01*
Y370079D01*
X-109843Y369981D02*
X-101969D01*
X-109843Y356398D02*
Y369981D01*
Y356398D02*
X-101969D01*
Y369981D01*
X-125591D02*
X-117717D01*
X-125591Y356398D02*
Y369981D01*
Y356398D02*
X-117717D01*
Y369981D01*
X-141339Y369882D02*
X-133465D01*
X-141339Y356300D02*
Y369882D01*
Y356300D02*
X-133465D01*
Y369882D01*
X-157087Y370079D02*
X-149213D01*
X-157087Y356497D02*
Y370079D01*
Y356497D02*
X-149213D01*
Y370079D01*
X-150079Y281594D02*
Y287598D01*
X-149409Y288976D02*
X-110433D01*
Y301575D01*
X-149409D02*
X-110433D01*
X-149409Y288976D02*
Y301575D01*
X109500Y332716D02*
X115504D01*
X116882Y293071D02*
Y332047D01*
Y293071D02*
X129480D01*
Y332047D01*
X116882D02*
X129480D01*
X-16358Y276063D02*
X-10354D01*
X-8976Y236417D02*
Y275394D01*
Y236417D02*
X3622D01*
Y275394D01*
X-8976D02*
X3622D01*
X-166017Y94445D02*
X-156750D01*
X-156717D02*
Y119516D01*
X-166117Y94445D02*
Y119516D01*
X37008Y377953D02*
Y385827D01*
X49606D01*
Y377953D02*
Y385827D01*
X37008Y377953D02*
X49606D01*
X15581D02*
Y385827D01*
X28179D01*
Y377953D02*
Y385827D01*
X15581Y377953D02*
X28179D01*
X-5847D02*
Y385827D01*
X6752D01*
Y377953D02*
Y385827D01*
X-5847Y377953D02*
X6752D01*
X-27274D02*
Y385827D01*
X-14675D01*
Y377953D02*
Y385827D01*
X-27274Y377953D02*
X-14675D01*
X-129921Y116929D02*
X-122047D01*
Y104331D02*
Y116929D01*
X-129921Y104331D02*
X-122047D01*
X-129921D02*
Y116929D01*
X-45512Y377953D02*
Y385827D01*
X-32913D01*
Y377953D02*
Y385827D01*
X-45512Y377953D02*
X-32913D01*
X154299Y307463D02*
Y315337D01*
X141701Y307463D02*
X154299D01*
X141701D02*
Y315337D01*
X154299D01*
D11*
X-50181Y42217D02*
X-46182D01*
X-48182D01*
Y36219D01*
X-44183D02*
Y42217D01*
X-42184Y40218D01*
X-40184Y42217D01*
Y36219D01*
X-38185Y42217D02*
Y36219D01*
X-35186D01*
X-34186Y37219D01*
Y41217D01*
X-35186Y42217D01*
X-38185D01*
X-26189D02*
X-22190D01*
X-24190D01*
Y36219D01*
X-17192D02*
X-19191D01*
X-20191Y37219D01*
Y39218D01*
X-19191Y40218D01*
X-17192D01*
X-16192Y39218D01*
Y38218D01*
X-20191D01*
X-10194Y40218D02*
X-13193D01*
X-14193Y39218D01*
Y37219D01*
X-13193Y36219D01*
X-10194D01*
X-8195Y42217D02*
Y36219D01*
Y39218D01*
X-7195Y40218D01*
X-5196D01*
X-4196Y39218D01*
Y36219D01*
X-2197D02*
Y40218D01*
X802D01*
X1802Y39218D01*
Y36219D01*
X4801D02*
X6801D01*
X7800Y37219D01*
Y39218D01*
X6801Y40218D01*
X4801D01*
X3801Y39218D01*
Y37219D01*
X4801Y36219D01*
X9799D02*
X11799D01*
X10799D01*
Y42217D01*
X9799D01*
X15798Y36219D02*
X17797D01*
X18797Y37219D01*
Y39218D01*
X17797Y40218D01*
X15798D01*
X14798Y39218D01*
Y37219D01*
X15798Y36219D01*
X22795Y34220D02*
X23795D01*
X24795Y35219D01*
Y40218D01*
X21796D01*
X20796Y39218D01*
Y37219D01*
X21796Y36219D01*
X24795D01*
X26794D02*
X28793D01*
X27794D01*
Y40218D01*
X26794D01*
X34791Y36219D02*
X32792D01*
X31792Y37219D01*
Y39218D01*
X32792Y40218D01*
X34791D01*
X35791Y39218D01*
Y38218D01*
X31792D01*
X37790Y36219D02*
X40789D01*
X41789Y37219D01*
X40789Y38218D01*
X38790D01*
X37790Y39218D01*
X38790Y40218D01*
X41789D01*
X-4196Y24622D02*
X-8195D01*
X-4196Y28621D01*
Y29620D01*
X-5196Y30620D01*
X-7195D01*
X-8195Y29620D01*
X-2197D02*
X-1197Y30620D01*
X802D01*
X1802Y29620D01*
Y25622D01*
X802Y24622D01*
X-1197D01*
X-2197Y25622D01*
Y29620D01*
X7800Y24622D02*
X3801D01*
X7800Y28621D01*
Y29620D01*
X6801Y30620D01*
X4801D01*
X3801Y29620D01*
X9799Y24622D02*
X11799D01*
X10799D01*
Y30620D01*
X9799Y29620D01*
X-44878Y81464D02*
Y87462D01*
X-41879D01*
X-40879Y86462D01*
Y84463D01*
X-41879Y83463D01*
X-44878D01*
X-42879D02*
X-40879Y81464D01*
X-34881Y86462D02*
X-35881Y87462D01*
X-37880D01*
X-38880Y86462D01*
Y85462D01*
X-37880Y84463D01*
X-35881D01*
X-34881Y83463D01*
Y82464D01*
X-35881Y81464D01*
X-37880D01*
X-38880Y82464D01*
X-29883Y81464D02*
Y87462D01*
X-32882Y84463D01*
X-28883D01*
X-22885Y81464D02*
X-26884D01*
X-22885Y85462D01*
Y86462D01*
X-23885Y87462D01*
X-25884D01*
X-26884Y86462D01*
X-16887Y81464D02*
X-20886D01*
X-16887Y85462D01*
Y86462D01*
X-17887Y87462D01*
X-19886D01*
X-20886Y86462D01*
X-4891D02*
X-5891Y87462D01*
X-7890D01*
X-8890Y86462D01*
Y82464D01*
X-7890Y81464D01*
X-5891D01*
X-4891Y82464D01*
X-1892Y81464D02*
X108D01*
X1107Y82464D01*
Y84463D01*
X108Y85462D01*
X-1892D01*
X-2891Y84463D01*
Y82464D01*
X-1892Y81464D01*
X3107D02*
Y85462D01*
X6106D01*
X7105Y84463D01*
Y81464D01*
X10104Y86462D02*
Y85462D01*
X9105D01*
X11104D01*
X10104D01*
Y82464D01*
X11104Y81464D01*
X14103Y85462D02*
Y81464D01*
Y83463D01*
X15103Y84463D01*
X16102Y85462D01*
X17102D01*
X21101Y81464D02*
X23100D01*
X24100Y82464D01*
Y84463D01*
X23100Y85462D01*
X21101D01*
X20101Y84463D01*
Y82464D01*
X21101Y81464D01*
X26099D02*
X28098D01*
X27099D01*
Y87462D01*
X26099D01*
X37096D02*
Y81464D01*
X40095D01*
X41094Y82464D01*
Y83463D01*
X40095Y84463D01*
X37096D01*
X40095D01*
X41094Y85462D01*
Y86462D01*
X40095Y87462D01*
X37096D01*
X44093Y81464D02*
X46093D01*
X47092Y82464D01*
Y84463D01*
X46093Y85462D01*
X44093D01*
X43094Y84463D01*
Y82464D01*
X44093Y81464D01*
X49092Y85462D02*
X53090Y81464D01*
X51091Y83463D01*
X53090Y85462D01*
X49092Y81464D01*
X-20886Y71866D02*
Y77864D01*
X-17887D01*
X-16887Y76864D01*
Y74865D01*
X-17887Y73865D01*
X-20886D01*
X-14888Y77864D02*
X-10889D01*
X-12888D01*
Y71866D01*
X-8890D02*
Y77864D01*
X-6890Y75865D01*
X-4891Y77864D01*
Y71866D01*
X7105Y77864D02*
X5106Y76864D01*
X3107Y74865D01*
Y72866D01*
X4106Y71866D01*
X6106D01*
X7105Y72866D01*
Y73865D01*
X6106Y74865D01*
X3107D01*
X9105Y76864D02*
X10104Y77864D01*
X12104D01*
X13103Y76864D01*
Y75865D01*
X12104Y74865D01*
X11104D01*
X12104D01*
X13103Y73865D01*
Y72866D01*
X12104Y71866D01*
X10104D01*
X9105Y72866D01*
X15103Y76864D02*
X16102Y77864D01*
X18102D01*
X19101Y76864D01*
Y75865D01*
X18102Y74865D01*
X19101Y73865D01*
Y72866D01*
X18102Y71866D01*
X16102D01*
X15103Y72866D01*
Y73865D01*
X16102Y74865D01*
X15103Y75865D01*
Y76864D01*
X16102Y74865D02*
X18102D01*
X21101Y71866D02*
X23100D01*
X22100D01*
Y77864D01*
X21101Y76864D01*
X-187402Y78983D02*
X-183403D01*
X-188337Y123078D02*
X-184338D01*
X-186337Y125077D02*
Y121078D01*
X-210329Y87463D02*
Y83465D01*
X-207330D01*
X-208329Y85464D01*
Y86464D01*
X-207330Y87463D01*
X-205330D01*
X-204331Y86464D01*
Y84464D01*
X-205330Y83465D01*
X-210329Y89463D02*
X-206330D01*
X-204331Y91462D01*
X-206330Y93461D01*
X-210329D01*
X-204331Y101459D02*
Y104458D01*
X-205330Y105457D01*
X-206330Y104458D01*
Y102458D01*
X-207330Y101459D01*
X-208329Y102458D01*
Y105457D01*
Y107457D02*
X-205330D01*
X-204331Y108457D01*
Y111456D01*
X-208329D01*
X-202331Y113455D02*
X-208329D01*
Y116454D01*
X-207330Y117454D01*
X-205330D01*
X-204331Y116454D01*
Y113455D01*
X-202331Y119453D02*
X-208329D01*
Y122452D01*
X-207330Y123452D01*
X-205330D01*
X-204331Y122452D01*
Y119453D01*
Y125451D02*
Y127450D01*
Y126451D01*
X-210329D01*
Y125451D01*
X-208329Y130449D02*
X-205330D01*
X-204331Y131449D01*
Y134448D01*
X-203331D01*
X-202331Y133448D01*
Y132449D01*
X-204331Y134448D02*
X-208329D01*
X98978Y373950D02*
Y379948D01*
X101977D01*
X102977Y378949D01*
Y376949D01*
X101977Y375950D01*
X98978D01*
X100977D02*
X102977Y373950D01*
X108975D02*
X104976D01*
X108975Y377949D01*
Y378949D01*
X107975Y379948D01*
X105976D01*
X104976Y378949D01*
X110974D02*
X111974Y379948D01*
X113973D01*
X114973Y378949D01*
Y377949D01*
X113973Y376949D01*
X114973Y375950D01*
Y374950D01*
X113973Y373950D01*
X111974D01*
X110974Y374950D01*
Y375950D01*
X111974Y376949D01*
X110974Y377949D01*
Y378949D01*
X111974Y376949D02*
X113973D01*
X-170436Y339290D02*
Y345288D01*
X-167437D01*
X-166437Y344288D01*
Y342289D01*
X-167437Y341289D01*
X-170436D01*
X-168437D02*
X-166437Y339290D01*
X-160439D02*
X-164438D01*
X-160439Y343289D01*
Y344288D01*
X-161439Y345288D01*
X-163438D01*
X-164438Y344288D01*
X-158440Y345288D02*
X-154441D01*
Y344288D01*
X-158440Y340290D01*
Y339290D01*
X-177165Y248651D02*
Y254649D01*
X-174166D01*
X-173167Y253649D01*
Y251650D01*
X-174166Y250650D01*
X-177165D01*
X-175166D02*
X-173167Y248651D01*
X-167169D02*
X-171167D01*
X-167169Y252650D01*
Y253649D01*
X-168168Y254649D01*
X-170168D01*
X-171167Y253649D01*
X-161170Y254649D02*
X-163170Y253649D01*
X-165169Y251650D01*
Y249651D01*
X-164170Y248651D01*
X-162170D01*
X-161170Y249651D01*
Y250650D01*
X-162170Y251650D01*
X-165169D01*
X-174721Y278852D02*
Y284850D01*
X-171722D01*
X-170722Y283851D01*
Y281851D01*
X-171722Y280852D01*
X-174721D01*
X-172721D02*
X-170722Y278852D01*
X-164724D02*
X-168723D01*
X-164724Y282851D01*
Y283851D01*
X-165724Y284850D01*
X-167723D01*
X-168723Y283851D01*
X-158726Y284850D02*
X-162724D01*
Y281851D01*
X-160725Y282851D01*
X-159725D01*
X-158726Y281851D01*
Y279852D01*
X-159725Y278852D01*
X-161725D01*
X-162724Y279852D01*
X-151174Y231027D02*
Y237025D01*
X-148175D01*
X-147176Y236025D01*
Y234026D01*
X-148175Y233026D01*
X-151174D01*
X-149175D02*
X-147176Y231027D01*
X-145176D02*
X-143177D01*
X-144177D01*
Y237025D01*
X-145176Y236025D01*
X-136179Y237025D02*
X-138179Y236025D01*
X-140178Y234026D01*
Y232026D01*
X-139178Y231027D01*
X-137179D01*
X-136179Y232026D01*
Y233026D01*
X-137179Y234026D01*
X-140178D01*
X-153137Y268768D02*
X-154136Y269767D01*
X-156136D01*
X-157135Y268768D01*
Y264769D01*
X-156136Y263769D01*
X-154136D01*
X-153137Y264769D01*
X-151137Y263769D02*
X-149138D01*
X-150138D01*
Y269767D01*
X-151137Y268768D01*
X-146139D02*
X-145139Y269767D01*
X-143140D01*
X-142140Y268768D01*
Y264769D01*
X-143140Y263769D01*
X-145139D01*
X-146139Y264769D01*
Y268768D01*
X189365Y104969D02*
Y110967D01*
X192364D01*
X193363Y109968D01*
Y107968D01*
X192364Y106969D01*
X189365D01*
X199361Y104969D02*
X195363D01*
X199361Y108968D01*
Y109968D01*
X198362Y110967D01*
X196362D01*
X195363Y109968D01*
X205359Y104969D02*
X201361D01*
X205359Y108968D01*
Y109968D01*
X204360Y110967D01*
X202360D01*
X201361Y109968D01*
X-196263Y345931D02*
Y351929D01*
X-193264D01*
X-192265Y350929D01*
Y348930D01*
X-193264Y347931D01*
X-196263D01*
X-190265Y345931D02*
X-188266D01*
X-189266D01*
Y351929D01*
X-190265Y350929D01*
X-182268Y345931D02*
Y351929D01*
X-185267Y348930D01*
X-181268D01*
X-196263Y298687D02*
Y304685D01*
X-193264D01*
X-192265Y303685D01*
Y301686D01*
X-193264Y300686D01*
X-196263D01*
X-190265Y298687D02*
X-188266D01*
X-189266D01*
Y304685D01*
X-190265Y303685D01*
X-181268Y298687D02*
X-185267D01*
X-181268Y302686D01*
Y303685D01*
X-182268Y304685D01*
X-184267D01*
X-185267Y303685D01*
X-196263Y252478D02*
Y258476D01*
X-193264D01*
X-192265Y257477D01*
Y255477D01*
X-193264Y254478D01*
X-196263D01*
X-190265Y252478D02*
X-188266D01*
X-189266D01*
Y258476D01*
X-190265Y257477D01*
X-185267D02*
X-184267Y258476D01*
X-182268D01*
X-181268Y257477D01*
Y253478D01*
X-182268Y252478D01*
X-184267D01*
X-185267Y253478D01*
Y257477D01*
X147899Y322898D02*
X146899Y323898D01*
X144900D01*
X143900Y322898D01*
Y318900D01*
X144900Y317900D01*
X146899D01*
X147899Y318900D01*
X149898Y317900D02*
X151897D01*
X150898D01*
Y323898D01*
X149898Y322898D01*
X76968Y294569D02*
Y300567D01*
X79968D01*
X80967Y299567D01*
Y297568D01*
X79968Y296568D01*
X76968D01*
X78968D02*
X80967Y294569D01*
X86965D02*
X82967D01*
X86965Y298568D01*
Y299567D01*
X85966Y300567D01*
X83966D01*
X82967Y299567D01*
X88965D02*
X89964Y300567D01*
X91964D01*
X92963Y299567D01*
Y298568D01*
X91964Y297568D01*
X90964D01*
X91964D01*
X92963Y296568D01*
Y295569D01*
X91964Y294569D01*
X89964D01*
X88965Y295569D01*
X167780Y130934D02*
Y136932D01*
X170779D01*
X171779Y135932D01*
Y133933D01*
X170779Y132933D01*
X167780D01*
X169780D02*
X171779Y130934D01*
X177777D02*
X173778D01*
X177777Y134933D01*
Y135932D01*
X176777Y136932D01*
X174778D01*
X173778Y135932D01*
X182775Y130934D02*
Y136932D01*
X179776Y133933D01*
X183775D01*
X189165Y129269D02*
Y135267D01*
X192164D01*
X193163Y134268D01*
Y132268D01*
X192164Y131269D01*
X189165D01*
X199161Y129269D02*
X195163D01*
X199161Y133268D01*
Y134268D01*
X198162Y135267D01*
X196162D01*
X195163Y134268D01*
X201161D02*
X202160Y135267D01*
X204160D01*
X205159Y134268D01*
Y130269D01*
X204160Y129269D01*
X202160D01*
X201161Y130269D01*
Y134268D01*
X-196212Y93041D02*
Y99039D01*
X-193213D01*
X-192213Y98039D01*
Y96040D01*
X-193213Y95040D01*
X-196212D01*
X-186215Y93041D02*
X-190214D01*
X-186215Y97040D01*
Y98039D01*
X-187215Y99039D01*
X-189215D01*
X-190214Y98039D01*
X-196261Y136769D02*
Y142767D01*
X-193262D01*
X-192263Y141768D01*
Y139768D01*
X-193262Y138769D01*
X-196261D01*
X-190263Y136769D02*
X-188264D01*
X-189264D01*
Y142767D01*
X-190263Y141768D01*
X-177165Y114506D02*
Y108508D01*
X-174166D01*
X-173167Y109508D01*
Y113507D01*
X-174166Y114506D01*
X-177165D01*
X-171167Y108508D02*
X-169168D01*
X-170168D01*
Y114506D01*
X-171167Y113507D01*
X-140883Y113266D02*
X-141883Y114266D01*
X-143882D01*
X-144882Y113266D01*
Y109267D01*
X-143882Y108268D01*
X-141883D01*
X-140883Y109267D01*
X-134885Y114266D02*
X-138884D01*
Y111267D01*
X-136884Y112266D01*
X-135885D01*
X-134885Y111267D01*
Y109267D01*
X-135885Y108268D01*
X-137884D01*
X-138884Y109267D01*
X85347Y317028D02*
Y323026D01*
X88345D01*
X89345Y322026D01*
Y320027D01*
X88345Y319027D01*
X85347D01*
X87346D02*
X89345Y317028D01*
X95343D02*
X91344D01*
X95343Y321026D01*
Y322026D01*
X94344Y323026D01*
X92344D01*
X91344Y322026D01*
X101341Y317028D02*
X97343D01*
X101341Y321026D01*
Y322026D01*
X100342Y323026D01*
X98342D01*
X97343Y322026D01*
X165645Y152018D02*
Y158016D01*
X168643D01*
X169643Y157016D01*
Y155017D01*
X168643Y154017D01*
X165645D01*
X167644D02*
X169643Y152018D01*
X175641D02*
X171643D01*
X175641Y156016D01*
Y157016D01*
X174642Y158016D01*
X172642D01*
X171643Y157016D01*
X177641Y152018D02*
X179640D01*
X178640D01*
Y158016D01*
X177641Y157016D01*
X165841Y222785D02*
Y228783D01*
X168840D01*
X169840Y227784D01*
Y225784D01*
X168840Y224785D01*
X165841D01*
X167841D02*
X169840Y222785D01*
X175838D02*
X171839D01*
X175838Y226784D01*
Y227784D01*
X174838Y228783D01*
X172839D01*
X171839Y227784D01*
X177838D02*
X178837Y228783D01*
X180836D01*
X181836Y227784D01*
Y223785D01*
X180836Y222785D01*
X178837D01*
X177838Y223785D01*
Y227784D01*
X165841Y246506D02*
Y252504D01*
X168840D01*
X169840Y251504D01*
Y249505D01*
X168840Y248505D01*
X165841D01*
X167841D02*
X169840Y246506D01*
X171839D02*
X173839D01*
X172839D01*
Y252504D01*
X171839Y251504D01*
X176838Y247506D02*
X177838Y246506D01*
X179837D01*
X180836Y247506D01*
Y251504D01*
X179837Y252504D01*
X177838D01*
X176838Y251504D01*
Y250505D01*
X177838Y249505D01*
X180836D01*
X165645Y175541D02*
Y181539D01*
X168643D01*
X169643Y180540D01*
Y178540D01*
X168643Y177541D01*
X165645D01*
X167644D02*
X169643Y175541D01*
X171643D02*
X173642D01*
X172642D01*
Y181539D01*
X171643Y180540D01*
X176641D02*
X177641Y181539D01*
X179640D01*
X180640Y180540D01*
Y179540D01*
X179640Y178540D01*
X180640Y177541D01*
Y176541D01*
X179640Y175541D01*
X177641D01*
X176641Y176541D01*
Y177541D01*
X177641Y178540D01*
X176641Y179540D01*
Y180540D01*
X177641Y178540D02*
X179640D01*
X165645Y199163D02*
Y205161D01*
X168643D01*
X169643Y204162D01*
Y202162D01*
X168643Y201163D01*
X165645D01*
X167644D02*
X169643Y199163D01*
X171643D02*
X173642D01*
X172642D01*
Y205161D01*
X171643Y204162D01*
X176641Y205161D02*
X180640D01*
Y204162D01*
X176641Y200163D01*
Y199163D01*
X93601Y346457D02*
Y352455D01*
X96600D01*
X97600Y351455D01*
Y349456D01*
X96600Y348456D01*
X93601D01*
X95601D02*
X97600Y346457D01*
X99599D02*
X101599D01*
X100599D01*
Y352455D01*
X99599Y351455D01*
X108597Y352455D02*
X104598D01*
Y349456D01*
X106597Y350455D01*
X107597D01*
X108597Y349456D01*
Y347456D01*
X107597Y346457D01*
X105597D01*
X104598Y347456D01*
X59055Y349045D02*
Y355043D01*
X62054D01*
X63054Y354044D01*
Y352044D01*
X62054Y351045D01*
X59055D01*
X61054D02*
X63054Y349045D01*
X65053D02*
X67053D01*
X66053D01*
Y355043D01*
X65053Y354044D01*
X73051Y349045D02*
Y355043D01*
X70052Y352044D01*
X74050D01*
X38780Y349045D02*
Y355043D01*
X41779D01*
X42778Y354044D01*
Y352044D01*
X41779Y351045D01*
X38780D01*
X40779D02*
X42778Y349045D01*
X44778D02*
X46777D01*
X45777D01*
Y355043D01*
X44778Y354044D01*
X49776D02*
X50776Y355043D01*
X52775D01*
X53775Y354044D01*
Y353044D01*
X52775Y352044D01*
X51775D01*
X52775D01*
X53775Y351045D01*
Y350045D01*
X52775Y349045D01*
X50776D01*
X49776Y350045D01*
X19685Y349045D02*
Y355043D01*
X22684D01*
X23684Y354044D01*
Y352044D01*
X22684Y351045D01*
X19685D01*
X21684D02*
X23684Y349045D01*
X25683D02*
X27683D01*
X26683D01*
Y355043D01*
X25683Y354044D01*
X34680Y349045D02*
X30681D01*
X34680Y353044D01*
Y354044D01*
X33680Y355043D01*
X31681D01*
X30681Y354044D01*
X3937Y349045D02*
Y355043D01*
X6936D01*
X7936Y354044D01*
Y352044D01*
X6936Y351045D01*
X3937D01*
X5936D02*
X7936Y349045D01*
X9935D02*
X11934D01*
X10935D01*
Y355043D01*
X9935Y354044D01*
X14933Y349045D02*
X16933D01*
X15933D01*
Y355043D01*
X14933Y354044D01*
X-7874Y305059D02*
X-13872D01*
Y308058D01*
X-12872Y309058D01*
X-10873D01*
X-9873Y308058D01*
Y305059D01*
Y307058D02*
X-7874Y309058D01*
Y311057D02*
Y313056D01*
Y312057D01*
X-13872D01*
X-12872Y311057D01*
Y316055D02*
X-13872Y317055D01*
Y319055D01*
X-12872Y320054D01*
X-8874D01*
X-7874Y319055D01*
Y317055D01*
X-8874Y316055D01*
X-12872D01*
X-11811Y349045D02*
Y355043D01*
X-8812D01*
X-7812Y354044D01*
Y352044D01*
X-8812Y351045D01*
X-11811D01*
X-9812D02*
X-7812Y349045D01*
X-5813Y350045D02*
X-4813Y349045D01*
X-2814D01*
X-1814Y350045D01*
Y354044D01*
X-2814Y355043D01*
X-4813D01*
X-5813Y354044D01*
Y353044D01*
X-4813Y352044D01*
X-1814D01*
X-27891Y349045D02*
Y355043D01*
X-24892D01*
X-23893Y354044D01*
Y352044D01*
X-24892Y351045D01*
X-27891D01*
X-25892D02*
X-23893Y349045D01*
X-21893Y354044D02*
X-20894Y355043D01*
X-18894D01*
X-17895Y354044D01*
Y353044D01*
X-18894Y352044D01*
X-17895Y351045D01*
Y350045D01*
X-18894Y349045D01*
X-20894D01*
X-21893Y350045D01*
Y351045D01*
X-20894Y352044D01*
X-21893Y353044D01*
Y354044D01*
X-20894Y352044D02*
X-18894D01*
X-44173Y349045D02*
Y355043D01*
X-41174D01*
X-40174Y354044D01*
Y352044D01*
X-41174Y351045D01*
X-44173D01*
X-42174D02*
X-40174Y349045D01*
X-38175Y355043D02*
X-34176D01*
Y354044D01*
X-38175Y350045D01*
Y349045D01*
X-102687Y341957D02*
Y347955D01*
X-99688D01*
X-98689Y346955D01*
Y344956D01*
X-99688Y343956D01*
X-102687D01*
X-100688D02*
X-98689Y341957D01*
X-92691Y347955D02*
X-94690Y346955D01*
X-96689Y344956D01*
Y342956D01*
X-95690Y341957D01*
X-93690D01*
X-92691Y342956D01*
Y343956D01*
X-93690Y344956D01*
X-96689D01*
X-95205Y374543D02*
Y380541D01*
X-92206D01*
X-91206Y379541D01*
Y377542D01*
X-92206Y376542D01*
X-95205D01*
X-93205D02*
X-91206Y374543D01*
X-85208Y380541D02*
X-89207D01*
Y377542D01*
X-87208Y378542D01*
X-86208D01*
X-85208Y377542D01*
Y375543D01*
X-86208Y374543D01*
X-88207D01*
X-89207Y375543D01*
X-110942Y374452D02*
Y380451D01*
X-107943D01*
X-106943Y379451D01*
Y377451D01*
X-107943Y376452D01*
X-110942D01*
X-108942D02*
X-106943Y374452D01*
X-101945D02*
Y380451D01*
X-104944Y377451D01*
X-100945D01*
X-126653Y374476D02*
Y380474D01*
X-123654D01*
X-122654Y379474D01*
Y377475D01*
X-123654Y376475D01*
X-126653D01*
X-124654D02*
X-122654Y374476D01*
X-120655Y379474D02*
X-119655Y380474D01*
X-117656D01*
X-116656Y379474D01*
Y378475D01*
X-117656Y377475D01*
X-118656D01*
X-117656D01*
X-116656Y376475D01*
Y375476D01*
X-117656Y374476D01*
X-119655D01*
X-120655Y375476D01*
X-142423Y374342D02*
Y380340D01*
X-139424D01*
X-138424Y379341D01*
Y377341D01*
X-139424Y376342D01*
X-142423D01*
X-140424D02*
X-138424Y374342D01*
X-132426D02*
X-136425D01*
X-132426Y378341D01*
Y379341D01*
X-133426Y380340D01*
X-135425D01*
X-136425Y379341D01*
X-158166Y374597D02*
Y380595D01*
X-155166D01*
X-154167Y379596D01*
Y377596D01*
X-155166Y376597D01*
X-158166D01*
X-156166D02*
X-154167Y374597D01*
X-152167D02*
X-150168D01*
X-151168D01*
Y380595D01*
X-152167Y379596D01*
X-196298Y400917D02*
Y406915D01*
X-193299D01*
X-192300Y405916D01*
Y403916D01*
X-193299Y402917D01*
X-196298D01*
X-186302Y400917D02*
X-190300D01*
X-186302Y404916D01*
Y405916D01*
X-187301Y406915D01*
X-189301D01*
X-190300Y405916D01*
X-184302Y400917D02*
X-182303D01*
X-183303D01*
Y406915D01*
X-184302Y405916D01*
X189134Y153035D02*
Y159033D01*
X192133D01*
X193133Y158033D01*
Y156034D01*
X192133Y155034D01*
X189134D01*
X195132Y153035D02*
X197131D01*
X196132D01*
Y159033D01*
X195132Y158033D01*
X200130Y154034D02*
X201130Y153035D01*
X203129D01*
X204129Y154034D01*
Y158033D01*
X203129Y159033D01*
X201130D01*
X200130Y158033D01*
Y157033D01*
X201130Y156034D01*
X204129D01*
X189528Y294669D02*
Y300667D01*
X192527D01*
X193526Y299668D01*
Y297668D01*
X192527Y296669D01*
X189528D01*
X195526Y299668D02*
X196525Y300667D01*
X198525D01*
X199524Y299668D01*
Y298668D01*
X198525Y297668D01*
X199524Y296669D01*
Y295669D01*
X198525Y294669D01*
X196525D01*
X195526Y295669D01*
Y296669D01*
X196525Y297668D01*
X195526Y298668D01*
Y299668D01*
X196525Y297668D02*
X198525D01*
X189528Y314369D02*
Y320367D01*
X192527D01*
X193526Y319368D01*
Y317368D01*
X192527Y316369D01*
X189528D01*
X195526Y320367D02*
X199524D01*
Y319368D01*
X195526Y315369D01*
Y314369D01*
X189528Y333969D02*
Y339967D01*
X192527D01*
X193526Y338968D01*
Y336968D01*
X192527Y335969D01*
X189528D01*
X199524Y339967D02*
X197525Y338968D01*
X195526Y336968D01*
Y334969D01*
X196525Y333969D01*
X198525D01*
X199524Y334969D01*
Y335969D01*
X198525Y336968D01*
X195526D01*
X189528Y353669D02*
Y359667D01*
X192527D01*
X193526Y358668D01*
Y356668D01*
X192527Y355669D01*
X189528D01*
X199524Y359667D02*
X195526D01*
Y356668D01*
X197525Y357668D01*
X198525D01*
X199524Y356668D01*
Y354669D01*
X198525Y353669D01*
X196525D01*
X195526Y354669D01*
X188976Y374016D02*
Y380014D01*
X191975D01*
X192975Y379014D01*
Y377015D01*
X191975Y376015D01*
X188976D01*
X197974Y374016D02*
Y380014D01*
X194974Y377015D01*
X198973D01*
X189528Y393069D02*
Y399067D01*
X192527D01*
X193526Y398068D01*
Y396068D01*
X192527Y395069D01*
X189528D01*
X195526Y398068D02*
X196525Y399067D01*
X198525D01*
X199524Y398068D01*
Y397068D01*
X198525Y396068D01*
X197525D01*
X198525D01*
X199524Y395069D01*
Y394069D01*
X198525Y393069D01*
X196525D01*
X195526Y394069D01*
X189134Y176635D02*
Y182633D01*
X192133D01*
X193133Y181633D01*
Y179634D01*
X192133Y178634D01*
X189134D01*
X195132Y176635D02*
X197131D01*
X196132D01*
Y182633D01*
X195132Y181633D01*
X200130D02*
X201130Y182633D01*
X203129D01*
X204129Y181633D01*
Y180633D01*
X203129Y179634D01*
X204129Y178634D01*
Y177634D01*
X203129Y176635D01*
X201130D01*
X200130Y177634D01*
Y178634D01*
X201130Y179634D01*
X200130Y180633D01*
Y181633D01*
X201130Y179634D02*
X203129D01*
X189331Y200298D02*
Y206296D01*
X192330D01*
X193329Y205296D01*
Y203297D01*
X192330Y202297D01*
X189331D01*
X195329Y200298D02*
X197328D01*
X196328D01*
Y206296D01*
X195329Y205296D01*
X200327Y206296D02*
X204326D01*
Y205296D01*
X200327Y201297D01*
Y200298D01*
X189331Y223845D02*
Y229843D01*
X192330D01*
X193329Y228843D01*
Y226844D01*
X192330Y225844D01*
X189331D01*
X195329Y223845D02*
X197328D01*
X196328D01*
Y229843D01*
X195329Y228843D01*
X204326Y229843D02*
X202326Y228843D01*
X200327Y226844D01*
Y224845D01*
X201327Y223845D01*
X203326D01*
X204326Y224845D01*
Y225844D01*
X203326Y226844D01*
X200327D01*
X189331Y247445D02*
Y253443D01*
X192330D01*
X193329Y252443D01*
Y250444D01*
X192330Y249444D01*
X189331D01*
X195329Y247445D02*
X197328D01*
X196328D01*
Y253443D01*
X195329Y252443D01*
X204326Y253443D02*
X200327D01*
Y250444D01*
X202326Y251444D01*
X203326D01*
X204326Y250444D01*
Y248445D01*
X203326Y247445D01*
X201327D01*
X200327Y248445D01*
X-196298Y322421D02*
Y328419D01*
X-193299D01*
X-192300Y327420D01*
Y325420D01*
X-193299Y324421D01*
X-196298D01*
X-190300Y322421D02*
X-188301D01*
X-189301D01*
Y328419D01*
X-190300Y327420D01*
X-185302D02*
X-184302Y328419D01*
X-182303D01*
X-181303Y327420D01*
Y326420D01*
X-182303Y325420D01*
X-183303D01*
X-182303D01*
X-181303Y324421D01*
Y323421D01*
X-182303Y322421D01*
X-184302D01*
X-185302Y323421D01*
X-196298Y276499D02*
Y282497D01*
X-193299D01*
X-192300Y281498D01*
Y279498D01*
X-193299Y278499D01*
X-196298D01*
X-190300Y276499D02*
X-188301D01*
X-189301D01*
Y282497D01*
X-190300Y281498D01*
X-185302Y276499D02*
X-183303D01*
X-184302D01*
Y282497D01*
X-185302Y281498D01*
X-196298Y231840D02*
Y237838D01*
X-193299D01*
X-192300Y236839D01*
Y234839D01*
X-193299Y233840D01*
X-196298D01*
X-190300Y232840D02*
X-189301Y231840D01*
X-187301D01*
X-186302Y232840D01*
Y236839D01*
X-187301Y237838D01*
X-189301D01*
X-190300Y236839D01*
Y235839D01*
X-189301Y234839D01*
X-186302D01*
X-149692Y319081D02*
X-147693D01*
X-148693D01*
Y313084D01*
X-149692D01*
X-147693D01*
X-140695Y318082D02*
X-141695Y319081D01*
X-143694D01*
X-144694Y318082D01*
Y314083D01*
X-143694Y313084D01*
X-141695D01*
X-140695Y314083D01*
X-138696Y318082D02*
X-137696Y319081D01*
X-135697D01*
X-134697Y318082D01*
Y317082D01*
X-135697Y316083D01*
X-136696D01*
X-135697D01*
X-134697Y315083D01*
Y314083D01*
X-135697Y313084D01*
X-137696D01*
X-138696Y314083D01*
X109446Y342351D02*
X111445D01*
X110445D01*
Y336353D01*
X109446D01*
X111445D01*
X118443Y341351D02*
X117443Y342351D01*
X115444D01*
X114444Y341351D01*
Y337352D01*
X115444Y336353D01*
X117443D01*
X118443Y337352D01*
X124441Y336353D02*
X120442D01*
X124441Y340352D01*
Y341351D01*
X123441Y342351D01*
X121442D01*
X120442Y341351D01*
X-16427Y285654D02*
X-14428D01*
X-15427D01*
Y279656D01*
X-16427D01*
X-14428D01*
X-7430Y284654D02*
X-8430Y285654D01*
X-10429D01*
X-11429Y284654D01*
Y280655D01*
X-10429Y279656D01*
X-8430D01*
X-7430Y280655D01*
X-5431Y279656D02*
X-3431D01*
X-4431D01*
Y285654D01*
X-5431Y284654D01*
X42397Y393479D02*
X41397Y394478D01*
X39398D01*
X38398Y393479D01*
Y389480D01*
X39398Y388480D01*
X41397D01*
X42397Y389480D01*
X44396D02*
X45396Y388480D01*
X47396D01*
X48395Y389480D01*
Y393479D01*
X47396Y394478D01*
X45396D01*
X44396Y393479D01*
Y392479D01*
X45396Y391479D01*
X48395D01*
X21036Y393479D02*
X20036Y394478D01*
X18037D01*
X17037Y393479D01*
Y389480D01*
X18037Y388480D01*
X20036D01*
X21036Y389480D01*
X23035Y393479D02*
X24035Y394478D01*
X26035D01*
X27034Y393479D01*
Y392479D01*
X26035Y391479D01*
X27034Y390480D01*
Y389480D01*
X26035Y388480D01*
X24035D01*
X23035Y389480D01*
Y390480D01*
X24035Y391479D01*
X23035Y392479D01*
Y393479D01*
X24035Y391479D02*
X26035D01*
X-453Y393442D02*
X-1452Y394441D01*
X-3452D01*
X-4451Y393442D01*
Y389443D01*
X-3452Y388443D01*
X-1452D01*
X-453Y389443D01*
X1547Y394441D02*
X5546D01*
Y393442D01*
X1547Y389443D01*
Y388443D01*
X-21869Y393479D02*
X-22868Y394478D01*
X-24868D01*
X-25867Y393479D01*
Y389480D01*
X-24868Y388480D01*
X-22868D01*
X-21869Y389480D01*
X-15871Y394478D02*
X-17870Y393479D01*
X-19869Y391479D01*
Y389480D01*
X-18870Y388480D01*
X-16870D01*
X-15871Y389480D01*
Y390480D01*
X-16870Y391479D01*
X-19869D01*
X37302Y271499D02*
X36302Y270499D01*
Y268500D01*
X37302Y267500D01*
X41300D01*
X42300Y268500D01*
Y270499D01*
X41300Y271499D01*
X42300Y276497D02*
X36302D01*
X39301Y273498D01*
Y277497D01*
X-156679Y307123D02*
X-157678Y308123D01*
X-159678D01*
X-160677Y307123D01*
Y303124D01*
X-159678Y302125D01*
X-157678D01*
X-156679Y303124D01*
X-154679Y307123D02*
X-153680Y308123D01*
X-151680D01*
X-150681Y307123D01*
Y306123D01*
X-151680Y305124D01*
X-152680D01*
X-151680D01*
X-150681Y304124D01*
Y303124D01*
X-151680Y302125D01*
X-153680D01*
X-154679Y303124D01*
X-40096Y393442D02*
X-41095Y394441D01*
X-43095D01*
X-44094Y393442D01*
Y389443D01*
X-43095Y388443D01*
X-41095D01*
X-40096Y389443D01*
X-34098Y388443D02*
X-38096D01*
X-34098Y392442D01*
Y393442D01*
X-35097Y394441D01*
X-37097D01*
X-38096Y393442D01*
X-121065Y410404D02*
X-123064D01*
X-122065D01*
Y405406D01*
X-123064Y404406D01*
X-124064D01*
X-125064Y405406D01*
X-119066Y404406D02*
X-117066D01*
X-118066D01*
Y410404D01*
X-119066Y409405D01*
D12*
X-161432Y118648D02*
D03*
M02*
