G04*
G04 #@! TF.GenerationSoftware,Altium Limited,Altium Designer,19.0.9 (268)*
G04*
G04 Layer_Physical_Order=2*
G04 Layer_Color=16711680*
%FSLAX25Y25*%
%MOIN*%
G70*
G01*
G75*
%ADD32C,0.01181*%
%ADD33C,0.01968*%
%ADD34C,0.07874*%
%ADD35C,0.19685*%
%ADD36C,0.08268*%
%ADD37C,0.27559*%
%ADD38C,0.05000*%
G36*
X157480Y433071D02*
Y433071D01*
X216535D01*
X216535Y433071D01*
Y-0D01*
X-216535D01*
X-216535Y0D01*
Y433071D01*
X-157480D01*
X-157480Y433071D01*
X-137795Y452756D01*
Y452756D01*
X137795D01*
X157480Y433071D01*
D02*
G37*
%LPC*%
G36*
X71996Y424404D02*
Y419791D01*
X76608D01*
X76498Y420632D01*
X75981Y421880D01*
X75158Y422953D01*
X74085Y423776D01*
X72836Y424293D01*
X71996Y424404D01*
D02*
G37*
G36*
X17469D02*
Y419791D01*
X22081D01*
X21970Y420632D01*
X21453Y421880D01*
X20630Y422953D01*
X19558Y423776D01*
X18309Y424293D01*
X17469Y424404D01*
D02*
G37*
G36*
X70996Y424404D02*
X70156Y424293D01*
X68907Y423776D01*
X67835Y422953D01*
X67012Y421880D01*
X66494Y420632D01*
X66384Y419791D01*
X70996D01*
Y424404D01*
D02*
G37*
G36*
X16468D02*
X15628Y424293D01*
X14379Y423776D01*
X13307Y422953D01*
X12484Y421880D01*
X11967Y420632D01*
X11856Y419791D01*
X16468D01*
Y424404D01*
D02*
G37*
G36*
X82902Y424404D02*
Y419791D01*
X87514D01*
X87403Y420632D01*
X86886Y421880D01*
X86063Y422953D01*
X84991Y423776D01*
X83742Y424293D01*
X82902Y424404D01*
D02*
G37*
G36*
X61090D02*
Y419791D01*
X65703D01*
X65592Y420632D01*
X65075Y421880D01*
X64252Y422953D01*
X63180Y423776D01*
X61931Y424293D01*
X61090Y424404D01*
D02*
G37*
G36*
X-26154D02*
Y419791D01*
X-21541D01*
X-21652Y420632D01*
X-22169Y421880D01*
X-22992Y422953D01*
X-24064Y423776D01*
X-25313Y424293D01*
X-26154Y424404D01*
D02*
G37*
G36*
X-47965D02*
Y419791D01*
X-43352D01*
X-43463Y420632D01*
X-43980Y421880D01*
X-44803Y422953D01*
X-45875Y423776D01*
X-47124Y424293D01*
X-47965Y424404D01*
D02*
G37*
G36*
X-69776D02*
Y419791D01*
X-65163D01*
X-65274Y420632D01*
X-65791Y421880D01*
X-66614Y422953D01*
X-67686Y423776D01*
X-68935Y424293D01*
X-69776Y424404D01*
D02*
G37*
G36*
X-91587D02*
Y419791D01*
X-86974D01*
X-87085Y420632D01*
X-87602Y421880D01*
X-88425Y422953D01*
X-89498Y423776D01*
X-90746Y424293D01*
X-91587Y424404D01*
D02*
G37*
G36*
X-48965Y424404D02*
X-49805Y424293D01*
X-51054Y423776D01*
X-52126Y422953D01*
X-52949Y421880D01*
X-53466Y420632D01*
X-53577Y419791D01*
X-48965D01*
Y424404D01*
D02*
G37*
G36*
X-70776D02*
X-71616Y424293D01*
X-72865Y423776D01*
X-73937Y422953D01*
X-74760Y421880D01*
X-75277Y420632D01*
X-75388Y419791D01*
X-70776D01*
Y424404D01*
D02*
G37*
G36*
X-92587D02*
X-93427Y424293D01*
X-94676Y423776D01*
X-95748Y422953D01*
X-96571Y421880D01*
X-97088Y420632D01*
X-97199Y419791D01*
X-92587D01*
Y424404D01*
D02*
G37*
G36*
X-27154D02*
X-27994Y424293D01*
X-29243Y423776D01*
X-30315Y422953D01*
X-31138Y421880D01*
X-31655Y420632D01*
X-31766Y419791D01*
X-27154D01*
Y424404D01*
D02*
G37*
G36*
X60091D02*
X59250Y424293D01*
X58002Y423776D01*
X56929Y422953D01*
X56106Y421880D01*
X55589Y420632D01*
X55478Y419791D01*
X60091D01*
Y424404D01*
D02*
G37*
G36*
X81902D02*
X81061Y424293D01*
X79813Y423776D01*
X78740Y422953D01*
X77917Y421880D01*
X77400Y420632D01*
X77289Y419791D01*
X81902D01*
Y424404D01*
D02*
G37*
G36*
X93807Y424404D02*
Y419791D01*
X98419D01*
X98309Y420632D01*
X97791Y421880D01*
X96969Y422953D01*
X95896Y423776D01*
X94647Y424293D01*
X93807Y424404D01*
D02*
G37*
G36*
X39279D02*
Y419791D01*
X43892D01*
X43781Y420632D01*
X43264Y421880D01*
X42441Y422953D01*
X41369Y423776D01*
X40120Y424293D01*
X39279Y424404D01*
D02*
G37*
G36*
X-4343D02*
Y419791D01*
X270D01*
X159Y420632D01*
X-358Y421880D01*
X-1181Y422953D01*
X-2253Y423776D01*
X-3502Y424293D01*
X-4343Y424404D01*
D02*
G37*
G36*
X38280Y424404D02*
X37439Y424293D01*
X36191Y423776D01*
X35118Y422953D01*
X34295Y421880D01*
X33778Y420632D01*
X33667Y419791D01*
X38280D01*
Y424404D01*
D02*
G37*
G36*
X-5342D02*
X-6183Y424293D01*
X-7432Y423776D01*
X-8504Y422953D01*
X-9327Y421880D01*
X-9844Y420632D01*
X-9955Y419791D01*
X-5342D01*
Y424404D01*
D02*
G37*
G36*
X92807D02*
X91967Y424293D01*
X90718Y423776D01*
X89646Y422953D01*
X88823Y421880D01*
X88305Y420632D01*
X88195Y419791D01*
X92807D01*
Y424404D01*
D02*
G37*
G36*
X-184130Y421876D02*
Y418912D01*
X-181166D01*
X-181220Y419325D01*
X-181573Y420177D01*
X-182134Y420908D01*
X-182865Y421469D01*
X-183716Y421822D01*
X-184130Y421876D01*
D02*
G37*
G36*
X-185130D02*
X-185544Y421822D01*
X-186395Y421469D01*
X-187126Y420908D01*
X-187687Y420177D01*
X-188040Y419325D01*
X-188094Y418912D01*
X-185130D01*
Y421876D01*
D02*
G37*
G36*
X125591Y436978D02*
X123889Y436844D01*
X122230Y436446D01*
X120653Y435793D01*
X119198Y434901D01*
X117900Y433793D01*
X116792Y432495D01*
X115900Y431040D01*
X115247Y429463D01*
X114848Y427804D01*
X114715Y426102D01*
X114848Y424401D01*
X115247Y422742D01*
X115900Y421165D01*
X116792Y419710D01*
X117900Y418412D01*
X119198Y417303D01*
X120653Y416412D01*
X122230Y415759D01*
X123889Y415360D01*
X125591Y415226D01*
X127292Y415360D01*
X128951Y415759D01*
X130528Y416412D01*
X131983Y417303D01*
X133281Y418412D01*
X134389Y419710D01*
X135281Y421165D01*
X135934Y422742D01*
X136333Y424401D01*
X136467Y426102D01*
X136333Y427804D01*
X135934Y429463D01*
X135281Y431040D01*
X134389Y432495D01*
X133281Y433793D01*
X131983Y434901D01*
X130528Y435793D01*
X128951Y436446D01*
X127292Y436844D01*
X125591Y436978D01*
D02*
G37*
G36*
X-124449D02*
X-126150Y436844D01*
X-127810Y436446D01*
X-129386Y435793D01*
X-130842Y434901D01*
X-132139Y433793D01*
X-133248Y432495D01*
X-134139Y431040D01*
X-134792Y429463D01*
X-135191Y427804D01*
X-135325Y426102D01*
X-135191Y424401D01*
X-134792Y422742D01*
X-134139Y421165D01*
X-133248Y419710D01*
X-132139Y418412D01*
X-130842Y417303D01*
X-129386Y416412D01*
X-127810Y415759D01*
X-126150Y415360D01*
X-124449Y415226D01*
X-122747Y415360D01*
X-121088Y415759D01*
X-119511Y416412D01*
X-118056Y417303D01*
X-116758Y418412D01*
X-115650Y419710D01*
X-114758Y421165D01*
X-114105Y422742D01*
X-113707Y424401D01*
X-113573Y426102D01*
X-113707Y427804D01*
X-114105Y429463D01*
X-114758Y431040D01*
X-115650Y432495D01*
X-116758Y433793D01*
X-118056Y434901D01*
X-119511Y435793D01*
X-121088Y436446D01*
X-122747Y436844D01*
X-124449Y436978D01*
D02*
G37*
G36*
X-181166Y417912D02*
X-184130D01*
Y414948D01*
X-183716Y415002D01*
X-182865Y415355D01*
X-182134Y415916D01*
X-181573Y416647D01*
X-181220Y417498D01*
X-181166Y417912D01*
D02*
G37*
G36*
X-185130D02*
X-188094D01*
X-188040Y417498D01*
X-187687Y416647D01*
X-187126Y415916D01*
X-186395Y415355D01*
X-185544Y415002D01*
X-185130Y414948D01*
Y417912D01*
D02*
G37*
G36*
X-5342Y418791D02*
X-9955D01*
X-9844Y417951D01*
X-9327Y416702D01*
X-8504Y415630D01*
X-7432Y414807D01*
X-6183Y414290D01*
X-5342Y414179D01*
Y418791D01*
D02*
G37*
G36*
X38280D02*
X33667D01*
X33778Y417951D01*
X34295Y416702D01*
X35118Y415630D01*
X36191Y414807D01*
X37439Y414290D01*
X38280Y414179D01*
Y418791D01*
D02*
G37*
G36*
X92807D02*
X88195D01*
X88305Y417951D01*
X88823Y416702D01*
X89646Y415630D01*
X90718Y414807D01*
X91967Y414290D01*
X92807Y414179D01*
Y418791D01*
D02*
G37*
G36*
X-48965Y418791D02*
X-53577D01*
X-53466Y417951D01*
X-52949Y416702D01*
X-52126Y415630D01*
X-51054Y414807D01*
X-49805Y414290D01*
X-48965Y414179D01*
Y418791D01*
D02*
G37*
G36*
X-70776D02*
X-75388D01*
X-75277Y417951D01*
X-74760Y416702D01*
X-73937Y415630D01*
X-72865Y414807D01*
X-71616Y414290D01*
X-70776Y414179D01*
Y418791D01*
D02*
G37*
G36*
X-92587D02*
X-97199D01*
X-97088Y417951D01*
X-96571Y416702D01*
X-95748Y415630D01*
X-94676Y414807D01*
X-93427Y414290D01*
X-92587Y414179D01*
Y418791D01*
D02*
G37*
G36*
X81902D02*
X77289D01*
X77400Y417951D01*
X77917Y416702D01*
X78740Y415630D01*
X79813Y414807D01*
X81061Y414290D01*
X81902Y414179D01*
Y418791D01*
D02*
G37*
G36*
X60091D02*
X55478D01*
X55589Y417951D01*
X56106Y416702D01*
X56929Y415630D01*
X58002Y414807D01*
X59250Y414290D01*
X60091Y414179D01*
Y418791D01*
D02*
G37*
G36*
X-27154D02*
X-31766D01*
X-31655Y417951D01*
X-31138Y416702D01*
X-30315Y415630D01*
X-29243Y414807D01*
X-27994Y414290D01*
X-27154Y414179D01*
Y418791D01*
D02*
G37*
G36*
X70996Y418791D02*
X66384D01*
X66494Y417951D01*
X67012Y416702D01*
X67835Y415630D01*
X68907Y414807D01*
X70156Y414290D01*
X70996Y414179D01*
Y418791D01*
D02*
G37*
G36*
X16468D02*
X11856D01*
X11967Y417951D01*
X12484Y416702D01*
X13307Y415630D01*
X14379Y414807D01*
X15628Y414290D01*
X16468Y414179D01*
Y418791D01*
D02*
G37*
G36*
X22081D02*
X17469D01*
Y414179D01*
X18309Y414290D01*
X19558Y414807D01*
X20630Y415630D01*
X21453Y416702D01*
X21970Y417951D01*
X22081Y418791D01*
D02*
G37*
G36*
X76608D02*
X71996D01*
Y414179D01*
X72836Y414290D01*
X74085Y414807D01*
X75158Y415630D01*
X75981Y416702D01*
X76498Y417951D01*
X76608Y418791D01*
D02*
G37*
G36*
X87514Y418791D02*
X82902D01*
Y414179D01*
X83742Y414290D01*
X84991Y414807D01*
X86063Y415630D01*
X86886Y416702D01*
X87403Y417951D01*
X87514Y418791D01*
D02*
G37*
G36*
X65703D02*
X61090D01*
Y414179D01*
X61931Y414290D01*
X63180Y414807D01*
X64252Y415630D01*
X65075Y416702D01*
X65592Y417951D01*
X65703Y418791D01*
D02*
G37*
G36*
X-21541D02*
X-26154D01*
Y414179D01*
X-25313Y414290D01*
X-24064Y414807D01*
X-22992Y415630D01*
X-22169Y416702D01*
X-21652Y417951D01*
X-21541Y418791D01*
D02*
G37*
G36*
X-43352D02*
X-47965D01*
Y414179D01*
X-47124Y414290D01*
X-45875Y414807D01*
X-44803Y415630D01*
X-43980Y416702D01*
X-43463Y417951D01*
X-43352Y418791D01*
D02*
G37*
G36*
X-65163D02*
X-69776D01*
Y414179D01*
X-68935Y414290D01*
X-67686Y414807D01*
X-66614Y415630D01*
X-65791Y416702D01*
X-65274Y417951D01*
X-65163Y418791D01*
D02*
G37*
G36*
X-86974D02*
X-91587D01*
Y414179D01*
X-90746Y414290D01*
X-89498Y414807D01*
X-88425Y415630D01*
X-87602Y416702D01*
X-87085Y417951D01*
X-86974Y418791D01*
D02*
G37*
G36*
X98419Y418791D02*
X93807D01*
Y414179D01*
X94647Y414290D01*
X95896Y414807D01*
X96969Y415630D01*
X97791Y416702D01*
X98309Y417951D01*
X98419Y418791D01*
D02*
G37*
G36*
X43892D02*
X39279D01*
Y414179D01*
X40120Y414290D01*
X41369Y414807D01*
X42441Y415630D01*
X43264Y416702D01*
X43781Y417951D01*
X43892Y418791D01*
D02*
G37*
G36*
X270D02*
X-4343D01*
Y414179D01*
X-3502Y414290D01*
X-2253Y414807D01*
X-1181Y415630D01*
X-358Y416702D01*
X159Y417951D01*
X270Y418791D01*
D02*
G37*
G36*
X49685Y424470D02*
X48345Y424293D01*
X47096Y423776D01*
X46024Y422953D01*
X45201Y421880D01*
X44683Y420632D01*
X44507Y419291D01*
X44683Y417951D01*
X45201Y416702D01*
X46024Y415630D01*
X47096Y414807D01*
X48345Y414290D01*
X49685Y414113D01*
X51025Y414290D01*
X52274Y414807D01*
X53347Y415630D01*
X54169Y416702D01*
X54687Y417951D01*
X54863Y419291D01*
X54687Y420632D01*
X54169Y421880D01*
X53347Y422953D01*
X52274Y423776D01*
X51025Y424293D01*
X49685Y424470D01*
D02*
G37*
G36*
X27874D02*
X26534Y424293D01*
X25285Y423776D01*
X24213Y422953D01*
X23390Y421880D01*
X22872Y420632D01*
X22696Y419291D01*
X22872Y417951D01*
X23390Y416702D01*
X24213Y415630D01*
X25285Y414807D01*
X26534Y414290D01*
X27874Y414113D01*
X29214Y414290D01*
X30463Y414807D01*
X31536Y415630D01*
X32358Y416702D01*
X32876Y417951D01*
X33052Y419291D01*
X32876Y420632D01*
X32358Y421880D01*
X31536Y422953D01*
X30463Y423776D01*
X29214Y424293D01*
X27874Y424470D01*
D02*
G37*
G36*
X6063D02*
X4723Y424293D01*
X3474Y423776D01*
X2402Y422953D01*
X1579Y421880D01*
X1061Y420632D01*
X885Y419291D01*
X1061Y417951D01*
X1579Y416702D01*
X2402Y415630D01*
X3474Y414807D01*
X4723Y414290D01*
X6063Y414113D01*
X7403Y414290D01*
X8652Y414807D01*
X9725Y415630D01*
X10547Y416702D01*
X11065Y417951D01*
X11241Y419291D01*
X11065Y420632D01*
X10547Y421880D01*
X9725Y422953D01*
X8652Y423776D01*
X7403Y424293D01*
X6063Y424470D01*
D02*
G37*
G36*
X-15748D02*
X-17088Y424293D01*
X-18337Y423776D01*
X-19410Y422953D01*
X-20232Y421880D01*
X-20750Y420632D01*
X-20926Y419291D01*
X-20750Y417951D01*
X-20232Y416702D01*
X-19410Y415630D01*
X-18337Y414807D01*
X-17088Y414290D01*
X-15748Y414113D01*
X-14408Y414290D01*
X-13159Y414807D01*
X-12087Y415630D01*
X-11264Y416702D01*
X-10746Y417951D01*
X-10570Y419291D01*
X-10746Y420632D01*
X-11264Y421880D01*
X-12087Y422953D01*
X-13159Y423776D01*
X-14408Y424293D01*
X-15748Y424470D01*
D02*
G37*
G36*
X-37559D02*
X-38899Y424293D01*
X-40148Y423776D01*
X-41221Y422953D01*
X-42044Y421880D01*
X-42561Y420632D01*
X-42737Y419291D01*
X-42561Y417951D01*
X-42044Y416702D01*
X-41221Y415630D01*
X-40148Y414807D01*
X-38899Y414290D01*
X-37559Y414113D01*
X-36219Y414290D01*
X-34970Y414807D01*
X-33898Y415630D01*
X-33075Y416702D01*
X-32557Y417951D01*
X-32381Y419291D01*
X-32557Y420632D01*
X-33075Y421880D01*
X-33898Y422953D01*
X-34970Y423776D01*
X-36219Y424293D01*
X-37559Y424470D01*
D02*
G37*
G36*
X-59370D02*
X-60710Y424293D01*
X-61959Y423776D01*
X-63032Y422953D01*
X-63854Y421880D01*
X-64372Y420632D01*
X-64548Y419291D01*
X-64372Y417951D01*
X-63854Y416702D01*
X-63032Y415630D01*
X-61959Y414807D01*
X-60710Y414290D01*
X-59370Y414113D01*
X-58030Y414290D01*
X-56781Y414807D01*
X-55709Y415630D01*
X-54886Y416702D01*
X-54368Y417951D01*
X-54192Y419291D01*
X-54368Y420632D01*
X-54886Y421880D01*
X-55709Y422953D01*
X-56781Y423776D01*
X-58030Y424293D01*
X-59370Y424470D01*
D02*
G37*
G36*
X-81181D02*
X-82521Y424293D01*
X-83770Y423776D01*
X-84843Y422953D01*
X-85666Y421880D01*
X-86183Y420632D01*
X-86359Y419291D01*
X-86183Y417951D01*
X-85666Y416702D01*
X-84843Y415630D01*
X-83770Y414807D01*
X-82521Y414290D01*
X-81181Y414113D01*
X-79841Y414290D01*
X-78592Y414807D01*
X-77520Y415630D01*
X-76697Y416702D01*
X-76179Y417951D01*
X-76003Y419291D01*
X-76179Y420632D01*
X-76697Y421880D01*
X-77520Y422953D01*
X-78592Y423776D01*
X-79841Y424293D01*
X-81181Y424470D01*
D02*
G37*
G36*
X187508Y416850D02*
Y413886D01*
X190472D01*
X190418Y414299D01*
X190065Y415151D01*
X189504Y415882D01*
X188773Y416443D01*
X187922Y416796D01*
X187508Y416850D01*
D02*
G37*
G36*
X186508D02*
X186094Y416796D01*
X185243Y416443D01*
X184512Y415882D01*
X183951Y415151D01*
X183598Y414299D01*
X183544Y413886D01*
X186508D01*
Y416850D01*
D02*
G37*
G36*
X190472Y412886D02*
X187508D01*
Y409922D01*
X187922Y409976D01*
X188773Y410329D01*
X189504Y410890D01*
X190065Y411621D01*
X190418Y412472D01*
X190472Y412886D01*
D02*
G37*
G36*
X186508D02*
X183544D01*
X183598Y412472D01*
X183951Y411621D01*
X184512Y410890D01*
X185243Y410329D01*
X186094Y409976D01*
X186508Y409922D01*
Y412886D01*
D02*
G37*
G36*
X98779Y414469D02*
X97439Y414293D01*
X96191Y413776D01*
X95118Y412953D01*
X94295Y411880D01*
X93778Y410632D01*
X93601Y409291D01*
X93778Y407951D01*
X94295Y406702D01*
X95118Y405630D01*
X96191Y404807D01*
X97439Y404290D01*
X98779Y404113D01*
X100120Y404290D01*
X101369Y404807D01*
X102441Y405630D01*
X103264Y406702D01*
X103781Y407951D01*
X103958Y409291D01*
X103781Y410632D01*
X103264Y411880D01*
X102441Y412953D01*
X101369Y413776D01*
X100120Y414293D01*
X98779Y414469D01*
D02*
G37*
G36*
X87874D02*
X86534Y414293D01*
X85285Y413776D01*
X84212Y412953D01*
X83390Y411880D01*
X82872Y410632D01*
X82696Y409291D01*
X82872Y407951D01*
X83390Y406702D01*
X84212Y405630D01*
X85285Y404807D01*
X86534Y404290D01*
X87874Y404113D01*
X89214Y404290D01*
X90463Y404807D01*
X91536Y405630D01*
X92358Y406702D01*
X92876Y407951D01*
X93052Y409291D01*
X92876Y410632D01*
X92358Y411880D01*
X91536Y412953D01*
X90463Y413776D01*
X89214Y414293D01*
X87874Y414469D01*
D02*
G37*
G36*
X76968D02*
X75628Y414293D01*
X74379Y413776D01*
X73307Y412953D01*
X72484Y411880D01*
X71967Y410632D01*
X71790Y409291D01*
X71967Y407951D01*
X72484Y406702D01*
X73307Y405630D01*
X74379Y404807D01*
X75628Y404290D01*
X76968Y404113D01*
X78309Y404290D01*
X79558Y404807D01*
X80630Y405630D01*
X81453Y406702D01*
X81970Y407951D01*
X82147Y409291D01*
X81970Y410632D01*
X81453Y411880D01*
X80630Y412953D01*
X79558Y413776D01*
X78309Y414293D01*
X76968Y414469D01*
D02*
G37*
G36*
X66063D02*
X64723Y414293D01*
X63474Y413776D01*
X62401Y412953D01*
X61579Y411880D01*
X61061Y410632D01*
X60885Y409291D01*
X61061Y407951D01*
X61579Y406702D01*
X62401Y405630D01*
X63474Y404807D01*
X64723Y404290D01*
X66063Y404113D01*
X67403Y404290D01*
X68652Y404807D01*
X69725Y405630D01*
X70547Y406702D01*
X71065Y407951D01*
X71241Y409291D01*
X71065Y410632D01*
X70547Y411880D01*
X69725Y412953D01*
X68652Y413776D01*
X67403Y414293D01*
X66063Y414469D01*
D02*
G37*
G36*
X55158D02*
X53817Y414293D01*
X52568Y413776D01*
X51496Y412953D01*
X50673Y411880D01*
X50156Y410632D01*
X49979Y409291D01*
X50156Y407951D01*
X50673Y406702D01*
X51496Y405630D01*
X52568Y404807D01*
X53817Y404290D01*
X55158Y404113D01*
X56498Y404290D01*
X57747Y404807D01*
X58819Y405630D01*
X59642Y406702D01*
X60159Y407951D01*
X60336Y409291D01*
X60159Y410632D01*
X59642Y411880D01*
X58819Y412953D01*
X57747Y413776D01*
X56498Y414293D01*
X55158Y414469D01*
D02*
G37*
G36*
X44252D02*
X42912Y414293D01*
X41663Y413776D01*
X40591Y412953D01*
X39768Y411880D01*
X39250Y410632D01*
X39074Y409291D01*
X39250Y407951D01*
X39768Y406702D01*
X40591Y405630D01*
X41663Y404807D01*
X42912Y404290D01*
X44252Y404113D01*
X45592Y404290D01*
X46841Y404807D01*
X47914Y405630D01*
X48736Y406702D01*
X49254Y407951D01*
X49430Y409291D01*
X49254Y410632D01*
X48736Y411880D01*
X47914Y412953D01*
X46841Y413776D01*
X45592Y414293D01*
X44252Y414469D01*
D02*
G37*
G36*
X33347D02*
X32006Y414293D01*
X30757Y413776D01*
X29685Y412953D01*
X28862Y411880D01*
X28345Y410632D01*
X28168Y409291D01*
X28345Y407951D01*
X28862Y406702D01*
X29685Y405630D01*
X30757Y404807D01*
X32006Y404290D01*
X33347Y404113D01*
X34687Y404290D01*
X35936Y404807D01*
X37008Y405630D01*
X37831Y406702D01*
X38348Y407951D01*
X38525Y409291D01*
X38348Y410632D01*
X37831Y411880D01*
X37008Y412953D01*
X35936Y413776D01*
X34687Y414293D01*
X33347Y414469D01*
D02*
G37*
G36*
X22441D02*
X21101Y414293D01*
X19852Y413776D01*
X18779Y412953D01*
X17956Y411880D01*
X17439Y410632D01*
X17263Y409291D01*
X17439Y407951D01*
X17956Y406702D01*
X18779Y405630D01*
X19852Y404807D01*
X21101Y404290D01*
X22441Y404113D01*
X23781Y404290D01*
X25030Y404807D01*
X26103Y405630D01*
X26925Y406702D01*
X27443Y407951D01*
X27619Y409291D01*
X27443Y410632D01*
X26925Y411880D01*
X26103Y412953D01*
X25030Y413776D01*
X23781Y414293D01*
X22441Y414469D01*
D02*
G37*
G36*
X11535D02*
X10195Y414293D01*
X8946Y413776D01*
X7874Y412953D01*
X7051Y411880D01*
X6534Y410632D01*
X6357Y409291D01*
X6534Y407951D01*
X7051Y406702D01*
X7874Y405630D01*
X8946Y404807D01*
X10195Y404290D01*
X11535Y404113D01*
X12876Y404290D01*
X14124Y404807D01*
X15197Y405630D01*
X16020Y406702D01*
X16537Y407951D01*
X16714Y409291D01*
X16537Y410632D01*
X16020Y411880D01*
X15197Y412953D01*
X14124Y413776D01*
X12876Y414293D01*
X11535Y414469D01*
D02*
G37*
G36*
X630D02*
X-710Y414293D01*
X-1959Y413776D01*
X-3032Y412953D01*
X-3855Y411880D01*
X-4372Y410632D01*
X-4548Y409291D01*
X-4372Y407951D01*
X-3855Y406702D01*
X-3032Y405630D01*
X-1959Y404807D01*
X-710Y404290D01*
X630Y404113D01*
X1970Y404290D01*
X3219Y404807D01*
X4291Y405630D01*
X5114Y406702D01*
X5632Y407951D01*
X5808Y409291D01*
X5632Y410632D01*
X5114Y411880D01*
X4291Y412953D01*
X3219Y413776D01*
X1970Y414293D01*
X630Y414469D01*
D02*
G37*
G36*
X-10276D02*
X-11616Y414293D01*
X-12865Y413776D01*
X-13937Y412953D01*
X-14760Y411880D01*
X-15277Y410632D01*
X-15454Y409291D01*
X-15277Y407951D01*
X-14760Y406702D01*
X-13937Y405630D01*
X-12865Y404807D01*
X-11616Y404290D01*
X-10276Y404113D01*
X-8935Y404290D01*
X-7687Y404807D01*
X-6614Y405630D01*
X-5791Y406702D01*
X-5274Y407951D01*
X-5097Y409291D01*
X-5274Y410632D01*
X-5791Y411880D01*
X-6614Y412953D01*
X-7687Y413776D01*
X-8935Y414293D01*
X-10276Y414469D01*
D02*
G37*
G36*
X-21181D02*
X-22521Y414293D01*
X-23770Y413776D01*
X-24843Y412953D01*
X-25666Y411880D01*
X-26183Y410632D01*
X-26359Y409291D01*
X-26183Y407951D01*
X-25666Y406702D01*
X-24843Y405630D01*
X-23770Y404807D01*
X-22521Y404290D01*
X-21181Y404113D01*
X-19841Y404290D01*
X-18592Y404807D01*
X-17520Y405630D01*
X-16697Y406702D01*
X-16179Y407951D01*
X-16003Y409291D01*
X-16179Y410632D01*
X-16697Y411880D01*
X-17520Y412953D01*
X-18592Y413776D01*
X-19841Y414293D01*
X-21181Y414469D01*
D02*
G37*
G36*
X-32087D02*
X-33427Y414293D01*
X-34676Y413776D01*
X-35748Y412953D01*
X-36571Y411880D01*
X-37088Y410632D01*
X-37265Y409291D01*
X-37088Y407951D01*
X-36571Y406702D01*
X-35748Y405630D01*
X-34676Y404807D01*
X-33427Y404290D01*
X-32087Y404113D01*
X-30746Y404290D01*
X-29498Y404807D01*
X-28425Y405630D01*
X-27602Y406702D01*
X-27085Y407951D01*
X-26908Y409291D01*
X-27085Y410632D01*
X-27602Y411880D01*
X-28425Y412953D01*
X-29498Y413776D01*
X-30746Y414293D01*
X-32087Y414469D01*
D02*
G37*
G36*
X-42992D02*
X-44332Y414293D01*
X-45581Y413776D01*
X-46654Y412953D01*
X-47477Y411880D01*
X-47994Y410632D01*
X-48170Y409291D01*
X-47994Y407951D01*
X-47477Y406702D01*
X-46654Y405630D01*
X-45581Y404807D01*
X-44332Y404290D01*
X-42992Y404113D01*
X-41652Y404290D01*
X-40403Y404807D01*
X-39331Y405630D01*
X-38508Y406702D01*
X-37990Y407951D01*
X-37814Y409291D01*
X-37990Y410632D01*
X-38508Y411880D01*
X-39331Y412953D01*
X-40403Y413776D01*
X-41652Y414293D01*
X-42992Y414469D01*
D02*
G37*
G36*
X-53898D02*
X-55238Y414293D01*
X-56487Y413776D01*
X-57559Y412953D01*
X-58382Y411880D01*
X-58899Y410632D01*
X-59076Y409291D01*
X-58899Y407951D01*
X-58382Y406702D01*
X-57559Y405630D01*
X-56487Y404807D01*
X-55238Y404290D01*
X-53898Y404113D01*
X-52557Y404290D01*
X-51309Y404807D01*
X-50236Y405630D01*
X-49413Y406702D01*
X-48896Y407951D01*
X-48719Y409291D01*
X-48896Y410632D01*
X-49413Y411880D01*
X-50236Y412953D01*
X-51309Y413776D01*
X-52557Y414293D01*
X-53898Y414469D01*
D02*
G37*
G36*
X-64803D02*
X-66143Y414293D01*
X-67392Y413776D01*
X-68465Y412953D01*
X-69288Y411880D01*
X-69805Y410632D01*
X-69981Y409291D01*
X-69805Y407951D01*
X-69288Y406702D01*
X-68465Y405630D01*
X-67392Y404807D01*
X-66143Y404290D01*
X-64803Y404113D01*
X-63463Y404290D01*
X-62214Y404807D01*
X-61142Y405630D01*
X-60319Y406702D01*
X-59801Y407951D01*
X-59625Y409291D01*
X-59801Y410632D01*
X-60319Y411880D01*
X-61142Y412953D01*
X-62214Y413776D01*
X-63463Y414293D01*
X-64803Y414469D01*
D02*
G37*
G36*
X-75709D02*
X-77049Y414293D01*
X-78298Y413776D01*
X-79370Y412953D01*
X-80193Y411880D01*
X-80710Y410632D01*
X-80887Y409291D01*
X-80710Y407951D01*
X-80193Y406702D01*
X-79370Y405630D01*
X-78298Y404807D01*
X-77049Y404290D01*
X-75709Y404113D01*
X-74368Y404290D01*
X-73120Y404807D01*
X-72047Y405630D01*
X-71224Y406702D01*
X-70707Y407951D01*
X-70530Y409291D01*
X-70707Y410632D01*
X-71224Y411880D01*
X-72047Y412953D01*
X-73120Y413776D01*
X-74368Y414293D01*
X-75709Y414469D01*
D02*
G37*
G36*
X-86614D02*
X-87954Y414293D01*
X-89203Y413776D01*
X-90276Y412953D01*
X-91099Y411880D01*
X-91616Y410632D01*
X-91792Y409291D01*
X-91616Y407951D01*
X-91099Y406702D01*
X-90276Y405630D01*
X-89203Y404807D01*
X-87954Y404290D01*
X-86614Y404113D01*
X-85274Y404290D01*
X-84025Y404807D01*
X-82953Y405630D01*
X-82130Y406702D01*
X-81612Y407951D01*
X-81436Y409291D01*
X-81612Y410632D01*
X-82130Y411880D01*
X-82953Y412953D01*
X-84025Y413776D01*
X-85274Y414293D01*
X-86614Y414469D01*
D02*
G37*
G36*
X-97520D02*
X-98860Y414293D01*
X-100109Y413776D01*
X-101181Y412953D01*
X-102004Y411880D01*
X-102521Y410632D01*
X-102698Y409291D01*
X-102521Y407951D01*
X-102004Y406702D01*
X-101181Y405630D01*
X-100109Y404807D01*
X-98860Y404290D01*
X-97520Y404113D01*
X-96179Y404290D01*
X-94931Y404807D01*
X-93858Y405630D01*
X-93035Y406702D01*
X-92518Y407951D01*
X-92342Y409291D01*
X-92518Y410632D01*
X-93035Y411880D01*
X-93858Y412953D01*
X-94931Y413776D01*
X-96179Y414293D01*
X-97520Y414469D01*
D02*
G37*
G36*
X-192913Y398582D02*
X-194202Y398412D01*
X-195403Y397915D01*
X-196434Y397124D01*
X-197226Y396092D01*
X-197723Y394891D01*
X-197893Y393602D01*
X-197723Y392314D01*
X-197226Y391113D01*
X-196434Y390081D01*
X-195403Y389290D01*
X-194202Y388792D01*
X-192913Y388623D01*
X-191625Y388792D01*
X-190424Y389290D01*
X-189392Y390081D01*
X-188601Y391113D01*
X-188103Y392314D01*
X-187934Y393602D01*
X-188103Y394891D01*
X-188601Y396092D01*
X-189392Y397124D01*
X-190424Y397915D01*
X-191625Y398412D01*
X-192913Y398582D01*
D02*
G37*
G36*
X192913Y390708D02*
X191625Y390538D01*
X190424Y390041D01*
X189392Y389249D01*
X188601Y388218D01*
X188103Y387017D01*
X187934Y385728D01*
X188103Y384439D01*
X188601Y383239D01*
X189392Y382207D01*
X190424Y381416D01*
X191625Y380918D01*
X192913Y380749D01*
X194202Y380918D01*
X195403Y381416D01*
X196434Y382207D01*
X197226Y383239D01*
X197723Y384439D01*
X197893Y385728D01*
X197723Y387017D01*
X197226Y388218D01*
X196434Y389249D01*
X195403Y390041D01*
X194202Y390538D01*
X192913Y390708D01*
D02*
G37*
G36*
X193413Y370957D02*
Y366543D01*
X197827D01*
X197723Y367332D01*
X197226Y368533D01*
X196434Y369564D01*
X195403Y370356D01*
X194202Y370853D01*
X193413Y370957D01*
D02*
G37*
G36*
X192413D02*
X191625Y370853D01*
X190424Y370356D01*
X189392Y369564D01*
X188601Y368533D01*
X188103Y367332D01*
X188000Y366543D01*
X192413D01*
Y370957D01*
D02*
G37*
G36*
X68898Y394746D02*
X66579Y394564D01*
X64316Y394021D01*
X62167Y393131D01*
X60184Y391915D01*
X58415Y390404D01*
X56904Y388635D01*
X55688Y386652D01*
X54798Y384503D01*
X54255Y382240D01*
X54072Y379921D01*
X54255Y377602D01*
X54798Y375340D01*
X55688Y373191D01*
X56904Y371207D01*
X58415Y369438D01*
X60184Y367927D01*
X62167Y366712D01*
X64316Y365822D01*
X66579Y365279D01*
X68898Y365096D01*
X71217Y365279D01*
X73479Y365822D01*
X75628Y366712D01*
X77612Y367927D01*
X79381Y369438D01*
X80892Y371207D01*
X82107Y373191D01*
X82997Y375340D01*
X83540Y377602D01*
X83723Y379921D01*
X83540Y382240D01*
X82997Y384503D01*
X82107Y386652D01*
X80892Y388635D01*
X79381Y390404D01*
X77612Y391915D01*
X75628Y393131D01*
X73479Y394021D01*
X71217Y394564D01*
X68898Y394746D01*
D02*
G37*
G36*
X-68898D02*
X-71217Y394564D01*
X-73479Y394021D01*
X-75628Y393131D01*
X-77612Y391915D01*
X-79381Y390404D01*
X-80892Y388635D01*
X-82107Y386652D01*
X-82997Y384503D01*
X-83540Y382240D01*
X-83723Y379921D01*
X-83540Y377602D01*
X-82997Y375340D01*
X-82107Y373191D01*
X-80892Y371207D01*
X-79381Y369438D01*
X-77612Y367927D01*
X-75628Y366712D01*
X-73479Y365822D01*
X-71217Y365279D01*
X-68898Y365096D01*
X-66578Y365279D01*
X-64316Y365822D01*
X-62167Y366712D01*
X-60184Y367927D01*
X-58415Y369438D01*
X-56904Y371207D01*
X-55688Y373191D01*
X-54798Y375340D01*
X-54255Y377602D01*
X-54072Y379921D01*
X-54255Y382240D01*
X-54798Y384503D01*
X-55688Y386652D01*
X-56904Y388635D01*
X-58415Y390404D01*
X-60184Y391915D01*
X-62167Y393131D01*
X-64316Y394021D01*
X-66578Y394564D01*
X-68898Y394746D01*
D02*
G37*
G36*
X197827Y365543D02*
X193413D01*
Y361129D01*
X194202Y361233D01*
X195403Y361731D01*
X196434Y362522D01*
X197226Y363554D01*
X197723Y364755D01*
X197827Y365543D01*
D02*
G37*
G36*
X192413D02*
X188000D01*
X188103Y364755D01*
X188601Y363554D01*
X189392Y362522D01*
X190424Y361731D01*
X191625Y361233D01*
X192413Y361129D01*
Y365543D01*
D02*
G37*
G36*
X-24163Y373609D02*
X-25077Y373489D01*
X-25929Y373136D01*
X-26660Y372575D01*
X-27221Y371844D01*
X-27573Y370992D01*
X-27694Y370079D01*
X-27573Y369165D01*
X-27221Y368314D01*
X-26660Y367583D01*
X-25929Y367021D01*
X-25077Y366669D01*
X-24163Y366548D01*
X-23250Y366669D01*
X-23106Y366728D01*
X-13499Y357121D01*
X-12973Y356769D01*
X-12352Y356646D01*
X76968D01*
X77589Y356769D01*
X78115Y357121D01*
X81577Y360583D01*
X90191D01*
X90250Y360440D01*
X90811Y359708D01*
X91542Y359148D01*
X92393Y358795D01*
X93307Y358675D01*
X94221Y358795D01*
X95072Y359148D01*
X95803Y359708D01*
X96364Y360440D01*
X96717Y361291D01*
X96837Y362205D01*
X96717Y363118D01*
X96364Y363970D01*
X95803Y364701D01*
X95072Y365262D01*
X94221Y365615D01*
X93307Y365735D01*
X92393Y365615D01*
X91542Y365262D01*
X90811Y364701D01*
X90250Y363970D01*
X90191Y363826D01*
X80905D01*
X80285Y363703D01*
X79759Y363351D01*
X76297Y359889D01*
X-11681D01*
X-20813Y369022D01*
X-20753Y369165D01*
X-20633Y370079D01*
X-20753Y370992D01*
X-21106Y371844D01*
X-21667Y372575D01*
X-22398Y373136D01*
X-23250Y373489D01*
X-24163Y373609D01*
D02*
G37*
G36*
X192913Y351338D02*
X191625Y351168D01*
X190424Y350671D01*
X189392Y349879D01*
X188601Y348848D01*
X188103Y347647D01*
X187934Y346358D01*
X188103Y345069D01*
X188601Y343868D01*
X189392Y342837D01*
X190424Y342046D01*
X191625Y341548D01*
X192913Y341379D01*
X194202Y341548D01*
X195403Y342046D01*
X196434Y342837D01*
X197226Y343868D01*
X197723Y345069D01*
X197893Y346358D01*
X197723Y347647D01*
X197226Y348848D01*
X196434Y349879D01*
X195403Y350671D01*
X194202Y351168D01*
X192913Y351338D01*
D02*
G37*
G36*
X-192413Y343496D02*
Y339083D01*
X-188000D01*
X-188103Y339872D01*
X-188601Y341073D01*
X-189392Y342104D01*
X-190424Y342895D01*
X-191625Y343393D01*
X-192413Y343496D01*
D02*
G37*
G36*
X-193413D02*
X-194202Y343393D01*
X-195403Y342895D01*
X-196434Y342104D01*
X-197226Y341073D01*
X-197723Y339872D01*
X-197827Y339083D01*
X-193413D01*
Y343496D01*
D02*
G37*
G36*
X-188000Y338083D02*
X-192413D01*
Y333669D01*
X-191625Y333773D01*
X-190424Y334270D01*
X-189392Y335062D01*
X-188601Y336093D01*
X-188103Y337294D01*
X-188000Y338083D01*
D02*
G37*
G36*
X-193413D02*
X-197827D01*
X-197723Y337294D01*
X-197226Y336093D01*
X-196434Y335062D01*
X-195403Y334270D01*
X-194202Y333773D01*
X-193413Y333669D01*
Y338083D01*
D02*
G37*
G36*
X193413Y331587D02*
Y327173D01*
X197827D01*
X197723Y327962D01*
X197226Y329163D01*
X196434Y330194D01*
X195403Y330986D01*
X194202Y331483D01*
X193413Y331587D01*
D02*
G37*
G36*
X192413D02*
X191625Y331483D01*
X190424Y330986D01*
X189392Y330194D01*
X188601Y329163D01*
X188103Y327962D01*
X188000Y327173D01*
X192413D01*
Y331587D01*
D02*
G37*
G36*
X197827Y326173D02*
X193413D01*
Y321759D01*
X194202Y321863D01*
X195403Y322361D01*
X196434Y323152D01*
X197226Y324183D01*
X197723Y325384D01*
X197827Y326173D01*
D02*
G37*
G36*
X192413D02*
X188000D01*
X188103Y325384D01*
X188601Y324183D01*
X189392Y323152D01*
X190424Y322361D01*
X191625Y321863D01*
X192413Y321759D01*
Y326173D01*
D02*
G37*
G36*
X-192913Y320039D02*
X-194202Y319869D01*
X-195403Y319372D01*
X-196434Y318580D01*
X-197226Y317549D01*
X-197723Y316348D01*
X-197893Y315059D01*
X-197723Y313770D01*
X-197226Y312569D01*
X-196434Y311538D01*
X-195403Y310747D01*
X-194202Y310249D01*
X-192913Y310079D01*
X-191625Y310249D01*
X-190424Y310747D01*
X-189392Y311538D01*
X-188601Y312569D01*
X-188103Y313770D01*
X-187934Y315059D01*
X-188103Y316348D01*
X-188601Y317549D01*
X-189392Y318580D01*
X-190424Y319372D01*
X-191625Y319869D01*
X-192913Y320039D01*
D02*
G37*
G36*
X-69776Y310551D02*
Y307586D01*
X-66811D01*
X-66866Y308000D01*
X-67218Y308851D01*
X-67779Y309582D01*
X-68511Y310143D01*
X-69362Y310496D01*
X-69776Y310551D01*
D02*
G37*
G36*
X-70776D02*
X-71189Y310496D01*
X-72041Y310143D01*
X-72772Y309582D01*
X-73333Y308851D01*
X-73685Y308000D01*
X-73740Y307586D01*
X-70776D01*
Y310551D01*
D02*
G37*
G36*
X-66811Y306586D02*
X-69776D01*
Y303622D01*
X-69362Y303676D01*
X-68511Y304029D01*
X-67779Y304590D01*
X-67218Y305321D01*
X-66866Y306173D01*
X-66811Y306586D01*
D02*
G37*
G36*
X-70776D02*
X-73740D01*
X-73685Y306173D01*
X-73333Y305321D01*
X-72772Y304590D01*
X-72041Y304029D01*
X-71189Y303676D01*
X-70776Y303622D01*
Y306586D01*
D02*
G37*
G36*
X60591Y330302D02*
X59677Y330182D01*
X58825Y329829D01*
X58094Y329268D01*
X57533Y328537D01*
X57181Y327685D01*
X57060Y326772D01*
X57181Y325858D01*
X57533Y325007D01*
X58094Y324275D01*
X58825Y323714D01*
X58969Y323655D01*
Y302846D01*
X58469Y302701D01*
X57828Y303192D01*
X56977Y303545D01*
X56563Y303600D01*
Y300135D01*
Y296671D01*
X56977Y296725D01*
X57828Y297078D01*
X58469Y297570D01*
X58969Y297425D01*
Y268920D01*
X23954Y233905D01*
X1932D01*
X-150Y235987D01*
Y240289D01*
X-7Y240348D01*
X725Y240909D01*
X1286Y241640D01*
X1638Y242492D01*
X1759Y243406D01*
X1638Y244319D01*
X1286Y245171D01*
X725Y245902D01*
X-7Y246463D01*
X-858Y246815D01*
X-1772Y246936D01*
X-2685Y246815D01*
X-3537Y246463D01*
X-4268Y245902D01*
X-4829Y245171D01*
X-5181Y244319D01*
X-5302Y243406D01*
X-5181Y242492D01*
X-4829Y241640D01*
X-4268Y240909D01*
X-3537Y240348D01*
X-3393Y240289D01*
Y235315D01*
X-3270Y234694D01*
X-2918Y234168D01*
X113Y231137D01*
X639Y230785D01*
X1260Y230662D01*
X24626D01*
X25247Y230785D01*
X25773Y231137D01*
X61737Y267101D01*
X62089Y267627D01*
X62212Y268248D01*
Y323655D01*
X62356Y323714D01*
X63087Y324275D01*
X63648Y325007D01*
X64000Y325858D01*
X64121Y326772D01*
X64000Y327685D01*
X63648Y328537D01*
X63087Y329268D01*
X62356Y329829D01*
X61504Y330182D01*
X60591Y330302D01*
D02*
G37*
G36*
X192913Y311968D02*
X191625Y311798D01*
X190424Y311301D01*
X189392Y310509D01*
X188601Y309478D01*
X188103Y308277D01*
X187934Y306988D01*
X188103Y305699D01*
X188601Y304498D01*
X189392Y303467D01*
X190424Y302676D01*
X191625Y302178D01*
X192913Y302009D01*
X194202Y302178D01*
X195403Y302676D01*
X196434Y303467D01*
X197226Y304498D01*
X197723Y305699D01*
X197893Y306988D01*
X197723Y308277D01*
X197226Y309478D01*
X196434Y310509D01*
X195403Y311301D01*
X194202Y311798D01*
X192913Y311968D01*
D02*
G37*
G36*
X55563Y303600D02*
X55149Y303545D01*
X54298Y303192D01*
X53567Y302631D01*
X53006Y301900D01*
X52653Y301049D01*
X52599Y300635D01*
X55563D01*
Y303600D01*
D02*
G37*
G36*
Y299635D02*
X52599D01*
X52653Y299222D01*
X53006Y298370D01*
X53567Y297639D01*
X54298Y297078D01*
X55149Y296725D01*
X55563Y296671D01*
Y299635D01*
D02*
G37*
G36*
X-108110Y351562D02*
X-109024Y351442D01*
X-109875Y351090D01*
X-110606Y350529D01*
X-111168Y349797D01*
X-111520Y348946D01*
X-111640Y348032D01*
X-111520Y347119D01*
X-111168Y346267D01*
X-110606Y345536D01*
X-109875Y344975D01*
X-109732Y344916D01*
Y303334D01*
X-109608Y302713D01*
X-109257Y302187D01*
X-108988Y301919D01*
X-109002Y301900D01*
X-109355Y301049D01*
X-109475Y300135D01*
X-109355Y299222D01*
X-109002Y298370D01*
X-108441Y297639D01*
X-107710Y297078D01*
X-106859Y296725D01*
X-105945Y296605D01*
X-105031Y296725D01*
X-104180Y297078D01*
X-103449Y297639D01*
X-102888Y298370D01*
X-102535Y299222D01*
X-102415Y300135D01*
X-102535Y301049D01*
X-102888Y301900D01*
X-103449Y302631D01*
X-104180Y303192D01*
X-105031Y303545D01*
X-105945Y303665D01*
X-106125Y303642D01*
X-106489Y304006D01*
Y344916D01*
X-106345Y344975D01*
X-105614Y345536D01*
X-105053Y346267D01*
X-104700Y347119D01*
X-104580Y348032D01*
X-104700Y348946D01*
X-105053Y349797D01*
X-105614Y350529D01*
X-106345Y351090D01*
X-107196Y351442D01*
X-108110Y351562D01*
D02*
G37*
G36*
X-35669Y298806D02*
X-36583Y298686D01*
X-37434Y298333D01*
X-38166Y297772D01*
X-38726Y297041D01*
X-39079Y296189D01*
X-39199Y295276D01*
X-39079Y294362D01*
X-38726Y293511D01*
X-38166Y292779D01*
X-37434Y292218D01*
X-36583Y291866D01*
X-35669Y291745D01*
X-34756Y291866D01*
X-33904Y292218D01*
X-33173Y292779D01*
X-32612Y293511D01*
X-32597Y293546D01*
X-17205D01*
X-17100Y293294D01*
X-16540Y292563D01*
X-15808Y292002D01*
X-14957Y291649D01*
X-14043Y291529D01*
X-13130Y291649D01*
X-12278Y292002D01*
X-11547Y292563D01*
X-10986Y293294D01*
X-10633Y294145D01*
X-10513Y295059D01*
X-10633Y295973D01*
X-10986Y296824D01*
X-11547Y297555D01*
X-12278Y298116D01*
X-13130Y298469D01*
X-14043Y298589D01*
X-14957Y298469D01*
X-15808Y298116D01*
X-16540Y297555D01*
X-17100Y296824D01*
X-17115Y296789D01*
X-32508D01*
X-32612Y297041D01*
X-33173Y297772D01*
X-33904Y298333D01*
X-34756Y298686D01*
X-35669Y298806D01*
D02*
G37*
G36*
X-137324Y351601D02*
X-138238Y351481D01*
X-139090Y351128D01*
X-139821Y350567D01*
X-140382Y349836D01*
X-140734Y348985D01*
X-140855Y348071D01*
X-140734Y347157D01*
X-140382Y346306D01*
X-139821Y345575D01*
X-139090Y345014D01*
X-138985Y344970D01*
Y296643D01*
X-139167Y296568D01*
X-139898Y296007D01*
X-140459Y295276D01*
X-140812Y294424D01*
X-140932Y293511D01*
X-140812Y292597D01*
X-140459Y291745D01*
X-139898Y291014D01*
X-139167Y290453D01*
X-138315Y290101D01*
X-137402Y289980D01*
X-136488Y290101D01*
X-135636Y290453D01*
X-134905Y291014D01*
X-134344Y291745D01*
X-133992Y292597D01*
X-133871Y293511D01*
X-133992Y294424D01*
X-134344Y295276D01*
X-134905Y296007D01*
X-135636Y296568D01*
X-135741Y296611D01*
Y344938D01*
X-135559Y345014D01*
X-134828Y345575D01*
X-134267Y346306D01*
X-133914Y347157D01*
X-133794Y348071D01*
X-133914Y348985D01*
X-134267Y349836D01*
X-134828Y350567D01*
X-135559Y351128D01*
X-136411Y351481D01*
X-137324Y351601D01*
D02*
G37*
G36*
X-145669Y328589D02*
X-146583Y328469D01*
X-147434Y328116D01*
X-148166Y327555D01*
X-148726Y326824D01*
X-149079Y325973D01*
X-149199Y325059D01*
X-149079Y324145D01*
X-148726Y323294D01*
X-148166Y322563D01*
X-147434Y322002D01*
X-147291Y321942D01*
Y295539D01*
X-147434Y295479D01*
X-148166Y294918D01*
X-148726Y294187D01*
X-149079Y293336D01*
X-149199Y292422D01*
X-149079Y291509D01*
X-148726Y290657D01*
X-148166Y289926D01*
X-147434Y289365D01*
X-146583Y289012D01*
X-145669Y288892D01*
X-144756Y289012D01*
X-143904Y289365D01*
X-143173Y289926D01*
X-142612Y290657D01*
X-142259Y291509D01*
X-142139Y292422D01*
X-142259Y293336D01*
X-142612Y294187D01*
X-143173Y294918D01*
X-143904Y295479D01*
X-144048Y295539D01*
Y321942D01*
X-143904Y322002D01*
X-143173Y322563D01*
X-142612Y323294D01*
X-142259Y324145D01*
X-142139Y325059D01*
X-142259Y325973D01*
X-142612Y326824D01*
X-143173Y327555D01*
X-143904Y328116D01*
X-144756Y328469D01*
X-145669Y328589D01*
D02*
G37*
G36*
X-121654Y346049D02*
X-122567Y345929D01*
X-123419Y345577D01*
X-124150Y345016D01*
X-124711Y344284D01*
X-125064Y343433D01*
X-125184Y342519D01*
X-125064Y341606D01*
X-124711Y340754D01*
X-124150Y340023D01*
X-123419Y339462D01*
X-123275Y339403D01*
Y298232D01*
X-123152Y297611D01*
X-122800Y297085D01*
X-121291Y295575D01*
X-121334Y294912D01*
X-121689Y294639D01*
X-122250Y293908D01*
X-122603Y293057D01*
X-122723Y292143D01*
X-122603Y291230D01*
X-122250Y290378D01*
X-121689Y289647D01*
X-120958Y289086D01*
X-120107Y288733D01*
X-119193Y288613D01*
X-118279Y288733D01*
X-117428Y289086D01*
X-116697Y289647D01*
X-116136Y290378D01*
X-115783Y291230D01*
X-115663Y292143D01*
X-115783Y293057D01*
X-116136Y293908D01*
X-116697Y294639D01*
X-117428Y295200D01*
X-117571Y295260D01*
Y295771D01*
X-117695Y296391D01*
X-118046Y296918D01*
X-120032Y298903D01*
Y339403D01*
X-119889Y339462D01*
X-119158Y340023D01*
X-118596Y340754D01*
X-118244Y341606D01*
X-118123Y342519D01*
X-118244Y343433D01*
X-118596Y344284D01*
X-119158Y345016D01*
X-119889Y345577D01*
X-120740Y345929D01*
X-121654Y346049D01*
D02*
G37*
G36*
X193413Y292217D02*
Y287803D01*
X197827D01*
X197723Y288592D01*
X197226Y289793D01*
X196434Y290824D01*
X195403Y291616D01*
X194202Y292113D01*
X193413Y292217D01*
D02*
G37*
G36*
X192413D02*
X191625Y292113D01*
X190424Y291616D01*
X189392Y290824D01*
X188601Y289793D01*
X188103Y288592D01*
X188000Y287803D01*
X192413D01*
Y292217D01*
D02*
G37*
G36*
X-192913Y296318D02*
X-194202Y296148D01*
X-195403Y295651D01*
X-196434Y294860D01*
X-197226Y293828D01*
X-197723Y292627D01*
X-197893Y291339D01*
X-197723Y290050D01*
X-197226Y288849D01*
X-196434Y287818D01*
X-195403Y287026D01*
X-194202Y286529D01*
X-192913Y286359D01*
X-191625Y286529D01*
X-190424Y287026D01*
X-189392Y287818D01*
X-188601Y288849D01*
X-188103Y290050D01*
X-187934Y291339D01*
X-188103Y292627D01*
X-188601Y293828D01*
X-189392Y294860D01*
X-190424Y295651D01*
X-191625Y296148D01*
X-192913Y296318D01*
D02*
G37*
G36*
X-97020Y287876D02*
Y284911D01*
X-94055D01*
X-94110Y285325D01*
X-94462Y286176D01*
X-95023Y286908D01*
X-95755Y287469D01*
X-96606Y287821D01*
X-97020Y287876D01*
D02*
G37*
G36*
X-98020D02*
X-98433Y287821D01*
X-99285Y287469D01*
X-100016Y286908D01*
X-100577Y286176D01*
X-100930Y285325D01*
X-100984Y284911D01*
X-98020D01*
Y287876D01*
D02*
G37*
G36*
X197827Y286803D02*
X193413D01*
Y282389D01*
X194202Y282493D01*
X195403Y282991D01*
X196434Y283782D01*
X197226Y284813D01*
X197723Y286014D01*
X197827Y286803D01*
D02*
G37*
G36*
X192413D02*
X188000D01*
X188103Y286014D01*
X188601Y284813D01*
X189392Y283782D01*
X190424Y282991D01*
X191625Y282493D01*
X192413Y282389D01*
Y286803D01*
D02*
G37*
G36*
X-94055Y283911D02*
X-97020D01*
Y280947D01*
X-96606Y281001D01*
X-95755Y281354D01*
X-95023Y281915D01*
X-94462Y282646D01*
X-94110Y283498D01*
X-94055Y283911D01*
D02*
G37*
G36*
X-98020D02*
X-100984D01*
X-100930Y283498D01*
X-100577Y282646D01*
X-100016Y281915D01*
X-99285Y281354D01*
X-98433Y281001D01*
X-98020Y280947D01*
Y283911D01*
D02*
G37*
G36*
X-192913Y274133D02*
X-194202Y273963D01*
X-195403Y273466D01*
X-196434Y272675D01*
X-197226Y271643D01*
X-197723Y270442D01*
X-197893Y269153D01*
X-197723Y267865D01*
X-197226Y266664D01*
X-196434Y265632D01*
X-195403Y264841D01*
X-194202Y264344D01*
X-192913Y264174D01*
X-191625Y264344D01*
X-190424Y264841D01*
X-189392Y265632D01*
X-188601Y266664D01*
X-188103Y267865D01*
X-187934Y269153D01*
X-188103Y270442D01*
X-188601Y271643D01*
X-189392Y272675D01*
X-190424Y273466D01*
X-191625Y273963D01*
X-192913Y274133D01*
D02*
G37*
G36*
X-24163Y267310D02*
X-25077Y267189D01*
X-25929Y266837D01*
X-26660Y266276D01*
X-27221Y265545D01*
X-27573Y264693D01*
X-27694Y263779D01*
X-27573Y262866D01*
X-27514Y262722D01*
X-33233Y257003D01*
X-33585Y256477D01*
X-33708Y255856D01*
Y225840D01*
X-33585Y225219D01*
X-33233Y224693D01*
X-307Y191767D01*
X219Y191415D01*
X840Y191292D01*
X33346D01*
X33347Y191292D01*
X79381D01*
X80001Y191415D01*
X80527Y191767D01*
X103674Y214914D01*
X158301D01*
X158360Y214770D01*
X158921Y214039D01*
X159652Y213478D01*
X160504Y213125D01*
X161417Y213005D01*
X162331Y213125D01*
X163182Y213478D01*
X163914Y214039D01*
X164475Y214770D01*
X164827Y215622D01*
X164947Y216535D01*
X164827Y217449D01*
X164475Y218301D01*
X163914Y219032D01*
X163182Y219593D01*
X162331Y219945D01*
X161417Y220066D01*
X160504Y219945D01*
X159652Y219593D01*
X158921Y219032D01*
X158360Y218301D01*
X158301Y218157D01*
X103003D01*
X102382Y218034D01*
X101856Y217682D01*
X78709Y194535D01*
X33347D01*
X33347Y194535D01*
X1512D01*
X-30465Y226512D01*
Y255185D01*
X-25220Y260429D01*
X-25077Y260370D01*
X-24163Y260249D01*
X-23250Y260370D01*
X-22398Y260722D01*
X-21667Y261283D01*
X-21106Y262014D01*
X-20753Y262866D01*
X-20633Y263779D01*
X-20753Y264693D01*
X-21106Y265545D01*
X-21667Y266276D01*
X-22398Y266837D01*
X-23250Y267189D01*
X-24163Y267310D01*
D02*
G37*
G36*
X28179Y294690D02*
X27265Y294569D01*
X26414Y294217D01*
X25683Y293656D01*
X25122Y292925D01*
X24769Y292073D01*
X24649Y291160D01*
X24769Y290246D01*
X25122Y289394D01*
X25683Y288663D01*
X26414Y288102D01*
X26574Y288036D01*
Y266515D01*
X26448Y266463D01*
X25717Y265902D01*
X25156Y265171D01*
X24803Y264319D01*
X24683Y263405D01*
X24803Y262492D01*
X25156Y261640D01*
X25717Y260909D01*
X26448Y260348D01*
X27299Y259996D01*
X28213Y259875D01*
X29127Y259996D01*
X29978Y260348D01*
X30709Y260909D01*
X31270Y261640D01*
X31623Y262492D01*
X31743Y263405D01*
X31623Y264319D01*
X31270Y265171D01*
X30709Y265902D01*
X29978Y266463D01*
X29818Y266529D01*
Y288050D01*
X29944Y288102D01*
X30675Y288663D01*
X31236Y289394D01*
X31589Y290246D01*
X31709Y291160D01*
X31589Y292073D01*
X31236Y292925D01*
X30675Y293656D01*
X29944Y294217D01*
X29093Y294569D01*
X28179Y294690D01*
D02*
G37*
G36*
X-31496Y289851D02*
X-32410Y289731D01*
X-33261Y289378D01*
X-33992Y288817D01*
X-34553Y288086D01*
X-34906Y287234D01*
X-35026Y286321D01*
X-34906Y285407D01*
X-34553Y284556D01*
X-33992Y283825D01*
X-33261Y283264D01*
X-32410Y282911D01*
X-31496Y282791D01*
X-30582Y282911D01*
X-29731Y283264D01*
X-29000Y283825D01*
X-28637Y284298D01*
X9710D01*
X12296Y281712D01*
X12218Y281120D01*
X12338Y280207D01*
X12691Y279355D01*
X13252Y278624D01*
X13983Y278063D01*
X14834Y277711D01*
X15748Y277590D01*
X16662Y277711D01*
X16805Y277770D01*
X18063Y276512D01*
Y256161D01*
X18187Y255541D01*
X18538Y255015D01*
X19091Y254463D01*
X19031Y254319D01*
X18911Y253405D01*
X19031Y252492D01*
X19384Y251640D01*
X19945Y250909D01*
X20676Y250348D01*
X21527Y249996D01*
X22441Y249875D01*
X23355Y249996D01*
X24206Y250348D01*
X24937Y250909D01*
X25498Y251640D01*
X25851Y252492D01*
X25971Y253405D01*
X25851Y254319D01*
X25498Y255171D01*
X24937Y255902D01*
X24206Y256463D01*
X23355Y256815D01*
X22441Y256936D01*
X21807Y256852D01*
X21340Y257197D01*
X21307Y257265D01*
Y277184D01*
X21183Y277804D01*
X20832Y278330D01*
X19098Y280063D01*
X19158Y280207D01*
X19278Y281120D01*
X19158Y282034D01*
X18805Y282886D01*
X18244Y283617D01*
X17513Y284178D01*
X16662Y284530D01*
X15748Y284651D01*
X15157Y284573D01*
X11978Y287751D01*
X11322Y288190D01*
X10548Y288344D01*
X-28637D01*
X-29000Y288817D01*
X-29731Y289378D01*
X-30582Y289731D01*
X-31496Y289851D01*
D02*
G37*
G36*
X-132421Y275184D02*
X-133335Y275063D01*
X-134186Y274711D01*
X-134917Y274150D01*
X-135478Y273419D01*
X-135831Y272567D01*
X-135951Y271654D01*
X-135831Y270740D01*
X-135478Y269888D01*
X-134917Y269157D01*
X-134444Y268794D01*
Y259842D01*
X-134290Y259068D01*
X-133852Y258412D01*
X-129437Y253997D01*
X-129515Y253405D01*
X-129394Y252492D01*
X-129042Y251640D01*
X-128481Y250909D01*
X-127749Y250348D01*
X-126898Y249996D01*
X-125984Y249875D01*
X-125071Y249996D01*
X-124219Y250348D01*
X-123488Y250909D01*
X-122927Y251640D01*
X-122574Y252492D01*
X-122454Y253405D01*
X-122574Y254319D01*
X-122927Y255171D01*
X-123488Y255902D01*
X-124219Y256463D01*
X-125071Y256815D01*
X-125984Y256936D01*
X-126576Y256858D01*
X-130398Y260681D01*
Y268794D01*
X-129925Y269157D01*
X-129364Y269888D01*
X-129011Y270740D01*
X-128891Y271654D01*
X-129011Y272567D01*
X-129364Y273419D01*
X-129925Y274150D01*
X-130656Y274711D01*
X-131508Y275063D01*
X-132421Y275184D01*
D02*
G37*
G36*
X-192413Y250044D02*
Y245630D01*
X-188000D01*
X-188103Y246419D01*
X-188601Y247620D01*
X-189392Y248651D01*
X-190424Y249442D01*
X-191625Y249940D01*
X-192413Y250044D01*
D02*
G37*
G36*
X-193413D02*
X-194202Y249940D01*
X-195403Y249442D01*
X-196434Y248651D01*
X-197226Y247620D01*
X-197723Y246419D01*
X-197827Y245630D01*
X-193413D01*
Y250044D01*
D02*
G37*
G36*
X-188000Y244630D02*
X-192413D01*
Y240216D01*
X-191625Y240320D01*
X-190424Y240817D01*
X-189392Y241609D01*
X-188601Y242640D01*
X-188103Y243841D01*
X-188000Y244630D01*
D02*
G37*
G36*
X-193413D02*
X-197827D01*
X-197723Y243841D01*
X-197226Y242640D01*
X-196434Y241609D01*
X-195403Y240817D01*
X-194202Y240320D01*
X-193413Y240216D01*
Y244630D01*
D02*
G37*
G36*
X44252Y330203D02*
X43338Y330083D01*
X42487Y329731D01*
X41756Y329170D01*
X41195Y328438D01*
X40842Y327587D01*
X40722Y326673D01*
X40842Y325760D01*
X41195Y324908D01*
X41756Y324177D01*
X42487Y323616D01*
X42630Y323557D01*
Y260239D01*
X22419Y240027D01*
X20085D01*
X20026Y240171D01*
X19465Y240902D01*
X18734Y241463D01*
X17882Y241815D01*
X16969Y241936D01*
X16055Y241815D01*
X15203Y241463D01*
X14472Y240902D01*
X13911Y240171D01*
X13559Y239319D01*
X13438Y238405D01*
X13559Y237492D01*
X13911Y236640D01*
X14472Y235909D01*
X15203Y235348D01*
X16055Y234996D01*
X16969Y234875D01*
X17882Y234996D01*
X18734Y235348D01*
X19465Y235909D01*
X20026Y236640D01*
X20085Y236784D01*
X23091D01*
X23711Y236907D01*
X24237Y237259D01*
X45399Y258420D01*
X45750Y258946D01*
X45874Y259567D01*
Y323557D01*
X46017Y323616D01*
X46748Y324177D01*
X47309Y324908D01*
X47662Y325760D01*
X47782Y326673D01*
X47662Y327587D01*
X47309Y328438D01*
X46748Y329170D01*
X46017Y329731D01*
X45166Y330083D01*
X44252Y330203D01*
D02*
G37*
G36*
X-23622Y249534D02*
X-24536Y249414D01*
X-25387Y249061D01*
X-26118Y248500D01*
X-26679Y247769D01*
X-27032Y246918D01*
X-27152Y246004D01*
X-27032Y245090D01*
X-26679Y244239D01*
X-26118Y243508D01*
X-25387Y242947D01*
X-25244Y242887D01*
Y229252D01*
X-25120Y228631D01*
X-24769Y228105D01*
X-20025Y223361D01*
X-19499Y223010D01*
X-18878Y222886D01*
X41910D01*
X42530Y223010D01*
X43056Y223361D01*
X58231Y238536D01*
X154364D01*
X154423Y238392D01*
X154984Y237661D01*
X155715Y237100D01*
X156567Y236748D01*
X157480Y236627D01*
X158394Y236748D01*
X159245Y237100D01*
X159976Y237661D01*
X160538Y238392D01*
X160890Y239244D01*
X161011Y240158D01*
X160890Y241071D01*
X160538Y241923D01*
X159976Y242654D01*
X159245Y243215D01*
X158394Y243567D01*
X157480Y243688D01*
X156567Y243567D01*
X155715Y243215D01*
X154984Y242654D01*
X154423Y241923D01*
X154364Y241779D01*
X57559D01*
X56938Y241656D01*
X56412Y241304D01*
X41238Y226130D01*
X-18206D01*
X-22000Y229924D01*
Y242887D01*
X-21857Y242947D01*
X-21126Y243508D01*
X-20565Y244239D01*
X-20212Y245090D01*
X-20092Y246004D01*
X-20212Y246918D01*
X-20565Y247769D01*
X-21126Y248500D01*
X-21857Y249061D01*
X-22708Y249414D01*
X-23622Y249534D01*
D02*
G37*
G36*
X192717Y245137D02*
X191428Y244967D01*
X190227Y244470D01*
X189195Y243679D01*
X188404Y242647D01*
X187907Y241446D01*
X187737Y240158D01*
X187907Y238869D01*
X188404Y237668D01*
X189195Y236636D01*
X190227Y235845D01*
X191428Y235348D01*
X192717Y235178D01*
X194005Y235348D01*
X195206Y235845D01*
X196238Y236636D01*
X197029Y237668D01*
X197527Y238869D01*
X197696Y240158D01*
X197527Y241446D01*
X197029Y242647D01*
X196238Y243679D01*
X195206Y244470D01*
X194005Y244967D01*
X192717Y245137D01*
D02*
G37*
G36*
X-4843Y260727D02*
X-5756Y260607D01*
X-6608Y260254D01*
X-7339Y259693D01*
X-7900Y258962D01*
X-8252Y258110D01*
X-8373Y257197D01*
X-8252Y256283D01*
X-7900Y255432D01*
X-7339Y254700D01*
X-6608Y254139D01*
X-6464Y254080D01*
Y249206D01*
X-14501Y241170D01*
X-14852Y240643D01*
X-14976Y240023D01*
Y234477D01*
X-15119Y234418D01*
X-15850Y233857D01*
X-16411Y233126D01*
X-16764Y232274D01*
X-16884Y231361D01*
X-16764Y230447D01*
X-16411Y229596D01*
X-15850Y228864D01*
X-15119Y228303D01*
X-14268Y227951D01*
X-13354Y227831D01*
X-12441Y227951D01*
X-11589Y228303D01*
X-10858Y228864D01*
X-10297Y229596D01*
X-9944Y230447D01*
X-9824Y231361D01*
X-9944Y232274D01*
X-10297Y233126D01*
X-10858Y233857D01*
X-11589Y234418D01*
X-11733Y234477D01*
Y239351D01*
X-3696Y247388D01*
X-3344Y247914D01*
X-3221Y248534D01*
Y254080D01*
X-3077Y254139D01*
X-2346Y254700D01*
X-1785Y255432D01*
X-1433Y256283D01*
X-1312Y257197D01*
X-1433Y258110D01*
X-1785Y258962D01*
X-2346Y259693D01*
X-3077Y260254D01*
X-3929Y260607D01*
X-4843Y260727D01*
D02*
G37*
G36*
X-143173Y260466D02*
X-144087Y260346D01*
X-144938Y259993D01*
X-145669Y259432D01*
X-146230Y258701D01*
X-146583Y257849D01*
X-146703Y256936D01*
X-146583Y256022D01*
X-146230Y255171D01*
X-145669Y254439D01*
X-144938Y253878D01*
X-144795Y253819D01*
Y237588D01*
X-157362Y225021D01*
X-157571Y225048D01*
X-158484Y224928D01*
X-159336Y224575D01*
X-160067Y224014D01*
X-160628Y223283D01*
X-160981Y222432D01*
X-161101Y221518D01*
X-160981Y220604D01*
X-160628Y219753D01*
X-160067Y219022D01*
X-159336Y218461D01*
X-158484Y218108D01*
X-157571Y217988D01*
X-156657Y218108D01*
X-155806Y218461D01*
X-155075Y219022D01*
X-154514Y219753D01*
X-154161Y220604D01*
X-154041Y221518D01*
X-154161Y222432D01*
X-154513Y223282D01*
X-142026Y235769D01*
X-141675Y236295D01*
X-141551Y236916D01*
Y253819D01*
X-141408Y253878D01*
X-140677Y254439D01*
X-140116Y255171D01*
X-139763Y256022D01*
X-139643Y256936D01*
X-139763Y257849D01*
X-140116Y258701D01*
X-140677Y259432D01*
X-141408Y259993D01*
X-142259Y260346D01*
X-143173Y260466D01*
D02*
G37*
G36*
X-192913Y229487D02*
X-194202Y229318D01*
X-195403Y228820D01*
X-196434Y228029D01*
X-197226Y226998D01*
X-197723Y225797D01*
X-197893Y224508D01*
X-197723Y223219D01*
X-197226Y222018D01*
X-196434Y220987D01*
X-195403Y220195D01*
X-194202Y219698D01*
X-192913Y219528D01*
X-191625Y219698D01*
X-190424Y220195D01*
X-189392Y220987D01*
X-188601Y222018D01*
X-188103Y223219D01*
X-187934Y224508D01*
X-188103Y225797D01*
X-188601Y226998D01*
X-189392Y228029D01*
X-190424Y228820D01*
X-191625Y229318D01*
X-192913Y229487D01*
D02*
G37*
G36*
X4122Y217681D02*
Y214716D01*
X7086D01*
X7032Y215130D01*
X6679Y215981D01*
X6118Y216712D01*
X5387Y217273D01*
X4536Y217626D01*
X4122Y217681D01*
D02*
G37*
G36*
X3122D02*
X2708Y217626D01*
X1857Y217273D01*
X1126Y216712D01*
X565Y215981D01*
X212Y215130D01*
X158Y214716D01*
X3122D01*
Y217681D01*
D02*
G37*
G36*
X192717Y221515D02*
X191428Y221345D01*
X190227Y220848D01*
X189195Y220057D01*
X188404Y219025D01*
X187907Y217824D01*
X187737Y216535D01*
X187907Y215247D01*
X188404Y214046D01*
X189195Y213014D01*
X190227Y212223D01*
X191428Y211725D01*
X192717Y211556D01*
X194005Y211725D01*
X195206Y212223D01*
X196238Y213014D01*
X197029Y214046D01*
X197527Y215247D01*
X197696Y216535D01*
X197527Y217824D01*
X197029Y219025D01*
X196238Y220057D01*
X195206Y220848D01*
X194005Y221345D01*
X192717Y221515D01*
D02*
G37*
G36*
X7086Y213716D02*
X4122D01*
Y210752D01*
X4536Y210806D01*
X5387Y211159D01*
X6118Y211720D01*
X6679Y212451D01*
X7032Y213303D01*
X7086Y213716D01*
D02*
G37*
G36*
X3122D02*
X158D01*
X212Y213303D01*
X565Y212451D01*
X1126Y211720D01*
X1857Y211159D01*
X2708Y210806D01*
X3122Y210752D01*
Y213716D01*
D02*
G37*
G36*
X68898Y231361D02*
X66579Y231178D01*
X64316Y230635D01*
X62167Y229745D01*
X60184Y228529D01*
X58415Y227018D01*
X56904Y225250D01*
X55688Y223266D01*
X54798Y221117D01*
X54255Y218855D01*
X54072Y216535D01*
X54255Y214216D01*
X54798Y211954D01*
X55688Y209805D01*
X56904Y207821D01*
X58415Y206052D01*
X60184Y204542D01*
X62167Y203326D01*
X64316Y202436D01*
X66579Y201893D01*
X68898Y201710D01*
X71217Y201893D01*
X73479Y202436D01*
X75628Y203326D01*
X77612Y204542D01*
X79381Y206052D01*
X80892Y207821D01*
X82107Y209805D01*
X82997Y211954D01*
X83540Y214216D01*
X83723Y216535D01*
X83540Y218855D01*
X82997Y221117D01*
X82107Y223266D01*
X80892Y225250D01*
X79381Y227018D01*
X77612Y228529D01*
X75628Y229745D01*
X73479Y230635D01*
X71217Y231178D01*
X68898Y231361D01*
D02*
G37*
G36*
X-68898D02*
X-71217Y231178D01*
X-73479Y230635D01*
X-75628Y229745D01*
X-77612Y228529D01*
X-79381Y227018D01*
X-80892Y225250D01*
X-82107Y223266D01*
X-82997Y221117D01*
X-83540Y218855D01*
X-83723Y216535D01*
X-83540Y214216D01*
X-82997Y211954D01*
X-82107Y209805D01*
X-80892Y207821D01*
X-79381Y206052D01*
X-77612Y204542D01*
X-75628Y203326D01*
X-73479Y202436D01*
X-71217Y201893D01*
X-68898Y201710D01*
X-66578Y201893D01*
X-64316Y202436D01*
X-62167Y203326D01*
X-60184Y204542D01*
X-58415Y206052D01*
X-56904Y207821D01*
X-55688Y209805D01*
X-54798Y211954D01*
X-54255Y214216D01*
X-54072Y216535D01*
X-54255Y218855D01*
X-54798Y221117D01*
X-55688Y223266D01*
X-56904Y225250D01*
X-58415Y227018D01*
X-60184Y228529D01*
X-62167Y229745D01*
X-64316Y230635D01*
X-66578Y231178D01*
X-68898Y231361D01*
D02*
G37*
G36*
X192717Y197893D02*
X191428Y197723D01*
X190227Y197226D01*
X189195Y196434D01*
X188404Y195403D01*
X187907Y194202D01*
X187737Y192913D01*
X187907Y191625D01*
X188404Y190424D01*
X189195Y189392D01*
X190227Y188601D01*
X191428Y188103D01*
X192717Y187934D01*
X194005Y188103D01*
X195206Y188601D01*
X196238Y189392D01*
X197029Y190424D01*
X197527Y191625D01*
X197696Y192913D01*
X197527Y194202D01*
X197029Y195403D01*
X196238Y196434D01*
X195206Y197226D01*
X194005Y197723D01*
X192717Y197893D01*
D02*
G37*
G36*
X-191833Y180630D02*
Y177665D01*
X-188868D01*
X-188923Y178079D01*
X-189275Y178930D01*
X-189836Y179662D01*
X-190568Y180223D01*
X-191419Y180575D01*
X-191833Y180630D01*
D02*
G37*
G36*
X-192833D02*
X-193246Y180575D01*
X-194098Y180223D01*
X-194829Y179662D01*
X-195390Y178930D01*
X-195743Y178079D01*
X-195797Y177665D01*
X-192833D01*
Y180630D01*
D02*
G37*
G36*
X-188868Y176665D02*
X-191833D01*
Y173701D01*
X-191419Y173755D01*
X-190568Y174108D01*
X-189836Y174669D01*
X-189275Y175400D01*
X-188923Y176252D01*
X-188868Y176665D01*
D02*
G37*
G36*
X-192833D02*
X-195797D01*
X-195743Y176252D01*
X-195390Y175400D01*
X-194829Y174669D01*
X-194098Y174108D01*
X-193246Y173755D01*
X-192833Y173701D01*
Y176665D01*
D02*
G37*
G36*
X192520Y174271D02*
X191231Y174101D01*
X190030Y173604D01*
X188999Y172812D01*
X188207Y171781D01*
X187710Y170580D01*
X187540Y169291D01*
X187710Y168002D01*
X188207Y166802D01*
X188999Y165770D01*
X190030Y164979D01*
X191231Y164481D01*
X192520Y164312D01*
X193808Y164481D01*
X195010Y164979D01*
X196041Y165770D01*
X196832Y166802D01*
X197330Y168002D01*
X197499Y169291D01*
X197330Y170580D01*
X196832Y171781D01*
X196041Y172812D01*
X195010Y173604D01*
X193808Y174101D01*
X192520Y174271D01*
D02*
G37*
G36*
X103503Y152655D02*
Y149690D01*
X106467D01*
X106413Y150104D01*
X106060Y150955D01*
X105499Y151687D01*
X104768Y152248D01*
X103916Y152600D01*
X103503Y152655D01*
D02*
G37*
G36*
X102503D02*
X102089Y152600D01*
X101238Y152248D01*
X100506Y151687D01*
X99945Y150955D01*
X99593Y150104D01*
X99538Y149690D01*
X102503D01*
Y152655D01*
D02*
G37*
G36*
X-88083D02*
Y149690D01*
X-85118D01*
X-85173Y150104D01*
X-85525Y150955D01*
X-86086Y151687D01*
X-86818Y152248D01*
X-87669Y152600D01*
X-88083Y152655D01*
D02*
G37*
G36*
X-89083D02*
X-89496Y152600D01*
X-90348Y152248D01*
X-91079Y151687D01*
X-91640Y150955D01*
X-91993Y150104D01*
X-92047Y149690D01*
X-89083D01*
Y152655D01*
D02*
G37*
G36*
X106467Y148690D02*
X103503D01*
Y145726D01*
X103916Y145781D01*
X104768Y146133D01*
X105499Y146694D01*
X106060Y147425D01*
X106413Y148277D01*
X106467Y148690D01*
D02*
G37*
G36*
X102503D02*
X99538D01*
X99593Y148277D01*
X99945Y147425D01*
X100506Y146694D01*
X101238Y146133D01*
X102089Y145781D01*
X102503Y145726D01*
Y148690D01*
D02*
G37*
G36*
X-85118D02*
X-88083D01*
Y145726D01*
X-87669Y145781D01*
X-86818Y146133D01*
X-86086Y146694D01*
X-85525Y147425D01*
X-85173Y148277D01*
X-85118Y148690D01*
D02*
G37*
G36*
X-89083D02*
X-92047D01*
X-91993Y148277D01*
X-91640Y147425D01*
X-91079Y146694D01*
X-90348Y146133D01*
X-89496Y145781D01*
X-89083Y145726D01*
Y148690D01*
D02*
G37*
G36*
X192520Y150649D02*
X191231Y150479D01*
X190030Y149982D01*
X188999Y149190D01*
X188207Y148159D01*
X187710Y146958D01*
X187540Y145669D01*
X187710Y144380D01*
X188207Y143180D01*
X188999Y142148D01*
X190030Y141357D01*
X191231Y140859D01*
X192520Y140690D01*
X193808Y140859D01*
X195010Y141357D01*
X196041Y142148D01*
X196832Y143180D01*
X197330Y144380D01*
X197499Y145669D01*
X197330Y146958D01*
X196832Y148159D01*
X196041Y149190D01*
X195010Y149982D01*
X193808Y150479D01*
X192520Y150649D01*
D02*
G37*
G36*
X-192913Y134369D02*
X-194202Y134200D01*
X-195403Y133702D01*
X-196434Y132911D01*
X-197226Y131880D01*
X-197723Y130679D01*
X-197893Y129390D01*
X-197723Y128101D01*
X-197226Y126900D01*
X-196434Y125869D01*
X-195403Y125077D01*
X-194202Y124580D01*
X-192913Y124410D01*
X-191625Y124580D01*
X-190424Y125077D01*
X-189392Y125869D01*
X-188601Y126900D01*
X-188103Y128101D01*
X-187934Y129390D01*
X-188103Y130679D01*
X-188601Y131880D01*
X-189392Y132911D01*
X-190424Y133702D01*
X-191625Y134200D01*
X-192913Y134369D01*
D02*
G37*
G36*
X192520Y126928D02*
X191231Y126759D01*
X190030Y126261D01*
X188999Y125470D01*
X188207Y124439D01*
X187710Y123238D01*
X187540Y121949D01*
X187710Y120660D01*
X188207Y119459D01*
X188999Y118428D01*
X190030Y117636D01*
X191231Y117139D01*
X192520Y116969D01*
X193808Y117139D01*
X195010Y117636D01*
X196041Y118428D01*
X196832Y119459D01*
X197330Y120660D01*
X197499Y121949D01*
X197330Y123238D01*
X196832Y124439D01*
X196041Y125470D01*
X195010Y126261D01*
X193808Y126759D01*
X192520Y126928D01*
D02*
G37*
G36*
X192717Y102657D02*
X191428Y102487D01*
X190227Y101990D01*
X189195Y101198D01*
X188404Y100167D01*
X187907Y98966D01*
X187737Y97677D01*
X187907Y96388D01*
X188404Y95187D01*
X189195Y94156D01*
X190227Y93365D01*
X191428Y92867D01*
X192717Y92698D01*
X194005Y92867D01*
X195206Y93365D01*
X196238Y94156D01*
X197029Y95187D01*
X197527Y96388D01*
X197696Y97677D01*
X197527Y98966D01*
X197029Y100167D01*
X196238Y101198D01*
X195206Y101990D01*
X194005Y102487D01*
X192717Y102657D01*
D02*
G37*
G36*
X-192364Y90642D02*
Y86228D01*
X-187950D01*
X-188054Y87017D01*
X-188552Y88218D01*
X-189343Y89249D01*
X-190374Y90041D01*
X-191575Y90538D01*
X-192364Y90642D01*
D02*
G37*
G36*
X-193364D02*
X-194153Y90538D01*
X-195354Y90041D01*
X-196385Y89249D01*
X-197177Y88218D01*
X-197674Y87017D01*
X-197778Y86228D01*
X-193364D01*
Y90642D01*
D02*
G37*
G36*
X-187950Y85228D02*
X-192364D01*
Y80815D01*
X-191575Y80918D01*
X-190374Y81416D01*
X-189343Y82207D01*
X-188552Y83239D01*
X-188054Y84439D01*
X-187950Y85228D01*
D02*
G37*
G36*
X-193364D02*
X-197778D01*
X-197674Y84439D01*
X-197177Y83239D01*
X-196385Y82207D01*
X-195354Y81416D01*
X-194153Y80918D01*
X-193364Y80815D01*
Y85228D01*
D02*
G37*
G36*
X8500Y62520D02*
Y59555D01*
X11464D01*
X11410Y59969D01*
X11057Y60820D01*
X10496Y61551D01*
X9765Y62112D01*
X8914Y62465D01*
X8500Y62520D01*
D02*
G37*
G36*
X7500D02*
X7086Y62465D01*
X6235Y62112D01*
X5504Y61551D01*
X4943Y60820D01*
X4590Y59969D01*
X4536Y59555D01*
X7500D01*
Y62520D01*
D02*
G37*
G36*
X11464Y58555D02*
X8500D01*
Y55591D01*
X8914Y55645D01*
X9765Y55998D01*
X10496Y56559D01*
X11057Y57290D01*
X11410Y58141D01*
X11464Y58555D01*
D02*
G37*
G36*
X7500D02*
X4536D01*
X4590Y58141D01*
X4943Y57290D01*
X5504Y56559D01*
X6235Y55998D01*
X7086Y55645D01*
X7500Y55591D01*
Y58555D01*
D02*
G37*
G36*
X144201Y49038D02*
Y34752D01*
X158487D01*
X158344Y36571D01*
X157800Y38833D01*
X156910Y40982D01*
X155695Y42966D01*
X154184Y44735D01*
X152415Y46246D01*
X150431Y47461D01*
X148282Y48352D01*
X146020Y48895D01*
X144201Y49038D01*
D02*
G37*
G36*
X143201D02*
X141382Y48895D01*
X139120Y48352D01*
X136970Y47461D01*
X134987Y46246D01*
X133218Y44735D01*
X131707Y42966D01*
X130491Y40982D01*
X129601Y38833D01*
X129058Y36571D01*
X128915Y34752D01*
X143201D01*
Y49038D01*
D02*
G37*
G36*
X158487Y33752D02*
X144201D01*
Y19466D01*
X146020Y19609D01*
X148282Y20152D01*
X150431Y21043D01*
X152415Y22258D01*
X154184Y23769D01*
X155695Y25538D01*
X156910Y27521D01*
X157800Y29671D01*
X158344Y31933D01*
X158487Y33752D01*
D02*
G37*
G36*
X143201D02*
X128915D01*
X129058Y31933D01*
X129601Y29671D01*
X130491Y27521D01*
X131707Y25538D01*
X133218Y23769D01*
X134987Y22258D01*
X136970Y21043D01*
X139120Y20152D01*
X141382Y19609D01*
X143201Y19466D01*
Y33752D01*
D02*
G37*
G36*
X-143701Y49077D02*
X-146020Y48895D01*
X-148282Y48352D01*
X-150431Y47461D01*
X-152415Y46246D01*
X-154184Y44735D01*
X-155695Y42966D01*
X-156910Y40982D01*
X-157800Y38833D01*
X-158344Y36571D01*
X-158526Y34252D01*
X-158344Y31933D01*
X-157800Y29671D01*
X-156910Y27521D01*
X-155695Y25538D01*
X-154184Y23769D01*
X-152415Y22258D01*
X-150431Y21043D01*
X-148282Y20152D01*
X-146020Y19609D01*
X-143701Y19427D01*
X-141382Y19609D01*
X-139120Y20152D01*
X-136970Y21043D01*
X-134987Y22258D01*
X-133218Y23769D01*
X-131707Y25538D01*
X-130491Y27521D01*
X-129601Y29671D01*
X-129058Y31933D01*
X-128876Y34252D01*
X-129058Y36571D01*
X-129601Y38833D01*
X-130491Y40982D01*
X-131707Y42966D01*
X-133218Y44735D01*
X-134987Y46246D01*
X-136970Y47461D01*
X-139120Y48352D01*
X-141382Y48895D01*
X-143701Y49077D01*
D02*
G37*
%LPD*%
D32*
X28196Y263422D02*
X28213Y263405D01*
X28196Y263422D02*
Y291143D01*
X28179Y291160D02*
X28196Y291143D01*
X-13354Y231361D02*
Y240023D01*
X-4843Y248534D01*
Y257197D01*
X-23622Y229252D02*
Y246004D01*
Y229252D02*
X-18878Y224508D01*
X41910D01*
X-1772Y235315D02*
Y243406D01*
Y235315D02*
X1260Y232283D01*
X-158071Y222018D02*
X-143173Y236916D01*
Y256936D01*
X-145669Y292422D02*
Y325059D01*
X-119193Y292143D02*
Y295771D01*
X-105945Y300135D02*
Y301169D01*
X-108110Y303334D02*
X-105945Y301169D01*
X-108110Y303334D02*
Y348032D01*
X-121654Y298232D02*
X-119193Y295771D01*
X-121654Y298232D02*
Y342519D01*
X-137402Y293511D02*
X-137363Y293549D01*
Y348032D01*
X-137324Y348071D01*
X15766Y281102D02*
X19685Y277184D01*
Y256161D02*
Y277184D01*
Y256161D02*
X22441Y253405D01*
X-32087Y255856D02*
X-24163Y263779D01*
X-32087Y225840D02*
Y255856D01*
Y225840D02*
X840Y192913D01*
X80905Y362205D02*
X93307D01*
X76968Y358268D02*
X80905Y362205D01*
X-12352Y358268D02*
X76968D01*
X-24163Y370079D02*
X-12352Y358268D01*
X44252Y259567D02*
Y326673D01*
X23091Y238405D02*
X44252Y259567D01*
X60591Y268248D02*
Y326772D01*
X24626Y232283D02*
X60591Y268248D01*
X1260Y232283D02*
X24626D01*
X16969Y238405D02*
X23091D01*
X41910Y224508D02*
X57559Y240158D01*
X157480D01*
X840Y192913D02*
X33347D01*
X33347Y192913D01*
X79381D01*
X103003Y216535D01*
X161417D01*
X-35669Y295276D02*
X-35561Y295167D01*
X-14152D01*
X-14043Y295059D01*
D33*
X10548Y286321D02*
X15748Y281120D01*
X-31496Y286321D02*
X10548D01*
X-132421Y259842D02*
X-125984Y253405D01*
X-132421Y259842D02*
Y271654D01*
D34*
X192717Y97677D02*
D03*
X-192913Y393602D02*
D03*
X192520Y121949D02*
D03*
Y145669D02*
D03*
Y169291D02*
D03*
X192717Y192913D02*
D03*
Y216535D02*
D03*
Y240158D02*
D03*
X-192913Y338583D02*
D03*
Y315059D02*
D03*
Y291339D02*
D03*
Y269153D02*
D03*
Y245130D02*
D03*
Y224508D02*
D03*
X192913Y287303D02*
D03*
Y306988D02*
D03*
Y326673D02*
D03*
Y346358D02*
D03*
Y366043D02*
D03*
Y385728D02*
D03*
X-192864Y85728D02*
D03*
X-192913Y129390D02*
D03*
D35*
X-124449Y426102D02*
D03*
X125591D02*
D03*
D36*
X93307Y419291D02*
D03*
X82402D02*
D03*
X71496D02*
D03*
X60591D02*
D03*
X49685D02*
D03*
X38780D02*
D03*
X27874D02*
D03*
X16969D02*
D03*
X6063D02*
D03*
X-4843D02*
D03*
X-15748D02*
D03*
X-26654D02*
D03*
X-37559D02*
D03*
X-48465D02*
D03*
X-59370D02*
D03*
X-70276D02*
D03*
X-81181D02*
D03*
X-92087D02*
D03*
X98779Y409291D02*
D03*
X87874D02*
D03*
X76968D02*
D03*
X66063D02*
D03*
X55158D02*
D03*
X44252D02*
D03*
X33347D02*
D03*
X22441D02*
D03*
X11535D02*
D03*
X630D02*
D03*
X-10276D02*
D03*
X-21181D02*
D03*
X-32087D02*
D03*
X-42992D02*
D03*
X-53898D02*
D03*
X-64803D02*
D03*
X-75709D02*
D03*
X-97520D02*
D03*
X-86614D02*
D03*
D37*
X143701Y34252D02*
D03*
X-143701D02*
D03*
X68898Y379921D02*
D03*
X-68898D02*
D03*
Y216535D02*
D03*
X68898D02*
D03*
D38*
X-97520Y284411D02*
D03*
X-31496Y286321D02*
D03*
X28213Y263405D02*
D03*
X-157571Y221518D02*
D03*
X-192333Y177165D02*
D03*
X8000Y59055D02*
D03*
X3622Y214216D02*
D03*
X56063Y300135D02*
D03*
X-70276Y307086D02*
D03*
X-184630Y418412D02*
D03*
X187008Y413386D02*
D03*
X-88583Y149190D02*
D03*
X103003D02*
D03*
X-13354Y231361D02*
D03*
X-1772Y243406D02*
D03*
X-4843Y257197D02*
D03*
X28179Y291160D02*
D03*
X-143173Y256936D02*
D03*
X-145669Y292422D02*
D03*
X-119193Y292143D02*
D03*
X-105945Y300135D02*
D03*
X-108110Y348032D02*
D03*
X-121654Y342519D02*
D03*
X-137402Y293511D02*
D03*
X-137324Y348071D02*
D03*
X15748Y281120D02*
D03*
X22441Y253405D02*
D03*
X16969Y238405D02*
D03*
X44252Y326673D02*
D03*
X60591Y326772D02*
D03*
X-24163Y263779D02*
D03*
X161417Y216535D02*
D03*
X157480Y240158D02*
D03*
X-125984Y253405D02*
D03*
X-23622Y246004D02*
D03*
X-35669Y295276D02*
D03*
X-14043Y295059D02*
D03*
X93307Y362205D02*
D03*
X-24163Y370079D02*
D03*
X-132421Y271654D02*
D03*
X-145669Y325059D02*
D03*
M02*
