G04*
G04 #@! TF.GenerationSoftware,Altium Limited,Altium Designer,19.0.9 (268)*
G04*
G04 Layer_Physical_Order=1*
G04 Layer_Color=255*
%FSLAX25Y25*%
%MOIN*%
G70*
G01*
G75*
%ADD25R,0.05709X0.03740*%
%ADD26R,0.05787X0.04016*%
%ADD27R,0.03740X0.05709*%
%ADD28R,0.02559X0.06004*%
%ADD29R,0.06004X0.02559*%
%ADD30R,0.06614X0.05984*%
%ADD31R,0.04016X0.05787*%
%ADD32C,0.01181*%
%ADD33C,0.01968*%
%ADD34C,0.07874*%
%ADD35C,0.19685*%
%ADD36C,0.08268*%
%ADD37C,0.27559*%
%ADD38C,0.05000*%
G36*
X157480Y433744D02*
X216535D01*
X216535Y433744D01*
Y673D01*
X-216535D01*
X-216535Y673D01*
Y433744D01*
X-157480D01*
X-137795Y453429D01*
X137795D01*
X157480Y433744D01*
D02*
G37*
%LPC*%
G36*
X71996Y424404D02*
Y419791D01*
X76608D01*
X76498Y420632D01*
X75981Y421880D01*
X75158Y422953D01*
X74085Y423776D01*
X72836Y424293D01*
X71996Y424404D01*
D02*
G37*
G36*
X17469D02*
Y419791D01*
X22081D01*
X21970Y420632D01*
X21453Y421880D01*
X20630Y422953D01*
X19558Y423776D01*
X18309Y424293D01*
X17469Y424404D01*
D02*
G37*
G36*
X70996Y424404D02*
X70156Y424293D01*
X68907Y423776D01*
X67835Y422953D01*
X67012Y421880D01*
X66494Y420632D01*
X66384Y419791D01*
X70996D01*
Y424404D01*
D02*
G37*
G36*
X16468D02*
X15628Y424293D01*
X14379Y423776D01*
X13307Y422953D01*
X12484Y421880D01*
X11967Y420632D01*
X11856Y419791D01*
X16468D01*
Y424404D01*
D02*
G37*
G36*
X82902Y424404D02*
Y419791D01*
X87514D01*
X87403Y420632D01*
X86886Y421880D01*
X86063Y422953D01*
X84991Y423776D01*
X83742Y424293D01*
X82902Y424404D01*
D02*
G37*
G36*
X61090D02*
Y419791D01*
X65703D01*
X65592Y420632D01*
X65075Y421880D01*
X64252Y422953D01*
X63180Y423776D01*
X61931Y424293D01*
X61090Y424404D01*
D02*
G37*
G36*
X-26154D02*
Y419791D01*
X-21541D01*
X-21652Y420632D01*
X-22169Y421880D01*
X-22992Y422953D01*
X-24064Y423776D01*
X-25313Y424293D01*
X-26154Y424404D01*
D02*
G37*
G36*
X-47965D02*
Y419791D01*
X-43352D01*
X-43463Y420632D01*
X-43980Y421880D01*
X-44803Y422953D01*
X-45875Y423776D01*
X-47124Y424293D01*
X-47965Y424404D01*
D02*
G37*
G36*
X-69776D02*
Y419791D01*
X-65163D01*
X-65274Y420632D01*
X-65791Y421880D01*
X-66614Y422953D01*
X-67686Y423776D01*
X-68935Y424293D01*
X-69776Y424404D01*
D02*
G37*
G36*
X-91587D02*
Y419791D01*
X-86974D01*
X-87085Y420632D01*
X-87602Y421880D01*
X-88425Y422953D01*
X-89498Y423776D01*
X-90746Y424293D01*
X-91587Y424404D01*
D02*
G37*
G36*
X60091Y424404D02*
X59250Y424293D01*
X58002Y423776D01*
X56929Y422953D01*
X56106Y421880D01*
X55589Y420632D01*
X55478Y419791D01*
X60091D01*
Y424404D01*
D02*
G37*
G36*
X-27154D02*
X-27994Y424293D01*
X-29243Y423776D01*
X-30315Y422953D01*
X-31138Y421880D01*
X-31655Y420632D01*
X-31766Y419791D01*
X-27154D01*
Y424404D01*
D02*
G37*
G36*
X-48965D02*
X-49805Y424293D01*
X-51054Y423776D01*
X-52126Y422953D01*
X-52949Y421880D01*
X-53466Y420632D01*
X-53577Y419791D01*
X-48965D01*
Y424404D01*
D02*
G37*
G36*
X-70776D02*
X-71616Y424293D01*
X-72865Y423776D01*
X-73937Y422953D01*
X-74760Y421880D01*
X-75277Y420632D01*
X-75388Y419791D01*
X-70776D01*
Y424404D01*
D02*
G37*
G36*
X-92587D02*
X-93427Y424293D01*
X-94676Y423776D01*
X-95748Y422953D01*
X-96571Y421880D01*
X-97088Y420632D01*
X-97199Y419791D01*
X-92587D01*
Y424404D01*
D02*
G37*
G36*
X81902D02*
X81061Y424293D01*
X79813Y423776D01*
X78740Y422953D01*
X77917Y421880D01*
X77400Y420632D01*
X77289Y419791D01*
X81902D01*
Y424404D01*
D02*
G37*
G36*
X93807Y424404D02*
Y419791D01*
X98419D01*
X98309Y420632D01*
X97791Y421880D01*
X96969Y422953D01*
X95896Y423776D01*
X94647Y424293D01*
X93807Y424404D01*
D02*
G37*
G36*
X39279D02*
Y419791D01*
X43892D01*
X43781Y420632D01*
X43264Y421880D01*
X42441Y422953D01*
X41369Y423776D01*
X40120Y424293D01*
X39279Y424404D01*
D02*
G37*
G36*
X-4343D02*
Y419791D01*
X270D01*
X159Y420632D01*
X-358Y421880D01*
X-1181Y422953D01*
X-2253Y423776D01*
X-3502Y424293D01*
X-4343Y424404D01*
D02*
G37*
G36*
X92807Y424404D02*
X91967Y424293D01*
X90718Y423776D01*
X89646Y422953D01*
X88823Y421880D01*
X88305Y420632D01*
X88195Y419791D01*
X92807D01*
Y424404D01*
D02*
G37*
G36*
X38280D02*
X37439Y424293D01*
X36191Y423776D01*
X35118Y422953D01*
X34295Y421880D01*
X33778Y420632D01*
X33667Y419791D01*
X38280D01*
Y424404D01*
D02*
G37*
G36*
X-5342D02*
X-6183Y424293D01*
X-7432Y423776D01*
X-8504Y422953D01*
X-9327Y421880D01*
X-9844Y420632D01*
X-9955Y419791D01*
X-5342D01*
Y424404D01*
D02*
G37*
G36*
X-184130Y421876D02*
Y418912D01*
X-181166D01*
X-181220Y419325D01*
X-181573Y420177D01*
X-182134Y420908D01*
X-182865Y421469D01*
X-183716Y421822D01*
X-184130Y421876D01*
D02*
G37*
G36*
X-185130D02*
X-185544Y421822D01*
X-186395Y421469D01*
X-187126Y420908D01*
X-187687Y420177D01*
X-188040Y419325D01*
X-188094Y418912D01*
X-185130D01*
Y421876D01*
D02*
G37*
G36*
X125591Y436978D02*
X123889Y436844D01*
X122230Y436446D01*
X120653Y435793D01*
X119198Y434901D01*
X117900Y433793D01*
X116792Y432495D01*
X115900Y431040D01*
X115247Y429463D01*
X114848Y427804D01*
X114715Y426102D01*
X114848Y424401D01*
X115247Y422742D01*
X115900Y421165D01*
X116792Y419710D01*
X117900Y418412D01*
X119198Y417303D01*
X120653Y416412D01*
X122230Y415759D01*
X123889Y415360D01*
X125591Y415226D01*
X127292Y415360D01*
X128951Y415759D01*
X130528Y416412D01*
X131983Y417303D01*
X133281Y418412D01*
X134389Y419710D01*
X135281Y421165D01*
X135934Y422742D01*
X136333Y424401D01*
X136467Y426102D01*
X136333Y427804D01*
X135934Y429463D01*
X135281Y431040D01*
X134389Y432495D01*
X133281Y433793D01*
X131983Y434901D01*
X130528Y435793D01*
X128951Y436446D01*
X127292Y436844D01*
X125591Y436978D01*
D02*
G37*
G36*
X-124449D02*
X-126150Y436844D01*
X-127810Y436446D01*
X-129386Y435793D01*
X-130842Y434901D01*
X-132139Y433793D01*
X-133248Y432495D01*
X-134139Y431040D01*
X-134792Y429463D01*
X-135191Y427804D01*
X-135325Y426102D01*
X-135191Y424401D01*
X-134792Y422742D01*
X-134139Y421165D01*
X-133248Y419710D01*
X-132139Y418412D01*
X-130842Y417303D01*
X-129386Y416412D01*
X-127810Y415759D01*
X-126150Y415360D01*
X-124449Y415226D01*
X-122747Y415360D01*
X-121088Y415759D01*
X-119511Y416412D01*
X-118056Y417303D01*
X-116758Y418412D01*
X-115650Y419710D01*
X-114758Y421165D01*
X-114105Y422742D01*
X-113707Y424401D01*
X-113573Y426102D01*
X-113707Y427804D01*
X-114105Y429463D01*
X-114758Y431040D01*
X-115650Y432495D01*
X-116758Y433793D01*
X-118056Y434901D01*
X-119511Y435793D01*
X-121088Y436446D01*
X-122747Y436844D01*
X-124449Y436978D01*
D02*
G37*
G36*
X-181166Y417912D02*
X-184130D01*
Y414948D01*
X-183716Y415002D01*
X-182865Y415355D01*
X-182134Y415916D01*
X-181573Y416647D01*
X-181220Y417498D01*
X-181166Y417912D01*
D02*
G37*
G36*
X-185130D02*
X-188094D01*
X-188040Y417498D01*
X-187687Y416647D01*
X-187126Y415916D01*
X-186395Y415355D01*
X-185544Y415002D01*
X-185130Y414948D01*
Y417912D01*
D02*
G37*
G36*
X92807Y418791D02*
X88195D01*
X88305Y417951D01*
X88823Y416702D01*
X89646Y415630D01*
X90718Y414807D01*
X91967Y414290D01*
X92807Y414179D01*
Y418791D01*
D02*
G37*
G36*
X38280D02*
X33667D01*
X33778Y417951D01*
X34295Y416702D01*
X35118Y415630D01*
X36191Y414807D01*
X37439Y414290D01*
X38280Y414179D01*
Y418791D01*
D02*
G37*
G36*
X-5342D02*
X-9955D01*
X-9844Y417951D01*
X-9327Y416702D01*
X-8504Y415630D01*
X-7432Y414807D01*
X-6183Y414290D01*
X-5342Y414179D01*
Y418791D01*
D02*
G37*
G36*
X-48965Y418791D02*
X-53577D01*
X-53466Y417951D01*
X-52949Y416702D01*
X-52126Y415630D01*
X-51054Y414807D01*
X-49805Y414290D01*
X-48965Y414179D01*
Y418791D01*
D02*
G37*
G36*
X-70776D02*
X-75388D01*
X-75277Y417951D01*
X-74760Y416702D01*
X-73937Y415630D01*
X-72865Y414807D01*
X-71616Y414290D01*
X-70776Y414179D01*
Y418791D01*
D02*
G37*
G36*
X-92587D02*
X-97199D01*
X-97088Y417951D01*
X-96571Y416702D01*
X-95748Y415630D01*
X-94676Y414807D01*
X-93427Y414290D01*
X-92587Y414179D01*
Y418791D01*
D02*
G37*
G36*
X81902D02*
X77289D01*
X77400Y417951D01*
X77917Y416702D01*
X78740Y415630D01*
X79813Y414807D01*
X81061Y414290D01*
X81902Y414179D01*
Y418791D01*
D02*
G37*
G36*
X60091D02*
X55478D01*
X55589Y417951D01*
X56106Y416702D01*
X56929Y415630D01*
X58002Y414807D01*
X59250Y414290D01*
X60091Y414179D01*
Y418791D01*
D02*
G37*
G36*
X-27154D02*
X-31766D01*
X-31655Y417951D01*
X-31138Y416702D01*
X-30315Y415630D01*
X-29243Y414807D01*
X-27994Y414290D01*
X-27154Y414179D01*
Y418791D01*
D02*
G37*
G36*
X70996Y418791D02*
X66384D01*
X66494Y417951D01*
X67012Y416702D01*
X67835Y415630D01*
X68907Y414807D01*
X70156Y414290D01*
X70996Y414179D01*
Y418791D01*
D02*
G37*
G36*
X16468D02*
X11856D01*
X11967Y417951D01*
X12484Y416702D01*
X13307Y415630D01*
X14379Y414807D01*
X15628Y414290D01*
X16468Y414179D01*
Y418791D01*
D02*
G37*
G36*
X76608D02*
X71996D01*
Y414179D01*
X72836Y414290D01*
X74085Y414807D01*
X75158Y415630D01*
X75981Y416702D01*
X76498Y417951D01*
X76608Y418791D01*
D02*
G37*
G36*
X22081D02*
X17469D01*
Y414179D01*
X18309Y414290D01*
X19558Y414807D01*
X20630Y415630D01*
X21453Y416702D01*
X21970Y417951D01*
X22081Y418791D01*
D02*
G37*
G36*
X87514Y418791D02*
X82902D01*
Y414179D01*
X83742Y414290D01*
X84991Y414807D01*
X86063Y415630D01*
X86886Y416702D01*
X87403Y417951D01*
X87514Y418791D01*
D02*
G37*
G36*
X65703D02*
X61090D01*
Y414179D01*
X61931Y414290D01*
X63180Y414807D01*
X64252Y415630D01*
X65075Y416702D01*
X65592Y417951D01*
X65703Y418791D01*
D02*
G37*
G36*
X-21541D02*
X-26154D01*
Y414179D01*
X-25313Y414290D01*
X-24064Y414807D01*
X-22992Y415630D01*
X-22169Y416702D01*
X-21652Y417951D01*
X-21541Y418791D01*
D02*
G37*
G36*
X-43352D02*
X-47965D01*
Y414179D01*
X-47124Y414290D01*
X-45875Y414807D01*
X-44803Y415630D01*
X-43980Y416702D01*
X-43463Y417951D01*
X-43352Y418791D01*
D02*
G37*
G36*
X-65163D02*
X-69776D01*
Y414179D01*
X-68935Y414290D01*
X-67686Y414807D01*
X-66614Y415630D01*
X-65791Y416702D01*
X-65274Y417951D01*
X-65163Y418791D01*
D02*
G37*
G36*
X-86974D02*
X-91587D01*
Y414179D01*
X-90746Y414290D01*
X-89498Y414807D01*
X-88425Y415630D01*
X-87602Y416702D01*
X-87085Y417951D01*
X-86974Y418791D01*
D02*
G37*
G36*
X98419Y418791D02*
X93807D01*
Y414179D01*
X94647Y414290D01*
X95896Y414807D01*
X96969Y415630D01*
X97791Y416702D01*
X98309Y417951D01*
X98419Y418791D01*
D02*
G37*
G36*
X43892D02*
X39279D01*
Y414179D01*
X40120Y414290D01*
X41369Y414807D01*
X42441Y415630D01*
X43264Y416702D01*
X43781Y417951D01*
X43892Y418791D01*
D02*
G37*
G36*
X270D02*
X-4343D01*
Y414179D01*
X-3502Y414290D01*
X-2253Y414807D01*
X-1181Y415630D01*
X-358Y416702D01*
X159Y417951D01*
X270Y418791D01*
D02*
G37*
G36*
X49685Y424470D02*
X48345Y424293D01*
X47096Y423776D01*
X46024Y422953D01*
X45201Y421880D01*
X44683Y420632D01*
X44507Y419291D01*
X44683Y417951D01*
X45201Y416702D01*
X46024Y415630D01*
X47096Y414807D01*
X48345Y414290D01*
X49685Y414113D01*
X51025Y414290D01*
X52274Y414807D01*
X53347Y415630D01*
X54169Y416702D01*
X54687Y417951D01*
X54863Y419291D01*
X54687Y420632D01*
X54169Y421880D01*
X53347Y422953D01*
X52274Y423776D01*
X51025Y424293D01*
X49685Y424470D01*
D02*
G37*
G36*
X27874D02*
X26534Y424293D01*
X25285Y423776D01*
X24213Y422953D01*
X23390Y421880D01*
X22872Y420632D01*
X22696Y419291D01*
X22872Y417951D01*
X23390Y416702D01*
X24213Y415630D01*
X25285Y414807D01*
X26534Y414290D01*
X27874Y414113D01*
X29214Y414290D01*
X30463Y414807D01*
X31536Y415630D01*
X32358Y416702D01*
X32876Y417951D01*
X33052Y419291D01*
X32876Y420632D01*
X32358Y421880D01*
X31536Y422953D01*
X30463Y423776D01*
X29214Y424293D01*
X27874Y424470D01*
D02*
G37*
G36*
X6063D02*
X4723Y424293D01*
X3474Y423776D01*
X2402Y422953D01*
X1579Y421880D01*
X1061Y420632D01*
X885Y419291D01*
X1061Y417951D01*
X1579Y416702D01*
X2402Y415630D01*
X3474Y414807D01*
X4723Y414290D01*
X6063Y414113D01*
X7403Y414290D01*
X8652Y414807D01*
X9725Y415630D01*
X10547Y416702D01*
X11065Y417951D01*
X11241Y419291D01*
X11065Y420632D01*
X10547Y421880D01*
X9725Y422953D01*
X8652Y423776D01*
X7403Y424293D01*
X6063Y424470D01*
D02*
G37*
G36*
X-15748D02*
X-17088Y424293D01*
X-18337Y423776D01*
X-19410Y422953D01*
X-20232Y421880D01*
X-20750Y420632D01*
X-20926Y419291D01*
X-20750Y417951D01*
X-20232Y416702D01*
X-19410Y415630D01*
X-18337Y414807D01*
X-17088Y414290D01*
X-15748Y414113D01*
X-14408Y414290D01*
X-13159Y414807D01*
X-12087Y415630D01*
X-11264Y416702D01*
X-10746Y417951D01*
X-10570Y419291D01*
X-10746Y420632D01*
X-11264Y421880D01*
X-12087Y422953D01*
X-13159Y423776D01*
X-14408Y424293D01*
X-15748Y424470D01*
D02*
G37*
G36*
X-37559D02*
X-38899Y424293D01*
X-40148Y423776D01*
X-41221Y422953D01*
X-42044Y421880D01*
X-42561Y420632D01*
X-42737Y419291D01*
X-42561Y417951D01*
X-42044Y416702D01*
X-41221Y415630D01*
X-40148Y414807D01*
X-38899Y414290D01*
X-37559Y414113D01*
X-36219Y414290D01*
X-34970Y414807D01*
X-33898Y415630D01*
X-33075Y416702D01*
X-32557Y417951D01*
X-32381Y419291D01*
X-32557Y420632D01*
X-33075Y421880D01*
X-33898Y422953D01*
X-34970Y423776D01*
X-36219Y424293D01*
X-37559Y424470D01*
D02*
G37*
G36*
X-59370D02*
X-60710Y424293D01*
X-61959Y423776D01*
X-63032Y422953D01*
X-63854Y421880D01*
X-64372Y420632D01*
X-64548Y419291D01*
X-64372Y417951D01*
X-63854Y416702D01*
X-63032Y415630D01*
X-61959Y414807D01*
X-60710Y414290D01*
X-59370Y414113D01*
X-58030Y414290D01*
X-56781Y414807D01*
X-55709Y415630D01*
X-54886Y416702D01*
X-54368Y417951D01*
X-54192Y419291D01*
X-54368Y420632D01*
X-54886Y421880D01*
X-55709Y422953D01*
X-56781Y423776D01*
X-58030Y424293D01*
X-59370Y424470D01*
D02*
G37*
G36*
X-100787Y450441D02*
X-135039D01*
X-135660Y450317D01*
X-136186Y449966D01*
X-165618Y420534D01*
X-167604D01*
X-168225Y420410D01*
X-168751Y420059D01*
X-190756Y398053D01*
X-191625Y398412D01*
X-192913Y398582D01*
X-194202Y398412D01*
X-195403Y397915D01*
X-196434Y397124D01*
X-197226Y396092D01*
X-197723Y394891D01*
X-197893Y393602D01*
X-197723Y392314D01*
X-197226Y391113D01*
X-196434Y390081D01*
X-195403Y389290D01*
X-194202Y388792D01*
X-192913Y388623D01*
X-191625Y388792D01*
X-190424Y389290D01*
X-189392Y390081D01*
X-188601Y391113D01*
X-188103Y392314D01*
X-187934Y393602D01*
X-188103Y394891D01*
X-188463Y395759D01*
X-166932Y417290D01*
X-164946D01*
X-164326Y417414D01*
X-163800Y417765D01*
X-134368Y447197D01*
X-101459D01*
X-82803Y428541D01*
Y424177D01*
X-83770Y423776D01*
X-84843Y422953D01*
X-85666Y421880D01*
X-86183Y420632D01*
X-86359Y419291D01*
X-86183Y417951D01*
X-85666Y416702D01*
X-84843Y415630D01*
X-83770Y414807D01*
X-82521Y414290D01*
X-81181Y414113D01*
X-79841Y414290D01*
X-78592Y414807D01*
X-77520Y415630D01*
X-76697Y416702D01*
X-76179Y417951D01*
X-76003Y419291D01*
X-76179Y420632D01*
X-76697Y421880D01*
X-77520Y422953D01*
X-78592Y423776D01*
X-79559Y424177D01*
Y429213D01*
X-79683Y429833D01*
X-80034Y430359D01*
X-99641Y449966D01*
X-100167Y450317D01*
X-100787Y450441D01*
D02*
G37*
G36*
X187508Y416850D02*
Y413886D01*
X190472D01*
X190418Y414299D01*
X190065Y415151D01*
X189504Y415882D01*
X188773Y416443D01*
X187922Y416796D01*
X187508Y416850D01*
D02*
G37*
G36*
X186508D02*
X186094Y416796D01*
X185243Y416443D01*
X184512Y415882D01*
X183951Y415151D01*
X183598Y414299D01*
X183544Y413886D01*
X186508D01*
Y416850D01*
D02*
G37*
G36*
X190472Y412886D02*
X187508D01*
Y409922D01*
X187922Y409976D01*
X188773Y410329D01*
X189504Y410890D01*
X190065Y411621D01*
X190418Y412472D01*
X190472Y412886D01*
D02*
G37*
G36*
X186508D02*
X183544D01*
X183598Y412472D01*
X183951Y411621D01*
X184512Y410890D01*
X185243Y410329D01*
X186094Y409976D01*
X186508Y409922D01*
Y412886D01*
D02*
G37*
G36*
X66063Y414469D02*
X64723Y414293D01*
X63474Y413776D01*
X62401Y412953D01*
X61579Y411880D01*
X61061Y410632D01*
X60885Y409291D01*
X61061Y407951D01*
X61231Y407541D01*
X59873Y406183D01*
X59497Y406513D01*
X59642Y406702D01*
X60159Y407951D01*
X60336Y409291D01*
X60159Y410632D01*
X59642Y411880D01*
X58819Y412953D01*
X57747Y413776D01*
X56498Y414293D01*
X55158Y414469D01*
X53817Y414293D01*
X52568Y413776D01*
X51496Y412953D01*
X50673Y411880D01*
X50156Y410632D01*
X49979Y409291D01*
X50156Y407951D01*
X50425Y407301D01*
X38971Y395847D01*
X38620Y395321D01*
X38496Y394701D01*
Y385784D01*
X37110D01*
Y377996D01*
X40367D01*
Y343799D01*
X40398Y343643D01*
Y339650D01*
X48106D01*
Y345390D01*
X43610D01*
Y377996D01*
X46292D01*
Y366900D01*
X46415Y366279D01*
X46767Y365753D01*
X56705Y355815D01*
Y343799D01*
X56736Y343643D01*
Y339650D01*
X64445D01*
Y345390D01*
X59948D01*
Y356486D01*
X59825Y357107D01*
X59474Y357633D01*
X49535Y367571D01*
Y380472D01*
X49504Y380629D01*
Y385784D01*
X48866D01*
Y390588D01*
X63254Y404976D01*
X63474Y404807D01*
X64723Y404290D01*
X66063Y404113D01*
X67403Y404290D01*
X68652Y404807D01*
X69725Y405630D01*
X70547Y406702D01*
X71065Y407951D01*
X71241Y409291D01*
X71065Y410632D01*
X70547Y411880D01*
X69725Y412953D01*
X68652Y413776D01*
X67403Y414293D01*
X66063Y414469D01*
D02*
G37*
G36*
X44252D02*
X42912Y414293D01*
X41663Y413776D01*
X40591Y412953D01*
X39768Y411880D01*
X39250Y410632D01*
X39074Y409291D01*
X39250Y407951D01*
X39651Y406984D01*
X23922Y391255D01*
X23571Y390729D01*
X23447Y390108D01*
Y385784D01*
X22199D01*
X22061Y385784D01*
X21699D01*
X21561Y385784D01*
X20313D01*
Y393964D01*
X31039Y404690D01*
X32006Y404290D01*
X33347Y404113D01*
X34687Y404290D01*
X35936Y404807D01*
X37008Y405630D01*
X37831Y406702D01*
X38348Y407951D01*
X38525Y409291D01*
X38348Y410632D01*
X37831Y411880D01*
X37008Y412953D01*
X35936Y413776D01*
X34687Y414293D01*
X33347Y414469D01*
X32006Y414293D01*
X30757Y413776D01*
X29685Y412953D01*
X28862Y411880D01*
X28345Y410632D01*
X28168Y409291D01*
X28345Y407951D01*
X28745Y406984D01*
X17544Y395782D01*
X17193Y395256D01*
X17069Y394636D01*
Y385784D01*
X15683D01*
Y377996D01*
X17069D01*
Y349717D01*
X13283Y345930D01*
X12931Y345404D01*
X12928Y345390D01*
X8311D01*
Y339650D01*
X16020D01*
Y343643D01*
X16051Y343799D01*
Y344112D01*
X19838Y347899D01*
X20189Y348425D01*
X20313Y349045D01*
Y377996D01*
X21561D01*
X21699Y377996D01*
X22061D01*
X22199Y377996D01*
X23447D01*
Y345797D01*
X23571Y345177D01*
X23922Y344651D01*
X24658Y343915D01*
Y343602D01*
X24689Y343446D01*
Y339453D01*
X32398D01*
Y345193D01*
X29980D01*
X29823Y345224D01*
X29666Y345193D01*
X27781D01*
X27778Y345207D01*
X27426Y345733D01*
X26691Y346469D01*
Y377996D01*
X28077D01*
Y385784D01*
X26691D01*
Y389437D01*
X41944Y404690D01*
X42912Y404290D01*
X44252Y404113D01*
X45592Y404290D01*
X46841Y404807D01*
X47914Y405630D01*
X48736Y406702D01*
X49254Y407951D01*
X49430Y409291D01*
X49254Y410632D01*
X48736Y411880D01*
X47914Y412953D01*
X46841Y413776D01*
X45592Y414293D01*
X44252Y414469D01*
D02*
G37*
G36*
X22441D02*
X21101Y414293D01*
X19852Y413776D01*
X18779Y412953D01*
X17956Y411880D01*
X17439Y410632D01*
X17263Y409291D01*
X17439Y407951D01*
X17840Y406984D01*
X2495Y391639D01*
X2144Y391113D01*
X2020Y390492D01*
Y385784D01*
X772D01*
X634Y385784D01*
X272D01*
X134Y385784D01*
X-1115D01*
Y394348D01*
X9228Y404690D01*
X10195Y404290D01*
X11535Y404113D01*
X12876Y404290D01*
X14124Y404807D01*
X15197Y405630D01*
X16020Y406702D01*
X16537Y407951D01*
X16714Y409291D01*
X16537Y410632D01*
X16020Y411880D01*
X15197Y412953D01*
X14124Y413776D01*
X12876Y414293D01*
X11535Y414469D01*
X10195Y414293D01*
X8946Y413776D01*
X7874Y412953D01*
X7051Y411880D01*
X6534Y410632D01*
X6357Y409291D01*
X6534Y407951D01*
X6934Y406984D01*
X-3883Y396166D01*
X-4234Y395640D01*
X-4358Y395020D01*
Y385784D01*
X-5744D01*
Y377996D01*
X-4515D01*
Y345193D01*
X-8027D01*
Y339453D01*
X-319D01*
Y343446D01*
X-288Y343602D01*
X-319Y343759D01*
Y345193D01*
X-1272D01*
Y377996D01*
X134D01*
X272Y377996D01*
X634D01*
X772Y377996D01*
X2020D01*
Y320849D01*
X-655Y318174D01*
X-1006Y317648D01*
X-1009Y317634D01*
X-4595D01*
Y331776D01*
X-319D01*
Y337516D01*
X-8027D01*
Y331776D01*
X-7838D01*
Y259042D01*
X-7900Y258962D01*
X-8252Y258110D01*
X-8373Y257197D01*
X-8252Y256283D01*
X-7900Y255432D01*
X-7339Y254700D01*
X-6608Y254139D01*
X-5756Y253787D01*
X-4843Y253666D01*
X-3929Y253787D01*
X-3077Y254139D01*
X-2346Y254700D01*
X-1785Y255432D01*
X-1767Y255475D01*
X-1267Y255375D01*
Y254576D01*
X-5816Y250027D01*
X-9352D01*
Y250685D01*
X-9352D01*
Y251126D01*
X-9352D01*
Y255626D01*
X-9352Y255685D01*
Y256126D01*
X-9352Y256185D01*
Y260626D01*
X-9352Y260685D01*
Y261126D01*
X-9352Y261185D01*
Y265626D01*
X-9352Y265685D01*
Y266126D01*
X-9352Y266185D01*
Y270626D01*
X-9352Y270685D01*
Y271126D01*
X-9352Y271185D01*
Y275685D01*
X-11733D01*
Y292421D01*
X-11547Y292563D01*
X-10986Y293294D01*
X-10633Y294145D01*
X-10513Y295059D01*
X-10633Y295973D01*
X-10986Y296824D01*
X-11547Y297555D01*
X-12278Y298116D01*
X-13130Y298469D01*
X-14043Y298589D01*
X-14957Y298469D01*
X-15808Y298116D01*
X-16540Y297555D01*
X-17100Y296824D01*
X-17453Y295973D01*
X-17573Y295059D01*
X-17453Y294145D01*
X-17100Y293294D01*
X-16540Y292563D01*
X-15808Y292002D01*
X-14976Y291657D01*
Y275685D01*
X-17356D01*
Y271499D01*
X-17856Y271291D01*
X-18890Y272325D01*
Y331776D01*
X-16657D01*
Y337516D01*
X-24366D01*
Y331776D01*
X-22133D01*
Y271654D01*
X-22010Y271033D01*
X-21658Y270507D01*
X-19159Y268007D01*
X-18632Y267655D01*
X-18352Y267600D01*
X-18347Y267596D01*
X-17726Y267473D01*
X-17356D01*
Y266185D01*
X-17356Y266126D01*
Y265685D01*
X-17569Y265214D01*
X-20969D01*
X-21106Y265545D01*
X-21667Y266276D01*
X-22398Y266837D01*
X-23250Y267189D01*
X-24163Y267310D01*
X-25077Y267189D01*
X-25929Y266837D01*
X-26660Y266276D01*
X-27221Y265545D01*
X-27573Y264693D01*
X-27694Y263779D01*
X-27573Y262866D01*
X-27221Y262014D01*
X-26660Y261283D01*
X-25929Y260722D01*
X-25458Y260527D01*
X-25557Y260027D01*
X-29387D01*
X-29874Y260514D01*
Y278472D01*
X-29998Y279093D01*
X-30349Y279619D01*
X-32452Y281722D01*
X-31366Y282808D01*
X-30582Y282911D01*
X-29731Y283264D01*
X-29000Y283825D01*
X-28439Y284556D01*
X-28086Y285407D01*
X-27966Y286321D01*
X-28086Y287234D01*
X-28439Y288086D01*
X-29000Y288817D01*
X-29731Y289378D01*
X-30582Y289731D01*
X-31496Y289851D01*
X-32410Y289731D01*
X-33261Y289378D01*
X-33992Y288817D01*
X-34355Y288344D01*
X-41317D01*
X-42091Y288190D01*
X-42748Y287751D01*
X-49694Y280805D01*
X-50133Y280148D01*
X-50287Y279374D01*
Y259515D01*
X-54373Y255429D01*
X-123125D01*
X-123488Y255902D01*
X-124219Y256463D01*
X-125071Y256815D01*
X-125984Y256936D01*
X-126898Y256815D01*
X-127749Y256463D01*
X-128481Y255902D01*
X-129042Y255171D01*
X-129394Y254319D01*
X-129515Y253405D01*
X-129394Y252492D01*
X-129042Y251640D01*
X-128481Y250909D01*
X-128007Y250546D01*
Y131511D01*
X-165354D01*
X-165602Y131462D01*
X-188428D01*
X-188601Y131880D01*
X-189392Y132911D01*
X-190424Y133702D01*
X-191625Y134200D01*
X-192913Y134369D01*
X-194202Y134200D01*
X-195403Y133702D01*
X-196434Y132911D01*
X-197226Y131880D01*
X-197723Y130679D01*
X-197893Y129390D01*
X-197723Y128101D01*
X-197226Y126900D01*
X-196434Y125869D01*
X-195403Y125077D01*
X-194202Y124580D01*
X-192913Y124410D01*
X-191625Y124580D01*
X-190424Y125077D01*
X-189392Y125869D01*
X-188601Y126900D01*
X-188387Y127416D01*
X-165403D01*
X-165156Y127465D01*
X-163440D01*
Y116437D01*
X-165724D01*
Y108453D01*
X-157110D01*
Y116437D01*
X-159394D01*
Y127465D01*
X-128007D01*
Y116827D01*
X-129878D01*
Y110949D01*
X-129878Y110811D01*
Y110449D01*
X-129878Y110311D01*
Y107941D01*
X-125984D01*
X-122091D01*
Y110311D01*
X-122090Y110449D01*
Y110811D01*
X-122091Y110949D01*
Y116827D01*
X-123961D01*
Y127465D01*
X120894D01*
X152113Y96247D01*
X152769Y95808D01*
X153543Y95654D01*
X188211D01*
X188404Y95187D01*
X189195Y94156D01*
X190227Y93365D01*
X191428Y92867D01*
X192717Y92698D01*
X194005Y92867D01*
X195206Y93365D01*
X196238Y94156D01*
X197029Y95187D01*
X197527Y96388D01*
X197696Y97677D01*
X197527Y98966D01*
X197029Y100167D01*
X196238Y101198D01*
X195206Y101990D01*
X194005Y102487D01*
X192717Y102657D01*
X191428Y102487D01*
X190227Y101990D01*
X189195Y101198D01*
X188404Y100167D01*
X188211Y99700D01*
X154381D01*
X123163Y130919D01*
X122506Y131357D01*
X121732Y131511D01*
X-123961D01*
Y250546D01*
X-123488Y250909D01*
X-123125Y251382D01*
X-54983D01*
X-54672Y251174D01*
X-53898Y251020D01*
X-53123Y251174D01*
X-52467Y251613D01*
X-46833Y257247D01*
X-46395Y257903D01*
X-46241Y258677D01*
Y278536D01*
X-43804Y280972D01*
X-43343Y280781D01*
Y275602D01*
X-43343Y275464D01*
Y275102D01*
X-43343Y274964D01*
Y272594D01*
X-35555D01*
Y274964D01*
X-35555Y275102D01*
Y275464D01*
X-35555Y275602D01*
Y278619D01*
X-34746Y279428D01*
X-33118Y277800D01*
Y259842D01*
X-32994Y259222D01*
X-32643Y258696D01*
X-31206Y257259D01*
X-30680Y256907D01*
X-30059Y256784D01*
X-17356D01*
Y256185D01*
X-17356Y256126D01*
Y255685D01*
X-17356Y255626D01*
Y253419D01*
X-21776Y248999D01*
X-21857Y249061D01*
X-22708Y249414D01*
X-23622Y249534D01*
X-24536Y249414D01*
X-25387Y249061D01*
X-26118Y248500D01*
X-26679Y247769D01*
X-27032Y246918D01*
X-27152Y246004D01*
X-27032Y245090D01*
X-26679Y244239D01*
X-26118Y243508D01*
X-25387Y242947D01*
X-24536Y242594D01*
X-23622Y242474D01*
X-22708Y242594D01*
X-21857Y242947D01*
X-21609Y243137D01*
X-21431Y243042D01*
X-21201Y242820D01*
X-21307Y242289D01*
Y235682D01*
X-21183Y235062D01*
X-20832Y234536D01*
X-16767Y230471D01*
X-16764Y230447D01*
X-16411Y229596D01*
X-15850Y228864D01*
X-15119Y228303D01*
X-14268Y227951D01*
X-13354Y227831D01*
X-12441Y227951D01*
X-11589Y228303D01*
X-10858Y228864D01*
X-10297Y229596D01*
X-9944Y230447D01*
X-9824Y231361D01*
X-9944Y232274D01*
X-10297Y233126D01*
X-10858Y233857D01*
X-11589Y234418D01*
X-12441Y234771D01*
X-13354Y234891D01*
X-14268Y234771D01*
X-15119Y234418D01*
X-15690Y233980D01*
X-17335Y235626D01*
X-17128Y236126D01*
X-16951Y236126D01*
X-13854D01*
Y238405D01*
X-13354D01*
Y238906D01*
X-9352D01*
Y240626D01*
X-9352Y240685D01*
Y241126D01*
X-9352Y241185D01*
Y245626D01*
X-9352Y245685D01*
Y246126D01*
X-9352Y246185D01*
Y246784D01*
X-5144D01*
X-4524Y246907D01*
X-3998Y247259D01*
X1501Y252758D01*
X1853Y253284D01*
X1976Y253904D01*
Y266130D01*
X1853Y266750D01*
X1841Y266768D01*
X2201Y267128D01*
X2532Y266907D01*
X3153Y266784D01*
X3998D01*
Y266185D01*
X3998Y266126D01*
Y265685D01*
X3998Y265626D01*
Y261185D01*
X3998Y261126D01*
Y260685D01*
X3998Y260626D01*
Y256126D01*
X3998D01*
Y255685D01*
X3998D01*
Y251185D01*
X3998Y251126D01*
Y250685D01*
X3998Y250626D01*
Y246185D01*
X3998Y246126D01*
Y245685D01*
X3998Y245626D01*
Y245027D01*
X1345D01*
X1286Y245171D01*
X725Y245902D01*
X-7Y246463D01*
X-858Y246815D01*
X-1772Y246936D01*
X-2685Y246815D01*
X-3537Y246463D01*
X-4268Y245902D01*
X-4829Y245171D01*
X-5181Y244319D01*
X-5302Y243406D01*
X-5181Y242492D01*
X-4829Y241640D01*
X-4268Y240909D01*
X-3537Y240348D01*
X-2685Y239996D01*
X-1772Y239875D01*
X-858Y239996D01*
X-7Y240348D01*
X725Y240909D01*
X1286Y241640D01*
X1345Y241784D01*
X3998D01*
Y241185D01*
X3998Y241126D01*
Y240685D01*
X3998Y240626D01*
Y236126D01*
X12002D01*
Y236784D01*
X13852D01*
X13911Y236640D01*
X14472Y235909D01*
X15203Y235348D01*
X16055Y234996D01*
X16969Y234875D01*
X17882Y234996D01*
X18734Y235348D01*
X19465Y235909D01*
X20026Y236640D01*
X20378Y237492D01*
X20499Y238405D01*
X20378Y239319D01*
X20026Y240171D01*
X19465Y240902D01*
X18734Y241463D01*
X17882Y241815D01*
X16969Y241936D01*
X16055Y241815D01*
X15203Y241463D01*
X14472Y240902D01*
X13911Y240171D01*
X13852Y240027D01*
X12002D01*
Y240626D01*
X12002Y240685D01*
Y241126D01*
X12002Y241185D01*
Y245626D01*
X12002Y245685D01*
Y246126D01*
X12002Y246185D01*
Y246784D01*
X14801D01*
X15997Y245588D01*
X16523Y245236D01*
X17143Y245113D01*
X94720D01*
X166360Y173473D01*
X166224Y173146D01*
X166224D01*
Y171712D01*
X166193Y171555D01*
X166224Y171398D01*
Y165437D01*
X171965D01*
Y173146D01*
X170694D01*
X170593Y173652D01*
X170241Y174178D01*
X96538Y247881D01*
X96012Y248233D01*
X95391Y248356D01*
X17815D01*
X16619Y249552D01*
X16093Y249904D01*
X15472Y250027D01*
X12002D01*
Y250626D01*
X12002Y250685D01*
Y251126D01*
X12002Y251185D01*
Y251784D01*
X19324D01*
X19384Y251640D01*
X19945Y250909D01*
X20676Y250348D01*
X21527Y249996D01*
X22441Y249875D01*
X23355Y249996D01*
X24206Y250348D01*
X24937Y250909D01*
X25498Y251640D01*
X25851Y252492D01*
X25971Y253405D01*
X25851Y254319D01*
X25498Y255171D01*
X24937Y255902D01*
X24439Y256284D01*
X24609Y256784D01*
X103915D01*
X166224Y194474D01*
Y189059D01*
X171965D01*
Y196768D01*
X168518D01*
X105733Y259552D01*
X105207Y259904D01*
X104587Y260027D01*
X12002D01*
Y260626D01*
X12002Y260685D01*
Y261126D01*
X12002Y261185D01*
Y261784D01*
X22795D01*
X23416Y261907D01*
X23942Y262259D01*
X27486Y265803D01*
X27630Y265744D01*
X28543Y265623D01*
X29457Y265744D01*
X30308Y266096D01*
X31040Y266657D01*
X31601Y267388D01*
X31953Y268240D01*
X32074Y269153D01*
X31953Y270067D01*
X31601Y270919D01*
X31040Y271650D01*
X30308Y272211D01*
X29457Y272564D01*
X28543Y272684D01*
X27630Y272564D01*
X26778Y272211D01*
X26047Y271650D01*
X25486Y270919D01*
X25133Y270067D01*
X25013Y269153D01*
X25133Y268240D01*
X25193Y268096D01*
X22124Y265027D01*
X12002D01*
Y265626D01*
X12002Y265685D01*
Y266126D01*
X12002Y266185D01*
Y270626D01*
X12002Y270685D01*
Y271126D01*
X12420Y271382D01*
X13674D01*
X14448Y271536D01*
X15104Y271975D01*
X17179Y274049D01*
X17617Y274706D01*
X17771Y275480D01*
Y278261D01*
X18244Y278624D01*
X18607Y279097D01*
X36841D01*
X43963Y271975D01*
X44620Y271536D01*
X45394Y271382D01*
X122098D01*
X122872Y271536D01*
X123529Y271975D01*
X128155Y276601D01*
X128535Y277169D01*
X129732D01*
Y279040D01*
X133425D01*
X134199Y279194D01*
X134856Y279632D01*
X145131Y289908D01*
X145570Y290564D01*
X145724Y291339D01*
Y324606D01*
X145570Y325380D01*
X145131Y326037D01*
X139679Y331490D01*
X139022Y331928D01*
X138248Y332082D01*
X137860D01*
Y332339D01*
X129856D01*
Y331539D01*
X129085D01*
X128464Y331416D01*
X127938Y331064D01*
X120911Y324037D01*
X120449Y324228D01*
Y330951D01*
X126459Y336961D01*
X137576D01*
X179558Y294979D01*
Y279450D01*
X179681Y278830D01*
X180033Y278304D01*
X207040Y251297D01*
Y131543D01*
X177837D01*
X170716Y138664D01*
Y141913D01*
X171965D01*
Y149622D01*
X166224D01*
Y141913D01*
X167473D01*
Y137992D01*
X167596Y137372D01*
X167948Y136845D01*
X176019Y128774D01*
X176545Y128423D01*
X177165Y128299D01*
X207969D01*
X208590Y128423D01*
X209116Y128774D01*
X209808Y129466D01*
X210160Y129992D01*
X210283Y130613D01*
Y251969D01*
X210160Y252589D01*
X209808Y253115D01*
X182801Y280122D01*
Y295651D01*
X182678Y296272D01*
X182326Y296798D01*
X139395Y339729D01*
X138869Y340081D01*
X138248Y340204D01*
X125787D01*
X125167Y340081D01*
X124641Y339729D01*
X117681Y332769D01*
X117329Y332243D01*
X117206Y331623D01*
Y324401D01*
X117006Y324248D01*
X116506Y324495D01*
Y327279D01*
X116506Y327339D01*
Y327780D01*
X116506Y327839D01*
Y332339D01*
X108502D01*
Y331681D01*
X99660D01*
X90708Y340633D01*
X90899Y341095D01*
X95934D01*
X96555Y341218D01*
X97081Y341570D01*
X97773Y342262D01*
X98125Y342788D01*
X98248Y343408D01*
Y358356D01*
X100998Y361106D01*
X104445D01*
Y368815D01*
X98705D01*
Y363400D01*
X97285Y361980D01*
X96975Y362133D01*
X96833Y362235D01*
X96717Y363118D01*
X96364Y363970D01*
X95803Y364701D01*
X95072Y365262D01*
X94221Y365615D01*
X93307Y365735D01*
X92393Y365615D01*
X91542Y365262D01*
X90811Y364701D01*
X90250Y363970D01*
X89897Y363118D01*
X89777Y362205D01*
X89897Y361291D01*
X90250Y360440D01*
X90811Y359708D01*
X91264Y359361D01*
Y358605D01*
X86463Y353804D01*
X86112Y353278D01*
X86109Y353264D01*
X81492D01*
Y347524D01*
X89201D01*
Y351517D01*
X89232Y351673D01*
Y351986D01*
X94033Y356786D01*
X94384Y357312D01*
X94508Y357933D01*
X95005Y357926D01*
Y344338D01*
X89201D01*
Y345587D01*
X81492D01*
Y339846D01*
X86907D01*
X97842Y328912D01*
X98368Y328561D01*
X98988Y328437D01*
X108502D01*
Y327839D01*
X108502Y327780D01*
Y327339D01*
X108502Y327279D01*
Y326681D01*
X91508D01*
X90887Y326557D01*
X90361Y326206D01*
X84200Y320044D01*
X83848Y319518D01*
X83725Y318898D01*
Y311024D01*
Y291807D01*
X81492D01*
Y286067D01*
X89201D01*
Y291807D01*
X86968D01*
Y308929D01*
X90016D01*
Y306697D01*
X95756D01*
Y314405D01*
X90016D01*
Y312173D01*
X86968D01*
Y318226D01*
X92180Y323437D01*
X108502D01*
Y322780D01*
X108502Y322779D01*
Y322339D01*
X108502D01*
X108502Y322280D01*
Y317780D01*
X108502Y317779D01*
Y317339D01*
X108502D01*
X108502Y317280D01*
Y316681D01*
X104087D01*
X103466Y316557D01*
X102940Y316206D01*
X101140Y314405D01*
X97693D01*
Y306697D01*
X103433D01*
Y312112D01*
X104758Y313437D01*
X108502D01*
Y312839D01*
X108502Y312779D01*
Y312339D01*
X108502Y312280D01*
Y307839D01*
X108502Y307780D01*
Y307339D01*
X108502Y307279D01*
Y302839D01*
X108502Y302780D01*
Y302339D01*
X108502Y302279D01*
Y297839D01*
X108502Y297779D01*
Y297339D01*
X108502Y297280D01*
Y295559D01*
X112504D01*
Y294559D01*
X108502D01*
Y292779D01*
X112892D01*
Y291160D01*
X113046Y290385D01*
X113485Y289729D01*
X117795Y285419D01*
X117604Y284957D01*
X117339D01*
Y282882D01*
X89201D01*
Y284130D01*
X85847D01*
Y281260D01*
Y278390D01*
X89201D01*
Y279638D01*
X117339D01*
Y277169D01*
X119846D01*
Y281063D01*
X120846D01*
Y277169D01*
X122348D01*
X122539Y276707D01*
X121260Y275429D01*
X46232D01*
X39109Y282551D01*
X38453Y282990D01*
X37679Y283144D01*
X18607D01*
X18244Y283617D01*
X17513Y284178D01*
X16662Y284530D01*
X15748Y284651D01*
X14834Y284530D01*
X13983Y284178D01*
X13252Y283617D01*
X12691Y282886D01*
X12338Y282034D01*
X12218Y281120D01*
X12338Y280207D01*
X12691Y279355D01*
X13252Y278624D01*
X13725Y278261D01*
Y276318D01*
X12835Y275429D01*
X12002D01*
Y275685D01*
X3998D01*
Y271185D01*
X3998Y271126D01*
Y270685D01*
X3998Y270626D01*
Y270561D01*
X3498Y270354D01*
X834Y273017D01*
Y285356D01*
X13544Y298066D01*
X13896Y298592D01*
X14019Y299213D01*
Y331972D01*
X16020D01*
Y337713D01*
X8311D01*
Y331972D01*
X10776D01*
Y299884D01*
X-885Y288224D01*
X-1347Y288415D01*
Y289704D01*
X-1258Y289838D01*
X-1134Y290458D01*
Y304217D01*
X2083D01*
Y309957D01*
X-4595D01*
Y311894D01*
X2083D01*
Y315887D01*
X2114Y316043D01*
Y316356D01*
X4789Y319030D01*
X5140Y319557D01*
X5263Y320177D01*
Y377996D01*
X6650D01*
Y385784D01*
X5263D01*
Y389820D01*
X20133Y404690D01*
X21101Y404290D01*
X22441Y404113D01*
X23781Y404290D01*
X25030Y404807D01*
X26103Y405630D01*
X26925Y406702D01*
X27443Y407951D01*
X27619Y409291D01*
X27443Y410632D01*
X26925Y411880D01*
X26103Y412953D01*
X25030Y413776D01*
X23781Y414293D01*
X22441Y414469D01*
D02*
G37*
G36*
X630D02*
X-710Y414293D01*
X-1959Y413776D01*
X-3032Y412953D01*
X-3855Y411880D01*
X-4372Y410632D01*
X-4548Y409291D01*
X-4372Y407951D01*
X-3971Y406984D01*
X-18932Y392023D01*
X-19284Y391497D01*
X-19407Y390876D01*
Y385784D01*
X-20655D01*
X-20793Y385784D01*
X-21156D01*
X-21293Y385784D01*
X-22542D01*
Y394732D01*
X-12583Y404690D01*
X-11616Y404290D01*
X-10276Y404113D01*
X-8935Y404290D01*
X-7687Y404807D01*
X-6614Y405630D01*
X-5791Y406702D01*
X-5274Y407951D01*
X-5097Y409291D01*
X-5274Y410632D01*
X-5791Y411880D01*
X-6614Y412953D01*
X-7687Y413776D01*
X-8935Y414293D01*
X-10276Y414469D01*
X-11616Y414293D01*
X-12865Y413776D01*
X-13937Y412953D01*
X-14760Y411880D01*
X-15277Y410632D01*
X-15454Y409291D01*
X-15277Y407951D01*
X-14877Y406984D01*
X-25310Y396550D01*
X-25662Y396024D01*
X-25785Y395404D01*
Y385784D01*
X-27171D01*
Y377996D01*
X-25785D01*
Y373195D01*
X-25929Y373136D01*
X-26660Y372575D01*
X-27221Y371844D01*
X-27573Y370992D01*
X-27694Y370079D01*
X-27573Y369165D01*
X-27221Y368314D01*
X-26660Y367583D01*
X-25929Y367021D01*
X-25077Y366669D01*
X-24163Y366548D01*
X-23250Y366669D01*
X-22398Y367021D01*
X-21667Y367583D01*
X-21106Y368314D01*
X-20753Y369165D01*
X-20633Y370079D01*
X-20753Y370992D01*
X-21106Y371844D01*
X-21667Y372575D01*
X-22398Y373136D01*
X-22542Y373195D01*
Y377996D01*
X-21293D01*
X-21156Y377996D01*
X-20793D01*
X-20655Y377996D01*
X-14777D01*
Y385784D01*
X-16164D01*
Y390204D01*
X-1678Y404690D01*
X-710Y404290D01*
X630Y404113D01*
X1970Y404290D01*
X3219Y404807D01*
X4291Y405630D01*
X5114Y406702D01*
X5632Y407951D01*
X5808Y409291D01*
X5632Y410632D01*
X5114Y411880D01*
X4291Y412953D01*
X3219Y413776D01*
X1970Y414293D01*
X630Y414469D01*
D02*
G37*
G36*
X-53898D02*
X-55238Y414293D01*
X-56487Y413776D01*
X-57559Y412953D01*
X-58382Y411880D01*
X-58899Y410632D01*
X-59076Y409291D01*
X-58899Y407951D01*
X-58499Y406984D01*
X-65829Y399653D01*
X-77362D01*
X-77983Y399530D01*
X-78509Y399178D01*
X-89040Y388647D01*
X-89392Y388121D01*
X-89515Y387500D01*
Y377739D01*
X-91304Y375950D01*
X-91656Y375424D01*
X-91779Y374803D01*
Y369997D01*
X-94012D01*
Y364256D01*
X-86303D01*
Y369997D01*
X-88536D01*
Y374131D01*
X-86747Y375920D01*
X-86395Y376446D01*
X-86272Y377067D01*
Y386828D01*
X-76691Y396410D01*
X-65158D01*
X-64537Y396533D01*
X-64011Y396885D01*
X-56205Y404690D01*
X-55238Y404290D01*
X-53898Y404113D01*
X-52557Y404290D01*
X-51309Y404807D01*
X-50236Y405630D01*
X-49413Y406702D01*
X-48896Y407951D01*
X-48719Y409291D01*
X-48896Y410632D01*
X-49413Y411880D01*
X-50236Y412953D01*
X-51309Y413776D01*
X-52557Y414293D01*
X-53898Y414469D01*
D02*
G37*
G36*
X-97520D02*
X-98860Y414293D01*
X-100109Y413776D01*
X-101181Y412953D01*
X-102004Y411880D01*
X-102521Y410632D01*
X-102698Y409291D01*
X-102521Y407951D01*
X-102121Y406984D01*
X-115568Y393537D01*
X-123439D01*
X-124060Y393413D01*
X-124586Y393062D01*
X-132168Y385480D01*
X-144095D01*
X-144715Y385356D01*
X-145241Y385005D01*
X-154297Y375950D01*
X-154648Y375424D01*
X-154771Y374803D01*
Y369997D01*
X-157004D01*
Y364256D01*
X-149295D01*
Y369997D01*
X-151528D01*
Y374131D01*
X-143423Y382237D01*
X-131496D01*
X-130876Y382360D01*
X-130349Y382712D01*
X-122767Y390293D01*
X-114896D01*
X-114275Y390417D01*
X-113749Y390768D01*
X-99827Y404690D01*
X-98860Y404290D01*
X-97520Y404113D01*
X-96179Y404290D01*
X-94931Y404807D01*
X-93858Y405630D01*
X-93035Y406702D01*
X-92518Y407951D01*
X-92342Y409291D01*
X-92518Y410632D01*
X-93035Y411880D01*
X-93858Y412953D01*
X-94931Y413776D01*
X-96179Y414293D01*
X-97520Y414469D01*
D02*
G37*
G36*
X-64803D02*
X-66143Y414293D01*
X-67392Y413776D01*
X-68465Y412953D01*
X-69288Y411880D01*
X-69805Y410632D01*
X-69981Y409291D01*
X-69805Y407951D01*
X-69404Y406984D01*
X-72404Y403984D01*
X-73800D01*
X-73899Y404484D01*
X-73120Y404807D01*
X-72047Y405630D01*
X-71224Y406702D01*
X-70707Y407951D01*
X-70530Y409291D01*
X-70707Y410632D01*
X-71224Y411880D01*
X-72047Y412953D01*
X-73120Y413776D01*
X-74368Y414293D01*
X-75709Y414469D01*
X-77049Y414293D01*
X-78298Y413776D01*
X-79370Y412953D01*
X-80193Y411880D01*
X-80710Y410632D01*
X-80727Y410508D01*
X-80832Y410438D01*
X-81099Y410170D01*
X-81573Y410331D01*
X-81612Y410632D01*
X-82130Y411880D01*
X-82953Y412953D01*
X-84025Y413776D01*
X-85274Y414293D01*
X-86614Y414469D01*
X-87954Y414293D01*
X-89203Y413776D01*
X-90276Y412953D01*
X-91099Y411880D01*
X-91616Y410632D01*
X-91792Y409291D01*
X-91616Y407951D01*
X-91215Y406984D01*
X-108782Y389417D01*
X-120776D01*
X-121397Y389294D01*
X-121923Y388942D01*
X-138549Y372317D01*
X-138900Y371790D01*
X-139023Y371170D01*
Y369800D01*
X-141256D01*
Y364060D01*
X-133547D01*
Y369800D01*
X-135780D01*
Y370498D01*
X-120105Y386174D01*
X-108110D01*
X-107490Y386297D01*
X-106964Y386649D01*
X-88922Y404690D01*
X-87954Y404290D01*
X-87654Y404250D01*
X-87493Y403777D01*
X-106937Y384333D01*
X-113647D01*
X-114267Y384210D01*
X-114793Y383858D01*
X-122800Y375851D01*
X-123152Y375325D01*
X-123275Y374705D01*
Y369898D01*
X-125508D01*
Y364158D01*
X-117799D01*
Y369898D01*
X-120032D01*
Y374033D01*
X-112975Y381090D01*
X-106265D01*
X-105644Y381213D01*
X-105118Y381565D01*
X-84738Y401945D01*
X-84243D01*
X-83622Y402069D01*
X-83096Y402420D01*
X-79951Y405566D01*
X-79418Y405624D01*
X-79283Y405563D01*
X-78298Y404807D01*
X-77518Y404484D01*
X-77617Y403984D01*
X-79451D01*
X-80072Y403861D01*
X-80598Y403509D01*
X-107052Y377054D01*
X-107404Y376528D01*
X-107527Y375908D01*
Y370112D01*
X-107940Y369898D01*
X-109760D01*
Y364158D01*
X-102051D01*
Y369898D01*
X-104284D01*
Y370112D01*
X-104284Y370112D01*
Y375236D01*
X-78779Y400740D01*
X-71732D01*
X-71112Y400864D01*
X-70586Y401216D01*
X-67111Y404690D01*
X-66143Y404290D01*
X-64803Y404113D01*
X-63463Y404290D01*
X-62214Y404807D01*
X-61142Y405630D01*
X-60319Y406702D01*
X-59801Y407951D01*
X-59625Y409291D01*
X-59801Y410632D01*
X-60319Y411880D01*
X-61142Y412953D01*
X-62214Y413776D01*
X-63463Y414293D01*
X-64803Y414469D01*
D02*
G37*
G36*
X-21181D02*
X-22521Y414293D01*
X-23770Y413776D01*
X-24843Y412953D01*
X-25666Y411880D01*
X-26183Y410632D01*
X-26359Y409291D01*
X-26183Y407951D01*
X-25782Y406984D01*
X-30003Y402763D01*
X-30465Y402954D01*
Y404406D01*
X-29498Y404807D01*
X-28425Y405630D01*
X-27602Y406702D01*
X-27085Y407951D01*
X-26908Y409291D01*
X-27085Y410632D01*
X-27602Y411880D01*
X-28425Y412953D01*
X-29498Y413776D01*
X-30746Y414293D01*
X-32087Y414469D01*
X-33427Y414293D01*
X-34676Y413776D01*
X-35748Y412953D01*
X-36571Y411880D01*
X-37088Y410632D01*
X-37265Y409291D01*
X-37088Y407951D01*
X-36571Y406702D01*
X-35748Y405630D01*
X-34676Y404807D01*
X-33708Y404406D01*
Y402498D01*
X-43548Y392658D01*
X-43900Y392132D01*
X-44023Y391512D01*
Y385784D01*
X-45409D01*
Y377996D01*
X-44023D01*
Y348071D01*
X-43900Y347450D01*
X-43548Y346924D01*
X-39524Y342899D01*
Y339453D01*
X-31815D01*
Y345193D01*
X-37230D01*
X-40780Y348743D01*
Y377996D01*
X-39394D01*
Y377996D01*
X-39031D01*
Y377996D01*
X-37645D01*
Y358762D01*
X-37719Y358652D01*
X-37842Y358032D01*
X-37719Y357411D01*
X-37367Y356885D01*
X-24397Y343915D01*
Y343602D01*
X-24366Y343446D01*
Y339453D01*
X-16657D01*
Y345193D01*
X-21274D01*
X-21277Y345207D01*
X-21629Y345733D01*
X-34402Y358506D01*
Y377996D01*
X-33016D01*
Y385784D01*
X-34402D01*
Y393777D01*
X-23489Y404690D01*
X-22521Y404290D01*
X-21181Y404113D01*
X-19841Y404290D01*
X-18592Y404807D01*
X-17520Y405630D01*
X-16697Y406702D01*
X-16179Y407951D01*
X-16003Y409291D01*
X-16179Y410632D01*
X-16697Y411880D01*
X-17520Y412953D01*
X-18592Y413776D01*
X-19841Y414293D01*
X-21181Y414469D01*
D02*
G37*
G36*
X98779D02*
X97439Y414293D01*
X96191Y413776D01*
X95118Y412953D01*
X94295Y411880D01*
X93778Y410632D01*
X93601Y409291D01*
X93778Y407951D01*
X94295Y406702D01*
X95118Y405630D01*
X96191Y404807D01*
X97439Y404290D01*
X98779Y404113D01*
X100120Y404290D01*
X101087Y404690D01*
X121885Y383893D01*
X122411Y383541D01*
X123031Y383418D01*
X188527D01*
X188601Y383239D01*
X189392Y382207D01*
X190424Y381416D01*
X191625Y380918D01*
X192913Y380749D01*
X194202Y380918D01*
X195403Y381416D01*
X196434Y382207D01*
X197226Y383239D01*
X197723Y384439D01*
X197893Y385728D01*
X197723Y387017D01*
X197226Y388218D01*
X196434Y389249D01*
X195403Y390041D01*
X194202Y390538D01*
X192913Y390708D01*
X191625Y390538D01*
X190424Y390041D01*
X189392Y389249D01*
X188601Y388218D01*
X188103Y387017D01*
X188057Y386661D01*
X123703D01*
X103381Y406984D01*
X103781Y407951D01*
X103958Y409291D01*
X103781Y410632D01*
X103264Y411880D01*
X102441Y412953D01*
X101369Y413776D01*
X100120Y414293D01*
X98779Y414469D01*
D02*
G37*
G36*
X193413Y370957D02*
Y366543D01*
X197827D01*
X197723Y367332D01*
X197226Y368533D01*
X196434Y369564D01*
X195403Y370356D01*
X194202Y370853D01*
X193413Y370957D01*
D02*
G37*
G36*
X192413D02*
X191625Y370853D01*
X190424Y370356D01*
X189392Y369564D01*
X188601Y368533D01*
X188103Y367332D01*
X188000Y366543D01*
X192413D01*
Y370957D01*
D02*
G37*
G36*
X112122Y368815D02*
X109752D01*
Y365461D01*
X112122D01*
Y368815D01*
D02*
G37*
G36*
X108752D02*
X106382D01*
Y365461D01*
X108752D01*
Y368815D01*
D02*
G37*
G36*
X68898Y394746D02*
X66579Y394564D01*
X64316Y394021D01*
X62167Y393131D01*
X60184Y391915D01*
X58415Y390404D01*
X56904Y388635D01*
X55688Y386652D01*
X54798Y384503D01*
X54255Y382240D01*
X54072Y379921D01*
X54255Y377602D01*
X54798Y375340D01*
X55688Y373191D01*
X56904Y371207D01*
X58415Y369438D01*
X60184Y367927D01*
X62167Y366712D01*
X64316Y365822D01*
X66579Y365279D01*
X68898Y365096D01*
X71217Y365279D01*
X73479Y365822D01*
X75628Y366712D01*
X77612Y367927D01*
X79381Y369438D01*
X80892Y371207D01*
X82107Y373191D01*
X82997Y375340D01*
X83540Y377602D01*
X83723Y379921D01*
X83540Y382240D01*
X82997Y384503D01*
X82107Y386652D01*
X80892Y388635D01*
X79381Y390404D01*
X77612Y391915D01*
X75628Y393131D01*
X73479Y394021D01*
X71217Y394564D01*
X68898Y394746D01*
D02*
G37*
G36*
X-68898D02*
X-71217Y394564D01*
X-73479Y394021D01*
X-75628Y393131D01*
X-77612Y391915D01*
X-79381Y390404D01*
X-80892Y388635D01*
X-82107Y386652D01*
X-82997Y384503D01*
X-83540Y382240D01*
X-83723Y379921D01*
X-83540Y377602D01*
X-82997Y375340D01*
X-82107Y373191D01*
X-80892Y371207D01*
X-79381Y369438D01*
X-77612Y367927D01*
X-75628Y366712D01*
X-73479Y365822D01*
X-71217Y365279D01*
X-68898Y365096D01*
X-66578Y365279D01*
X-64316Y365822D01*
X-62167Y366712D01*
X-60184Y367927D01*
X-58415Y369438D01*
X-56904Y371207D01*
X-55688Y373191D01*
X-54798Y375340D01*
X-54255Y377602D01*
X-54072Y379921D01*
X-54255Y382240D01*
X-54798Y384503D01*
X-55688Y386652D01*
X-56904Y388635D01*
X-58415Y390404D01*
X-60184Y391915D01*
X-62167Y393131D01*
X-64316Y394021D01*
X-66578Y394564D01*
X-68898Y394746D01*
D02*
G37*
G36*
X197827Y365543D02*
X193413D01*
Y361129D01*
X194202Y361233D01*
X195403Y361731D01*
X196434Y362522D01*
X197226Y363554D01*
X197723Y364755D01*
X197827Y365543D01*
D02*
G37*
G36*
X192413D02*
X188000D01*
X188103Y364755D01*
X188601Y363554D01*
X189392Y362522D01*
X190424Y361731D01*
X191625Y361233D01*
X192413Y361129D01*
Y365543D01*
D02*
G37*
G36*
X112122Y364461D02*
X109752D01*
Y361106D01*
X112122D01*
Y364461D01*
D02*
G37*
G36*
X108752D02*
X106382D01*
Y361106D01*
X108752D01*
Y364461D01*
D02*
G37*
G36*
X-86303Y362319D02*
X-94012D01*
Y358326D01*
X-94043Y358170D01*
Y357857D01*
X-104138Y347762D01*
X-104586Y347984D01*
X-104580Y348032D01*
X-104700Y348946D01*
X-105053Y349797D01*
X-105614Y350529D01*
X-106345Y351090D01*
X-106489Y351149D01*
Y356481D01*
X-102051D01*
Y362221D01*
X-109760D01*
Y356481D01*
X-109732D01*
Y351149D01*
X-109875Y351090D01*
X-110606Y350529D01*
X-111168Y349797D01*
X-111520Y348946D01*
X-111640Y348032D01*
X-111520Y347119D01*
X-111168Y346267D01*
X-110606Y345536D01*
X-109875Y344975D01*
X-109024Y344622D01*
X-108110Y344502D01*
X-108061Y344509D01*
X-107840Y344060D01*
X-138568Y313332D01*
X-138919Y312806D01*
X-139043Y312186D01*
Y309955D01*
X-139701D01*
Y309955D01*
X-140142D01*
Y309955D01*
X-140800D01*
Y313779D01*
X-140923Y314400D01*
X-141274Y314926D01*
X-142554Y316206D01*
X-143080Y316557D01*
X-143701Y316681D01*
X-165201D01*
Y322147D01*
X-162969D01*
Y327887D01*
X-170677D01*
Y322147D01*
X-168445D01*
Y316681D01*
X-188241D01*
X-188601Y317549D01*
X-189392Y318580D01*
X-190424Y319372D01*
X-191625Y319869D01*
X-192913Y320039D01*
X-194202Y319869D01*
X-195403Y319372D01*
X-196434Y318580D01*
X-197226Y317549D01*
X-197723Y316348D01*
X-197893Y315059D01*
X-197723Y313770D01*
X-197226Y312569D01*
X-196434Y311538D01*
X-195403Y310747D01*
X-194202Y310249D01*
X-192913Y310079D01*
X-191625Y310249D01*
X-190424Y310747D01*
X-189392Y311538D01*
X-188601Y312569D01*
X-188241Y313437D01*
X-144372D01*
X-144043Y313108D01*
Y309955D01*
X-144701D01*
X-144701Y309955D01*
X-145142D01*
Y309955D01*
X-145201Y309955D01*
X-149701D01*
Y305505D01*
X-150060Y305433D01*
X-150586Y305082D01*
X-162707Y292960D01*
X-188241D01*
X-188601Y293828D01*
X-189392Y294860D01*
X-190424Y295651D01*
X-191625Y296148D01*
X-192913Y296318D01*
X-194202Y296148D01*
X-195403Y295651D01*
X-196434Y294860D01*
X-197226Y293828D01*
X-197723Y292627D01*
X-197893Y291339D01*
X-197723Y290050D01*
X-197226Y288849D01*
X-196434Y287818D01*
X-195403Y287026D01*
X-194202Y286529D01*
X-192913Y286359D01*
X-191625Y286529D01*
X-190424Y287026D01*
X-189392Y287818D01*
X-188601Y288849D01*
X-188241Y289717D01*
X-162035D01*
X-161415Y289840D01*
X-160889Y290192D01*
X-149421Y301659D01*
X-148924Y301610D01*
X-148852Y301502D01*
X-146054Y298705D01*
X-145398Y298266D01*
X-144623Y298112D01*
X-138396D01*
X-137779Y297495D01*
X-137958Y296967D01*
X-138315Y296920D01*
X-139167Y296568D01*
X-139898Y296007D01*
X-140459Y295276D01*
X-140812Y294424D01*
X-140932Y293511D01*
X-140812Y292597D01*
X-140459Y291745D01*
X-139898Y291014D01*
X-139167Y290453D01*
X-139033Y290398D01*
Y288600D01*
X-139642D01*
X-139701Y288600D01*
X-140142D01*
X-140201Y288600D01*
X-142407D01*
X-143222Y289415D01*
X-143189Y289914D01*
X-143173Y289926D01*
X-142612Y290657D01*
X-142259Y291509D01*
X-142139Y292422D01*
X-142259Y293336D01*
X-142612Y294187D01*
X-143173Y294918D01*
X-143904Y295479D01*
X-144756Y295832D01*
X-145669Y295952D01*
X-146583Y295832D01*
X-147434Y295479D01*
X-148166Y294918D01*
X-148726Y294187D01*
X-149079Y293336D01*
X-149199Y292422D01*
X-149079Y291509D01*
X-148726Y290657D01*
X-148166Y289926D01*
X-147434Y289365D01*
X-147394Y289060D01*
X-147769Y288600D01*
X-149701D01*
Y282890D01*
X-154690Y277901D01*
X-155042Y277375D01*
X-155165Y276754D01*
Y260618D01*
X-155627Y260427D01*
X-161492Y266292D01*
Y273743D01*
X-167232D01*
Y266034D01*
X-165547D01*
X-165522Y265910D01*
X-165171Y265384D01*
X-157437Y257650D01*
Y254066D01*
X-157437Y253928D01*
Y253566D01*
X-157437Y253428D01*
Y251058D01*
X-153543D01*
X-149650D01*
Y253428D01*
X-149650Y253566D01*
Y253928D01*
X-149650Y254066D01*
Y255314D01*
X-146290D01*
X-146230Y255171D01*
X-145669Y254439D01*
X-144938Y253878D01*
X-144087Y253526D01*
X-143173Y253405D01*
X-142259Y253526D01*
X-141408Y253878D01*
X-140677Y254439D01*
X-140116Y255171D01*
X-139763Y256022D01*
X-139643Y256936D01*
X-139763Y257849D01*
X-140116Y258701D01*
X-140677Y259432D01*
X-141408Y259993D01*
X-142259Y260346D01*
X-143173Y260466D01*
X-144087Y260346D01*
X-144938Y259993D01*
X-145669Y259432D01*
X-146230Y258701D01*
X-146290Y258557D01*
X-149650D01*
Y259944D01*
X-151922D01*
Y276082D01*
X-147407Y280596D01*
X-145142D01*
Y280596D01*
X-144701D01*
Y280596D01*
X-140201D01*
X-140142Y280596D01*
X-139701D01*
X-139642Y280596D01*
X-135142D01*
Y280596D01*
X-134944D01*
X-134444Y280203D01*
Y274513D01*
X-134917Y274150D01*
X-135478Y273419D01*
X-135831Y272567D01*
X-135951Y271654D01*
X-135831Y270740D01*
X-135478Y269888D01*
X-134917Y269157D01*
X-134186Y268596D01*
X-133335Y268244D01*
X-132421Y268123D01*
X-131508Y268244D01*
X-130656Y268596D01*
X-129925Y269157D01*
X-129364Y269888D01*
X-129011Y270740D01*
X-128891Y271654D01*
X-129011Y272567D01*
X-129364Y273419D01*
X-129925Y274150D01*
X-130398Y274513D01*
Y280178D01*
X-130142Y280596D01*
X-129701D01*
X-129642Y280596D01*
X-125201D01*
X-125142Y280596D01*
X-124701D01*
X-124642Y280596D01*
X-120201D01*
X-120142Y280596D01*
Y280596D01*
X-119701D01*
Y280596D01*
X-119043D01*
Y272101D01*
X-165014Y226130D01*
X-188241D01*
X-188463Y226665D01*
X-184466Y230662D01*
X-172244D01*
X-171624Y230785D01*
X-171097Y231137D01*
X-169808Y232426D01*
X-164393D01*
Y238166D01*
X-172102D01*
Y234719D01*
X-172916Y233905D01*
X-185138D01*
X-185758Y233782D01*
X-186284Y233430D01*
X-190756Y228958D01*
X-191625Y229318D01*
X-192913Y229487D01*
X-194202Y229318D01*
X-195403Y228820D01*
X-196434Y228029D01*
X-197226Y226998D01*
X-197723Y225797D01*
X-197893Y224508D01*
X-197723Y223219D01*
X-197226Y222018D01*
X-196434Y220987D01*
X-195403Y220195D01*
X-194202Y219698D01*
X-192913Y219528D01*
X-191625Y219698D01*
X-190424Y220195D01*
X-189392Y220987D01*
X-188601Y222018D01*
X-188241Y222886D01*
X-164342D01*
X-163722Y223010D01*
X-163196Y223361D01*
X-116274Y270282D01*
X-115923Y270808D01*
X-115892Y270963D01*
X-115386Y270946D01*
X-115359Y270740D01*
X-115006Y269889D01*
X-114445Y269158D01*
X-113714Y268597D01*
X-112863Y268244D01*
X-111949Y268124D01*
X-111035Y268244D01*
X-110184Y268597D01*
X-109453Y269158D01*
X-109090Y269631D01*
X-105311D01*
Y268646D01*
X-97524D01*
Y274524D01*
X-97524Y274662D01*
Y275024D01*
X-97524Y275162D01*
Y277532D01*
X-101417D01*
X-105311D01*
Y275162D01*
X-105311Y275024D01*
Y274662D01*
X-105311Y274524D01*
Y273677D01*
X-109090D01*
X-109453Y274150D01*
X-110184Y274711D01*
X-111035Y275064D01*
X-111949Y275184D01*
X-112863Y275064D01*
X-113714Y274711D01*
X-114445Y274150D01*
X-115006Y273419D01*
X-115300Y272710D01*
X-115800Y272810D01*
Y280596D01*
X-115201D01*
X-115142Y280596D01*
X-114701D01*
X-114642Y280596D01*
X-112921D01*
Y284598D01*
Y288600D01*
X-114642D01*
X-114701Y288600D01*
X-115142D01*
X-115201Y288600D01*
X-117270D01*
X-117414Y289051D01*
X-117409Y289100D01*
X-116697Y289647D01*
X-116136Y290378D01*
X-115783Y291230D01*
X-115663Y292143D01*
X-115783Y293057D01*
X-116136Y293908D01*
X-116697Y294639D01*
X-117428Y295200D01*
X-118279Y295553D01*
X-119193Y295673D01*
X-120107Y295553D01*
X-120958Y295200D01*
X-121689Y294639D01*
X-122250Y293908D01*
X-122603Y293057D01*
X-122723Y292143D01*
X-122603Y291230D01*
X-122250Y290378D01*
X-121689Y289647D01*
X-121671Y289365D01*
X-122435Y288600D01*
X-124642D01*
X-124701Y288600D01*
X-125142D01*
X-125276Y289069D01*
Y292877D01*
X-119640Y298514D01*
X-109062D01*
X-109002Y298370D01*
X-108441Y297639D01*
X-107710Y297078D01*
X-106859Y296725D01*
X-105945Y296605D01*
X-105031Y296725D01*
X-104180Y297078D01*
X-103449Y297639D01*
X-102888Y298370D01*
X-102535Y299222D01*
X-102415Y300135D01*
X-102535Y301049D01*
X-102888Y301900D01*
X-103449Y302631D01*
X-104180Y303192D01*
X-105031Y303545D01*
X-105945Y303665D01*
X-106859Y303545D01*
X-107710Y303192D01*
X-108441Y302631D01*
X-109002Y301900D01*
X-109062Y301757D01*
X-109722D01*
X-110142Y301951D01*
X-110142Y302257D01*
Y309955D01*
X-114642D01*
X-114701Y309955D01*
X-115142D01*
X-115201Y309955D01*
X-119642D01*
X-119701Y309955D01*
X-120142D01*
X-120201Y309955D01*
X-124642D01*
X-124701Y309955D01*
X-125142D01*
X-125201Y309955D01*
X-127195D01*
X-127386Y310417D01*
X-108755Y329048D01*
X-102697D01*
X-102540Y329079D01*
X-98547D01*
Y336787D01*
X-104287D01*
Y332291D01*
X-109427D01*
X-110048Y332168D01*
X-110574Y331816D01*
X-132435Y309955D01*
X-134701D01*
Y309955D01*
X-135142D01*
Y309955D01*
X-135800D01*
Y311514D01*
X-91275Y356039D01*
X-90923Y356565D01*
X-90920Y356579D01*
X-86303D01*
Y362319D01*
D02*
G37*
G36*
X-133547Y362123D02*
X-141256D01*
Y356382D01*
X-139023D01*
Y351155D01*
X-139090Y351128D01*
X-139821Y350567D01*
X-140382Y349836D01*
X-140734Y348985D01*
X-140855Y348071D01*
X-140734Y347157D01*
X-140382Y346306D01*
X-139821Y345575D01*
X-139090Y345014D01*
X-138238Y344661D01*
X-137324Y344541D01*
X-136411Y344661D01*
X-135559Y345014D01*
X-134828Y345575D01*
X-134267Y346306D01*
X-133914Y347157D01*
X-133794Y348071D01*
X-133914Y348985D01*
X-134267Y349836D01*
X-134828Y350567D01*
X-135559Y351128D01*
X-135780Y351220D01*
Y356382D01*
X-133547D01*
Y362123D01*
D02*
G37*
G36*
X87874Y414469D02*
X86534Y414293D01*
X85285Y413776D01*
X84212Y412953D01*
X83390Y411880D01*
X82872Y410632D01*
X82696Y409291D01*
X82872Y407951D01*
X83390Y406702D01*
X84212Y405630D01*
X85285Y404807D01*
X86534Y404290D01*
X87874Y404113D01*
X89214Y404290D01*
X90182Y404690D01*
X127515Y367357D01*
X128041Y367006D01*
X128661Y366882D01*
X166257D01*
X187928Y345212D01*
X188100Y345097D01*
X188103Y345069D01*
X188601Y343868D01*
X189392Y342837D01*
X190424Y342046D01*
X191625Y341548D01*
X192913Y341379D01*
X194202Y341548D01*
X195403Y342046D01*
X196434Y342837D01*
X197226Y343868D01*
X197723Y345069D01*
X197893Y346358D01*
X197723Y347647D01*
X197226Y348848D01*
X196434Y349879D01*
X195403Y350671D01*
X194202Y351168D01*
X192913Y351338D01*
X191625Y351168D01*
X190424Y350671D01*
X189392Y349879D01*
X188952Y349306D01*
X188453Y349273D01*
X168076Y369651D01*
X167550Y370002D01*
X166929Y370126D01*
X129333D01*
X92475Y406984D01*
X92876Y407951D01*
X93052Y409291D01*
X92876Y410632D01*
X92358Y411880D01*
X91536Y412953D01*
X90463Y413776D01*
X89214Y414293D01*
X87874Y414469D01*
D02*
G37*
G36*
X-192413Y343496D02*
Y339083D01*
X-188000D01*
X-188103Y339872D01*
X-188601Y341073D01*
X-189392Y342104D01*
X-190424Y342895D01*
X-191625Y343393D01*
X-192413Y343496D01*
D02*
G37*
G36*
X-193413D02*
X-194202Y343393D01*
X-195403Y342895D01*
X-196434Y342104D01*
X-197226Y341073D01*
X-197723Y339872D01*
X-197827Y339083D01*
X-193413D01*
Y343496D01*
D02*
G37*
G36*
X-117799Y362221D02*
X-125508D01*
Y356481D01*
X-123275D01*
Y345636D01*
X-123419Y345577D01*
X-124150Y345016D01*
X-124711Y344284D01*
X-125064Y343433D01*
X-125184Y342519D01*
X-125064Y341606D01*
X-124711Y340754D01*
X-124150Y340023D01*
X-123419Y339462D01*
X-122567Y339109D01*
X-121654Y338989D01*
X-120740Y339109D01*
X-119889Y339462D01*
X-119158Y340023D01*
X-118596Y340754D01*
X-118244Y341606D01*
X-118123Y342519D01*
X-118244Y343433D01*
X-118596Y344284D01*
X-119158Y345016D01*
X-119889Y345577D01*
X-120032Y345636D01*
Y356481D01*
X-117799D01*
Y362221D01*
D02*
G37*
G36*
X-42992Y414469D02*
X-44332Y414293D01*
X-45581Y413776D01*
X-46654Y412953D01*
X-47477Y411880D01*
X-47994Y410632D01*
X-48170Y409291D01*
X-47994Y407951D01*
X-47477Y406702D01*
X-46654Y405630D01*
X-45581Y404807D01*
X-44614Y404406D01*
Y399398D01*
X-49866Y394146D01*
X-50218Y393619D01*
X-50341Y392999D01*
Y359688D01*
X-75475Y334555D01*
X-90870D01*
Y336787D01*
X-96610D01*
Y329079D01*
X-90870D01*
Y331311D01*
X-74803D01*
X-74183Y331435D01*
X-73656Y331786D01*
X-47573Y357870D01*
X-47221Y358396D01*
X-47098Y359017D01*
Y392327D01*
X-41845Y397580D01*
X-41494Y398106D01*
X-41370Y398726D01*
Y404406D01*
X-40403Y404807D01*
X-39331Y405630D01*
X-38508Y406702D01*
X-37990Y407951D01*
X-37814Y409291D01*
X-37990Y410632D01*
X-38508Y411880D01*
X-39331Y412953D01*
X-40403Y413776D01*
X-41652Y414293D01*
X-42992Y414469D01*
D02*
G37*
G36*
X-188000Y338083D02*
X-192413D01*
Y333669D01*
X-191625Y333773D01*
X-190424Y334270D01*
X-189392Y335062D01*
X-188601Y336093D01*
X-188103Y337294D01*
X-188000Y338083D01*
D02*
G37*
G36*
X-193413D02*
X-197827D01*
X-197723Y337294D01*
X-197226Y336093D01*
X-196434Y335062D01*
X-195403Y334270D01*
X-194202Y333773D01*
X-193413Y333669D01*
Y338083D01*
D02*
G37*
G36*
X-162969Y335565D02*
X-166323D01*
Y333194D01*
X-162969D01*
Y335565D01*
D02*
G37*
G36*
X-167323D02*
X-170677D01*
Y333194D01*
X-167323D01*
Y335565D01*
D02*
G37*
G36*
X-162969Y332194D02*
X-166323D01*
Y329824D01*
X-162969D01*
Y332194D01*
D02*
G37*
G36*
X-167323D02*
X-170677D01*
Y329824D01*
X-167323D01*
Y332194D01*
D02*
G37*
G36*
X193413Y331587D02*
Y327173D01*
X197827D01*
X197723Y327962D01*
X197226Y329163D01*
X196434Y330194D01*
X195403Y330986D01*
X194202Y331483D01*
X193413Y331587D01*
D02*
G37*
G36*
X192413D02*
X191625Y331483D01*
X190424Y330986D01*
X189392Y330194D01*
X188601Y329163D01*
X188103Y327962D01*
X188000Y327173D01*
X192413D01*
Y331587D01*
D02*
G37*
G36*
X64445Y337713D02*
X56736D01*
Y331972D01*
X58969D01*
Y329888D01*
X58825Y329829D01*
X58094Y329268D01*
X57533Y328537D01*
X57181Y327685D01*
X57060Y326772D01*
X57181Y325858D01*
X57533Y325007D01*
X58094Y324275D01*
X58825Y323714D01*
X59677Y323362D01*
X60591Y323241D01*
X61504Y323362D01*
X62356Y323714D01*
X63087Y324275D01*
X63648Y325007D01*
X64000Y325858D01*
X64121Y326772D01*
X64000Y327685D01*
X63648Y328537D01*
X63087Y329268D01*
X62356Y329829D01*
X62212Y329888D01*
Y331972D01*
X64445D01*
Y337713D01*
D02*
G37*
G36*
X48106D02*
X40398D01*
Y331972D01*
X42630D01*
Y329790D01*
X42487Y329731D01*
X41756Y329170D01*
X41195Y328438D01*
X40842Y327587D01*
X40722Y326673D01*
X40842Y325760D01*
X41195Y324908D01*
X41756Y324177D01*
X42487Y323616D01*
X43338Y323263D01*
X44252Y323143D01*
X45166Y323263D01*
X46017Y323616D01*
X46748Y324177D01*
X47309Y324908D01*
X47662Y325760D01*
X47782Y326673D01*
X47662Y327587D01*
X47309Y328438D01*
X46748Y329170D01*
X46017Y329731D01*
X45874Y329790D01*
Y331972D01*
X48106D01*
Y337713D01*
D02*
G37*
G36*
X197827Y326173D02*
X193413D01*
Y321759D01*
X194202Y321863D01*
X195403Y322361D01*
X196434Y323152D01*
X197226Y324183D01*
X197723Y325384D01*
X197827Y326173D01*
D02*
G37*
G36*
X192413D02*
X188000D01*
X188103Y325384D01*
X188601Y324183D01*
X189392Y323152D01*
X190424Y322361D01*
X191625Y321863D01*
X192413Y321759D01*
Y326173D01*
D02*
G37*
G36*
X-149295Y362319D02*
X-157004D01*
Y356579D01*
X-151589D01*
X-147291Y352281D01*
Y328176D01*
X-147434Y328116D01*
X-148166Y327555D01*
X-148726Y326824D01*
X-149079Y325973D01*
X-149199Y325059D01*
X-149079Y324145D01*
X-148726Y323294D01*
X-148166Y322563D01*
X-147434Y322002D01*
X-146583Y321649D01*
X-145669Y321529D01*
X-144756Y321649D01*
X-143904Y322002D01*
X-143173Y322563D01*
X-142612Y323294D01*
X-142259Y324145D01*
X-142139Y325059D01*
X-142259Y325973D01*
X-142612Y326824D01*
X-143173Y327555D01*
X-143904Y328116D01*
X-144048Y328176D01*
Y352953D01*
X-144171Y353574D01*
X-144523Y354100D01*
X-149295Y358873D01*
Y362319D01*
D02*
G37*
G36*
X-69776Y310551D02*
Y307586D01*
X-66811D01*
X-66866Y308000D01*
X-67218Y308851D01*
X-67779Y309582D01*
X-68511Y310143D01*
X-69362Y310496D01*
X-69776Y310551D01*
D02*
G37*
G36*
X-70776D02*
X-71189Y310496D01*
X-72041Y310143D01*
X-72772Y309582D01*
X-73333Y308851D01*
X-73685Y308000D01*
X-73740Y307586D01*
X-70776D01*
Y310551D01*
D02*
G37*
G36*
X-66811Y306586D02*
X-69776D01*
Y303622D01*
X-69362Y303676D01*
X-68511Y304029D01*
X-67779Y304590D01*
X-67218Y305321D01*
X-66866Y306173D01*
X-66811Y306586D01*
D02*
G37*
G36*
X-70776D02*
X-73740D01*
X-73685Y306173D01*
X-73333Y305321D01*
X-72772Y304590D01*
X-72041Y304029D01*
X-71189Y303676D01*
X-70776Y303622D01*
Y306586D01*
D02*
G37*
G36*
X76968Y414469D02*
X75628Y414293D01*
X74379Y413776D01*
X73307Y412953D01*
X72484Y411880D01*
X71967Y410632D01*
X71790Y409291D01*
X71967Y407951D01*
X72484Y406702D01*
X73307Y405630D01*
X74379Y404807D01*
X75628Y404290D01*
X76968Y404113D01*
X78309Y404290D01*
X79276Y404690D01*
X178125Y305841D01*
X178651Y305490D01*
X179272Y305366D01*
X188241D01*
X188601Y304498D01*
X189392Y303467D01*
X190424Y302676D01*
X191625Y302178D01*
X192913Y302009D01*
X194202Y302178D01*
X195403Y302676D01*
X196434Y303467D01*
X197226Y304498D01*
X197723Y305699D01*
X197893Y306988D01*
X197723Y308277D01*
X197226Y309478D01*
X196434Y310509D01*
X195403Y311301D01*
X194202Y311798D01*
X192913Y311968D01*
X191625Y311798D01*
X190424Y311301D01*
X189392Y310509D01*
X188601Y309478D01*
X188241Y308610D01*
X179943D01*
X81569Y406984D01*
X81970Y407951D01*
X82147Y409291D01*
X81970Y410632D01*
X81453Y411880D01*
X80630Y412953D01*
X79558Y413776D01*
X78309Y414293D01*
X76968Y414469D01*
D02*
G37*
G36*
X56563Y303600D02*
Y300635D01*
X59527D01*
X59473Y301049D01*
X59120Y301900D01*
X58559Y302631D01*
X57828Y303192D01*
X56977Y303545D01*
X56563Y303600D01*
D02*
G37*
G36*
X55563D02*
X55149Y303545D01*
X54298Y303192D01*
X53567Y302631D01*
X53006Y301900D01*
X52653Y301049D01*
X52599Y300635D01*
X55563D01*
Y303600D01*
D02*
G37*
G36*
X59527Y299635D02*
X56563D01*
Y296671D01*
X56977Y296725D01*
X57828Y297078D01*
X58559Y297639D01*
X59120Y298370D01*
X59473Y299222D01*
X59527Y299635D01*
D02*
G37*
G36*
X55563D02*
X52599D01*
X52653Y299222D01*
X53006Y298370D01*
X53567Y297639D01*
X54298Y297078D01*
X55149Y296725D01*
X55563Y296671D01*
Y299635D01*
D02*
G37*
G36*
X-31815Y337516D02*
X-39524D01*
Y331776D01*
X-37291D01*
Y298392D01*
X-37434Y298333D01*
X-38166Y297772D01*
X-38726Y297041D01*
X-39079Y296189D01*
X-39199Y295276D01*
X-39079Y294362D01*
X-38726Y293511D01*
X-38166Y292779D01*
X-37434Y292218D01*
X-36583Y291866D01*
X-35669Y291745D01*
X-34756Y291866D01*
X-33904Y292218D01*
X-33173Y292779D01*
X-32612Y293511D01*
X-32259Y294362D01*
X-32139Y295276D01*
X-32259Y296189D01*
X-32612Y297041D01*
X-33173Y297772D01*
X-33904Y298333D01*
X-34047Y298392D01*
Y331776D01*
X-31815D01*
Y337516D01*
D02*
G37*
G36*
X193413Y292217D02*
Y287803D01*
X197827D01*
X197723Y288592D01*
X197226Y289793D01*
X196434Y290824D01*
X195403Y291616D01*
X194202Y292113D01*
X193413Y292217D01*
D02*
G37*
G36*
X192413D02*
X191625Y292113D01*
X190424Y291616D01*
X189392Y290824D01*
X188601Y289793D01*
X188103Y288592D01*
X188000Y287803D01*
X192413D01*
Y292217D01*
D02*
G37*
G36*
X32398Y337516D02*
X24689D01*
Y331776D01*
X26922D01*
Y294427D01*
X26414Y294217D01*
X25683Y293656D01*
X25122Y292925D01*
X24769Y292073D01*
X24649Y291160D01*
X24769Y290246D01*
X25122Y289394D01*
X25683Y288663D01*
X26414Y288102D01*
X27265Y287750D01*
X28179Y287629D01*
X29093Y287750D01*
X29944Y288102D01*
X30675Y288663D01*
X31236Y289394D01*
X31589Y290246D01*
X31709Y291160D01*
X31589Y292073D01*
X31236Y292925D01*
X30675Y293656D01*
X30165Y294047D01*
Y331776D01*
X32398D01*
Y337516D01*
D02*
G37*
G36*
X-97020Y287876D02*
Y284911D01*
X-94055D01*
X-94110Y285325D01*
X-94462Y286176D01*
X-95023Y286908D01*
X-95755Y287469D01*
X-96606Y287821D01*
X-97020Y287876D01*
D02*
G37*
G36*
X197827Y286803D02*
X193413D01*
Y282389D01*
X194202Y282493D01*
X195403Y282991D01*
X196434Y283782D01*
X197226Y284813D01*
X197723Y286014D01*
X197827Y286803D01*
D02*
G37*
G36*
X192413D02*
X188000D01*
X188103Y286014D01*
X188601Y284813D01*
X189392Y283782D01*
X190424Y282991D01*
X191625Y282493D01*
X192413Y282389D01*
Y286803D01*
D02*
G37*
G36*
X84847Y284130D02*
X81492D01*
Y281760D01*
X84847D01*
Y284130D01*
D02*
G37*
G36*
X-111921Y288600D02*
Y284598D01*
Y280596D01*
X-110142D01*
Y282388D01*
X-101411D01*
X-101094Y282002D01*
X-101137Y281784D01*
Y281040D01*
X-105311D01*
Y278532D01*
X-101417D01*
X-97341D01*
X-97245Y278675D01*
X-97091Y279449D01*
Y280938D01*
X-96606Y281001D01*
X-95755Y281354D01*
X-95023Y281915D01*
X-94462Y282646D01*
X-94110Y283498D01*
X-94055Y283911D01*
X-97520D01*
Y284411D01*
X-98020D01*
Y287876D01*
X-98433Y287821D01*
X-99285Y287469D01*
X-100016Y286908D01*
X-100379Y286435D01*
X-110142D01*
Y288600D01*
X-111921D01*
D02*
G37*
G36*
X84847Y280760D02*
X81492D01*
Y278390D01*
X84847D01*
Y280760D01*
D02*
G37*
G36*
X-192913Y274133D02*
X-194202Y273963D01*
X-195403Y273466D01*
X-196434Y272675D01*
X-197226Y271643D01*
X-197723Y270442D01*
X-197893Y269153D01*
X-197723Y267865D01*
X-197226Y266664D01*
X-196434Y265632D01*
X-195403Y264841D01*
X-194202Y264344D01*
X-192913Y264174D01*
X-191625Y264344D01*
X-190424Y264841D01*
X-189392Y265632D01*
X-188601Y266664D01*
X-188241Y267532D01*
X-174910D01*
Y266034D01*
X-169169D01*
Y273743D01*
X-174910D01*
Y270775D01*
X-188241D01*
X-188601Y271643D01*
X-189392Y272675D01*
X-190424Y273466D01*
X-191625Y273963D01*
X-192913Y274133D01*
D02*
G37*
G36*
X-35555Y271594D02*
X-43343D01*
Y269086D01*
X-41472D01*
Y266528D01*
X-41945Y266165D01*
X-42506Y265434D01*
X-42859Y264583D01*
X-42913Y264169D01*
X-35984D01*
X-36039Y264583D01*
X-36391Y265434D01*
X-36952Y266165D01*
X-37426Y266528D01*
Y269086D01*
X-35555D01*
Y271594D01*
D02*
G37*
G36*
X-35984Y263169D02*
X-38949D01*
Y260205D01*
X-38535Y260259D01*
X-37684Y260612D01*
X-36952Y261173D01*
X-36391Y261904D01*
X-36039Y262755D01*
X-35984Y263169D01*
D02*
G37*
G36*
X-39949D02*
X-42913D01*
X-42859Y262755D01*
X-42506Y261904D01*
X-41945Y261173D01*
X-41214Y260612D01*
X-40362Y260259D01*
X-39949Y260205D01*
Y263169D01*
D02*
G37*
G36*
X-149650Y250058D02*
X-153043D01*
Y247550D01*
X-149650D01*
Y250058D01*
D02*
G37*
G36*
X-154043D02*
X-157437D01*
Y247550D01*
X-154043D01*
Y250058D01*
D02*
G37*
G36*
X-192413Y250044D02*
Y245630D01*
X-188000D01*
X-188103Y246419D01*
X-188601Y247620D01*
X-189392Y248651D01*
X-190424Y249442D01*
X-191625Y249940D01*
X-192413Y250044D01*
D02*
G37*
G36*
X-193413D02*
X-194202Y249940D01*
X-195403Y249442D01*
X-196434Y248651D01*
X-197226Y247620D01*
X-197723Y246419D01*
X-197827Y245630D01*
X-193413D01*
Y250044D01*
D02*
G37*
G36*
X-164393Y245843D02*
X-167747D01*
Y243473D01*
X-164393D01*
Y245843D01*
D02*
G37*
G36*
X-168747D02*
X-172102D01*
Y243473D01*
X-168747D01*
Y245843D01*
D02*
G37*
G36*
X172161Y244110D02*
X166421D01*
Y241779D01*
X160597D01*
X160538Y241923D01*
X159976Y242654D01*
X159245Y243215D01*
X158394Y243567D01*
X157480Y243688D01*
X156567Y243567D01*
X155715Y243215D01*
X154984Y242654D01*
X154423Y241923D01*
X154070Y241071D01*
X153950Y240158D01*
X154070Y239244D01*
X154423Y238392D01*
X154984Y237661D01*
X155715Y237100D01*
X156567Y236748D01*
X157480Y236627D01*
X158394Y236748D01*
X159245Y237100D01*
X159976Y237661D01*
X160538Y238392D01*
X160597Y238536D01*
X166421D01*
Y236402D01*
X172161D01*
Y244110D01*
D02*
G37*
G36*
X192717Y245137D02*
X191428Y244967D01*
X190227Y244470D01*
X189195Y243679D01*
X188404Y242647D01*
X188045Y241779D01*
X179839D01*
Y244110D01*
X174098D01*
Y236402D01*
X179839D01*
Y238536D01*
X188045D01*
X188404Y237668D01*
X189195Y236636D01*
X190227Y235845D01*
X191428Y235348D01*
X192717Y235178D01*
X194005Y235348D01*
X195206Y235845D01*
X196238Y236636D01*
X197029Y237668D01*
X197527Y238869D01*
X197696Y240158D01*
X197527Y241446D01*
X197029Y242647D01*
X196238Y243679D01*
X195206Y244470D01*
X194005Y244967D01*
X192717Y245137D01*
D02*
G37*
G36*
X-188000Y244630D02*
X-192413D01*
Y240216D01*
X-191625Y240320D01*
X-190424Y240817D01*
X-189392Y241609D01*
X-188601Y242640D01*
X-188103Y243841D01*
X-188000Y244630D01*
D02*
G37*
G36*
X-193413D02*
X-197827D01*
X-197723Y243841D01*
X-197226Y242640D01*
X-196434Y241609D01*
X-195403Y240817D01*
X-194202Y240320D01*
X-193413Y240216D01*
Y244630D01*
D02*
G37*
G36*
X-164393Y242473D02*
X-167747D01*
Y240103D01*
X-164393D01*
Y242473D01*
D02*
G37*
G36*
X-168747D02*
X-172102D01*
Y240103D01*
X-168747D01*
Y242473D01*
D02*
G37*
G36*
X-9352Y237906D02*
X-12854D01*
Y236126D01*
X-9352D01*
Y237906D01*
D02*
G37*
G36*
X-145619Y225872D02*
X-151359D01*
Y223140D01*
X-154454D01*
X-154514Y223283D01*
X-155075Y224014D01*
X-155806Y224575D01*
X-156657Y224928D01*
X-157571Y225048D01*
X-158484Y224928D01*
X-159336Y224575D01*
X-160067Y224014D01*
X-160628Y223283D01*
X-160981Y222432D01*
X-161101Y221518D01*
X-160981Y220604D01*
X-160628Y219753D01*
X-160067Y219022D01*
X-159336Y218461D01*
X-158484Y218108D01*
X-157571Y217988D01*
X-156657Y218108D01*
X-155806Y218461D01*
X-155075Y219022D01*
X-154514Y219753D01*
X-154454Y219896D01*
X-151359D01*
Y218164D01*
X-145619D01*
Y225872D01*
D02*
G37*
G36*
X-137941D02*
X-140312D01*
Y222518D01*
X-137941D01*
Y225872D01*
D02*
G37*
G36*
X-141312D02*
X-143682D01*
Y222518D01*
X-141312D01*
Y225872D01*
D02*
G37*
G36*
X-137941Y221518D02*
X-140312D01*
Y218164D01*
X-137941D01*
Y221518D01*
D02*
G37*
G36*
X-141312D02*
X-143682D01*
Y218164D01*
X-141312D01*
Y221518D01*
D02*
G37*
G36*
X192717Y221515D02*
X191428Y221345D01*
X190227Y220848D01*
X189195Y220057D01*
X188404Y219025D01*
X188045Y218157D01*
X179839D01*
Y220390D01*
X174098D01*
Y212681D01*
X179839D01*
Y214914D01*
X188045D01*
X188404Y214046D01*
X189195Y213014D01*
X190227Y212223D01*
X191428Y211725D01*
X192717Y211556D01*
X194005Y211725D01*
X195206Y212223D01*
X196238Y213014D01*
X197029Y214046D01*
X197527Y215247D01*
X197696Y216535D01*
X197527Y217824D01*
X197029Y219025D01*
X196238Y220057D01*
X195206Y220848D01*
X194005Y221345D01*
X192717Y221515D01*
D02*
G37*
G36*
X172161Y220390D02*
X166421D01*
Y218157D01*
X164534D01*
X164475Y218301D01*
X163914Y219032D01*
X163182Y219593D01*
X162331Y219945D01*
X161417Y220066D01*
X160504Y219945D01*
X159652Y219593D01*
X158921Y219032D01*
X158360Y218301D01*
X158007Y217449D01*
X157887Y216535D01*
X158007Y215622D01*
X158360Y214770D01*
X158921Y214039D01*
X159652Y213478D01*
X160504Y213125D01*
X161417Y213005D01*
X162331Y213125D01*
X163182Y213478D01*
X163914Y214039D01*
X164475Y214770D01*
X164534Y214914D01*
X166421D01*
Y212681D01*
X172161D01*
Y220390D01*
D02*
G37*
G36*
X4122Y217681D02*
Y214716D01*
X7086D01*
X7032Y215130D01*
X6679Y215981D01*
X6118Y216712D01*
X5387Y217273D01*
X4536Y217626D01*
X4122Y217681D01*
D02*
G37*
G36*
X3122D02*
X2708Y217626D01*
X1857Y217273D01*
X1126Y216712D01*
X565Y215981D01*
X212Y215130D01*
X158Y214716D01*
X3122D01*
Y217681D01*
D02*
G37*
G36*
X7086Y213716D02*
X4122D01*
Y210752D01*
X4536Y210806D01*
X5387Y211159D01*
X6118Y211720D01*
X6679Y212451D01*
X7032Y213303D01*
X7086Y213716D01*
D02*
G37*
G36*
X3122D02*
X158D01*
X212Y213303D01*
X565Y212451D01*
X1126Y211720D01*
X1857Y211159D01*
X2708Y210806D01*
X3122Y210752D01*
Y213716D01*
D02*
G37*
G36*
X68898Y231361D02*
X66579Y231178D01*
X64316Y230635D01*
X62167Y229745D01*
X60184Y228529D01*
X58415Y227018D01*
X56904Y225250D01*
X55688Y223266D01*
X54798Y221117D01*
X54255Y218855D01*
X54072Y216535D01*
X54255Y214216D01*
X54798Y211954D01*
X55688Y209805D01*
X56904Y207821D01*
X58415Y206052D01*
X60184Y204542D01*
X62167Y203326D01*
X64316Y202436D01*
X66579Y201893D01*
X68898Y201710D01*
X71217Y201893D01*
X73479Y202436D01*
X75628Y203326D01*
X77612Y204542D01*
X79381Y206052D01*
X80892Y207821D01*
X82107Y209805D01*
X82997Y211954D01*
X83540Y214216D01*
X83723Y216535D01*
X83540Y218855D01*
X82997Y221117D01*
X82107Y223266D01*
X80892Y225250D01*
X79381Y227018D01*
X77612Y228529D01*
X75628Y229745D01*
X73479Y230635D01*
X71217Y231178D01*
X68898Y231361D01*
D02*
G37*
G36*
X-68898D02*
X-71217Y231178D01*
X-73479Y230635D01*
X-75628Y229745D01*
X-77612Y228529D01*
X-79381Y227018D01*
X-80892Y225250D01*
X-82107Y223266D01*
X-82997Y221117D01*
X-83540Y218855D01*
X-83723Y216535D01*
X-83540Y214216D01*
X-82997Y211954D01*
X-82107Y209805D01*
X-80892Y207821D01*
X-79381Y206052D01*
X-77612Y204542D01*
X-75628Y203326D01*
X-73479Y202436D01*
X-71217Y201893D01*
X-68898Y201710D01*
X-66578Y201893D01*
X-64316Y202436D01*
X-62167Y203326D01*
X-60184Y204542D01*
X-58415Y206052D01*
X-56904Y207821D01*
X-55688Y209805D01*
X-54798Y211954D01*
X-54255Y214216D01*
X-54072Y216535D01*
X-54255Y218855D01*
X-54798Y221117D01*
X-55688Y223266D01*
X-56904Y225250D01*
X-58415Y227018D01*
X-60184Y228529D01*
X-62167Y229745D01*
X-64316Y230635D01*
X-66578Y231178D01*
X-68898Y231361D01*
D02*
G37*
G36*
X192717Y197893D02*
X191428Y197723D01*
X190227Y197226D01*
X189195Y196434D01*
X188404Y195403D01*
X188045Y194535D01*
X179642D01*
Y196768D01*
X173902D01*
Y189059D01*
X179642D01*
Y191292D01*
X188045D01*
X188404Y190424D01*
X189195Y189392D01*
X190227Y188601D01*
X191428Y188103D01*
X192717Y187934D01*
X194005Y188103D01*
X195206Y188601D01*
X196238Y189392D01*
X197029Y190424D01*
X197527Y191625D01*
X197696Y192913D01*
X197527Y194202D01*
X197029Y195403D01*
X196238Y196434D01*
X195206Y197226D01*
X194005Y197723D01*
X192717Y197893D01*
D02*
G37*
G36*
X-191833Y180630D02*
Y177665D01*
X-188868D01*
X-188923Y178079D01*
X-189275Y178930D01*
X-189836Y179662D01*
X-190568Y180223D01*
X-191419Y180575D01*
X-191833Y180630D01*
D02*
G37*
G36*
X-192833D02*
X-193246Y180575D01*
X-194098Y180223D01*
X-194829Y179662D01*
X-195390Y178930D01*
X-195743Y178079D01*
X-195797Y177665D01*
X-192833D01*
Y180630D01*
D02*
G37*
G36*
X-188868Y176665D02*
X-191833D01*
Y173701D01*
X-191419Y173755D01*
X-190568Y174108D01*
X-189836Y174669D01*
X-189275Y175400D01*
X-188923Y176252D01*
X-188868Y176665D01*
D02*
G37*
G36*
X-192833D02*
X-195797D01*
X-195743Y176252D01*
X-195390Y175400D01*
X-194829Y174669D01*
X-194098Y174108D01*
X-193246Y173755D01*
X-192833Y173701D01*
Y176665D01*
D02*
G37*
G36*
X192520Y174271D02*
X191231Y174101D01*
X190030Y173604D01*
X188999Y172812D01*
X188207Y171781D01*
X187848Y170913D01*
X179642D01*
Y173146D01*
X173902D01*
Y165437D01*
X179642D01*
Y167670D01*
X187848D01*
X188207Y166802D01*
X188999Y165770D01*
X190030Y164979D01*
X191231Y164481D01*
X192520Y164312D01*
X193808Y164481D01*
X195010Y164979D01*
X196041Y165770D01*
X196832Y166802D01*
X197330Y168002D01*
X197499Y169291D01*
X197330Y170580D01*
X196832Y171781D01*
X196041Y172812D01*
X195010Y173604D01*
X193808Y174101D01*
X192520Y174271D01*
D02*
G37*
G36*
X103503Y152655D02*
Y149690D01*
X106467D01*
X106413Y150104D01*
X106060Y150955D01*
X105499Y151687D01*
X104768Y152248D01*
X103916Y152600D01*
X103503Y152655D01*
D02*
G37*
G36*
X102503D02*
X102089Y152600D01*
X101238Y152248D01*
X100506Y151687D01*
X99945Y150955D01*
X99593Y150104D01*
X99538Y149690D01*
X102503D01*
Y152655D01*
D02*
G37*
G36*
X-88083D02*
Y149690D01*
X-85118D01*
X-85173Y150104D01*
X-85525Y150955D01*
X-86086Y151687D01*
X-86818Y152248D01*
X-87669Y152600D01*
X-88083Y152655D01*
D02*
G37*
G36*
X-89083D02*
X-89496Y152600D01*
X-90348Y152248D01*
X-91079Y151687D01*
X-91640Y150955D01*
X-91993Y150104D01*
X-92047Y149690D01*
X-89083D01*
Y152655D01*
D02*
G37*
G36*
X192520Y150649D02*
X191231Y150479D01*
X190030Y149982D01*
X188999Y149190D01*
X188207Y148159D01*
X187848Y147291D01*
X179642D01*
Y149622D01*
X173902D01*
Y141913D01*
X179642D01*
Y144048D01*
X187848D01*
X188207Y143180D01*
X188999Y142148D01*
X190030Y141357D01*
X191231Y140859D01*
X192520Y140690D01*
X193808Y140859D01*
X195010Y141357D01*
X196041Y142148D01*
X196832Y143180D01*
X197330Y144380D01*
X197499Y145669D01*
X197330Y146958D01*
X196832Y148159D01*
X196041Y149190D01*
X195010Y149982D01*
X193808Y150479D01*
X192520Y150649D01*
D02*
G37*
G36*
X106467Y148690D02*
X103503D01*
Y145726D01*
X103916Y145781D01*
X104768Y146133D01*
X105499Y146694D01*
X106060Y147425D01*
X106413Y148277D01*
X106467Y148690D01*
D02*
G37*
G36*
X102503D02*
X99538D01*
X99593Y148277D01*
X99945Y147425D01*
X100506Y146694D01*
X101238Y146133D01*
X102089Y145781D01*
X102503Y145726D01*
Y148690D01*
D02*
G37*
G36*
X-85118D02*
X-88083D01*
Y145726D01*
X-87669Y145781D01*
X-86818Y146133D01*
X-86086Y146694D01*
X-85525Y147425D01*
X-85173Y148277D01*
X-85118Y148690D01*
D02*
G37*
G36*
X-89083D02*
X-92047D01*
X-91993Y148277D01*
X-91640Y147425D01*
X-91079Y146694D01*
X-90348Y146133D01*
X-89496Y145781D01*
X-89083Y145726D01*
Y148690D01*
D02*
G37*
G36*
X192520Y126928D02*
X191231Y126759D01*
X190030Y126261D01*
X188999Y125470D01*
X188207Y124439D01*
X187848Y123571D01*
X179642D01*
Y125803D01*
X173902D01*
Y118095D01*
X179642D01*
Y120327D01*
X187848D01*
X188207Y119459D01*
X188999Y118428D01*
X190030Y117636D01*
X191231Y117139D01*
X192520Y116969D01*
X193808Y117139D01*
X195010Y117636D01*
X196041Y118428D01*
X196832Y119459D01*
X197330Y120660D01*
X197499Y121949D01*
X197330Y123238D01*
X196832Y124439D01*
X196041Y125470D01*
X195010Y126261D01*
X193808Y126759D01*
X192520Y126928D01*
D02*
G37*
G36*
X171965Y125803D02*
X169595D01*
Y122449D01*
X171965D01*
Y125803D01*
D02*
G37*
G36*
X168595D02*
X166224D01*
Y122449D01*
X168595D01*
Y125803D01*
D02*
G37*
G36*
X171965Y121449D02*
X169595D01*
Y118095D01*
X171965D01*
Y121449D01*
D02*
G37*
G36*
X168595D02*
X166224D01*
Y118095D01*
X168595D01*
Y121449D01*
D02*
G37*
G36*
X-157110Y103052D02*
X-160917D01*
Y99560D01*
X-157110D01*
Y103052D01*
D02*
G37*
G36*
X-161917D02*
X-165724D01*
Y99560D01*
X-161917D01*
Y103052D01*
D02*
G37*
G36*
X-122091Y106941D02*
X-125984D01*
X-129878D01*
Y104433D01*
X-128007D01*
Y88003D01*
X-128259Y87752D01*
X-159395D01*
Y95067D01*
X-157110D01*
Y98560D01*
X-161417D01*
X-165724D01*
Y95067D01*
X-163441D01*
Y87752D01*
X-188358D01*
X-188552Y88218D01*
X-189343Y89249D01*
X-190374Y90041D01*
X-191575Y90538D01*
X-192364Y90642D01*
Y85728D01*
Y80815D01*
X-191575Y80918D01*
X-190374Y81416D01*
X-189343Y82207D01*
X-188552Y83239D01*
X-188358Y83705D01*
X-127421D01*
X-126647Y83859D01*
X-125991Y84298D01*
X-124554Y85735D01*
X-124115Y86391D01*
X-123961Y87165D01*
Y104433D01*
X-122091D01*
Y106941D01*
D02*
G37*
G36*
X-193364Y90642D02*
X-194153Y90538D01*
X-195354Y90041D01*
X-196385Y89249D01*
X-197177Y88218D01*
X-197674Y87017D01*
X-197778Y86228D01*
X-193364D01*
Y90642D01*
D02*
G37*
G36*
Y85228D02*
X-197778D01*
X-197674Y84439D01*
X-197177Y83239D01*
X-196385Y82207D01*
X-195354Y81416D01*
X-194153Y80918D01*
X-193364Y80815D01*
Y85228D01*
D02*
G37*
G36*
X8500Y62520D02*
Y59555D01*
X11464D01*
X11410Y59969D01*
X11057Y60820D01*
X10496Y61551D01*
X9765Y62112D01*
X8914Y62465D01*
X8500Y62520D01*
D02*
G37*
G36*
X7500D02*
X7086Y62465D01*
X6235Y62112D01*
X5504Y61551D01*
X4943Y60820D01*
X4590Y59969D01*
X4536Y59555D01*
X7500D01*
Y62520D01*
D02*
G37*
G36*
X11464Y58555D02*
X8500D01*
Y55591D01*
X8914Y55645D01*
X9765Y55998D01*
X10496Y56559D01*
X11057Y57290D01*
X11410Y58141D01*
X11464Y58555D01*
D02*
G37*
G36*
X7500D02*
X4536D01*
X4590Y58141D01*
X4943Y57290D01*
X5504Y56559D01*
X6235Y55998D01*
X7086Y55645D01*
X7500Y55591D01*
Y58555D01*
D02*
G37*
G36*
X144201Y49038D02*
Y34752D01*
X158487D01*
X158344Y36571D01*
X157800Y38833D01*
X156910Y40982D01*
X155695Y42966D01*
X154184Y44735D01*
X152415Y46246D01*
X150431Y47461D01*
X148282Y48352D01*
X146020Y48895D01*
X144201Y49038D01*
D02*
G37*
G36*
X143201D02*
X141382Y48895D01*
X139120Y48352D01*
X136970Y47461D01*
X134987Y46246D01*
X133218Y44735D01*
X131707Y42966D01*
X130491Y40982D01*
X129601Y38833D01*
X129058Y36571D01*
X128915Y34752D01*
X143201D01*
Y49038D01*
D02*
G37*
G36*
X158487Y33752D02*
X144201D01*
Y19466D01*
X146020Y19609D01*
X148282Y20152D01*
X150431Y21043D01*
X152415Y22258D01*
X154184Y23769D01*
X155695Y25538D01*
X156910Y27521D01*
X157800Y29671D01*
X158344Y31933D01*
X158487Y33752D01*
D02*
G37*
G36*
X143201D02*
X128915D01*
X129058Y31933D01*
X129601Y29671D01*
X130491Y27521D01*
X131707Y25538D01*
X133218Y23769D01*
X134987Y22258D01*
X136970Y21043D01*
X139120Y20152D01*
X141382Y19609D01*
X143201Y19466D01*
Y33752D01*
D02*
G37*
G36*
X-143701Y49077D02*
X-146020Y48895D01*
X-148282Y48352D01*
X-150431Y47461D01*
X-152415Y46246D01*
X-154184Y44735D01*
X-155695Y42966D01*
X-156910Y40982D01*
X-157800Y38833D01*
X-158344Y36571D01*
X-158526Y34252D01*
X-158344Y31933D01*
X-157800Y29671D01*
X-156910Y27521D01*
X-155695Y25538D01*
X-154184Y23769D01*
X-152415Y22258D01*
X-150431Y21043D01*
X-148282Y20152D01*
X-146020Y19609D01*
X-143701Y19427D01*
X-141382Y19609D01*
X-139120Y20152D01*
X-136970Y21043D01*
X-134987Y22258D01*
X-133218Y23769D01*
X-131707Y25538D01*
X-130491Y27521D01*
X-129601Y29671D01*
X-129058Y31933D01*
X-128876Y34252D01*
X-129058Y36571D01*
X-129601Y38833D01*
X-130491Y40982D01*
X-131707Y42966D01*
X-133218Y44735D01*
X-134987Y46246D01*
X-136970Y47461D01*
X-139120Y48352D01*
X-141382Y48895D01*
X-143701Y49077D01*
D02*
G37*
%LPD*%
G36*
X58266Y404575D02*
X46097Y392407D01*
X45746Y391880D01*
X45622Y391260D01*
Y385784D01*
X43488D01*
X43488Y385784D01*
X43126D01*
Y385784D01*
X42988Y385784D01*
X41740D01*
Y394029D01*
X52540Y404829D01*
X52568Y404807D01*
X53817Y404290D01*
X55158Y404113D01*
X56498Y404290D01*
X57747Y404807D01*
X57936Y404952D01*
X58266Y404575D01*
D02*
G37*
G36*
X129856Y327780D02*
Y327339D01*
X129856Y327279D01*
Y322839D01*
X129856Y322779D01*
Y322339D01*
X129856Y322280D01*
Y317839D01*
X129856Y317779D01*
Y317339D01*
X129856Y317280D01*
Y312839D01*
X129856Y312779D01*
Y312339D01*
X129856Y312280D01*
Y307839D01*
X129856Y307780D01*
Y307339D01*
X129856Y307279D01*
Y302839D01*
X129856Y302780D01*
Y302339D01*
X129856Y302279D01*
Y297839D01*
X129856Y297779D01*
Y297339D01*
X129856Y297280D01*
Y292779D01*
X137860D01*
Y297280D01*
X137860Y297339D01*
Y297779D01*
X137860Y297839D01*
Y302279D01*
X137860Y302339D01*
Y302780D01*
X137860Y302839D01*
Y307279D01*
X137860Y307339D01*
Y307780D01*
X137860Y307839D01*
Y312280D01*
X137860Y312339D01*
Y312779D01*
X137860Y312839D01*
Y317280D01*
X137860Y317339D01*
Y317779D01*
X137860Y317839D01*
Y322280D01*
X137860Y322339D01*
Y322779D01*
X137860Y322839D01*
Y326879D01*
X138360Y327086D01*
X141678Y323768D01*
Y292177D01*
X132587Y283086D01*
X129732D01*
Y284957D01*
X123854D01*
X123717Y284957D01*
Y284957D01*
X123354D01*
Y284957D01*
X122370D01*
Y285728D01*
X122216Y286503D01*
X121777Y287159D01*
X116938Y291998D01*
Y294370D01*
X116785Y295144D01*
X116506Y295561D01*
Y297280D01*
X116506Y297339D01*
Y297779D01*
X116506Y297839D01*
Y302279D01*
X116506Y302339D01*
Y302780D01*
X116506Y302839D01*
Y307279D01*
X116506Y307339D01*
Y307780D01*
X116506Y307839D01*
Y312280D01*
X116506Y312339D01*
Y312779D01*
X116506Y312839D01*
Y315045D01*
X129356Y327896D01*
X129856Y327780D01*
D02*
G37*
G36*
X-121206Y301451D02*
X-121458Y301282D01*
X-128045Y294696D01*
X-128396Y294170D01*
X-128520Y293549D01*
Y288600D01*
X-129642D01*
X-129701Y288600D01*
X-130142D01*
X-130398Y289019D01*
Y294729D01*
X-126275Y298852D01*
X-125923Y299378D01*
X-125800Y299999D01*
Y301951D01*
X-125201D01*
X-125142Y301951D01*
X-124701D01*
X-124642Y301951D01*
X-121358D01*
X-121206Y301451D01*
D02*
G37*
D25*
X-168247Y235296D02*
D03*
Y242973D02*
D03*
X-166823Y325017D02*
D03*
Y332695D02*
D03*
X85347Y288937D02*
D03*
Y281260D02*
D03*
Y350394D02*
D03*
Y342717D02*
D03*
X60591Y342520D02*
D03*
Y334842D02*
D03*
X44252Y342520D02*
D03*
Y334842D02*
D03*
X28543Y342323D02*
D03*
Y334646D02*
D03*
X12165Y342520D02*
D03*
Y334842D02*
D03*
X-1772Y314764D02*
D03*
Y307087D02*
D03*
X-4173Y342323D02*
D03*
Y334646D02*
D03*
X-20512Y342323D02*
D03*
Y334646D02*
D03*
X-35669Y342323D02*
D03*
Y334646D02*
D03*
X-90158Y367126D02*
D03*
Y359449D02*
D03*
X-105906Y367028D02*
D03*
Y359351D02*
D03*
X-121654Y367028D02*
D03*
Y359351D02*
D03*
X-137402Y366930D02*
D03*
Y359253D02*
D03*
X-153150Y367126D02*
D03*
Y359449D02*
D03*
D26*
X-39449Y272094D02*
D03*
Y278472D02*
D03*
X-101417Y278032D02*
D03*
Y271654D02*
D03*
X-153543Y250558D02*
D03*
Y256936D02*
D03*
X-125984Y107441D02*
D03*
Y113819D02*
D03*
D27*
X-164362Y269889D02*
D03*
X-172039D02*
D03*
X-140812Y222018D02*
D03*
X-148489D02*
D03*
X109252Y364961D02*
D03*
X101575D02*
D03*
X176772Y121949D02*
D03*
X169095D02*
D03*
X92886Y310551D02*
D03*
X100563D02*
D03*
X169095Y145768D02*
D03*
X176772D02*
D03*
X169291Y216535D02*
D03*
X176969D02*
D03*
X169291Y240256D02*
D03*
X176969D02*
D03*
X169095Y169291D02*
D03*
X176772D02*
D03*
X169095Y192913D02*
D03*
X176772D02*
D03*
X-93740Y332933D02*
D03*
X-101417D02*
D03*
D28*
X-147421Y305953D02*
D03*
X-142421D02*
D03*
X-137421D02*
D03*
X-132421D02*
D03*
X-127421D02*
D03*
X-122421D02*
D03*
X-117421D02*
D03*
X-112421D02*
D03*
Y284598D02*
D03*
X-117421D02*
D03*
X-122421D02*
D03*
X-127421D02*
D03*
X-132421D02*
D03*
X-137421D02*
D03*
X-142421D02*
D03*
X-147421D02*
D03*
D29*
X133858Y330059D02*
D03*
Y325059D02*
D03*
Y320059D02*
D03*
Y315059D02*
D03*
Y310059D02*
D03*
Y305059D02*
D03*
Y300059D02*
D03*
Y295059D02*
D03*
X112504D02*
D03*
Y300059D02*
D03*
Y305059D02*
D03*
Y310059D02*
D03*
Y315059D02*
D03*
Y320059D02*
D03*
Y325059D02*
D03*
Y330059D02*
D03*
X8000Y273406D02*
D03*
Y268406D02*
D03*
Y263405D02*
D03*
Y258405D02*
D03*
Y253405D02*
D03*
Y248406D02*
D03*
Y243406D02*
D03*
Y238405D02*
D03*
X-13354D02*
D03*
Y243406D02*
D03*
Y248406D02*
D03*
Y253405D02*
D03*
Y258405D02*
D03*
Y263405D02*
D03*
Y268406D02*
D03*
Y273406D02*
D03*
D30*
X-161417Y112445D02*
D03*
Y99060D02*
D03*
D31*
X46496Y381890D02*
D03*
X40118D02*
D03*
X25069D02*
D03*
X18691D02*
D03*
X3642D02*
D03*
X-2736D02*
D03*
X-17785D02*
D03*
X-24163D02*
D03*
X-36024D02*
D03*
X-42402D02*
D03*
X126724Y281063D02*
D03*
X120346D02*
D03*
D32*
X-79451Y402362D02*
X-71732D01*
X-105905Y375908D02*
X-79451Y402362D01*
X-105905Y370112D02*
Y375908D01*
X-65158Y398031D02*
X-53898Y409291D01*
X-77362Y398031D02*
X-65158D01*
X-87894Y387500D02*
X-77362Y398031D01*
X-71732Y402362D02*
X-64803Y409291D01*
X-80890Y406920D02*
Y408087D01*
X-84243Y403567D02*
X-80890Y406920D01*
X-85409Y403567D02*
X-84243D01*
X-106265Y382712D02*
X-85409Y403567D01*
X-113647Y382712D02*
X-106265D01*
X-80890Y408087D02*
X-79685Y409291D01*
X-75709D01*
X-114896Y391915D02*
X-97520Y409291D01*
X-123439Y391915D02*
X-114896D01*
X-131496Y383858D02*
X-123439Y391915D01*
X-167604Y418912D02*
X-164946D01*
X-192913Y393602D02*
X-167604Y418912D01*
X-164946D02*
X-135039Y448819D01*
X-100787D01*
X-81181Y429213D01*
Y419291D02*
Y429213D01*
X-157571Y221518D02*
X-148989D01*
X-148489Y222018D01*
X-147421Y304230D02*
Y305953D01*
Y302933D02*
Y304230D01*
X-192913Y291339D02*
X-162035D01*
X-149439Y303935D01*
X-147717D01*
X-185138Y232283D02*
X-172244D01*
X-169232Y235296D01*
X-168247D01*
X-192913Y269153D02*
X-172775D01*
X-172039Y269889D01*
X-164024Y266530D02*
Y269550D01*
X-164362Y269889D02*
X-164024Y269550D01*
X-167323Y315059D02*
X-143701D01*
X-167323D02*
X-166823Y315559D01*
Y325017D01*
X85347Y342717D02*
X86331D01*
X95934D01*
X96626Y343408D01*
Y359028D01*
X101575Y363976D01*
Y364961D01*
X-15363Y231361D02*
X-13354D01*
X-19685Y235682D02*
X-15363Y231361D01*
X-19685Y235682D02*
Y242289D01*
X-18569Y243406D02*
X-13354D01*
X-19685Y242289D02*
X-18569Y243406D01*
X-1772D02*
X8000D01*
X-5144Y248406D02*
X354Y253904D01*
X-13354Y248406D02*
X-5144D01*
X354Y253904D02*
Y266130D01*
X-2756Y269240D02*
X354Y266130D01*
X-6216Y258571D02*
X-4843Y257197D01*
X-6216Y258571D02*
Y333366D01*
X-4937Y334646D01*
X-4173D01*
X-2756Y290458D02*
Y307087D01*
X-2968Y271442D02*
Y290246D01*
X-2756Y290458D01*
X-2968Y271442D02*
X-2756Y271230D01*
Y269240D02*
Y271230D01*
Y307087D02*
X-1772D01*
X12398Y299213D02*
Y334610D01*
X12165Y334842D02*
X12398Y334610D01*
X-787Y286028D02*
X12398Y299213D01*
X-787Y272346D02*
Y286028D01*
Y272346D02*
X3153Y268406D01*
X8000D01*
Y263405D02*
X22795D01*
X28543Y269153D01*
X28179Y291160D02*
X28543Y291524D01*
Y334646D01*
X-164342Y224508D02*
X-117421Y271429D01*
Y284598D01*
X-192913Y224508D02*
X-164342D01*
X-153543Y256936D02*
X-143173D01*
X-192913Y224508D02*
X-185138Y232283D01*
X-153543Y256936D02*
Y276754D01*
X-147421Y282876D01*
Y284598D01*
X-164024Y266530D02*
X-154429Y256936D01*
X-153543D01*
X-192913Y315059D02*
X-167323D01*
X-145669Y289569D02*
Y292422D01*
X-119193Y289549D02*
Y292143D01*
X-126898Y285122D02*
Y293549D01*
X-127421Y284598D02*
X-126898Y285122D01*
Y293549D02*
X-120312Y300135D01*
X-105945D01*
X-132421Y307675D02*
X-109427Y330669D01*
X-102697D01*
X-101417Y331949D02*
Y332933D01*
X-102697Y330669D02*
X-101417Y331949D01*
X-137421Y312186D02*
X-92421Y357186D01*
X-137421Y305953D02*
Y312186D01*
X-132421Y305953D02*
Y307675D01*
X-92421Y357186D02*
Y358170D01*
X-91142Y359449D01*
X-108110Y348032D02*
Y358071D01*
X-106831Y359351D01*
X-105906D01*
X-122421Y286321D02*
X-119193Y289549D01*
X-122421Y284598D02*
Y286321D01*
X-121654Y342519D02*
Y359351D01*
X-137421Y284598D02*
X-137411Y284608D01*
X-137608Y284411D02*
X-137421Y284598D01*
X-137411Y293501D02*
X-137402Y293511D01*
X-137411Y284608D02*
Y293501D01*
X-137402Y348148D02*
X-137324Y348071D01*
X-137402Y348148D02*
Y359253D01*
X-91142Y359449D02*
X-90158D01*
X-152165D02*
X-145669Y352953D01*
X-153150Y359449D02*
X-152165D01*
X-145669Y325059D02*
Y352953D01*
X-97894Y284411D02*
X-97707Y284598D01*
X119264Y281260D02*
X120346Y280177D01*
X-108110Y387795D02*
X-88929Y406977D01*
X-120776Y387795D02*
X-108110D01*
X-121654Y374705D02*
X-113647Y382712D01*
X-48719Y392999D02*
X-42992Y398726D01*
X-48719Y359017D02*
Y392999D01*
X-74803Y332933D02*
X-48719Y359017D01*
X-42402Y381890D02*
Y391512D01*
Y348071D02*
Y381890D01*
Y391512D02*
X-32087Y401827D01*
X-42402Y348071D02*
X-37293Y342963D01*
X-36220Y358032D02*
X-22775Y344587D01*
X-36220Y358032D02*
X-36024Y358228D01*
Y381890D01*
Y394449D02*
X-21181Y409291D01*
X-36024Y381890D02*
Y394449D01*
X-144095Y383858D02*
X-131496D01*
X-137402Y371170D02*
X-120776Y387795D01*
X-137402Y366930D02*
Y371170D01*
X-153150Y367126D02*
Y374803D01*
X-137795Y358859D02*
X-137402Y359253D01*
X-121654Y367028D02*
Y374705D01*
X-105905Y367225D02*
Y370112D01*
X-105905Y370112D02*
X-105905Y370112D01*
X-87894Y377067D02*
Y387500D01*
X-90158Y374803D02*
X-87894Y377067D01*
X-90158Y367126D02*
Y374803D01*
X-153150D02*
X-144095Y383858D01*
X192224Y385039D02*
X192913Y385728D01*
X123031Y385039D02*
X192224D01*
X98779Y409291D02*
X123031Y385039D01*
X166929Y368504D02*
X189075Y346358D01*
X128661Y368504D02*
X166929D01*
X87874Y409291D02*
X128661Y368504D01*
X95391Y246735D02*
X169095Y173031D01*
X17143Y246735D02*
X95391D01*
X15472Y248406D02*
X17143Y246735D01*
X169095Y170276D02*
Y173031D01*
Y169291D02*
Y170276D01*
X176772Y121949D02*
X192520D01*
X-31496Y259842D02*
Y278472D01*
Y259842D02*
X-30059Y258405D01*
X-13354D01*
X-35030Y282006D02*
X-31496Y278472D01*
X208661Y130613D02*
Y251969D01*
X181180Y279450D02*
X208661Y251969D01*
X181180Y279450D02*
Y295651D01*
X138248Y338583D02*
X181180Y295651D01*
X100563Y311535D02*
X104087Y315059D01*
X112504D01*
X85347Y288937D02*
Y311024D01*
Y318898D01*
Y311024D02*
X85819Y310551D01*
X92886D01*
X91508Y325059D02*
X112504D01*
X85347Y318898D02*
X91508Y325059D01*
X85347Y281260D02*
X119264D01*
X114226Y295059D02*
X114915Y294370D01*
X112504Y295059D02*
X114226D01*
X120346Y280177D02*
Y281063D01*
X98988Y330059D02*
X112504D01*
X86331Y342717D02*
X98988Y330059D01*
X114226Y315059D02*
X129085Y329917D01*
X133717D01*
X133858Y330059D01*
X112504Y315059D02*
X114226D01*
X176772Y145768D02*
X176870Y145669D01*
X192520D01*
X176772Y169291D02*
X192520D01*
X176772Y192913D02*
X192717D01*
X176969Y216535D02*
X192717D01*
X157480Y240158D02*
X169193D01*
X169291Y240256D01*
X176969D02*
X177067Y240158D01*
X192717D01*
X8000Y258405D02*
X104587D01*
X169095Y193898D01*
X8000Y253405D02*
X22441D01*
X8000Y238405D02*
X16969D01*
X44252Y326673D02*
Y334842D01*
X8000Y248406D02*
X15472D01*
X59606Y342520D02*
X60591D01*
X58327Y343799D02*
X59606Y342520D01*
X60591Y326772D02*
Y334842D01*
X-24163Y263779D02*
X-23976Y263593D01*
X-13541D01*
X-13354Y263405D01*
X161417Y216535D02*
X169291D01*
X169095Y192913D02*
Y193898D01*
X125787Y338583D02*
X138248D01*
X118827Y331623D02*
X125787Y338583D01*
X118827Y323552D02*
Y331623D01*
X115335Y320059D02*
X118827Y323552D01*
X112504Y320059D02*
X115335D01*
X207969Y129921D02*
X208661Y130613D01*
X177165Y129921D02*
X207969D01*
X169095Y137992D02*
X177165Y129921D01*
X169095Y137992D02*
Y145768D01*
X-97520Y283378D02*
Y284411D01*
X-100531Y278032D02*
X-99114Y279449D01*
X-101417Y278032D02*
X-100531D01*
X-112421Y284598D02*
X-112234Y284411D01*
X-97707Y284598D02*
X-97520Y284411D01*
X-111949Y271654D02*
X-110915D01*
X-23622Y246004D02*
X-22891Y246735D01*
X-21748D02*
X-15077Y253405D01*
X46496Y381890D02*
X47913Y380472D01*
Y366900D02*
Y380472D01*
Y366900D02*
X58327Y356486D01*
Y343799D02*
Y356486D01*
X40118Y381004D02*
Y381890D01*
Y381004D02*
X41988Y379134D01*
Y343799D02*
Y379134D01*
Y343799D02*
X43268Y342520D01*
X44252D01*
X167815Y171555D02*
X169095Y170276D01*
X-35669Y295276D02*
Y334646D01*
X-14043Y294569D02*
Y295059D01*
Y294569D02*
X-13354Y293880D01*
Y273406D02*
Y293880D01*
X-17726Y269094D02*
X-14043D01*
X-17785Y269153D02*
X-17726Y269094D01*
X-18012Y269153D02*
X-17785D01*
X-20512Y271654D02*
X-18012Y269153D01*
X-20512Y271654D02*
Y334646D01*
X-14043Y269094D02*
X-13354Y268406D01*
X92886Y361784D02*
X93307Y362205D01*
X92886Y357933D02*
Y361784D01*
X87610Y352658D02*
X92886Y357933D01*
X87610Y351673D02*
Y352658D01*
X86331Y350394D02*
X87610Y351673D01*
X85347Y350394D02*
X86331D01*
X-24163Y370079D02*
Y381890D01*
X25069Y345797D02*
Y381890D01*
Y345797D02*
X26280Y344587D01*
Y343602D02*
Y344587D01*
Y343602D02*
X27559Y342323D01*
X28543D01*
X14429Y344783D02*
X18691Y349045D01*
X14429Y343799D02*
Y344783D01*
X13150Y342520D02*
X14429Y343799D01*
X12165Y342520D02*
X13150D01*
X18691Y349045D02*
Y381890D01*
X492Y317028D02*
X3642Y320177D01*
X492Y316043D02*
Y317028D01*
X-787Y314764D02*
X492Y316043D01*
X-1772Y314764D02*
X-787D01*
X3642Y320177D02*
Y381890D01*
X-4173Y342323D02*
X-2894Y343602D01*
Y381732D01*
X-2736Y381890D01*
X-22775Y343602D02*
Y344587D01*
Y343602D02*
X-21496Y342323D01*
X-20512D01*
X28543D02*
X29823Y343602D01*
X-3189Y342323D02*
X-1909Y343602D01*
X-4173Y342323D02*
X-3189D01*
X179272Y306988D02*
X192913D01*
X76968Y409291D02*
X179272Y306988D01*
X189075Y346358D02*
X192913D01*
X47244Y391260D02*
X65276Y409291D01*
X66063D01*
X47244Y382638D02*
Y391260D01*
X46496Y381890D02*
X47244Y382638D01*
X40118Y394701D02*
X54709Y409291D01*
X55158D01*
X40118Y381890D02*
Y394701D01*
X25069Y390108D02*
X44252Y409291D01*
X25069Y381890D02*
Y390108D01*
X18691Y394636D02*
X33347Y409291D01*
X18691Y381890D02*
Y394636D01*
X3642Y390492D02*
X22441Y409291D01*
X3642Y381890D02*
Y390492D01*
X-2736Y395020D02*
X11535Y409291D01*
X-2736Y381890D02*
Y395020D01*
X-17785Y390876D02*
X630Y409291D01*
X-17785Y381890D02*
Y390876D01*
X-24163Y395404D02*
X-10276Y409291D01*
X-24163Y381890D02*
Y395404D01*
X-32087Y401827D02*
Y409291D01*
X-145669Y289569D02*
X-142421Y286321D01*
Y284598D02*
Y286321D01*
X-127421Y299999D02*
Y305953D01*
X-132421Y294999D02*
X-127421Y299999D01*
X-93740Y332933D02*
X-74803D01*
X-42992Y398726D02*
Y409291D01*
X-143701Y315059D02*
X-142421Y313779D01*
Y305953D02*
Y313779D01*
X-89803Y409291D02*
X-88929Y408417D01*
Y406977D02*
Y408417D01*
X-89803Y409291D02*
X-86614D01*
D33*
X-147717Y303935D02*
X-147421Y304230D01*
X-125984Y113819D02*
Y129488D01*
X15748Y281120D02*
X37679D01*
X45394Y273406D01*
X153543Y97677D02*
X192717D01*
X121732Y129488D02*
X153543Y97677D01*
X-125984Y129488D02*
X121732D01*
X-125984D02*
Y253405D01*
X-137558Y300135D02*
X-132421Y294999D01*
X-144623Y300135D02*
X-137558D01*
X-162571Y85728D02*
X-127421D01*
X-192864D02*
X-162571D01*
X-127421D02*
X-125984Y87165D01*
Y107441D01*
X-162571Y85728D02*
X-161418Y86882D01*
Y99059D01*
X-161417Y99060D01*
Y129488D02*
X-125984D01*
X-165354D02*
X-161417D01*
Y112445D02*
Y129488D01*
X-192864Y129439D02*
X-165403D01*
X-192913Y129390D02*
X-192864Y129439D01*
Y85728D02*
X-192333Y86260D01*
X-165403Y129439D02*
X-165354Y129488D01*
X-35030Y282006D02*
X-31496Y285539D01*
X-38563Y278472D02*
X-35030Y282006D01*
X-31496Y285539D02*
Y286321D01*
X-39449Y278472D02*
X-38563D01*
X-39449Y263669D02*
Y272094D01*
X-125984Y253405D02*
X-53898D01*
X-48264Y258677D02*
Y279374D01*
X-53898Y253043D02*
X-48264Y258677D01*
Y279374D02*
X-41317Y286321D01*
X-53898Y253043D02*
Y253405D01*
X-41317Y286321D02*
X-31496D01*
X15748Y275480D02*
Y281120D01*
X13674Y273406D02*
X15748Y275480D01*
X8000Y273406D02*
X13674D01*
X45394D02*
X122098D01*
X126724Y278032D01*
X-147421Y302933D02*
X-144623Y300135D01*
X100563Y310551D02*
Y311535D01*
X126724Y278032D02*
Y281063D01*
X114915Y291160D02*
X120346Y285728D01*
X114915Y291160D02*
Y294370D01*
X120346Y281063D02*
Y285728D01*
X126724Y281063D02*
X133425D01*
X143701Y291339D01*
Y324606D01*
X138248Y330059D02*
X143701Y324606D01*
X133858Y330059D02*
X138248D01*
X-99114Y281784D02*
X-97520Y283378D01*
X-99114Y279449D02*
Y281784D01*
X-112234Y284411D02*
X-97894D01*
X-110915Y271654D02*
X-103189D01*
X-132421Y271654D02*
Y284598D01*
Y294999D01*
D34*
X192717Y97677D02*
D03*
X-192913Y393602D02*
D03*
X192520Y121949D02*
D03*
Y145669D02*
D03*
Y169291D02*
D03*
X192717Y192913D02*
D03*
Y216535D02*
D03*
Y240158D02*
D03*
X-192913Y338583D02*
D03*
Y315059D02*
D03*
Y291339D02*
D03*
Y269153D02*
D03*
Y245130D02*
D03*
Y224508D02*
D03*
X192913Y287303D02*
D03*
Y306988D02*
D03*
Y326673D02*
D03*
Y346358D02*
D03*
Y366043D02*
D03*
Y385728D02*
D03*
X-192864Y85728D02*
D03*
X-192913Y129390D02*
D03*
D35*
X-124449Y426102D02*
D03*
X125591D02*
D03*
D36*
X93307Y419291D02*
D03*
X82402D02*
D03*
X71496D02*
D03*
X60591D02*
D03*
X49685D02*
D03*
X38780D02*
D03*
X27874D02*
D03*
X16969D02*
D03*
X6063D02*
D03*
X-4843D02*
D03*
X-15748D02*
D03*
X-26654D02*
D03*
X-37559D02*
D03*
X-48465D02*
D03*
X-59370D02*
D03*
X-70276D02*
D03*
X-81181D02*
D03*
X-92087D02*
D03*
X98779Y409291D02*
D03*
X87874D02*
D03*
X76968D02*
D03*
X66063D02*
D03*
X55158D02*
D03*
X44252D02*
D03*
X33347D02*
D03*
X22441D02*
D03*
X11535D02*
D03*
X630D02*
D03*
X-10276D02*
D03*
X-21181D02*
D03*
X-32087D02*
D03*
X-42992D02*
D03*
X-53898D02*
D03*
X-64803D02*
D03*
X-75709D02*
D03*
X-97520D02*
D03*
X-86614D02*
D03*
D37*
X143701Y34252D02*
D03*
X-143701D02*
D03*
X68898Y379921D02*
D03*
X-68898D02*
D03*
Y216535D02*
D03*
X68898D02*
D03*
D38*
X-157571Y221518D02*
D03*
X-192333Y177165D02*
D03*
X8000Y59055D02*
D03*
X3622Y214216D02*
D03*
X56063Y300135D02*
D03*
X-70276Y307086D02*
D03*
X-184630Y418412D02*
D03*
X187008Y413386D02*
D03*
X-88583Y149190D02*
D03*
X103003D02*
D03*
X-13354Y231361D02*
D03*
X-1772Y243406D02*
D03*
X-4843Y257197D02*
D03*
X28543Y269153D02*
D03*
X28179Y291160D02*
D03*
X-143173Y256936D02*
D03*
X-145669Y292422D02*
D03*
X-119193Y292143D02*
D03*
X-105945Y300135D02*
D03*
X-108110Y348032D02*
D03*
X-121654Y342519D02*
D03*
X-137402Y293511D02*
D03*
X-137324Y348071D02*
D03*
X-39449Y263669D02*
D03*
X15748Y281120D02*
D03*
X22441Y253405D02*
D03*
X-31496Y286321D02*
D03*
X16969Y238405D02*
D03*
X44252Y326673D02*
D03*
X60591Y326772D02*
D03*
X-24163Y263779D02*
D03*
X161417Y216535D02*
D03*
X157480Y240158D02*
D03*
X-97520Y284411D02*
D03*
X-111949Y271654D02*
D03*
X-125984Y253405D02*
D03*
X-23622Y246004D02*
D03*
X-35669Y295276D02*
D03*
X-14043Y295059D02*
D03*
X93307Y362205D02*
D03*
X-24163Y370079D02*
D03*
X-132421Y271654D02*
D03*
X-145669Y325059D02*
D03*
M02*
