G04*
G04 #@! TF.GenerationSoftware,Altium Limited,Altium Designer,19.0.9 (268)*
G04*
G04 Layer_Physical_Order=2*
G04 Layer_Color=16711680*
%FSLAX42Y42*%
%MOMM*%
G71*
G01*
G75*
%ADD32C,0.30*%
%ADD33C,0.50*%
%ADD34C,2.00*%
%ADD35C,5.00*%
%ADD36C,2.10*%
%ADD37C,7.00*%
%ADD38C,1.27*%
G36*
X3500Y11500D02*
X4000Y11000D01*
X5500D01*
Y0D01*
X-5500D01*
Y11000D01*
X-4000D01*
Y11000D01*
X-3500Y11500D01*
X3500D01*
Y11500D01*
D02*
G37*
%LPC*%
G36*
X1829Y10780D02*
Y10663D01*
X1946D01*
X1943Y10684D01*
X1930Y10716D01*
X1909Y10743D01*
X1882Y10764D01*
X1850Y10777D01*
X1829Y10780D01*
D02*
G37*
G36*
X444D02*
Y10663D01*
X561D01*
X558Y10684D01*
X545Y10716D01*
X524Y10743D01*
X497Y10764D01*
X465Y10777D01*
X444Y10780D01*
D02*
G37*
G36*
X1803Y10780D02*
X1782Y10777D01*
X1750Y10764D01*
X1723Y10743D01*
X1702Y10716D01*
X1689Y10684D01*
X1686Y10663D01*
X1803D01*
Y10780D01*
D02*
G37*
G36*
X418D02*
X397Y10777D01*
X365Y10764D01*
X338Y10743D01*
X317Y10716D01*
X304Y10684D01*
X301Y10663D01*
X418D01*
Y10780D01*
D02*
G37*
G36*
X2106Y10780D02*
Y10663D01*
X2223D01*
X2220Y10684D01*
X2207Y10716D01*
X2186Y10743D01*
X2159Y10764D01*
X2127Y10777D01*
X2106Y10780D01*
D02*
G37*
G36*
X1552D02*
Y10663D01*
X1669D01*
X1666Y10684D01*
X1653Y10716D01*
X1632Y10743D01*
X1605Y10764D01*
X1573Y10777D01*
X1552Y10780D01*
D02*
G37*
G36*
X-664D02*
Y10663D01*
X-547D01*
X-550Y10684D01*
X-563Y10716D01*
X-584Y10743D01*
X-611Y10764D01*
X-643Y10777D01*
X-664Y10780D01*
D02*
G37*
G36*
X-1218D02*
Y10663D01*
X-1101D01*
X-1104Y10684D01*
X-1117Y10716D01*
X-1138Y10743D01*
X-1165Y10764D01*
X-1197Y10777D01*
X-1218Y10780D01*
D02*
G37*
G36*
X-1772D02*
Y10663D01*
X-1655D01*
X-1658Y10684D01*
X-1671Y10716D01*
X-1692Y10743D01*
X-1719Y10764D01*
X-1751Y10777D01*
X-1772Y10780D01*
D02*
G37*
G36*
X-2326D02*
Y10663D01*
X-2209D01*
X-2212Y10684D01*
X-2225Y10716D01*
X-2246Y10743D01*
X-2273Y10764D01*
X-2305Y10777D01*
X-2326Y10780D01*
D02*
G37*
G36*
X-1244Y10780D02*
X-1265Y10777D01*
X-1297Y10764D01*
X-1324Y10743D01*
X-1345Y10716D01*
X-1358Y10684D01*
X-1361Y10663D01*
X-1244D01*
Y10780D01*
D02*
G37*
G36*
X-1798D02*
X-1819Y10777D01*
X-1851Y10764D01*
X-1878Y10743D01*
X-1899Y10716D01*
X-1912Y10684D01*
X-1915Y10663D01*
X-1798D01*
Y10780D01*
D02*
G37*
G36*
X-2352D02*
X-2373Y10777D01*
X-2405Y10764D01*
X-2432Y10743D01*
X-2453Y10716D01*
X-2466Y10684D01*
X-2469Y10663D01*
X-2352D01*
Y10780D01*
D02*
G37*
G36*
X-690D02*
X-711Y10777D01*
X-743Y10764D01*
X-770Y10743D01*
X-791Y10716D01*
X-804Y10684D01*
X-807Y10663D01*
X-690D01*
Y10780D01*
D02*
G37*
G36*
X1526D02*
X1505Y10777D01*
X1473Y10764D01*
X1446Y10743D01*
X1425Y10716D01*
X1412Y10684D01*
X1409Y10663D01*
X1526D01*
Y10780D01*
D02*
G37*
G36*
X2080D02*
X2059Y10777D01*
X2027Y10764D01*
X2000Y10743D01*
X1979Y10716D01*
X1966Y10684D01*
X1963Y10663D01*
X2080D01*
Y10780D01*
D02*
G37*
G36*
X2383Y10780D02*
Y10663D01*
X2500D01*
X2497Y10684D01*
X2484Y10716D01*
X2463Y10743D01*
X2436Y10764D01*
X2404Y10777D01*
X2383Y10780D01*
D02*
G37*
G36*
X998D02*
Y10663D01*
X1115D01*
X1112Y10684D01*
X1099Y10716D01*
X1078Y10743D01*
X1051Y10764D01*
X1019Y10777D01*
X998Y10780D01*
D02*
G37*
G36*
X-110D02*
Y10663D01*
X7D01*
X4Y10684D01*
X-9Y10716D01*
X-30Y10743D01*
X-57Y10764D01*
X-89Y10777D01*
X-110Y10780D01*
D02*
G37*
G36*
X972Y10780D02*
X951Y10777D01*
X919Y10764D01*
X892Y10743D01*
X871Y10716D01*
X858Y10684D01*
X855Y10663D01*
X972D01*
Y10780D01*
D02*
G37*
G36*
X-136D02*
X-157Y10777D01*
X-189Y10764D01*
X-216Y10743D01*
X-237Y10716D01*
X-250Y10684D01*
X-253Y10663D01*
X-136D01*
Y10780D01*
D02*
G37*
G36*
X2357D02*
X2336Y10777D01*
X2304Y10764D01*
X2277Y10743D01*
X2256Y10716D01*
X2243Y10684D01*
X2240Y10663D01*
X2357D01*
Y10780D01*
D02*
G37*
G36*
X3190Y11099D02*
X3147Y11096D01*
X3105Y11086D01*
X3065Y11069D01*
X3028Y11046D01*
X2995Y11018D01*
X2967Y10985D01*
X2944Y10948D01*
X2927Y10908D01*
X2917Y10866D01*
X2914Y10823D01*
X2917Y10780D01*
X2927Y10738D01*
X2944Y10698D01*
X2967Y10661D01*
X2995Y10628D01*
X3028Y10600D01*
X3065Y10577D01*
X3105Y10560D01*
X3147Y10550D01*
X3190Y10547D01*
X3233Y10550D01*
X3275Y10560D01*
X3315Y10577D01*
X3352Y10600D01*
X3385Y10628D01*
X3413Y10661D01*
X3436Y10698D01*
X3453Y10738D01*
X3463Y10780D01*
X3466Y10823D01*
X3463Y10866D01*
X3453Y10908D01*
X3436Y10948D01*
X3413Y10985D01*
X3385Y11018D01*
X3352Y11046D01*
X3315Y11069D01*
X3275Y11086D01*
X3233Y11096D01*
X3190Y11099D01*
D02*
G37*
G36*
X-3161D02*
X-3204Y11096D01*
X-3246Y11086D01*
X-3286Y11069D01*
X-3323Y11046D01*
X-3356Y11018D01*
X-3384Y10985D01*
X-3407Y10948D01*
X-3424Y10908D01*
X-3434Y10866D01*
X-3437Y10823D01*
X-3434Y10780D01*
X-3424Y10738D01*
X-3407Y10698D01*
X-3384Y10661D01*
X-3356Y10628D01*
X-3323Y10600D01*
X-3286Y10577D01*
X-3246Y10560D01*
X-3204Y10550D01*
X-3161Y10547D01*
X-3118Y10550D01*
X-3076Y10560D01*
X-3036Y10577D01*
X-2999Y10600D01*
X-2966Y10628D01*
X-2938Y10661D01*
X-2915Y10698D01*
X-2898Y10738D01*
X-2888Y10780D01*
X-2885Y10823D01*
X-2888Y10866D01*
X-2898Y10908D01*
X-2915Y10948D01*
X-2938Y10985D01*
X-2966Y11018D01*
X-2999Y11046D01*
X-3036Y11069D01*
X-3076Y11086D01*
X-3118Y11096D01*
X-3161Y11099D01*
D02*
G37*
G36*
X-136Y10637D02*
X-253D01*
X-250Y10616D01*
X-237Y10584D01*
X-216Y10557D01*
X-189Y10536D01*
X-157Y10523D01*
X-136Y10520D01*
Y10637D01*
D02*
G37*
G36*
X972D02*
X855D01*
X858Y10616D01*
X871Y10584D01*
X892Y10557D01*
X919Y10536D01*
X951Y10523D01*
X972Y10520D01*
Y10637D01*
D02*
G37*
G36*
X2357D02*
X2240D01*
X2243Y10616D01*
X2256Y10584D01*
X2277Y10557D01*
X2304Y10536D01*
X2336Y10523D01*
X2357Y10520D01*
Y10637D01*
D02*
G37*
G36*
X-1244Y10637D02*
X-1361D01*
X-1358Y10616D01*
X-1345Y10584D01*
X-1324Y10557D01*
X-1297Y10536D01*
X-1265Y10523D01*
X-1244Y10520D01*
Y10637D01*
D02*
G37*
G36*
X-1798D02*
X-1915D01*
X-1912Y10616D01*
X-1899Y10584D01*
X-1878Y10557D01*
X-1851Y10536D01*
X-1819Y10523D01*
X-1798Y10520D01*
Y10637D01*
D02*
G37*
G36*
X-2352D02*
X-2469D01*
X-2466Y10616D01*
X-2453Y10584D01*
X-2432Y10557D01*
X-2405Y10536D01*
X-2373Y10523D01*
X-2352Y10520D01*
Y10637D01*
D02*
G37*
G36*
X2080D02*
X1963D01*
X1966Y10616D01*
X1979Y10584D01*
X2000Y10557D01*
X2027Y10536D01*
X2059Y10523D01*
X2080Y10520D01*
Y10637D01*
D02*
G37*
G36*
X1526D02*
X1409D01*
X1412Y10616D01*
X1425Y10584D01*
X1446Y10557D01*
X1473Y10536D01*
X1505Y10523D01*
X1526Y10520D01*
Y10637D01*
D02*
G37*
G36*
X-690D02*
X-807D01*
X-804Y10616D01*
X-791Y10584D01*
X-770Y10557D01*
X-743Y10536D01*
X-711Y10523D01*
X-690Y10520D01*
Y10637D01*
D02*
G37*
G36*
X1803Y10637D02*
X1686D01*
X1689Y10616D01*
X1702Y10584D01*
X1723Y10557D01*
X1750Y10536D01*
X1782Y10523D01*
X1803Y10520D01*
Y10637D01*
D02*
G37*
G36*
X418D02*
X301D01*
X304Y10616D01*
X317Y10584D01*
X338Y10557D01*
X365Y10536D01*
X397Y10523D01*
X418Y10520D01*
Y10637D01*
D02*
G37*
G36*
X561D02*
X444D01*
Y10520D01*
X465Y10523D01*
X497Y10536D01*
X524Y10557D01*
X545Y10584D01*
X558Y10616D01*
X561Y10637D01*
D02*
G37*
G36*
X1946D02*
X1829D01*
Y10520D01*
X1850Y10523D01*
X1882Y10536D01*
X1909Y10557D01*
X1930Y10584D01*
X1943Y10616D01*
X1946Y10637D01*
D02*
G37*
G36*
X2223Y10637D02*
X2106D01*
Y10520D01*
X2127Y10523D01*
X2159Y10536D01*
X2186Y10557D01*
X2207Y10584D01*
X2220Y10616D01*
X2223Y10637D01*
D02*
G37*
G36*
X1669D02*
X1552D01*
Y10520D01*
X1573Y10523D01*
X1605Y10536D01*
X1632Y10557D01*
X1653Y10584D01*
X1666Y10616D01*
X1669Y10637D01*
D02*
G37*
G36*
X-547D02*
X-664D01*
Y10520D01*
X-643Y10523D01*
X-611Y10536D01*
X-584Y10557D01*
X-563Y10584D01*
X-550Y10616D01*
X-547Y10637D01*
D02*
G37*
G36*
X-1101D02*
X-1218D01*
Y10520D01*
X-1197Y10523D01*
X-1165Y10536D01*
X-1138Y10557D01*
X-1117Y10584D01*
X-1104Y10616D01*
X-1101Y10637D01*
D02*
G37*
G36*
X-1655D02*
X-1772D01*
Y10520D01*
X-1751Y10523D01*
X-1719Y10536D01*
X-1692Y10557D01*
X-1671Y10584D01*
X-1658Y10616D01*
X-1655Y10637D01*
D02*
G37*
G36*
X-2209D02*
X-2326D01*
Y10520D01*
X-2305Y10523D01*
X-2273Y10536D01*
X-2246Y10557D01*
X-2225Y10584D01*
X-2212Y10616D01*
X-2209Y10637D01*
D02*
G37*
G36*
X2500Y10637D02*
X2383D01*
Y10520D01*
X2404Y10523D01*
X2436Y10536D01*
X2463Y10557D01*
X2484Y10584D01*
X2497Y10616D01*
X2500Y10637D01*
D02*
G37*
G36*
X1115D02*
X998D01*
Y10520D01*
X1019Y10523D01*
X1051Y10536D01*
X1078Y10557D01*
X1099Y10584D01*
X1112Y10616D01*
X1115Y10637D01*
D02*
G37*
G36*
X7D02*
X-110D01*
Y10520D01*
X-89Y10523D01*
X-57Y10536D01*
X-30Y10557D01*
X-9Y10584D01*
X4Y10616D01*
X7Y10637D01*
D02*
G37*
G36*
X1262Y10782D02*
X1228Y10777D01*
X1196Y10764D01*
X1169Y10743D01*
X1148Y10716D01*
X1135Y10684D01*
X1130Y10650D01*
X1135Y10616D01*
X1148Y10584D01*
X1169Y10557D01*
X1196Y10536D01*
X1228Y10523D01*
X1262Y10518D01*
X1296Y10523D01*
X1328Y10536D01*
X1355Y10557D01*
X1376Y10584D01*
X1389Y10616D01*
X1394Y10650D01*
X1389Y10684D01*
X1376Y10716D01*
X1355Y10743D01*
X1328Y10764D01*
X1296Y10777D01*
X1262Y10782D01*
D02*
G37*
G36*
X708D02*
X674Y10777D01*
X642Y10764D01*
X615Y10743D01*
X594Y10716D01*
X581Y10684D01*
X576Y10650D01*
X581Y10616D01*
X594Y10584D01*
X615Y10557D01*
X642Y10536D01*
X674Y10523D01*
X708Y10518D01*
X742Y10523D01*
X774Y10536D01*
X801Y10557D01*
X822Y10584D01*
X835Y10616D01*
X840Y10650D01*
X835Y10684D01*
X822Y10716D01*
X801Y10743D01*
X774Y10764D01*
X742Y10777D01*
X708Y10782D01*
D02*
G37*
G36*
X154D02*
X120Y10777D01*
X88Y10764D01*
X61Y10743D01*
X40Y10716D01*
X27Y10684D01*
X22Y10650D01*
X27Y10616D01*
X40Y10584D01*
X61Y10557D01*
X88Y10536D01*
X120Y10523D01*
X154Y10518D01*
X188Y10523D01*
X220Y10536D01*
X247Y10557D01*
X268Y10584D01*
X281Y10616D01*
X286Y10650D01*
X281Y10684D01*
X268Y10716D01*
X247Y10743D01*
X220Y10764D01*
X188Y10777D01*
X154Y10782D01*
D02*
G37*
G36*
X-400D02*
X-434Y10777D01*
X-466Y10764D01*
X-493Y10743D01*
X-514Y10716D01*
X-527Y10684D01*
X-532Y10650D01*
X-527Y10616D01*
X-514Y10584D01*
X-493Y10557D01*
X-466Y10536D01*
X-434Y10523D01*
X-400Y10518D01*
X-366Y10523D01*
X-334Y10536D01*
X-307Y10557D01*
X-286Y10584D01*
X-273Y10616D01*
X-268Y10650D01*
X-273Y10684D01*
X-286Y10716D01*
X-307Y10743D01*
X-334Y10764D01*
X-366Y10777D01*
X-400Y10782D01*
D02*
G37*
G36*
X-954D02*
X-988Y10777D01*
X-1020Y10764D01*
X-1047Y10743D01*
X-1068Y10716D01*
X-1081Y10684D01*
X-1086Y10650D01*
X-1081Y10616D01*
X-1068Y10584D01*
X-1047Y10557D01*
X-1020Y10536D01*
X-988Y10523D01*
X-954Y10518D01*
X-920Y10523D01*
X-888Y10536D01*
X-861Y10557D01*
X-840Y10584D01*
X-827Y10616D01*
X-822Y10650D01*
X-827Y10684D01*
X-840Y10716D01*
X-861Y10743D01*
X-888Y10764D01*
X-920Y10777D01*
X-954Y10782D01*
D02*
G37*
G36*
X-1508D02*
X-1542Y10777D01*
X-1574Y10764D01*
X-1601Y10743D01*
X-1622Y10716D01*
X-1635Y10684D01*
X-1640Y10650D01*
X-1635Y10616D01*
X-1622Y10584D01*
X-1601Y10557D01*
X-1574Y10536D01*
X-1542Y10523D01*
X-1508Y10518D01*
X-1474Y10523D01*
X-1442Y10536D01*
X-1415Y10557D01*
X-1394Y10584D01*
X-1381Y10616D01*
X-1376Y10650D01*
X-1381Y10684D01*
X-1394Y10716D01*
X-1415Y10743D01*
X-1442Y10764D01*
X-1474Y10777D01*
X-1508Y10782D01*
D02*
G37*
G36*
X-2062D02*
X-2096Y10777D01*
X-2128Y10764D01*
X-2155Y10743D01*
X-2176Y10716D01*
X-2189Y10684D01*
X-2194Y10650D01*
X-2189Y10616D01*
X-2176Y10584D01*
X-2155Y10557D01*
X-2128Y10536D01*
X-2096Y10523D01*
X-2062Y10518D01*
X-2028Y10523D01*
X-1996Y10536D01*
X-1969Y10557D01*
X-1948Y10584D01*
X-1935Y10616D01*
X-1930Y10650D01*
X-1935Y10684D01*
X-1948Y10716D01*
X-1969Y10743D01*
X-1996Y10764D01*
X-2028Y10777D01*
X-2062Y10782D01*
D02*
G37*
G36*
X5013Y10588D02*
Y10513D01*
X5088D01*
X5087Y10523D01*
X5078Y10545D01*
X5063Y10563D01*
X5045Y10578D01*
X5023Y10587D01*
X5013Y10588D01*
D02*
G37*
G36*
X4987D02*
X4977Y10587D01*
X4955Y10578D01*
X4937Y10563D01*
X4922Y10545D01*
X4913Y10523D01*
X4912Y10513D01*
X4987D01*
Y10588D01*
D02*
G37*
G36*
X-4987D02*
Y10513D01*
X-4912D01*
X-4913Y10523D01*
X-4922Y10545D01*
X-4937Y10563D01*
X-4955Y10578D01*
X-4977Y10587D01*
X-4987Y10588D01*
D02*
G37*
G36*
X-5013D02*
X-5023Y10587D01*
X-5045Y10578D01*
X-5063Y10563D01*
X-5078Y10545D01*
X-5087Y10523D01*
X-5088Y10513D01*
X-5013D01*
Y10588D01*
D02*
G37*
G36*
X5088Y10487D02*
X5013D01*
Y10412D01*
X5023Y10413D01*
X5045Y10422D01*
X5063Y10437D01*
X5078Y10455D01*
X5087Y10477D01*
X5088Y10487D01*
D02*
G37*
G36*
X4987D02*
X4912D01*
X4913Y10477D01*
X4922Y10455D01*
X4937Y10437D01*
X4955Y10422D01*
X4977Y10413D01*
X4987Y10412D01*
Y10487D01*
D02*
G37*
G36*
X-4912D02*
X-4987D01*
Y10412D01*
X-4977Y10413D01*
X-4955Y10422D01*
X-4937Y10437D01*
X-4922Y10455D01*
X-4913Y10477D01*
X-4912Y10487D01*
D02*
G37*
G36*
X-5013D02*
X-5088D01*
X-5087Y10477D01*
X-5078Y10455D01*
X-5063Y10437D01*
X-5045Y10422D01*
X-5023Y10413D01*
X-5013Y10412D01*
Y10487D01*
D02*
G37*
G36*
X2509Y10528D02*
X2475Y10523D01*
X2443Y10510D01*
X2416Y10489D01*
X2395Y10462D01*
X2382Y10430D01*
X2377Y10396D01*
X2382Y10362D01*
X2395Y10330D01*
X2416Y10303D01*
X2443Y10282D01*
X2475Y10269D01*
X2509Y10264D01*
X2543Y10269D01*
X2575Y10282D01*
X2602Y10303D01*
X2623Y10330D01*
X2636Y10362D01*
X2641Y10396D01*
X2636Y10430D01*
X2623Y10462D01*
X2602Y10489D01*
X2575Y10510D01*
X2543Y10523D01*
X2509Y10528D01*
D02*
G37*
G36*
X2232D02*
X2198Y10523D01*
X2166Y10510D01*
X2139Y10489D01*
X2118Y10462D01*
X2105Y10430D01*
X2100Y10396D01*
X2105Y10362D01*
X2118Y10330D01*
X2139Y10303D01*
X2166Y10282D01*
X2198Y10269D01*
X2232Y10264D01*
X2266Y10269D01*
X2298Y10282D01*
X2325Y10303D01*
X2346Y10330D01*
X2359Y10362D01*
X2364Y10396D01*
X2359Y10430D01*
X2346Y10462D01*
X2325Y10489D01*
X2298Y10510D01*
X2266Y10523D01*
X2232Y10528D01*
D02*
G37*
G36*
X1955D02*
X1921Y10523D01*
X1889Y10510D01*
X1862Y10489D01*
X1841Y10462D01*
X1828Y10430D01*
X1823Y10396D01*
X1828Y10362D01*
X1841Y10330D01*
X1862Y10303D01*
X1889Y10282D01*
X1921Y10269D01*
X1955Y10264D01*
X1989Y10269D01*
X2021Y10282D01*
X2048Y10303D01*
X2069Y10330D01*
X2082Y10362D01*
X2087Y10396D01*
X2082Y10430D01*
X2069Y10462D01*
X2048Y10489D01*
X2021Y10510D01*
X1989Y10523D01*
X1955Y10528D01*
D02*
G37*
G36*
X1678D02*
X1644Y10523D01*
X1612Y10510D01*
X1585Y10489D01*
X1564Y10462D01*
X1551Y10430D01*
X1546Y10396D01*
X1551Y10362D01*
X1564Y10330D01*
X1585Y10303D01*
X1612Y10282D01*
X1644Y10269D01*
X1678Y10264D01*
X1712Y10269D01*
X1744Y10282D01*
X1771Y10303D01*
X1792Y10330D01*
X1805Y10362D01*
X1810Y10396D01*
X1805Y10430D01*
X1792Y10462D01*
X1771Y10489D01*
X1744Y10510D01*
X1712Y10523D01*
X1678Y10528D01*
D02*
G37*
G36*
X1401D02*
X1367Y10523D01*
X1335Y10510D01*
X1308Y10489D01*
X1287Y10462D01*
X1274Y10430D01*
X1269Y10396D01*
X1274Y10362D01*
X1287Y10330D01*
X1308Y10303D01*
X1335Y10282D01*
X1367Y10269D01*
X1401Y10264D01*
X1435Y10269D01*
X1467Y10282D01*
X1494Y10303D01*
X1515Y10330D01*
X1528Y10362D01*
X1533Y10396D01*
X1528Y10430D01*
X1515Y10462D01*
X1494Y10489D01*
X1467Y10510D01*
X1435Y10523D01*
X1401Y10528D01*
D02*
G37*
G36*
X1124D02*
X1090Y10523D01*
X1058Y10510D01*
X1031Y10489D01*
X1010Y10462D01*
X997Y10430D01*
X992Y10396D01*
X997Y10362D01*
X1010Y10330D01*
X1031Y10303D01*
X1058Y10282D01*
X1090Y10269D01*
X1124Y10264D01*
X1158Y10269D01*
X1190Y10282D01*
X1217Y10303D01*
X1238Y10330D01*
X1251Y10362D01*
X1256Y10396D01*
X1251Y10430D01*
X1238Y10462D01*
X1217Y10489D01*
X1190Y10510D01*
X1158Y10523D01*
X1124Y10528D01*
D02*
G37*
G36*
X847D02*
X813Y10523D01*
X781Y10510D01*
X754Y10489D01*
X733Y10462D01*
X720Y10430D01*
X715Y10396D01*
X720Y10362D01*
X733Y10330D01*
X754Y10303D01*
X781Y10282D01*
X813Y10269D01*
X847Y10264D01*
X881Y10269D01*
X913Y10282D01*
X940Y10303D01*
X961Y10330D01*
X974Y10362D01*
X979Y10396D01*
X974Y10430D01*
X961Y10462D01*
X940Y10489D01*
X913Y10510D01*
X881Y10523D01*
X847Y10528D01*
D02*
G37*
G36*
X570D02*
X536Y10523D01*
X504Y10510D01*
X477Y10489D01*
X456Y10462D01*
X443Y10430D01*
X438Y10396D01*
X443Y10362D01*
X456Y10330D01*
X477Y10303D01*
X504Y10282D01*
X536Y10269D01*
X570Y10264D01*
X604Y10269D01*
X636Y10282D01*
X663Y10303D01*
X684Y10330D01*
X697Y10362D01*
X702Y10396D01*
X697Y10430D01*
X684Y10462D01*
X663Y10489D01*
X636Y10510D01*
X604Y10523D01*
X570Y10528D01*
D02*
G37*
G36*
X293D02*
X259Y10523D01*
X227Y10510D01*
X200Y10489D01*
X179Y10462D01*
X166Y10430D01*
X161Y10396D01*
X166Y10362D01*
X179Y10330D01*
X200Y10303D01*
X227Y10282D01*
X259Y10269D01*
X293Y10264D01*
X327Y10269D01*
X359Y10282D01*
X386Y10303D01*
X407Y10330D01*
X420Y10362D01*
X425Y10396D01*
X420Y10430D01*
X407Y10462D01*
X386Y10489D01*
X359Y10510D01*
X327Y10523D01*
X293Y10528D01*
D02*
G37*
G36*
X16D02*
X-18Y10523D01*
X-50Y10510D01*
X-77Y10489D01*
X-98Y10462D01*
X-111Y10430D01*
X-116Y10396D01*
X-111Y10362D01*
X-98Y10330D01*
X-77Y10303D01*
X-50Y10282D01*
X-18Y10269D01*
X16Y10264D01*
X50Y10269D01*
X82Y10282D01*
X109Y10303D01*
X130Y10330D01*
X143Y10362D01*
X148Y10396D01*
X143Y10430D01*
X130Y10462D01*
X109Y10489D01*
X82Y10510D01*
X50Y10523D01*
X16Y10528D01*
D02*
G37*
G36*
X-261D02*
X-295Y10523D01*
X-327Y10510D01*
X-354Y10489D01*
X-375Y10462D01*
X-388Y10430D01*
X-393Y10396D01*
X-388Y10362D01*
X-375Y10330D01*
X-354Y10303D01*
X-327Y10282D01*
X-295Y10269D01*
X-261Y10264D01*
X-227Y10269D01*
X-195Y10282D01*
X-168Y10303D01*
X-147Y10330D01*
X-134Y10362D01*
X-129Y10396D01*
X-134Y10430D01*
X-147Y10462D01*
X-168Y10489D01*
X-195Y10510D01*
X-227Y10523D01*
X-261Y10528D01*
D02*
G37*
G36*
X-538D02*
X-572Y10523D01*
X-604Y10510D01*
X-631Y10489D01*
X-652Y10462D01*
X-665Y10430D01*
X-670Y10396D01*
X-665Y10362D01*
X-652Y10330D01*
X-631Y10303D01*
X-604Y10282D01*
X-572Y10269D01*
X-538Y10264D01*
X-504Y10269D01*
X-472Y10282D01*
X-445Y10303D01*
X-424Y10330D01*
X-411Y10362D01*
X-406Y10396D01*
X-411Y10430D01*
X-424Y10462D01*
X-445Y10489D01*
X-472Y10510D01*
X-504Y10523D01*
X-538Y10528D01*
D02*
G37*
G36*
X-815D02*
X-849Y10523D01*
X-881Y10510D01*
X-908Y10489D01*
X-929Y10462D01*
X-942Y10430D01*
X-947Y10396D01*
X-942Y10362D01*
X-929Y10330D01*
X-908Y10303D01*
X-881Y10282D01*
X-849Y10269D01*
X-815Y10264D01*
X-781Y10269D01*
X-749Y10282D01*
X-722Y10303D01*
X-701Y10330D01*
X-688Y10362D01*
X-683Y10396D01*
X-688Y10430D01*
X-701Y10462D01*
X-722Y10489D01*
X-749Y10510D01*
X-781Y10523D01*
X-815Y10528D01*
D02*
G37*
G36*
X-1092D02*
X-1126Y10523D01*
X-1158Y10510D01*
X-1185Y10489D01*
X-1206Y10462D01*
X-1219Y10430D01*
X-1224Y10396D01*
X-1219Y10362D01*
X-1206Y10330D01*
X-1185Y10303D01*
X-1158Y10282D01*
X-1126Y10269D01*
X-1092Y10264D01*
X-1058Y10269D01*
X-1026Y10282D01*
X-999Y10303D01*
X-978Y10330D01*
X-965Y10362D01*
X-960Y10396D01*
X-965Y10430D01*
X-978Y10462D01*
X-999Y10489D01*
X-1026Y10510D01*
X-1058Y10523D01*
X-1092Y10528D01*
D02*
G37*
G36*
X-1369D02*
X-1403Y10523D01*
X-1435Y10510D01*
X-1462Y10489D01*
X-1483Y10462D01*
X-1496Y10430D01*
X-1501Y10396D01*
X-1496Y10362D01*
X-1483Y10330D01*
X-1462Y10303D01*
X-1435Y10282D01*
X-1403Y10269D01*
X-1369Y10264D01*
X-1335Y10269D01*
X-1303Y10282D01*
X-1276Y10303D01*
X-1255Y10330D01*
X-1242Y10362D01*
X-1237Y10396D01*
X-1242Y10430D01*
X-1255Y10462D01*
X-1276Y10489D01*
X-1303Y10510D01*
X-1335Y10523D01*
X-1369Y10528D01*
D02*
G37*
G36*
X-1646D02*
X-1680Y10523D01*
X-1712Y10510D01*
X-1739Y10489D01*
X-1760Y10462D01*
X-1773Y10430D01*
X-1778Y10396D01*
X-1773Y10362D01*
X-1760Y10330D01*
X-1739Y10303D01*
X-1712Y10282D01*
X-1680Y10269D01*
X-1646Y10264D01*
X-1612Y10269D01*
X-1580Y10282D01*
X-1553Y10303D01*
X-1532Y10330D01*
X-1519Y10362D01*
X-1514Y10396D01*
X-1519Y10430D01*
X-1532Y10462D01*
X-1553Y10489D01*
X-1580Y10510D01*
X-1612Y10523D01*
X-1646Y10528D01*
D02*
G37*
G36*
X-1923D02*
X-1957Y10523D01*
X-1989Y10510D01*
X-2016Y10489D01*
X-2037Y10462D01*
X-2050Y10430D01*
X-2055Y10396D01*
X-2050Y10362D01*
X-2037Y10330D01*
X-2016Y10303D01*
X-1989Y10282D01*
X-1957Y10269D01*
X-1923Y10264D01*
X-1889Y10269D01*
X-1857Y10282D01*
X-1830Y10303D01*
X-1809Y10330D01*
X-1796Y10362D01*
X-1791Y10396D01*
X-1796Y10430D01*
X-1809Y10462D01*
X-1830Y10489D01*
X-1857Y10510D01*
X-1889Y10523D01*
X-1923Y10528D01*
D02*
G37*
G36*
X-2200D02*
X-2234Y10523D01*
X-2266Y10510D01*
X-2293Y10489D01*
X-2314Y10462D01*
X-2327Y10430D01*
X-2332Y10396D01*
X-2327Y10362D01*
X-2314Y10330D01*
X-2293Y10303D01*
X-2266Y10282D01*
X-2234Y10269D01*
X-2200Y10264D01*
X-2166Y10269D01*
X-2134Y10282D01*
X-2107Y10303D01*
X-2086Y10330D01*
X-2073Y10362D01*
X-2068Y10396D01*
X-2073Y10430D01*
X-2086Y10462D01*
X-2107Y10489D01*
X-2134Y10510D01*
X-2166Y10523D01*
X-2200Y10528D01*
D02*
G37*
G36*
X-2477D02*
X-2511Y10523D01*
X-2543Y10510D01*
X-2570Y10489D01*
X-2591Y10462D01*
X-2604Y10430D01*
X-2609Y10396D01*
X-2604Y10362D01*
X-2591Y10330D01*
X-2570Y10303D01*
X-2543Y10282D01*
X-2511Y10269D01*
X-2477Y10264D01*
X-2443Y10269D01*
X-2411Y10282D01*
X-2384Y10303D01*
X-2363Y10330D01*
X-2350Y10362D01*
X-2345Y10396D01*
X-2350Y10430D01*
X-2363Y10462D01*
X-2384Y10489D01*
X-2411Y10510D01*
X-2443Y10523D01*
X-2477Y10528D01*
D02*
G37*
G36*
X-4900Y10124D02*
X-4933Y10120D01*
X-4963Y10107D01*
X-4989Y10087D01*
X-5010Y10061D01*
X-5022Y10030D01*
X-5026Y9997D01*
X-5022Y9965D01*
X-5010Y9934D01*
X-4989Y9908D01*
X-4963Y9888D01*
X-4933Y9875D01*
X-4900Y9871D01*
X-4867Y9875D01*
X-4837Y9888D01*
X-4811Y9908D01*
X-4790Y9934D01*
X-4778Y9965D01*
X-4774Y9997D01*
X-4778Y10030D01*
X-4790Y10061D01*
X-4811Y10087D01*
X-4837Y10107D01*
X-4867Y10120D01*
X-4900Y10124D01*
D02*
G37*
G36*
X4900Y9924D02*
X4867Y9920D01*
X4837Y9907D01*
X4811Y9887D01*
X4790Y9861D01*
X4778Y9830D01*
X4774Y9797D01*
X4778Y9765D01*
X4790Y9734D01*
X4811Y9708D01*
X4837Y9688D01*
X4867Y9675D01*
X4900Y9671D01*
X4933Y9675D01*
X4963Y9688D01*
X4989Y9708D01*
X5010Y9734D01*
X5022Y9765D01*
X5026Y9797D01*
X5022Y9830D01*
X5010Y9861D01*
X4989Y9887D01*
X4963Y9907D01*
X4933Y9920D01*
X4900Y9924D01*
D02*
G37*
G36*
X4913Y9422D02*
Y9310D01*
X5025D01*
X5022Y9330D01*
X5010Y9361D01*
X4989Y9387D01*
X4963Y9407D01*
X4933Y9420D01*
X4913Y9422D01*
D02*
G37*
G36*
X4887D02*
X4867Y9420D01*
X4837Y9407D01*
X4811Y9387D01*
X4790Y9361D01*
X4778Y9330D01*
X4775Y9310D01*
X4887D01*
Y9422D01*
D02*
G37*
G36*
X1750Y10027D02*
X1691Y10022D01*
X1634Y10008D01*
X1579Y9986D01*
X1529Y9955D01*
X1484Y9916D01*
X1445Y9871D01*
X1414Y9821D01*
X1392Y9766D01*
X1378Y9709D01*
X1373Y9650D01*
X1378Y9591D01*
X1392Y9534D01*
X1414Y9479D01*
X1445Y9429D01*
X1484Y9384D01*
X1529Y9345D01*
X1579Y9314D01*
X1634Y9292D01*
X1691Y9278D01*
X1750Y9273D01*
X1809Y9278D01*
X1866Y9292D01*
X1921Y9314D01*
X1971Y9345D01*
X2016Y9384D01*
X2055Y9429D01*
X2086Y9479D01*
X2108Y9534D01*
X2122Y9591D01*
X2127Y9650D01*
X2122Y9709D01*
X2108Y9766D01*
X2086Y9821D01*
X2055Y9871D01*
X2016Y9916D01*
X1971Y9955D01*
X1921Y9986D01*
X1866Y10008D01*
X1809Y10022D01*
X1750Y10027D01*
D02*
G37*
G36*
X-1750D02*
X-1809Y10022D01*
X-1866Y10008D01*
X-1921Y9986D01*
X-1971Y9955D01*
X-2016Y9916D01*
X-2055Y9871D01*
X-2086Y9821D01*
X-2108Y9766D01*
X-2122Y9709D01*
X-2127Y9650D01*
X-2122Y9591D01*
X-2108Y9534D01*
X-2086Y9479D01*
X-2055Y9429D01*
X-2016Y9384D01*
X-1971Y9345D01*
X-1921Y9314D01*
X-1866Y9292D01*
X-1809Y9278D01*
X-1750Y9273D01*
X-1691Y9278D01*
X-1634Y9292D01*
X-1579Y9314D01*
X-1529Y9345D01*
X-1484Y9384D01*
X-1445Y9429D01*
X-1414Y9479D01*
X-1392Y9534D01*
X-1378Y9591D01*
X-1373Y9650D01*
X-1378Y9709D01*
X-1392Y9766D01*
X-1414Y9821D01*
X-1445Y9871D01*
X-1484Y9916D01*
X-1529Y9955D01*
X-1579Y9986D01*
X-1634Y10008D01*
X-1691Y10022D01*
X-1750Y10027D01*
D02*
G37*
G36*
X5025Y9285D02*
X4913D01*
Y9173D01*
X4933Y9175D01*
X4963Y9188D01*
X4989Y9208D01*
X5010Y9234D01*
X5022Y9265D01*
X5025Y9285D01*
D02*
G37*
G36*
X4887D02*
X4775D01*
X4778Y9265D01*
X4790Y9234D01*
X4811Y9208D01*
X4837Y9188D01*
X4867Y9175D01*
X4887Y9173D01*
Y9285D01*
D02*
G37*
G36*
X-614Y9490D02*
X-637Y9487D01*
X-659Y9478D01*
X-677Y9463D01*
X-691Y9445D01*
X-700Y9423D01*
X-703Y9400D01*
X-700Y9377D01*
X-691Y9355D01*
X-677Y9337D01*
X-659Y9322D01*
X-637Y9313D01*
X-614Y9310D01*
X-591Y9313D01*
X-587Y9315D01*
X-343Y9071D01*
X-330Y9062D01*
X-314Y9059D01*
X1955D01*
X1971Y9062D01*
X1984Y9071D01*
X2072Y9159D01*
X2291D01*
X2292Y9155D01*
X2307Y9137D01*
X2325Y9122D01*
X2347Y9113D01*
X2370Y9110D01*
X2393Y9113D01*
X2415Y9122D01*
X2433Y9137D01*
X2448Y9155D01*
X2457Y9177D01*
X2460Y9200D01*
X2457Y9223D01*
X2448Y9245D01*
X2433Y9263D01*
X2415Y9278D01*
X2393Y9287D01*
X2370Y9290D01*
X2347Y9287D01*
X2325Y9278D01*
X2307Y9263D01*
X2292Y9245D01*
X2291Y9241D01*
X2055D01*
X2039Y9238D01*
X2026Y9229D01*
X1938Y9141D01*
X-297D01*
X-529Y9373D01*
X-527Y9377D01*
X-524Y9400D01*
X-527Y9423D01*
X-536Y9445D01*
X-550Y9463D01*
X-569Y9478D01*
X-591Y9487D01*
X-614Y9490D01*
D02*
G37*
G36*
X-2700Y8990D02*
X-2723Y8987D01*
X-2745Y8978D01*
X-2763Y8963D01*
X-2778Y8945D01*
X-2787Y8923D01*
X-2790Y8900D01*
X-2787Y8877D01*
X-2785Y8873D01*
X-2929Y8729D01*
X-2938Y8716D01*
X-2941Y8700D01*
Y7589D01*
X-2945Y7587D01*
X-2963Y7573D01*
X-2978Y7554D01*
X-2987Y7533D01*
X-2990Y7510D01*
X-2987Y7486D01*
X-2978Y7465D01*
X-2963Y7446D01*
X-2945Y7432D01*
X-2923Y7423D01*
X-2900Y7420D01*
X-2877Y7423D01*
X-2855Y7432D01*
X-2837Y7446D01*
X-2822Y7465D01*
X-2813Y7486D01*
X-2810Y7510D01*
X-2813Y7533D01*
X-2822Y7554D01*
X-2837Y7573D01*
X-2855Y7587D01*
X-2859Y7589D01*
Y8683D01*
X-2727Y8815D01*
X-2723Y8813D01*
X-2700Y8810D01*
X-2677Y8813D01*
X-2655Y8822D01*
X-2637Y8837D01*
X-2622Y8855D01*
X-2613Y8877D01*
X-2610Y8900D01*
X-2613Y8923D01*
X-2622Y8945D01*
X-2637Y8963D01*
X-2655Y8978D01*
X-2677Y8987D01*
X-2700Y8990D01*
D02*
G37*
G36*
X4900Y8924D02*
X4867Y8920D01*
X4837Y8907D01*
X4811Y8887D01*
X4790Y8861D01*
X4778Y8830D01*
X4774Y8797D01*
X4778Y8765D01*
X4790Y8734D01*
X4811Y8708D01*
X4837Y8688D01*
X4867Y8675D01*
X4900Y8671D01*
X4933Y8675D01*
X4963Y8688D01*
X4989Y8708D01*
X5010Y8734D01*
X5022Y8765D01*
X5026Y8797D01*
X5022Y8830D01*
X5010Y8861D01*
X4989Y8887D01*
X4963Y8907D01*
X4933Y8920D01*
X4900Y8924D01*
D02*
G37*
G36*
X-4887Y8725D02*
Y8613D01*
X-4775D01*
X-4778Y8633D01*
X-4790Y8663D01*
X-4811Y8689D01*
X-4837Y8710D01*
X-4867Y8722D01*
X-4887Y8725D01*
D02*
G37*
G36*
X-4913D02*
X-4933Y8722D01*
X-4963Y8710D01*
X-4989Y8689D01*
X-5010Y8663D01*
X-5022Y8633D01*
X-5025Y8613D01*
X-4913D01*
Y8725D01*
D02*
G37*
G36*
X-4775Y8587D02*
X-4887D01*
Y8475D01*
X-4867Y8478D01*
X-4837Y8490D01*
X-4811Y8511D01*
X-4790Y8537D01*
X-4778Y8567D01*
X-4775Y8587D01*
D02*
G37*
G36*
X-4913D02*
X-5025D01*
X-5022Y8567D01*
X-5010Y8537D01*
X-4989Y8511D01*
X-4963Y8490D01*
X-4933Y8478D01*
X-4913Y8475D01*
Y8587D01*
D02*
G37*
G36*
X4913Y8422D02*
Y8310D01*
X5025D01*
X5022Y8330D01*
X5010Y8361D01*
X4989Y8387D01*
X4963Y8407D01*
X4933Y8420D01*
X4913Y8422D01*
D02*
G37*
G36*
X4887D02*
X4867Y8420D01*
X4837Y8407D01*
X4811Y8387D01*
X4790Y8361D01*
X4778Y8330D01*
X4775Y8310D01*
X4887D01*
Y8422D01*
D02*
G37*
G36*
X5025Y8285D02*
X4913D01*
Y8173D01*
X4933Y8175D01*
X4963Y8188D01*
X4989Y8208D01*
X5010Y8234D01*
X5022Y8265D01*
X5025Y8285D01*
D02*
G37*
G36*
X4887D02*
X4775D01*
X4778Y8265D01*
X4790Y8234D01*
X4811Y8208D01*
X4837Y8188D01*
X4867Y8175D01*
X4887Y8173D01*
Y8285D01*
D02*
G37*
G36*
X-3300Y8521D02*
X-3323Y8518D01*
X-3345Y8509D01*
X-3363Y8495D01*
X-3378Y8476D01*
X-3387Y8455D01*
X-3390Y8432D01*
X-3387Y8408D01*
X-3378Y8387D01*
X-3363Y8368D01*
X-3345Y8354D01*
X-3341Y8352D01*
Y8082D01*
X-3345Y8080D01*
X-3363Y8066D01*
X-3378Y8047D01*
X-3387Y8026D01*
X-3390Y8003D01*
X-3387Y7979D01*
X-3378Y7958D01*
X-3363Y7939D01*
X-3345Y7925D01*
X-3323Y7916D01*
X-3300Y7913D01*
X-3277Y7916D01*
X-3255Y7925D01*
X-3237Y7939D01*
X-3222Y7958D01*
X-3213Y7979D01*
X-3210Y8003D01*
X-3213Y8026D01*
X-3222Y8047D01*
X-3237Y8066D01*
X-3255Y8080D01*
X-3259Y8082D01*
Y8352D01*
X-3255Y8354D01*
X-3237Y8368D01*
X-3222Y8387D01*
X-3213Y8408D01*
X-3210Y8432D01*
X-3213Y8455D01*
X-3222Y8476D01*
X-3237Y8495D01*
X-3255Y8509D01*
X-3277Y8518D01*
X-3300Y8521D01*
D02*
G37*
G36*
X-4900Y8129D02*
X-4933Y8125D01*
X-4963Y8112D01*
X-4989Y8092D01*
X-5010Y8066D01*
X-5022Y8035D01*
X-5026Y8003D01*
X-5022Y7970D01*
X-5010Y7939D01*
X-4989Y7913D01*
X-4963Y7893D01*
X-4933Y7880D01*
X-4900Y7876D01*
X-4867Y7880D01*
X-4837Y7893D01*
X-4811Y7913D01*
X-4790Y7939D01*
X-4778Y7970D01*
X-4774Y8003D01*
X-4778Y8035D01*
X-4790Y8066D01*
X-4811Y8092D01*
X-4837Y8112D01*
X-4867Y8125D01*
X-4900Y8129D01*
D02*
G37*
G36*
X4900Y7924D02*
X4867Y7920D01*
X4837Y7907D01*
X4811Y7887D01*
X4790Y7861D01*
X4778Y7830D01*
X4774Y7797D01*
X4778Y7765D01*
X4790Y7734D01*
X4811Y7708D01*
X4837Y7688D01*
X4867Y7675D01*
X4900Y7671D01*
X4933Y7675D01*
X4963Y7688D01*
X4989Y7708D01*
X5010Y7734D01*
X5022Y7765D01*
X5026Y7797D01*
X5022Y7830D01*
X5010Y7861D01*
X4989Y7887D01*
X4963Y7907D01*
X4933Y7920D01*
X4900Y7924D01*
D02*
G37*
G36*
X-3100Y8990D02*
X-3123Y8987D01*
X-3145Y8978D01*
X-3163Y8963D01*
X-3178Y8945D01*
X-3187Y8923D01*
X-3190Y8900D01*
X-3187Y8877D01*
X-3178Y8855D01*
X-3163Y8837D01*
X-3145Y8822D01*
X-3141Y8821D01*
Y7627D01*
X-3173Y7595D01*
X-3177Y7596D01*
X-3200Y7599D01*
X-3223Y7596D01*
X-3245Y7587D01*
X-3263Y7573D01*
X-3278Y7554D01*
X-3287Y7533D01*
X-3290Y7510D01*
X-3287Y7486D01*
X-3278Y7465D01*
X-3263Y7446D01*
X-3245Y7432D01*
X-3223Y7423D01*
X-3200Y7420D01*
X-3177Y7423D01*
X-3155Y7432D01*
X-3137Y7446D01*
X-3122Y7465D01*
X-3113Y7486D01*
X-3110Y7510D01*
X-3113Y7533D01*
X-3115Y7536D01*
X-3071Y7580D01*
X-3062Y7594D01*
X-3059Y7610D01*
Y8821D01*
X-3055Y8822D01*
X-3037Y8837D01*
X-3022Y8855D01*
X-3013Y8877D01*
X-3010Y8900D01*
X-3013Y8923D01*
X-3022Y8945D01*
X-3037Y8963D01*
X-3055Y8978D01*
X-3077Y8987D01*
X-3100Y8990D01*
D02*
G37*
G36*
X1124Y8387D02*
X1101Y8384D01*
X1079Y8375D01*
X1061Y8361D01*
X1046Y8342D01*
X1037Y8321D01*
X1034Y8297D01*
X1037Y8274D01*
X1046Y8253D01*
X1061Y8234D01*
X1079Y8220D01*
X1083Y8218D01*
Y7559D01*
X1070Y7555D01*
X1063Y7563D01*
X1045Y7578D01*
X1023Y7587D01*
X1013Y7588D01*
Y7500D01*
Y7412D01*
X1023Y7413D01*
X1045Y7422D01*
X1063Y7437D01*
X1070Y7445D01*
X1083Y7441D01*
Y6610D01*
X569Y6097D01*
X510D01*
X509Y6100D01*
X494Y6119D01*
X476Y6133D01*
X454Y6142D01*
X431Y6145D01*
X408Y6142D01*
X386Y6133D01*
X368Y6119D01*
X353Y6100D01*
X344Y6079D01*
X341Y6056D01*
X344Y6032D01*
X353Y6011D01*
X368Y5992D01*
X386Y5978D01*
X408Y5969D01*
X431Y5966D01*
X454Y5969D01*
X476Y5978D01*
X494Y5992D01*
X509Y6011D01*
X510Y6014D01*
X586D01*
X602Y6017D01*
X616Y6026D01*
X1153Y6564D01*
X1162Y6577D01*
X1165Y6593D01*
Y8218D01*
X1169Y8220D01*
X1187Y8234D01*
X1202Y8253D01*
X1211Y8274D01*
X1214Y8297D01*
X1211Y8321D01*
X1202Y8342D01*
X1187Y8361D01*
X1169Y8375D01*
X1147Y8384D01*
X1124Y8387D01*
D02*
G37*
G36*
X987Y7588D02*
X977Y7587D01*
X955Y7578D01*
X937Y7563D01*
X922Y7545D01*
X913Y7523D01*
X912Y7513D01*
X987D01*
Y7588D01*
D02*
G37*
G36*
X-1487D02*
Y7513D01*
X-1412D01*
X-1413Y7523D01*
X-1422Y7545D01*
X-1437Y7563D01*
X-1455Y7578D01*
X-1477Y7587D01*
X-1487Y7588D01*
D02*
G37*
G36*
X-1513D02*
X-1523Y7587D01*
X-1545Y7578D01*
X-1563Y7563D01*
X-1578Y7545D01*
X-1587Y7523D01*
X-1588Y7513D01*
X-1513D01*
Y7588D01*
D02*
G37*
G36*
X-3700Y8346D02*
X-3723Y8343D01*
X-3745Y8334D01*
X-3763Y8320D01*
X-3778Y8301D01*
X-3787Y8280D01*
X-3790Y8257D01*
X-3787Y8233D01*
X-3778Y8212D01*
X-3763Y8193D01*
X-3745Y8179D01*
X-3741Y8177D01*
Y7589D01*
X-3745Y7587D01*
X-3763Y7573D01*
X-3778Y7554D01*
X-3787Y7533D01*
X-3790Y7510D01*
X-3787Y7486D01*
X-3778Y7465D01*
X-3763Y7446D01*
X-3745Y7432D01*
X-3723Y7423D01*
X-3700Y7420D01*
X-3677Y7423D01*
X-3655Y7432D01*
X-3637Y7446D01*
X-3622Y7465D01*
X-3613Y7486D01*
X-3610Y7510D01*
X-3613Y7533D01*
X-3622Y7554D01*
X-3637Y7573D01*
X-3655Y7587D01*
X-3659Y7589D01*
Y8177D01*
X-3655Y8179D01*
X-3637Y8193D01*
X-3622Y8212D01*
X-3613Y8233D01*
X-3610Y8257D01*
X-3613Y8280D01*
X-3622Y8301D01*
X-3637Y8320D01*
X-3655Y8334D01*
X-3677Y8343D01*
X-3700Y8346D01*
D02*
G37*
G36*
X-4887Y7525D02*
Y7413D01*
X-4775D01*
X-4778Y7433D01*
X-4790Y7463D01*
X-4811Y7489D01*
X-4837Y7510D01*
X-4867Y7522D01*
X-4887Y7525D01*
D02*
G37*
G36*
X-4913D02*
X-4933Y7522D01*
X-4963Y7510D01*
X-4989Y7489D01*
X-5010Y7463D01*
X-5022Y7433D01*
X-5025Y7413D01*
X-4913D01*
Y7525D01*
D02*
G37*
G36*
X-1412Y7487D02*
X-1487D01*
Y7412D01*
X-1477Y7413D01*
X-1455Y7422D01*
X-1437Y7437D01*
X-1422Y7455D01*
X-1413Y7477D01*
X-1412Y7487D01*
D02*
G37*
G36*
X-1513D02*
X-1588D01*
X-1587Y7477D01*
X-1578Y7455D01*
X-1563Y7437D01*
X-1545Y7422D01*
X-1523Y7413D01*
X-1513Y7412D01*
Y7487D01*
D02*
G37*
G36*
X987D02*
X912D01*
X913Y7477D01*
X922Y7455D01*
X937Y7437D01*
X955Y7422D01*
X977Y7413D01*
X987Y7412D01*
Y7487D01*
D02*
G37*
G36*
X-906Y7590D02*
X-929Y7587D01*
X-951Y7578D01*
X-969Y7563D01*
X-984Y7545D01*
X-993Y7523D01*
X-996Y7500D01*
X-993Y7477D01*
X-984Y7455D01*
X-969Y7437D01*
X-951Y7422D01*
X-929Y7413D01*
X-906Y7410D01*
X-883Y7413D01*
X-861Y7422D01*
X-843Y7437D01*
X-828Y7455D01*
X-828Y7456D01*
X-437D01*
X-434Y7450D01*
X-420Y7431D01*
X-402Y7417D01*
X-380Y7408D01*
X-357Y7405D01*
X-333Y7408D01*
X-312Y7417D01*
X-293Y7431D01*
X-279Y7450D01*
X-270Y7471D01*
X-267Y7494D01*
X-270Y7518D01*
X-279Y7539D01*
X-293Y7558D01*
X-312Y7572D01*
X-333Y7581D01*
X-357Y7584D01*
X-380Y7581D01*
X-402Y7572D01*
X-420Y7558D01*
X-434Y7539D01*
X-435Y7538D01*
X-826D01*
X-828Y7545D01*
X-843Y7563D01*
X-861Y7578D01*
X-883Y7587D01*
X-906Y7590D01*
D02*
G37*
G36*
X4913Y7422D02*
Y7310D01*
X5025D01*
X5022Y7330D01*
X5010Y7361D01*
X4989Y7387D01*
X4963Y7407D01*
X4933Y7420D01*
X4913Y7422D01*
D02*
G37*
G36*
X4887D02*
X4867Y7420D01*
X4837Y7407D01*
X4811Y7387D01*
X4790Y7361D01*
X4778Y7330D01*
X4775Y7310D01*
X4887D01*
Y7422D01*
D02*
G37*
G36*
X-4775Y7387D02*
X-4887D01*
Y7275D01*
X-4867Y7278D01*
X-4837Y7290D01*
X-4811Y7311D01*
X-4790Y7337D01*
X-4778Y7367D01*
X-4775Y7387D01*
D02*
G37*
G36*
X-4913D02*
X-5025D01*
X-5022Y7367D01*
X-5010Y7337D01*
X-4989Y7311D01*
X-4963Y7290D01*
X-4933Y7278D01*
X-4913Y7275D01*
Y7387D01*
D02*
G37*
G36*
X-2464Y7312D02*
Y7237D01*
X-2389D01*
X-2390Y7247D01*
X-2399Y7269D01*
X-2414Y7287D01*
X-2432Y7302D01*
X-2454Y7311D01*
X-2464Y7312D01*
D02*
G37*
G36*
X-2490D02*
X-2500Y7311D01*
X-2522Y7302D01*
X-2540Y7287D01*
X-2555Y7269D01*
X-2564Y7247D01*
X-2565Y7237D01*
X-2490D01*
Y7312D01*
D02*
G37*
G36*
X5025Y7285D02*
X4913D01*
Y7173D01*
X4933Y7175D01*
X4963Y7188D01*
X4989Y7208D01*
X5010Y7234D01*
X5022Y7265D01*
X5025Y7285D01*
D02*
G37*
G36*
X4887D02*
X4775D01*
X4778Y7265D01*
X4790Y7234D01*
X4811Y7208D01*
X4837Y7188D01*
X4867Y7175D01*
X4887Y7173D01*
Y7285D01*
D02*
G37*
G36*
X2713Y7232D02*
Y7157D01*
X2788D01*
X2787Y7167D01*
X2778Y7189D01*
X2763Y7207D01*
X2745Y7222D01*
X2723Y7231D01*
X2713Y7232D01*
D02*
G37*
G36*
X2687D02*
X2677Y7231D01*
X2655Y7222D01*
X2637Y7207D01*
X2622Y7189D01*
X2613Y7167D01*
X2612Y7157D01*
X2687D01*
Y7232D01*
D02*
G37*
G36*
X-2389Y7211D02*
X-2464D01*
Y7136D01*
X-2454Y7137D01*
X-2432Y7146D01*
X-2414Y7161D01*
X-2399Y7179D01*
X-2390Y7201D01*
X-2389Y7211D01*
D02*
G37*
G36*
X-2490D02*
X-2565D01*
X-2564Y7201D01*
X-2555Y7179D01*
X-2540Y7161D01*
X-2522Y7146D01*
X-2500Y7137D01*
X-2490Y7136D01*
Y7211D01*
D02*
G37*
G36*
X2788Y7131D02*
X2713D01*
Y7056D01*
X2723Y7057D01*
X2745Y7066D01*
X2763Y7081D01*
X2778Y7099D01*
X2787Y7121D01*
X2788Y7131D01*
D02*
G37*
G36*
X2687D02*
X2612D01*
X2613Y7121D01*
X2622Y7099D01*
X2637Y7081D01*
X2655Y7066D01*
X2677Y7057D01*
X2687Y7056D01*
Y7131D01*
D02*
G37*
G36*
X-3500Y8990D02*
X-3523Y8987D01*
X-3545Y8978D01*
X-3563Y8963D01*
X-3578Y8945D01*
X-3587Y8923D01*
X-3590Y8900D01*
X-3587Y8877D01*
X-3578Y8855D01*
X-3563Y8837D01*
X-3545Y8822D01*
X-3541Y8821D01*
Y7017D01*
X-3573Y6985D01*
X-3577Y6987D01*
X-3600Y6990D01*
X-3623Y6987D01*
X-3645Y6978D01*
X-3663Y6963D01*
X-3678Y6945D01*
X-3687Y6923D01*
X-3690Y6900D01*
X-3687Y6877D01*
X-3678Y6855D01*
X-3663Y6837D01*
X-3645Y6822D01*
X-3623Y6813D01*
X-3600Y6810D01*
X-3577Y6813D01*
X-3555Y6822D01*
X-3537Y6837D01*
X-3522Y6855D01*
X-3513Y6877D01*
X-3510Y6900D01*
X-3513Y6923D01*
X-3515Y6927D01*
X-3471Y6971D01*
X-3462Y6984D01*
X-3459Y7000D01*
Y8821D01*
X-3455Y8822D01*
X-3437Y8837D01*
X-3422Y8855D01*
X-3413Y8877D01*
X-3410Y8900D01*
X-3413Y8923D01*
X-3422Y8945D01*
X-3437Y8963D01*
X-3455Y8978D01*
X-3477Y8987D01*
X-3500Y8990D01*
D02*
G37*
G36*
X-2843Y6990D02*
X-2867Y6987D01*
X-2888Y6978D01*
X-2907Y6963D01*
X-2916Y6951D01*
X-3291D01*
X-3300Y6963D01*
X-3319Y6978D01*
X-3340Y6987D01*
X-3363Y6990D01*
X-3387Y6987D01*
X-3408Y6978D01*
X-3427Y6963D01*
X-3441Y6945D01*
X-3450Y6923D01*
X-3453Y6900D01*
X-3450Y6877D01*
X-3441Y6855D01*
X-3427Y6837D01*
X-3415Y6827D01*
Y6600D01*
X-3411Y6580D01*
X-3400Y6564D01*
X-3288Y6452D01*
X-3290Y6436D01*
X-3287Y6413D01*
X-3278Y6392D01*
X-3263Y6373D01*
X-3245Y6359D01*
X-3223Y6350D01*
X-3200Y6347D01*
X-3177Y6350D01*
X-3155Y6359D01*
X-3137Y6373D01*
X-3122Y6392D01*
X-3113Y6413D01*
X-3110Y6436D01*
X-3113Y6460D01*
X-3122Y6481D01*
X-3137Y6500D01*
X-3155Y6514D01*
X-3177Y6523D01*
X-3200Y6526D01*
X-3215Y6524D01*
X-3312Y6621D01*
Y6827D01*
X-3300Y6837D01*
X-3291Y6849D01*
X-2916D01*
X-2907Y6837D01*
X-2888Y6822D01*
X-2867Y6813D01*
X-2843Y6810D01*
X-2820Y6813D01*
X-2799Y6822D01*
X-2780Y6837D01*
X-2766Y6855D01*
X-2757Y6877D01*
X-2754Y6900D01*
X-2757Y6923D01*
X-2766Y6945D01*
X-2780Y6963D01*
X-2799Y6978D01*
X-2820Y6987D01*
X-2843Y6990D01*
D02*
G37*
G36*
X-4900Y6963D02*
X-4933Y6959D01*
X-4963Y6946D01*
X-4989Y6926D01*
X-5010Y6900D01*
X-5022Y6869D01*
X-5026Y6836D01*
X-5022Y6804D01*
X-5010Y6773D01*
X-4989Y6747D01*
X-4963Y6727D01*
X-4933Y6714D01*
X-4900Y6710D01*
X-4867Y6714D01*
X-4837Y6727D01*
X-4811Y6747D01*
X-4790Y6773D01*
X-4778Y6804D01*
X-4774Y6836D01*
X-4778Y6869D01*
X-4790Y6900D01*
X-4811Y6926D01*
X-4837Y6946D01*
X-4867Y6959D01*
X-4900Y6963D01*
D02*
G37*
G36*
X-989Y6785D02*
Y6710D01*
X-914D01*
X-915Y6720D01*
X-924Y6742D01*
X-939Y6761D01*
X-957Y6775D01*
X-979Y6784D01*
X-989Y6785D01*
D02*
G37*
G36*
X-1015D02*
X-1025Y6784D01*
X-1047Y6775D01*
X-1065Y6761D01*
X-1080Y6742D01*
X-1089Y6720D01*
X-1090Y6710D01*
X-1015D01*
Y6785D01*
D02*
G37*
G36*
X-614Y6790D02*
X-637Y6787D01*
X-659Y6778D01*
X-677Y6763D01*
X-691Y6745D01*
X-700Y6723D01*
X-703Y6700D01*
X-700Y6677D01*
X-699Y6673D01*
X-844Y6528D01*
X-853Y6515D01*
X-856Y6499D01*
Y5736D01*
X-853Y5721D01*
X-844Y5707D01*
X-8Y4871D01*
X6Y4862D01*
X21Y4859D01*
X847D01*
X847Y4859D01*
X2016D01*
X2032Y4862D01*
X2045Y4871D01*
X2633Y5459D01*
X4021D01*
X4022Y5455D01*
X4037Y5437D01*
X4055Y5422D01*
X4077Y5413D01*
X4100Y5410D01*
X4123Y5413D01*
X4145Y5422D01*
X4163Y5437D01*
X4178Y5455D01*
X4187Y5477D01*
X4190Y5500D01*
X4187Y5523D01*
X4178Y5545D01*
X4163Y5563D01*
X4145Y5578D01*
X4123Y5587D01*
X4100Y5590D01*
X4077Y5587D01*
X4055Y5578D01*
X4037Y5563D01*
X4022Y5545D01*
X4021Y5541D01*
X2616D01*
X2601Y5538D01*
X2587Y5529D01*
X1999Y4941D01*
X847D01*
X847Y4941D01*
X38D01*
X-774Y5753D01*
Y6482D01*
X-641Y6615D01*
X-637Y6613D01*
X-614Y6610D01*
X-591Y6613D01*
X-569Y6622D01*
X-550Y6637D01*
X-536Y6655D01*
X-527Y6677D01*
X-524Y6700D01*
X-527Y6723D01*
X-536Y6745D01*
X-550Y6763D01*
X-569Y6778D01*
X-591Y6787D01*
X-614Y6790D01*
D02*
G37*
G36*
X-914Y6684D02*
X-989D01*
Y6609D01*
X-979Y6611D01*
X-957Y6620D01*
X-939Y6634D01*
X-924Y6652D01*
X-915Y6674D01*
X-914Y6684D01*
D02*
G37*
G36*
X-1015D02*
X-1090D01*
X-1089Y6674D01*
X-1080Y6652D01*
X-1065Y6634D01*
X-1047Y6620D01*
X-1025Y6611D01*
X-1015Y6609D01*
Y6684D01*
D02*
G37*
G36*
X-800Y7362D02*
X-823Y7359D01*
X-845Y7350D01*
X-863Y7336D01*
X-878Y7317D01*
X-887Y7296D01*
X-890Y7273D01*
X-887Y7249D01*
X-878Y7228D01*
X-863Y7209D01*
X-845Y7195D01*
X-823Y7186D01*
X-800Y7183D01*
X-777Y7186D01*
X-755Y7195D01*
X-737Y7209D01*
X-722Y7228D01*
X-721Y7231D01*
X251D01*
X315Y7167D01*
X313Y7164D01*
X310Y7140D01*
X313Y7117D01*
X322Y7096D01*
X337Y7077D01*
X355Y7063D01*
X377Y7054D01*
X400Y7051D01*
X423Y7054D01*
X427Y7055D01*
X459Y7023D01*
Y6507D01*
X462Y6491D01*
X471Y6477D01*
X485Y6463D01*
X483Y6460D01*
X480Y6436D01*
X483Y6413D01*
X492Y6392D01*
X507Y6373D01*
X525Y6359D01*
X547Y6350D01*
X570Y6347D01*
X593Y6350D01*
X615Y6359D01*
X633Y6373D01*
X648Y6392D01*
X657Y6413D01*
X660Y6436D01*
X657Y6460D01*
X648Y6481D01*
X633Y6500D01*
X615Y6514D01*
X593Y6523D01*
X570Y6526D01*
X554Y6524D01*
X542Y6533D01*
X541Y6535D01*
Y7040D01*
X538Y7056D01*
X529Y7070D01*
X485Y7114D01*
X487Y7117D01*
X490Y7140D01*
X487Y7164D01*
X478Y7185D01*
X463Y7204D01*
X445Y7218D01*
X423Y7227D01*
X400Y7230D01*
X377Y7227D01*
X373Y7226D01*
X297Y7302D01*
X284Y7311D01*
X268Y7314D01*
X-721D01*
X-722Y7317D01*
X-737Y7336D01*
X-755Y7350D01*
X-777Y7359D01*
X-800Y7362D01*
D02*
G37*
G36*
X-4887Y6351D02*
Y6239D01*
X-4775D01*
X-4778Y6259D01*
X-4790Y6290D01*
X-4811Y6316D01*
X-4837Y6336D01*
X-4867Y6348D01*
X-4887Y6351D01*
D02*
G37*
G36*
X-4913D02*
X-4933Y6348D01*
X-4963Y6336D01*
X-4989Y6316D01*
X-5010Y6290D01*
X-5022Y6259D01*
X-5025Y6239D01*
X-4913D01*
Y6351D01*
D02*
G37*
G36*
X-4775Y6214D02*
X-4887D01*
Y6101D01*
X-4867Y6104D01*
X-4837Y6117D01*
X-4811Y6137D01*
X-4790Y6163D01*
X-4778Y6194D01*
X-4775Y6214D01*
D02*
G37*
G36*
X-4913D02*
X-5025D01*
X-5022Y6194D01*
X-5010Y6163D01*
X-4989Y6137D01*
X-4963Y6117D01*
X-4933Y6104D01*
X-4913Y6101D01*
Y6214D01*
D02*
G37*
G36*
X-600Y6338D02*
X-623Y6335D01*
X-645Y6326D01*
X-663Y6312D01*
X-678Y6293D01*
X-687Y6272D01*
X-690Y6249D01*
X-687Y6225D01*
X-678Y6204D01*
X-663Y6185D01*
X-645Y6171D01*
X-641Y6169D01*
Y5823D01*
X-638Y5807D01*
X-629Y5794D01*
X-509Y5673D01*
X-495Y5664D01*
X-480Y5661D01*
X1065D01*
X1080Y5664D01*
X1094Y5673D01*
X1479Y6059D01*
X3921D01*
X3922Y6055D01*
X3937Y6037D01*
X3955Y6022D01*
X3977Y6013D01*
X4000Y6010D01*
X4023Y6013D01*
X4045Y6022D01*
X4063Y6037D01*
X4078Y6055D01*
X4087Y6077D01*
X4090Y6100D01*
X4087Y6123D01*
X4078Y6145D01*
X4063Y6163D01*
X4045Y6178D01*
X4023Y6187D01*
X4000Y6190D01*
X3977Y6187D01*
X3955Y6178D01*
X3937Y6163D01*
X3922Y6145D01*
X3921Y6141D01*
X1462D01*
X1446Y6138D01*
X1433Y6129D01*
X1047Y5744D01*
X-462D01*
X-559Y5840D01*
Y6169D01*
X-555Y6171D01*
X-537Y6185D01*
X-522Y6204D01*
X-513Y6225D01*
X-510Y6249D01*
X-513Y6272D01*
X-522Y6293D01*
X-537Y6312D01*
X-555Y6326D01*
X-577Y6335D01*
X-600Y6338D01*
D02*
G37*
G36*
X4895Y6226D02*
X4862Y6222D01*
X4832Y6210D01*
X4806Y6189D01*
X4785Y6163D01*
X4773Y6133D01*
X4769Y6100D01*
X4773Y6067D01*
X4785Y6037D01*
X4806Y6011D01*
X4832Y5990D01*
X4862Y5978D01*
X4895Y5974D01*
X4928Y5978D01*
X4958Y5990D01*
X4984Y6011D01*
X5005Y6037D01*
X5017Y6067D01*
X5021Y6100D01*
X5017Y6133D01*
X5005Y6163D01*
X4984Y6189D01*
X4958Y6210D01*
X4928Y6222D01*
X4895Y6226D01*
D02*
G37*
G36*
X1539Y8390D02*
X1516Y8387D01*
X1494Y8378D01*
X1476Y8363D01*
X1461Y8345D01*
X1452Y8323D01*
X1449Y8300D01*
X1452Y8277D01*
X1461Y8255D01*
X1476Y8237D01*
X1494Y8222D01*
X1498Y8221D01*
Y6831D01*
X608Y5941D01*
X49D01*
X-4Y5994D01*
Y6103D01*
X-0Y6105D01*
X18Y6119D01*
X33Y6138D01*
X42Y6159D01*
X45Y6183D01*
X42Y6206D01*
X33Y6227D01*
X18Y6246D01*
X-0Y6260D01*
X-22Y6269D01*
X-45Y6272D01*
X-68Y6269D01*
X-90Y6260D01*
X-108Y6246D01*
X-123Y6227D01*
X-132Y6206D01*
X-135Y6183D01*
X-132Y6159D01*
X-123Y6138D01*
X-108Y6119D01*
X-90Y6105D01*
X-86Y6103D01*
Y5977D01*
X-83Y5961D01*
X-74Y5948D01*
X3Y5871D01*
X16Y5862D01*
X32Y5859D01*
X626D01*
X641Y5862D01*
X655Y5871D01*
X1568Y6784D01*
X1577Y6798D01*
X1580Y6814D01*
Y8221D01*
X1584Y8222D01*
X1602Y8237D01*
X1617Y8255D01*
X1626Y8277D01*
X1629Y8300D01*
X1626Y8323D01*
X1617Y8345D01*
X1602Y8363D01*
X1584Y8378D01*
X1562Y8387D01*
X1539Y8390D01*
D02*
G37*
G36*
X-4900Y5829D02*
X-4933Y5825D01*
X-4963Y5812D01*
X-4989Y5792D01*
X-5010Y5766D01*
X-5022Y5735D01*
X-5026Y5703D01*
X-5022Y5670D01*
X-5010Y5639D01*
X-4989Y5613D01*
X-4963Y5593D01*
X-4933Y5580D01*
X-4900Y5576D01*
X-4867Y5580D01*
X-4837Y5593D01*
X-4811Y5613D01*
X-4790Y5639D01*
X-4778Y5670D01*
X-4774Y5703D01*
X-4778Y5735D01*
X-4790Y5766D01*
X-4811Y5792D01*
X-4837Y5812D01*
X-4867Y5825D01*
X-4900Y5829D01*
D02*
G37*
G36*
X4895Y5626D02*
X4862Y5622D01*
X4832Y5610D01*
X4806Y5589D01*
X4785Y5563D01*
X4773Y5533D01*
X4769Y5500D01*
X4773Y5467D01*
X4785Y5437D01*
X4806Y5411D01*
X4832Y5390D01*
X4862Y5378D01*
X4895Y5374D01*
X4928Y5378D01*
X4958Y5390D01*
X4984Y5411D01*
X5005Y5437D01*
X5017Y5467D01*
X5021Y5500D01*
X5017Y5533D01*
X5005Y5563D01*
X4984Y5589D01*
X4958Y5610D01*
X4928Y5622D01*
X4895Y5626D01*
D02*
G37*
G36*
X1750Y5877D02*
X1691Y5872D01*
X1634Y5858D01*
X1579Y5836D01*
X1529Y5805D01*
X1484Y5766D01*
X1445Y5721D01*
X1414Y5671D01*
X1392Y5616D01*
X1378Y5559D01*
X1373Y5500D01*
X1378Y5441D01*
X1392Y5384D01*
X1414Y5329D01*
X1445Y5279D01*
X1484Y5234D01*
X1529Y5195D01*
X1579Y5164D01*
X1634Y5142D01*
X1691Y5128D01*
X1750Y5123D01*
X1809Y5128D01*
X1866Y5142D01*
X1921Y5164D01*
X1971Y5195D01*
X2016Y5234D01*
X2055Y5279D01*
X2086Y5329D01*
X2108Y5384D01*
X2122Y5441D01*
X2127Y5500D01*
X2122Y5559D01*
X2108Y5616D01*
X2086Y5671D01*
X2055Y5721D01*
X2016Y5766D01*
X1971Y5805D01*
X1921Y5836D01*
X1866Y5858D01*
X1809Y5872D01*
X1750Y5877D01*
D02*
G37*
G36*
X-1750D02*
X-1809Y5872D01*
X-1866Y5858D01*
X-1921Y5836D01*
X-1971Y5805D01*
X-2016Y5766D01*
X-2055Y5721D01*
X-2086Y5671D01*
X-2108Y5616D01*
X-2122Y5559D01*
X-2127Y5500D01*
X-2122Y5441D01*
X-2108Y5384D01*
X-2086Y5329D01*
X-2055Y5279D01*
X-2016Y5234D01*
X-1971Y5195D01*
X-1921Y5164D01*
X-1866Y5142D01*
X-1809Y5128D01*
X-1750Y5123D01*
X-1691Y5128D01*
X-1634Y5142D01*
X-1579Y5164D01*
X-1529Y5195D01*
X-1484Y5234D01*
X-1445Y5279D01*
X-1414Y5329D01*
X-1392Y5384D01*
X-1378Y5441D01*
X-1373Y5500D01*
X-1378Y5559D01*
X-1392Y5616D01*
X-1414Y5671D01*
X-1445Y5721D01*
X-1484Y5766D01*
X-1529Y5805D01*
X-1579Y5836D01*
X-1634Y5858D01*
X-1691Y5872D01*
X-1750Y5877D01*
D02*
G37*
G36*
X4895Y5026D02*
X4862Y5022D01*
X4832Y5010D01*
X4806Y4989D01*
X4785Y4963D01*
X4773Y4933D01*
X4769Y4900D01*
X4773Y4867D01*
X4785Y4837D01*
X4806Y4811D01*
X4832Y4790D01*
X4862Y4778D01*
X4895Y4774D01*
X4928Y4778D01*
X4958Y4790D01*
X4984Y4811D01*
X5005Y4837D01*
X5017Y4867D01*
X5021Y4900D01*
X5017Y4933D01*
X5005Y4963D01*
X4984Y4989D01*
X4958Y5010D01*
X4928Y5022D01*
X4895Y5026D01*
D02*
G37*
G36*
X1013Y4588D02*
Y4513D01*
X1088D01*
X1087Y4523D01*
X1078Y4545D01*
X1063Y4563D01*
X1045Y4578D01*
X1023Y4587D01*
X1013Y4588D01*
D02*
G37*
G36*
X987D02*
X977Y4587D01*
X955Y4578D01*
X937Y4563D01*
X922Y4545D01*
X913Y4523D01*
X912Y4513D01*
X987D01*
Y4588D01*
D02*
G37*
G36*
X-1487D02*
Y4513D01*
X-1412D01*
X-1413Y4523D01*
X-1422Y4545D01*
X-1437Y4563D01*
X-1455Y4578D01*
X-1477Y4587D01*
X-1487Y4588D01*
D02*
G37*
G36*
X-1513D02*
X-1523Y4587D01*
X-1545Y4578D01*
X-1563Y4563D01*
X-1578Y4545D01*
X-1587Y4523D01*
X-1588Y4513D01*
X-1513D01*
Y4588D01*
D02*
G37*
G36*
X-4987D02*
Y4513D01*
X-4912D01*
X-4913Y4523D01*
X-4922Y4545D01*
X-4937Y4563D01*
X-4955Y4578D01*
X-4977Y4587D01*
X-4987Y4588D01*
D02*
G37*
G36*
X-5013D02*
X-5023Y4587D01*
X-5045Y4578D01*
X-5063Y4563D01*
X-5078Y4545D01*
X-5087Y4523D01*
X-5088Y4513D01*
X-5013D01*
Y4588D01*
D02*
G37*
G36*
X1088Y4487D02*
X1013D01*
Y4412D01*
X1023Y4413D01*
X1045Y4422D01*
X1063Y4437D01*
X1078Y4455D01*
X1087Y4477D01*
X1088Y4487D01*
D02*
G37*
G36*
X987D02*
X912D01*
X913Y4477D01*
X922Y4455D01*
X937Y4437D01*
X955Y4422D01*
X977Y4413D01*
X987Y4412D01*
Y4487D01*
D02*
G37*
G36*
X-1412D02*
X-1487D01*
Y4412D01*
X-1477Y4413D01*
X-1455Y4422D01*
X-1437Y4437D01*
X-1422Y4455D01*
X-1413Y4477D01*
X-1412Y4487D01*
D02*
G37*
G36*
X-1513D02*
X-1588D01*
X-1587Y4477D01*
X-1578Y4455D01*
X-1563Y4437D01*
X-1545Y4422D01*
X-1523Y4413D01*
X-1513Y4412D01*
Y4487D01*
D02*
G37*
G36*
X-4912D02*
X-4987D01*
Y4412D01*
X-4977Y4413D01*
X-4955Y4422D01*
X-4937Y4437D01*
X-4922Y4455D01*
X-4913Y4477D01*
X-4912Y4487D01*
D02*
G37*
G36*
X-5013D02*
X-5088D01*
X-5087Y4477D01*
X-5078Y4455D01*
X-5063Y4437D01*
X-5045Y4422D01*
X-5023Y4413D01*
X-5013Y4412D01*
Y4487D01*
D02*
G37*
G36*
X4890Y4426D02*
X4857Y4422D01*
X4827Y4410D01*
X4801Y4389D01*
X4780Y4363D01*
X4768Y4333D01*
X4764Y4300D01*
X4768Y4267D01*
X4780Y4237D01*
X4801Y4211D01*
X4827Y4190D01*
X4857Y4178D01*
X4890Y4174D01*
X4923Y4178D01*
X4953Y4190D01*
X4979Y4211D01*
X5000Y4237D01*
X5012Y4267D01*
X5016Y4300D01*
X5012Y4333D01*
X5000Y4363D01*
X4979Y4389D01*
X4953Y4410D01*
X4923Y4422D01*
X4890Y4426D01*
D02*
G37*
G36*
Y3826D02*
X4857Y3822D01*
X4827Y3810D01*
X4801Y3789D01*
X4780Y3763D01*
X4768Y3733D01*
X4764Y3700D01*
X4768Y3667D01*
X4780Y3637D01*
X4801Y3611D01*
X4827Y3590D01*
X4857Y3578D01*
X4890Y3574D01*
X4923Y3578D01*
X4953Y3590D01*
X4979Y3611D01*
X5000Y3637D01*
X5012Y3667D01*
X5016Y3700D01*
X5012Y3733D01*
X5000Y3763D01*
X4979Y3789D01*
X4953Y3810D01*
X4923Y3822D01*
X4890Y3826D01*
D02*
G37*
G36*
X-4900Y3413D02*
X-4933Y3409D01*
X-4963Y3396D01*
X-4989Y3376D01*
X-5010Y3350D01*
X-5022Y3319D01*
X-5026Y3287D01*
X-5022Y3254D01*
X-5010Y3223D01*
X-4989Y3197D01*
X-4963Y3177D01*
X-4933Y3164D01*
X-4900Y3160D01*
X-4867Y3164D01*
X-4837Y3177D01*
X-4811Y3197D01*
X-4790Y3223D01*
X-4778Y3254D01*
X-4774Y3287D01*
X-4778Y3319D01*
X-4790Y3350D01*
X-4811Y3376D01*
X-4837Y3396D01*
X-4867Y3409D01*
X-4900Y3413D01*
D02*
G37*
G36*
X4890Y3224D02*
X4857Y3220D01*
X4827Y3207D01*
X4801Y3187D01*
X4780Y3161D01*
X4768Y3130D01*
X4764Y3098D01*
X4768Y3065D01*
X4780Y3034D01*
X4801Y3008D01*
X4827Y2988D01*
X4857Y2975D01*
X4890Y2971D01*
X4923Y2975D01*
X4953Y2988D01*
X4979Y3008D01*
X5000Y3034D01*
X5012Y3065D01*
X5016Y3098D01*
X5012Y3130D01*
X5000Y3161D01*
X4979Y3187D01*
X4953Y3207D01*
X4923Y3220D01*
X4890Y3224D01*
D02*
G37*
G36*
X1013Y2588D02*
Y2513D01*
X1088D01*
X1087Y2523D01*
X1078Y2545D01*
X1063Y2563D01*
X1045Y2578D01*
X1023Y2587D01*
X1013Y2588D01*
D02*
G37*
G36*
X987D02*
X977Y2587D01*
X955Y2578D01*
X937Y2563D01*
X922Y2545D01*
X913Y2523D01*
X912Y2513D01*
X987D01*
Y2588D01*
D02*
G37*
G36*
X-1487D02*
Y2513D01*
X-1412D01*
X-1413Y2523D01*
X-1422Y2545D01*
X-1437Y2563D01*
X-1455Y2578D01*
X-1477Y2587D01*
X-1487Y2588D01*
D02*
G37*
G36*
X-1513D02*
X-1523Y2587D01*
X-1545Y2578D01*
X-1563Y2563D01*
X-1578Y2545D01*
X-1587Y2523D01*
X-1588Y2513D01*
X-1513D01*
Y2588D01*
D02*
G37*
G36*
X4908Y2606D02*
Y2494D01*
X5020D01*
X5017Y2514D01*
X5005Y2544D01*
X4984Y2570D01*
X4958Y2591D01*
X4928Y2603D01*
X4908Y2606D01*
D02*
G37*
G36*
X4882D02*
X4862Y2603D01*
X4832Y2591D01*
X4806Y2570D01*
X4785Y2544D01*
X4773Y2514D01*
X4770Y2494D01*
X4882D01*
Y2606D01*
D02*
G37*
G36*
X1088Y2487D02*
X1013D01*
Y2412D01*
X1023Y2413D01*
X1045Y2422D01*
X1063Y2437D01*
X1078Y2455D01*
X1087Y2477D01*
X1088Y2487D01*
D02*
G37*
G36*
X987D02*
X912D01*
X913Y2477D01*
X922Y2455D01*
X937Y2437D01*
X955Y2422D01*
X977Y2413D01*
X987Y2412D01*
Y2487D01*
D02*
G37*
G36*
X-1412D02*
X-1487D01*
Y2412D01*
X-1477Y2413D01*
X-1455Y2422D01*
X-1437Y2437D01*
X-1422Y2455D01*
X-1413Y2477D01*
X-1412Y2487D01*
D02*
G37*
G36*
X-1513D02*
X-1588D01*
X-1587Y2477D01*
X-1578Y2455D01*
X-1563Y2437D01*
X-1545Y2422D01*
X-1523Y2413D01*
X-1513Y2412D01*
Y2487D01*
D02*
G37*
G36*
X5020Y2468D02*
X4908D01*
Y2356D01*
X4928Y2359D01*
X4958Y2371D01*
X4984Y2392D01*
X5005Y2418D01*
X5017Y2448D01*
X5020Y2468D01*
D02*
G37*
G36*
X4882D02*
X4770D01*
X4773Y2448D01*
X4785Y2418D01*
X4806Y2392D01*
X4832Y2371D01*
X4862Y2359D01*
X4882Y2356D01*
Y2468D01*
D02*
G37*
G36*
X-4887Y1622D02*
Y1510D01*
X-4775D01*
X-4778Y1530D01*
X-4790Y1561D01*
X-4811Y1587D01*
X-4837Y1607D01*
X-4867Y1620D01*
X-4887Y1622D01*
D02*
G37*
G36*
X-4913D02*
X-4933Y1620D01*
X-4963Y1607D01*
X-4989Y1587D01*
X-5010Y1561D01*
X-5022Y1530D01*
X-5025Y1510D01*
X-4913D01*
Y1622D01*
D02*
G37*
G36*
X-4775Y1485D02*
X-4887D01*
Y1373D01*
X-4867Y1375D01*
X-4837Y1388D01*
X-4811Y1408D01*
X-4790Y1434D01*
X-4778Y1465D01*
X-4775Y1485D01*
D02*
G37*
G36*
X-4913D02*
X-5025D01*
X-5022Y1465D01*
X-5010Y1434D01*
X-4989Y1408D01*
X-4963Y1388D01*
X-4933Y1375D01*
X-4913Y1373D01*
Y1485D01*
D02*
G37*
G36*
X3663Y1246D02*
Y883D01*
X4026D01*
X4022Y929D01*
X4008Y986D01*
X3986Y1041D01*
X3955Y1091D01*
X3916Y1136D01*
X3871Y1175D01*
X3821Y1206D01*
X3766Y1228D01*
X3709Y1242D01*
X3663Y1246D01*
D02*
G37*
G36*
X3637D02*
X3591Y1242D01*
X3534Y1228D01*
X3479Y1206D01*
X3429Y1175D01*
X3384Y1136D01*
X3345Y1091D01*
X3314Y1041D01*
X3292Y986D01*
X3278Y929D01*
X3274Y883D01*
X3637D01*
Y1246D01*
D02*
G37*
G36*
X5013Y588D02*
Y513D01*
X5088D01*
X5087Y523D01*
X5078Y545D01*
X5063Y563D01*
X5045Y578D01*
X5023Y587D01*
X5013Y588D01*
D02*
G37*
G36*
X4987D02*
X4977Y587D01*
X4955Y578D01*
X4937Y563D01*
X4922Y545D01*
X4913Y523D01*
X4912Y513D01*
X4987D01*
Y588D01*
D02*
G37*
G36*
X-4987D02*
Y513D01*
X-4912D01*
X-4913Y523D01*
X-4922Y545D01*
X-4937Y563D01*
X-4955Y578D01*
X-4977Y587D01*
X-4987Y588D01*
D02*
G37*
G36*
X-5013D02*
X-5023Y587D01*
X-5045Y578D01*
X-5063Y563D01*
X-5078Y545D01*
X-5087Y523D01*
X-5088Y513D01*
X-5013D01*
Y588D01*
D02*
G37*
G36*
X4026Y857D02*
X3663D01*
Y494D01*
X3709Y498D01*
X3766Y512D01*
X3821Y534D01*
X3871Y565D01*
X3916Y604D01*
X3955Y649D01*
X3986Y699D01*
X4008Y754D01*
X4022Y811D01*
X4026Y857D01*
D02*
G37*
G36*
X3637D02*
X3274D01*
X3278Y811D01*
X3292Y754D01*
X3314Y699D01*
X3345Y649D01*
X3384Y604D01*
X3429Y565D01*
X3479Y534D01*
X3534Y512D01*
X3591Y498D01*
X3637Y494D01*
Y857D01*
D02*
G37*
G36*
X-3650Y1247D02*
X-3709Y1242D01*
X-3766Y1228D01*
X-3821Y1206D01*
X-3871Y1175D01*
X-3916Y1136D01*
X-3955Y1091D01*
X-3986Y1041D01*
X-4008Y986D01*
X-4022Y929D01*
X-4027Y870D01*
X-4022Y811D01*
X-4008Y754D01*
X-3986Y699D01*
X-3955Y649D01*
X-3916Y604D01*
X-3871Y565D01*
X-3821Y534D01*
X-3766Y512D01*
X-3709Y498D01*
X-3650Y493D01*
X-3591Y498D01*
X-3534Y512D01*
X-3479Y534D01*
X-3429Y565D01*
X-3384Y604D01*
X-3345Y649D01*
X-3314Y699D01*
X-3292Y754D01*
X-3278Y811D01*
X-3273Y870D01*
X-3278Y929D01*
X-3292Y986D01*
X-3314Y1041D01*
X-3345Y1091D01*
X-3384Y1136D01*
X-3429Y1175D01*
X-3479Y1206D01*
X-3534Y1228D01*
X-3591Y1242D01*
X-3650Y1247D01*
D02*
G37*
G36*
X5088Y487D02*
X5013D01*
Y412D01*
X5023Y413D01*
X5045Y422D01*
X5063Y437D01*
X5078Y455D01*
X5087Y477D01*
X5088Y487D01*
D02*
G37*
G36*
X4987D02*
X4912D01*
X4913Y477D01*
X4922Y455D01*
X4937Y437D01*
X4955Y422D01*
X4977Y413D01*
X4987Y412D01*
Y487D01*
D02*
G37*
G36*
X-4912D02*
X-4987D01*
Y412D01*
X-4977Y413D01*
X-4955Y422D01*
X-4937Y437D01*
X-4922Y455D01*
X-4913Y477D01*
X-4912Y487D01*
D02*
G37*
G36*
X-5013D02*
X-5088D01*
X-5087Y477D01*
X-5078Y455D01*
X-5063Y437D01*
X-5045Y422D01*
X-5023Y413D01*
X-5013Y412D01*
Y487D01*
D02*
G37*
%LPD*%
D32*
X400Y7140D02*
X400D01*
X500Y7040D01*
Y6507D02*
Y7040D01*
Y6507D02*
X570Y6436D01*
X268Y7273D02*
X400Y7140D01*
X-800Y7273D02*
X268D01*
X-815Y6499D02*
X-614Y6700D01*
X-815Y5736D02*
Y6499D01*
Y5736D02*
X21Y4900D01*
X2055Y9200D02*
X2370D01*
X1955Y9100D02*
X2055Y9200D01*
X-314Y9100D02*
X1955D01*
X-614Y9400D02*
X-314Y9100D01*
X1124Y6593D02*
Y8297D01*
X586Y6056D02*
X1124Y6593D01*
X1539Y6814D02*
Y8300D01*
X626Y5900D02*
X1539Y6814D01*
X32Y5900D02*
X626D01*
X-45Y5977D02*
X32Y5900D01*
X-45Y5977D02*
Y6183D01*
X431Y6056D02*
X586D01*
X1065Y5703D02*
X1462Y6100D01*
X4000D01*
X-480Y5703D02*
X1065D01*
X-600Y5823D02*
X-480Y5703D01*
X-600Y5823D02*
Y6249D01*
X21Y4900D02*
X847D01*
X847Y4900D01*
X2016D01*
X2616Y5500D01*
X4100D01*
X-906Y7500D02*
X-903Y7497D01*
X-359D01*
X-357Y7494D01*
X-3500Y7000D02*
Y8900D01*
X-3600Y6900D02*
X-3500Y7000D01*
X-3700Y7510D02*
Y8257D01*
X-3300Y8003D02*
Y8432D01*
X-2900Y8700D02*
X-2700Y8900D01*
X-2900Y7510D02*
Y8700D01*
X-3200Y7510D02*
X-3100Y7610D01*
Y8900D01*
D33*
X-3363Y6900D02*
X-2844D01*
X-2843Y6900D01*
X-3363Y6900D02*
X-3363Y6900D01*
X-3363Y6600D02*
X-3200Y6436D01*
X-3363Y6600D02*
Y6900D01*
D34*
X4895Y2481D02*
D03*
X-4900Y9997D02*
D03*
X4890Y3098D02*
D03*
Y3700D02*
D03*
Y4300D02*
D03*
X4895Y4900D02*
D03*
Y5500D02*
D03*
Y6100D02*
D03*
X-4900Y8600D02*
D03*
Y8003D02*
D03*
Y7400D02*
D03*
Y6836D02*
D03*
Y6226D02*
D03*
Y5703D02*
D03*
X4900Y7297D02*
D03*
Y7797D02*
D03*
Y8297D02*
D03*
Y8797D02*
D03*
Y9297D02*
D03*
Y9797D02*
D03*
X-4900Y1498D02*
D03*
Y3287D02*
D03*
D35*
X3190Y10823D02*
D03*
X-3161D02*
D03*
D36*
X-2200Y10396D02*
D03*
X-2477D02*
D03*
X-1923D02*
D03*
X-1646D02*
D03*
X-1369D02*
D03*
X-1092D02*
D03*
X-815D02*
D03*
X-538D02*
D03*
X-261D02*
D03*
X16D02*
D03*
X293D02*
D03*
X570D02*
D03*
X847D02*
D03*
X1124D02*
D03*
X1401D02*
D03*
X1678D02*
D03*
X1955D02*
D03*
X2232D02*
D03*
X2509D02*
D03*
X-2339Y10650D02*
D03*
X-2062D02*
D03*
X-1785D02*
D03*
X-1508D02*
D03*
X-1231D02*
D03*
X-954D02*
D03*
X-677D02*
D03*
X-400D02*
D03*
X-123D02*
D03*
X154D02*
D03*
X431D02*
D03*
X708D02*
D03*
X985D02*
D03*
X1262D02*
D03*
X1539D02*
D03*
X1816D02*
D03*
X2093D02*
D03*
X2370D02*
D03*
D37*
X3650Y870D02*
D03*
X-3650D02*
D03*
X1750Y9650D02*
D03*
X-1750D02*
D03*
Y5500D02*
D03*
X1750D02*
D03*
D38*
X-3500Y8900D02*
D03*
X-2700D02*
D03*
X1000Y7500D02*
D03*
X-1500D02*
D03*
Y2500D02*
D03*
X1000D02*
D03*
Y4500D02*
D03*
X-1500D02*
D03*
X-5000D02*
D03*
Y500D02*
D03*
X5000D02*
D03*
Y10500D02*
D03*
X-5000D02*
D03*
X-1002Y6697D02*
D03*
X400Y7140D02*
D03*
X2700Y7144D02*
D03*
X570Y6436D02*
D03*
X-800Y7273D02*
D03*
X431Y6056D02*
D03*
X1124Y8297D02*
D03*
X1539Y8300D02*
D03*
X-45Y6183D02*
D03*
X-614Y6700D02*
D03*
X4100Y5500D02*
D03*
X4000Y6100D02*
D03*
X-2477Y7224D02*
D03*
X-2843Y6900D02*
D03*
X-3200Y6436D02*
D03*
X-600Y6249D02*
D03*
X-906Y7500D02*
D03*
X-357Y7494D02*
D03*
X2370Y9200D02*
D03*
X-614Y9400D02*
D03*
X-3363Y6900D02*
D03*
X-3600D02*
D03*
X-3700Y7510D02*
D03*
X-3300Y8003D02*
D03*
Y8432D02*
D03*
X-2900Y7510D02*
D03*
X-3200D02*
D03*
X-3100Y8900D02*
D03*
X-3700Y8257D02*
D03*
M02*
