G04*
G04 #@! TF.GenerationSoftware,Altium Limited,Altium Designer,19.0.9 (268)*
G04*
G04 Layer_Color=16711935*
%FSLAX25Y25*%
%MOIN*%
G70*
G01*
G75*
%ADD20C,0.08674*%
%ADD21C,0.20485*%
%ADD22C,0.09068*%
%ADD23C,0.28359*%
%ADD24C,0.05800*%
D20*
X192717Y97677D02*
D03*
X-192913Y393602D02*
D03*
X192520Y121949D02*
D03*
Y145669D02*
D03*
Y169291D02*
D03*
X192717Y192913D02*
D03*
Y216535D02*
D03*
Y240158D02*
D03*
X-192913Y338583D02*
D03*
Y315059D02*
D03*
Y291339D02*
D03*
Y269153D02*
D03*
Y245130D02*
D03*
Y224508D02*
D03*
X192913Y287303D02*
D03*
Y306988D02*
D03*
Y326673D02*
D03*
Y346358D02*
D03*
Y366043D02*
D03*
Y385728D02*
D03*
X-192864Y85728D02*
D03*
X-192913Y129390D02*
D03*
D21*
X-124449Y426102D02*
D03*
X125591D02*
D03*
D22*
X93307Y419291D02*
D03*
X82402D02*
D03*
X71496D02*
D03*
X60591D02*
D03*
X49685D02*
D03*
X38780D02*
D03*
X27874D02*
D03*
X16969D02*
D03*
X6063D02*
D03*
X-4843D02*
D03*
X-15748D02*
D03*
X-26654D02*
D03*
X-37559D02*
D03*
X-48465D02*
D03*
X-59370D02*
D03*
X-70276D02*
D03*
X-81181D02*
D03*
X-92087D02*
D03*
X98779Y409291D02*
D03*
X87874D02*
D03*
X76968D02*
D03*
X66063D02*
D03*
X55158D02*
D03*
X44252D02*
D03*
X33347D02*
D03*
X22441D02*
D03*
X11535D02*
D03*
X630D02*
D03*
X-10276D02*
D03*
X-21181D02*
D03*
X-32087D02*
D03*
X-42992D02*
D03*
X-53898D02*
D03*
X-64803D02*
D03*
X-75709D02*
D03*
X-97520D02*
D03*
X-86614D02*
D03*
D23*
X143701Y34252D02*
D03*
X-143701D02*
D03*
X68898Y379921D02*
D03*
X-68898D02*
D03*
Y216535D02*
D03*
X68898D02*
D03*
D24*
X-157571Y221518D02*
D03*
X-192333Y177165D02*
D03*
X8000Y59055D02*
D03*
X3622Y214216D02*
D03*
X56063Y300135D02*
D03*
X-70276Y307086D02*
D03*
X-184630Y418412D02*
D03*
X187008Y413386D02*
D03*
X-88583Y149190D02*
D03*
X103003D02*
D03*
X-13354Y231361D02*
D03*
X-1772Y243406D02*
D03*
X-4843Y257197D02*
D03*
X28543Y269153D02*
D03*
X28179Y291160D02*
D03*
X-143173Y256936D02*
D03*
X-145669Y292422D02*
D03*
X-119193Y292143D02*
D03*
X-105945Y300135D02*
D03*
X-108110Y348032D02*
D03*
X-121654Y342519D02*
D03*
X-137402Y293511D02*
D03*
X-137324Y348071D02*
D03*
X-39449Y263669D02*
D03*
X15748Y281120D02*
D03*
X22441Y253405D02*
D03*
X-31496Y286321D02*
D03*
X16969Y238405D02*
D03*
X44252Y326673D02*
D03*
X60591Y326772D02*
D03*
X-24163Y263779D02*
D03*
X161417Y216535D02*
D03*
X157480Y240158D02*
D03*
X-97520Y284411D02*
D03*
X-111949Y271654D02*
D03*
X-125984Y253405D02*
D03*
X-23622Y246004D02*
D03*
X-35669Y295276D02*
D03*
X-14043Y295059D02*
D03*
X93307Y362205D02*
D03*
X-24163Y370079D02*
D03*
X-132421Y271654D02*
D03*
X-145669Y325059D02*
D03*
M02*
