G04*
G04 #@! TF.GenerationSoftware,Altium Limited,Altium Designer,19.0.9 (268)*
G04*
G04 Layer_Color=12632256*
%FSLAX42Y42*%
%MOMM*%
G71*
G01*
G75*
%ADD34C,2.00*%
%ADD35C,5.00*%
%ADD36C,2.10*%
%ADD37C,7.00*%
D34*
X4895Y2481D02*
D03*
X-4900Y9997D02*
D03*
X4890Y3098D02*
D03*
Y3700D02*
D03*
Y4300D02*
D03*
X4895Y4900D02*
D03*
Y5500D02*
D03*
Y6100D02*
D03*
X-4900Y8600D02*
D03*
Y8003D02*
D03*
Y7400D02*
D03*
Y6836D02*
D03*
Y6226D02*
D03*
Y5703D02*
D03*
X4900Y7297D02*
D03*
Y7797D02*
D03*
Y8297D02*
D03*
Y8797D02*
D03*
Y9297D02*
D03*
Y9797D02*
D03*
X-4900Y1498D02*
D03*
Y3287D02*
D03*
D35*
X3190Y10823D02*
D03*
X-3161D02*
D03*
D36*
X-2200Y10396D02*
D03*
X-2477D02*
D03*
X-1923D02*
D03*
X-1646D02*
D03*
X-1369D02*
D03*
X-1092D02*
D03*
X-815D02*
D03*
X-538D02*
D03*
X-261D02*
D03*
X16D02*
D03*
X293D02*
D03*
X570D02*
D03*
X847D02*
D03*
X1124D02*
D03*
X1401D02*
D03*
X1678D02*
D03*
X1955D02*
D03*
X2232D02*
D03*
X2509D02*
D03*
X-2339Y10650D02*
D03*
X-2062D02*
D03*
X-1785D02*
D03*
X-1508D02*
D03*
X-1231D02*
D03*
X-954D02*
D03*
X-677D02*
D03*
X-400D02*
D03*
X-123D02*
D03*
X154D02*
D03*
X431D02*
D03*
X708D02*
D03*
X985D02*
D03*
X1262D02*
D03*
X1539D02*
D03*
X1816D02*
D03*
X2093D02*
D03*
X2370D02*
D03*
D37*
X3650Y870D02*
D03*
X-3650D02*
D03*
X1750Y9650D02*
D03*
X-1750D02*
D03*
Y5500D02*
D03*
X1750D02*
D03*
M02*
